<?xml version="1.0" encoding="UTF-8"?>
<svg width="239px" height="477px" viewBox="0 0 239 477" version="1.1" xmlns="http://www.w3.org/2000/svg" xmlns:xlink="http://www.w3.org/1999/xlink">
    <!-- Generator: Sketch 52.5 (67469) - http://www.bohemiancoding.com/sketch -->
    <title>Artboard Copy 26</title>
    <desc>Created with Sketch.</desc>
    <defs>
        <path d="M181.434564,14.3232654 C179.300033,14.3232654 177.569661,16.0554994 177.569661,18.1923268 L177.569661,14.3232654 L181.434564,14.3232654 Z M61.6225675,18.1923268 C61.6225675,16.0554994 59.8921951,14.3232654 57.7576644,14.3232654 L61.6225675,14.3232654 L61.6225675,18.1923268 Z M61.6225675,14.3232654 L38.4331488,14.3232654 C25.9312914,14.3232654 15.7958591,24.4690498 15.7958591,36.9849108 L15.7958591,440.472744 C15.7958591,452.988605 25.9312914,463.134389 38.4331488,463.134389 L200.206951,463.134389 C212.70936,463.134389 222.84424,452.988605 222.84424,440.472744 L222.84424,36.9849108 C222.84424,24.4690498 212.70936,14.3232654 200.206951,14.3232654 L177.569661,14.3232654 L177.569661,18.966139 C177.569661,26.1703314 171.735866,32.0104032 164.539416,32.0104032 L74.6528123,32.0104032 C67.4563627,32.0104032 61.6225675,26.1703314 61.6225675,18.966139 L61.6225675,14.3232654 Z M5.30540773,52.4611564 L5.30540773,425.549221 L1.99263362,425.549221 L1.99263362,187.325583 L1.63927105,187.325583 C0.919846943,187.325583 0.336246571,186.741355 0.336246571,186.021156 L0.336246571,152.150287 C0.336246571,151.430089 0.919846943,150.845861 1.63927105,150.845861 L1.99263362,150.845861 L1.99263362,140.896846 L1.63927105,140.896846 C0.919846943,140.896846 0.336246571,140.312618 0.336246571,139.592419 L0.336246571,105.72155 C0.336246571,105.001352 0.919846943,104.417124 1.63927105,104.417124 L1.99263362,104.417124 L1.99263362,87.8354322 L1.63927105,87.8354322 C0.919846943,87.8354322 0.336246571,87.2512039 0.336246571,86.5310058 L0.336246571,69.7945516 C0.336246571,69.0743534 0.919846943,68.4901251 1.63927105,68.4901251 L1.99263362,68.4901251 L1.99263362,52.4611564 L5.30540773,52.4611564 Z M5.30540773,49.6975411 L1.99263362,49.6975411 L1.99263362,37.5376338 C1.99263362,17.0852225 18.5548477,0.505188876 38.9852778,0.505188876 L200.206951,0.505188876 C220.637381,0.505188876 237.199595,17.0852225 237.199595,37.5376338 L237.199595,49.6975411 L233.886821,49.6975411 L233.886821,37.5376338 C233.886821,19.0092514 218.682292,3.82152723 200.125788,3.82152723 L39.0669929,3.82152723 C20.5104887,3.82152723 5.30540773,19.0092514 5.30540773,37.5376338 L5.30540773,49.6975411 Z M233.886821,52.4611564 L237.199595,52.4611564 L237.199595,116.024308 L237.552957,116.024308 C238.272934,116.024308 238.855982,116.608537 238.855982,117.328735 L238.855982,173.308526 C238.855982,174.028724 238.272934,174.612952 237.552957,174.612952 L237.199595,174.612952 L237.199595,425.549221 L233.886821,425.549221 L233.886821,52.4611564 Z M233.886821,428.312837 L237.199595,428.312837 L237.199595,439.920021 C237.199595,460.372432 220.637381,476.952466 200.206951,476.952466 L38.9852778,476.952466 C18.5548477,476.952466 1.99263362,460.372432 1.99263362,439.920021 L1.99263362,428.312837 L5.30540773,428.312837 L5.30540773,439.920021 C5.30540773,458.448403 20.5104887,473.636127 39.0669929,473.636127 L200.125788,473.636127 C218.682292,473.636127 233.886821,458.448403 233.886821,439.920021 L233.886821,428.312837 Z M39.5374068,6.58514253 L199.654822,6.58514253 C217.109828,6.58514253 231.126176,20.5950139 231.126176,38.0527717 L231.126176,439.404883 C231.126176,456.862641 217.109828,470.872512 199.654822,470.872512 L39.5374068,470.872512 C22.0829522,470.872512 8.06605281,456.862641 8.06605281,439.404883 L8.06605281,38.0527717 C8.06605281,20.5950139 22.0829522,6.58514253 39.5374068,6.58514253 Z M84.2598572,454.843543 L154.932371,454.843543 C155.847249,454.843543 156.588758,455.585851 156.588758,456.501713 C156.588758,457.417575 155.847249,458.159882 154.932371,458.159882 L84.2598572,458.159882 C83.3455315,458.159882 82.6034701,457.417575 82.6034701,456.501713 C82.6034701,455.585851 83.3455315,454.843543 84.2598572,454.843543 Z M106.897147,18.7450498 C105.982821,18.7450498 105.24076,19.4873569 105.24076,20.403219 C105.24076,21.3190811 105.982821,22.0613882 106.897147,22.0613882 L132.295082,22.0613882 C133.209959,22.0613882 133.951469,21.3190811 133.951469,20.403219 C133.951469,19.4873569 133.209959,18.7450498 132.295082,18.7450498 L106.897147,18.7450498 Z M144.44192,24.2722804 C146.576451,24.2722804 148.306823,22.5400463 148.306823,20.403219 C148.306823,18.2663917 146.576451,16.5341576 144.44192,16.5341576 C142.307389,16.5341576 140.577017,18.2663917 140.577017,20.403219 C140.577017,22.5400463 142.307389,24.2722804 144.44192,24.2722804 Z" id="path-1"></path>
    </defs>
    <g id="Artboard-Copy-26" stroke="none" stroke-width="1" fill="none" fill-rule="evenodd">
        <g id="iphone-x-2">
            <g id="iphone-x-1">
                <rect id="Add-Artowork" fill="#00253D" x="14.3702532" y="40.8857143" width="210.259494" height="395.228571"></rect>
                <path d="M28.5214075,12.8714286 L210.329211,12.8714286 C218.562559,12.8714286 225.236694,19.5527449 225.236694,27.7949512 L225.236694,41.1183405 L13.6139241,41.1183405 L13.6139241,27.7949512 C13.6139241,19.5527449 20.2886117,12.8714286 28.5214075,12.8714286 Z" id="Path" fill="#E8E8E8"></path>
                <path d="M28.5214075,436.114286 L210.329211,436.114286 C218.562559,436.114286 225.236694,442.795602 225.236694,451.037808 L225.236694,464.361198 L13.6139241,464.361198 L13.6139241,451.037808 C13.6139241,442.795602 20.2886117,436.114286 28.5214075,436.114286 Z" id="Path-Copy" fill="#E8E8E8" transform="translate(119.425309, 450.237742) rotate(-180.000000) translate(-119.425309, -450.237742) "></path>
                <g id="Group-12">
                    <mask id="mask-2" fill="white">
                        <use xlink:href="#path-1"></use>
                    </mask>
                    <g id="Clip-11"></g>
                    <polygon id="Fill-10" fill="#F6F7F8" mask="url(#mask-2)" points="0.33127741 476.966837 238.917268 476.966837 238.917268 0.475341831 0.33127741 0.475341831"></polygon>
                </g>
            </g>
        </g>
    </g>
</svg>