<?xml version="1.0" encoding="utf-8"?>
<!-- Generator: Adobe Illustrator 20.1.0, SVG Export Plug-In . SVG Version: 6.00 Build 0)  -->
<svg version="1.1" id="Modal_Close" xmlns="http://www.w3.org/2000/svg" xmlns:xlink="http://www.w3.org/1999/xlink" x="0px"
	 y="0px" viewBox="0 0 40 40" style="enable-background:new 0 0 40 40;" xml:space="preserve">
<style type="text/css">
	.st0{fill:#EF3340;}
</style>
<path class="st0" d="M20.1,0C9,0,0,8.9,0,19.9C0,31,8.9,40,19.9,40c11,0,20-8.9,20.1-19.9C40,9,31.1,0,20.1,0z M26.5,25.3
	c0.5,0.5,0.5,1.2,0,1.7c-0.5,0.5-1.2,0.5-1.7,0l-4.9-5l-5,4.9c-0.5,0.5-1.2,0.5-1.7,0s-0.5-1.2,0-1.7l5-4.9l-4.9-5
	c-0.5-0.5-0.5-1.2,0-1.7s1.2-0.5,1.7,0l4.9,5l5-4.9c0.5-0.5,1.2-0.5,1.7,0s0.5,1.2,0,1.7l-5,4.9L26.5,25.3z"/>
</svg>
