<?xml version="1.0" encoding="UTF-8"?>
<svg width="329px" height="60px" viewBox="0 0 329 60" version="1.1" xmlns="http://www.w3.org/2000/svg" xmlns:xlink="http://www.w3.org/1999/xlink">
    <!-- Generator: Sketch 52.5 (67469) - http://www.bohemiancoding.com/sketch -->
    <title>Group 8 Copy 2</title>
    <desc>Created with Sketch.</desc>
    <g id="Mobile-UI" stroke="none" stroke-width="1" fill="none" fill-rule="evenodd">
        <g id="About-Mobile" transform="translate(-25.000000, -4073.000000)">
            <g id="Group-8-Copy-2" transform="translate(25.000000, 4072.742188)">
                <g id="Group-11" fill="#57C0E8" opacity="0.1">
                    <path d="M0.283471717,45.9782609 L18.6576232,0.303913043 L34.3884758,0.303913043 L52.7626273,45.9782609 L38.1922475,45.9782609 L34.9687121,36.8054348 L16.3366778,36.8054348 L13.1776131,45.9782609 L0.283471717,45.9782609 Z M19.366801,28.3917391 L32.0030596,28.3917391 L26.0072838,9.22369565 L25.8138717,9.22369565 L19.366801,28.3917391 Z M57.0821646,14.2213043 L68.9447747,14.2213043 L69.0737162,18.7128261 C70.2341889,17.1313043 72.9419586,13.398913 79.7113828,13.398913 C85.1269222,13.398913 93.6370556,16.4354348 93.6370556,29.4671739 C93.6370556,41.8030435 86.5452778,46.6108696 79.1956172,46.6108696 C73.4577242,46.6108696 70.878896,43.7641304 69.4605404,42.1826087 L69.4605404,57.9978261 L57.3400475,57.9978261 L57.3400475,19.4086957 C57.2111061,15.9293478 57.1466354,15.5497826 57.0821646,14.2213043 Z M69.2026576,29.9732609 C69.2026576,32.5036957 69.5250111,39.5256522 75.0694919,39.5256522 C80.1626778,39.5256522 81.1942091,34.0852174 81.1942091,29.3406522 C81.1942091,26.3041304 80.549502,20.231087 75.3918455,20.231087 C69.2026576,20.231087 69.2026576,28.1386957 69.2026576,29.9732609 Z M100.084126,14.2213043 L111.946736,14.2213043 L112.075678,18.7128261 C113.236151,17.1313043 115.94392,13.398913 122.713344,13.398913 C128.128884,13.398913 136.639017,16.4354348 136.639017,29.4671739 C136.639017,41.8030435 129.547239,46.6108696 122.197579,46.6108696 C116.459686,46.6108696 113.880858,43.7641304 112.462502,42.1826087 L112.462502,57.9978261 L100.342009,57.9978261 L100.342009,19.4086957 C100.213068,15.9293478 100.148597,15.5497826 100.084126,14.2213043 Z M112.204619,29.9732609 C112.204619,32.5036957 112.526973,39.5256522 118.071454,39.5256522 C123.164639,39.5256522 124.196171,34.0852174 124.196171,29.3406522 C124.196171,26.3041304 123.551464,20.231087 118.393807,20.231087 C112.204619,20.231087 112.204619,28.1386957 112.204619,29.9732609 Z M143.795266,45.9782609 L143.795266,20.9902174 L143.472912,14.2213043 L155.271052,14.2213043 L155.464464,20.8004348 C158.236704,13.7152174 164.103538,13.905 166.875779,13.9682609 L166.875779,24.1532609 C165.457423,24.0267391 165.13507,23.9634783 164.296951,23.9634783 C156.882819,23.9634783 155.851288,29.0876087 155.851288,32.5036957 L155.851288,45.9782609 L143.795266,45.9782609 Z M170.550609,29.9732609 C170.550609,20.231087 176.675326,13.1458696 189.504997,13.1458696 C200.013722,13.1458696 208.201502,18.3332609 208.201502,29.5936957 C208.201502,34.2117391 206.847617,38.8930435 203.49514,42.1826087 C200.787371,44.7763043 196.790187,46.7373913 190.149704,46.7373913 C182.993456,46.7373913 178.351565,45.0293478 175.1925,42.056087 C171.453199,38.5767391 170.550609,33.8321739 170.550609,29.9732609 Z M183.122397,30.0365217 C183.122397,32.1241304 183.315809,35.223913 184.669694,37.5645652 C186.088049,39.9684783 188.280054,40.095 189.376056,40.095 C194.662654,40.095 195.694185,34.4647826 195.694185,30.0365217 C195.694185,24.5328261 194.3403,19.9147826 189.504997,19.9147826 C184.153928,19.9147826 183.122397,25.2919565 183.122397,30.0365217 Z M247.20628,45.9782609 L235.601553,45.9782609 C235.34367,44.8395652 235.214728,43.4478261 235.214728,41.4234783 C233.731902,43.5743478 231.217544,46.6108696 224.577062,46.6108696 C216.647165,46.6108696 213.165746,42.3723913 213.165746,36.7421739 C213.165746,28.0754348 221.353526,24.9123913 235.279199,25.4817391 C235.34367,22.0656522 234.892375,18.9026087 231.217544,18.9026087 C228.96107,18.9026087 226.833536,20.1045652 226.898007,23.7104348 L215.29328,23.7104348 C215.357751,22.2554348 215.357751,19.5352174 217.807637,17.0680435 C220.321995,14.5376087 225.35071,13.0826087 231.217544,13.0826087 C234.118726,13.0826087 240.307914,13.4621739 243.724862,16.7517391 C245.787924,18.7128261 246.561573,21.686087 246.561573,25.1021739 L246.561573,39.9052174 C246.561573,42.1826087 246.626043,42.8152174 247.20628,45.9782609 Z M235.214728,30.9854348 C230.057072,31.0486957 225.092827,31.1119565 225.092827,35.6667391 C225.092827,38.0073913 226.640124,39.9684783 229.541306,39.9684783 C230.83072,39.9684783 233.087195,39.4623913 234.312138,36.9319565 C235.279199,34.9076087 235.279199,32.313913 235.214728,30.9854348 Z M287.500472,25.3552174 L275.50892,25.3552174 C275.50892,22.3819565 274.348447,19.9147826 271.189383,19.9147826 C266.740904,19.9147826 265.709373,24.3430435 265.709373,29.91 C265.709373,38.133913 268.030318,40.0317391 271.060441,40.0317391 C275.186567,40.0317391 275.444449,35.9830435 275.444449,33.5791304 L287.693884,33.5791304 C287.758355,41.6132609 281.182342,46.7373913 271.382795,46.7373913 C261.067482,46.7373913 253.202056,41.3602174 253.202056,29.91 C253.202056,17.3843478 262.163484,13.1458696 271.253854,13.1458696 C274.735272,13.1458696 280.602106,13.7152174 284.341407,17.7006522 C287.113647,20.6106522 287.37153,23.5206522 287.500472,25.3552174 Z M294.076484,45.9782609 L294.076484,0.303913043 L306.325918,0.303913043 L306.325918,17.7006522 C307.615332,16.4354348 310.580985,13.5254348 316.447819,13.5254348 C319.606884,13.5254348 322.830419,14.3478261 325.473718,16.7517391 C328.697254,19.5984783 328.697254,23.0778261 328.697254,27.506087 L328.697254,45.9782609 L316.641231,45.9782609 L316.641231,28.8978261 C316.641231,26.2408696 316.641231,21.0534783 311.612516,21.0534783 C307.744274,21.0534783 306.841684,24.2165217 306.51933,25.4817391 C306.196977,26.9367391 306.196977,28.961087 306.196977,31.6180435 L306.196977,45.9782609 L294.076484,45.9782609 Z" id="Approach"></path>
                    <path d="M41.6600404,4.50913043 C41.6600404,3.97695652 41.7504323,2.38043478 42.7786404,1.36043478 C43.8068485,0.340434783 45.3661091,0.25173913 45.9649556,0.25173913 C49.2190646,0.25173913 50.1003859,2.54673913 50.1003859,4.49804348 C50.1003859,7.69108696 47.7953919,8.66673913 45.8519657,8.66673913 C43.6825596,8.66673913 41.6600404,7.49152174 41.6600404,4.50913043 Z M43.9876323,4.49804348 C43.9876323,5.77304348 44.371798,7.03695652 45.8745636,7.03695652 C47.4903192,7.03695652 47.7614949,5.57347826 47.7614949,4.46478261 C47.7614949,3.345 47.4903192,2.79065217 47.2417414,2.43586957 C46.9140707,1.9923913 46.3830182,1.85934783 45.8858626,1.85934783 C44.394396,1.85934783 43.9876323,3.12326087 43.9876323,4.49804348 Z M51.3432747,2.9126087 L53.4561859,2.9126087 L53.4561859,6.16108696 C53.4561859,6.47152174 53.4561859,7.2476087 54.3036101,7.2476087 C55.1962303,7.2476087 55.1962303,6.44934783 55.1962303,6.13891304 L55.1962303,2.9126087 L57.3204404,2.9126087 L57.3204404,7.51369565 C57.3430384,7.99043478 57.3430384,8.04586957 57.3543374,8.47826087 L55.2640242,8.47826087 L55.2188283,7.61347826 C54.6425798,8.51152174 53.9307434,8.57804348 53.4335879,8.57804348 C51.4675636,8.57804348 51.3432747,7.11456522 51.3432747,6.05021739 L51.3432747,2.9126087 Z M58.913598,8.47826087 L58.913598,4.09891304 L58.857103,2.9126087 L60.9248182,2.9126087 L60.9587152,4.06565217 C61.4445717,2.82391304 62.4727798,2.85717391 62.9586364,2.86826087 L62.9586364,4.65326087 C62.7100586,4.63108696 62.6535636,4.62 62.5066768,4.62 C61.2072929,4.62 61.0265091,5.51804348 61.0265091,6.11673913 L61.0265091,8.47826087 L58.913598,8.47826087 Z" id="Our"></path>
                    <path d="M240.653198,52.173913 L241.997778,52.173913 L241.997778,53.5043478 L240.6306,53.5043478 L240.6306,55.4334783 C240.641899,56.1208696 240.641899,56.4313043 241.455426,56.4313043 C241.624911,56.4313043 241.726602,56.4313043 241.986479,56.3980435 L241.986479,57.7063043 C241.704004,57.7506522 241.331137,57.806087 240.608002,57.806087 C238.913154,57.806087 238.574184,57.2517391 238.574184,56.1763043 L238.574184,53.5043478 L237.50078,53.5043478 L237.50078,52.173913 L238.608081,52.173913 L238.608081,51.3091304 L240.653198,50.5108696 L240.653198,52.173913 Z M242.800006,54.9123913 C242.800006,53.205 243.87341,51.9632609 246.121909,51.9632609 C247.963644,51.9632609 249.398616,52.8723913 249.398616,54.8458696 C249.398616,55.6552174 249.161337,56.4756522 248.57379,57.0521739 C248.099232,57.5067391 247.398695,57.8504348 246.234899,57.8504348 C244.980711,57.8504348 244.167184,57.551087 243.613533,57.03 C242.958192,56.4202174 242.800006,55.5886957 242.800006,54.9123913 Z M245.003309,54.9234783 C245.003309,55.2893478 245.037206,55.8326087 245.274485,56.2428261 C245.523063,56.6641304 245.907228,56.6863043 246.099311,56.6863043 C247.025828,56.6863043 247.206612,55.6995652 247.206612,54.9234783 C247.206612,53.958913 246.969333,53.1495652 246.121909,53.1495652 C245.184093,53.1495652 245.003309,54.0919565 245.003309,54.9234783 Z M254.302378,52.1517391 L256.381392,52.1517391 L256.40399,52.938913 C256.607372,52.6617391 257.081929,52.0076087 258.268323,52.0076087 C259.217438,52.0076087 260.708905,52.5397826 260.708905,54.8236957 C260.708905,56.9856522 259.466016,57.8282609 258.177931,57.8282609 C257.172321,57.8282609 256.720362,57.3293478 256.471784,57.0521739 L256.471784,59.823913 L254.347574,59.823913 L254.347574,53.0608696 C254.324976,52.451087 254.313677,52.3845652 254.302378,52.1517391 Z M256.426588,54.9123913 C256.426588,55.3558696 256.483083,56.5865217 257.454796,56.5865217 C258.347416,56.5865217 258.5282,55.6330435 258.5282,54.8015217 C258.5282,54.2693478 258.41521,53.205 257.511291,53.205 C256.426588,53.205 256.426588,54.5908696 256.426588,54.9123913 Z M267.533495,57.7173913 L265.499677,57.7173913 C265.454481,57.5178261 265.431883,57.273913 265.431883,56.9191304 C265.172006,57.296087 264.731345,57.8282609 263.567549,57.8282609 C262.177774,57.8282609 261.567628,57.0854348 261.567628,56.0986957 C261.567628,54.5797826 263.0026,54.0254348 265.443182,54.1252174 C265.454481,53.5265217 265.375388,52.9721739 264.731345,52.9721739 C264.335881,52.9721739 263.963014,53.1828261 263.974313,53.8147826 L261.940495,53.8147826 C261.951794,53.5597826 261.951794,53.0830435 262.381156,52.6506522 C262.821816,52.2071739 263.703137,51.9521739 264.731345,51.9521739 C265.2398,51.9521739 266.324503,52.0186957 266.923349,52.5952174 C267.284917,52.938913 267.420505,53.46 267.420505,54.0586957 L267.420505,56.6530435 C267.420505,57.0521739 267.431804,57.1630435 267.533495,57.7173913 Z M265.431883,55.0897826 C264.527964,55.1008696 263.657941,55.1119565 263.657941,55.9102174 C263.657941,56.3204348 263.929117,56.6641304 264.437572,56.6641304 C264.663552,56.6641304 265.059016,56.5754348 265.273697,56.1319565 C265.443182,55.7771739 265.443182,55.3226087 265.431883,55.0897826 Z M268.866776,57.7173913 L268.866776,53.3380435 L268.810281,52.1517391 L270.877996,52.1517391 L270.911893,53.3047826 C271.397749,52.0630435 272.425958,52.0963043 272.911814,52.1073913 L272.911814,53.8923913 C272.663236,53.8702174 272.606741,53.8591304 272.459855,53.8591304 C271.160471,53.8591304 270.979687,54.7571739 270.979687,55.3558696 L270.979687,57.7173913 L268.866776,57.7173913 Z M276.4258,52.173913 L277.77038,52.173913 L277.77038,53.5043478 L276.403202,53.5043478 L276.403202,55.4334783 C276.414501,56.1208696 276.414501,56.4313043 277.228028,56.4313043 C277.397513,56.4313043 277.499204,56.4313043 277.759081,56.3980435 L277.759081,57.7063043 C277.476606,57.7506522 277.103739,57.806087 276.380604,57.806087 C274.685756,57.806087 274.346786,57.2517391 274.346786,56.1763043 L274.346786,53.5043478 L273.273382,53.5043478 L273.273382,52.173913 L274.380683,52.173913 L274.380683,51.3091304 L276.4258,50.5108696 L276.4258,52.173913 Z M278.866382,57.7173913 L278.866382,53.3380435 L278.809887,52.1517391 L280.934097,52.1517391 L280.956695,53.0054348 C281.216572,52.5841304 281.668531,52.0297826 282.843626,52.0297826 C284.92264,52.0297826 284.92264,53.5819565 284.92264,54.3469565 L284.92264,57.7173913 L282.79843,57.7173913 L282.79843,54.5243478 C282.79843,54.1363043 282.79843,53.3491304 281.928408,53.3491304 C280.979293,53.3491304 280.979293,54.3247826 280.979293,54.5243478 L280.979293,57.7173913 L278.866382,57.7173913 Z M292.131396,55.3558696 L288.06376,55.3558696 C288.06376,55.6552174 288.06376,56.7084783 289.148463,56.7084783 C289.713412,56.7084783 290.063681,56.4202174 290.120176,55.8991304 L292.097499,55.8991304 C291.939313,57.296087 290.606032,57.8393478 289.137164,57.8393478 C287.15984,57.8393478 286.097735,56.8636957 286.097735,55.0232609 C286.097735,53.1606522 287.024253,51.9521739 289.114566,51.9521739 C290.696424,51.9521739 291.430859,52.5841304 291.815024,53.3713043 C292.063602,53.8480435 292.131396,54.3802174 292.131396,55.3558696 Z M288.086358,54.225 L290.131475,54.225 C290.108877,53.9034783 290.041083,53.0608696 289.114566,53.0608696 C288.188048,53.0608696 288.108956,53.958913 288.086358,54.225 Z M293.340388,57.7173913 L293.340388,53.3380435 L293.283893,52.1517391 L295.351608,52.1517391 L295.385505,53.3047826 C295.871362,52.0630435 296.89957,52.0963043 297.385426,52.1073913 L297.385426,53.8923913 C297.136848,53.8702174 297.080354,53.8591304 296.933467,53.8591304 C295.634083,53.8591304 295.453299,54.7571739 295.453299,55.3558696 L295.453299,57.7173913 L293.340388,57.7173913 Z M297.927778,55.9102174 L300.02939,55.9102174 C300.02939,56.01 300.02939,56.2206522 300.119782,56.4091304 C300.198875,56.5865217 300.379659,56.7528261 300.741226,56.7528261 C301.227083,56.7528261 301.385269,56.4313043 301.385269,56.1873913 C301.385269,55.7993478 301.057598,55.6884783 300.58304,55.5665217 L299.430543,55.245 C299.080275,55.1563043 298.052067,54.8791304 298.052067,53.7371739 C298.052067,53.1828261 298.357139,52.7171739 298.730006,52.4732609 C299.227162,52.1295652 299.905101,51.9965217 300.741226,51.9965217 C301.961517,51.9965217 303.238303,52.3180435 303.328695,53.8702174 L301.317475,53.8702174 C301.317475,53.703913 301.317475,53.4932609 301.238382,53.3269565 C301.14799,53.1495652 300.989804,53.0276087 300.650834,53.0276087 C300.323164,53.0276087 300.018091,53.1717391 300.018091,53.5154348 C300.018091,53.8369565 300.25537,53.958913 300.594339,54.0476087 L302.108404,54.4578261 C302.650756,54.6019565 303.441685,54.9013043 303.441685,55.9878261 C303.441685,57.8726087 301.215784,57.8726087 300.718628,57.8726087 C299.566131,57.8726087 297.90518,57.7063043 297.927778,55.9102174 Z M304.61678,57.7173913 L304.61678,49.7126087 L306.763588,49.7126087 L306.763588,52.7615217 C306.989568,52.5397826 307.509321,52.0297826 308.537529,52.0297826 C309.09118,52.0297826 309.656129,52.173913 310.119388,52.5952174 C310.684337,53.0941304 310.684337,53.703913 310.684337,54.48 L310.684337,57.7173913 L308.571426,57.7173913 L308.571426,54.723913 C308.571426,54.2582609 308.571426,53.3491304 307.690105,53.3491304 C307.012166,53.3491304 306.85398,53.9034783 306.797485,54.1252174 C306.74099,54.3802174 306.74099,54.735 306.74099,55.2006522 L306.74099,57.7173913 L304.61678,57.7173913 Z M312.175804,51.2204348 L312.175804,49.7347826 L314.34521,49.7347826 L314.34521,51.2204348 L312.175804,51.2204348 Z M312.198402,57.7173913 L312.198402,52.1517391 L314.322612,52.1517391 L314.322612,57.7173913 L312.198402,57.7173913 Z M315.814079,52.1517391 L317.893093,52.1517391 L317.915691,52.938913 C318.119073,52.6617391 318.59363,52.0076087 319.780024,52.0076087 C320.729139,52.0076087 322.220606,52.5397826 322.220606,54.8236957 C322.220606,56.9856522 320.977717,57.8282609 319.689632,57.8282609 C318.684022,57.8282609 318.232063,57.3293478 317.983485,57.0521739 L317.983485,59.823913 L315.859275,59.823913 L315.859275,53.0608696 C315.836677,52.451087 315.825378,52.3845652 315.814079,52.1517391 Z M317.938289,54.9123913 C317.938289,55.3558696 317.994784,56.5865217 318.966497,56.5865217 C319.859117,56.5865217 320.039901,55.6330435 320.039901,54.8015217 C320.039901,54.2693478 319.926911,53.205 319.022992,53.205 C317.938289,53.205 317.938289,54.5908696 317.938289,54.9123913 Z M323.045432,55.9102174 L325.147044,55.9102174 C325.147044,56.01 325.147044,56.2206522 325.237436,56.4091304 C325.316529,56.5865217 325.497313,56.7528261 325.858881,56.7528261 C326.344737,56.7528261 326.502923,56.4313043 326.502923,56.1873913 C326.502923,55.7993478 326.175253,55.6884783 325.700695,55.5665217 L324.548198,55.245 C324.197929,55.1563043 323.169721,54.8791304 323.169721,53.7371739 C323.169721,53.1828261 323.474794,52.7171739 323.847661,52.4732609 C324.344816,52.1295652 325.022756,51.9965217 325.858881,51.9965217 C327.079172,51.9965217 328.355958,52.3180435 328.446349,53.8702174 L326.435129,53.8702174 C326.435129,53.703913 326.435129,53.4932609 326.356036,53.3269565 C326.265644,53.1495652 326.107459,53.0276087 325.768489,53.0276087 C325.440818,53.0276087 325.135745,53.1717391 325.135745,53.5154348 C325.135745,53.8369565 325.373024,53.958913 325.711994,54.0476087 L327.226059,54.4578261 C327.76841,54.6019565 328.559339,54.9013043 328.559339,55.9878261 C328.559339,57.8726087 326.333438,57.8726087 325.836283,57.8726087 C324.683786,57.8726087 323.022834,57.7063043 323.045432,55.9102174 Z" id="to-partnerships"></path>
                </g>
                <path d="M53.6286616,25.0597826 L53.6286616,28.7934783 L57.6165404,24.423913 C57.8159343,24.2119565 58.0651768,24.1141304 58.3144192,24.1141304 C58.8295202,24.1141304 59.2449242,24.5217391 59.2449242,25.0271739 C59.2449242,25.2880435 59.1452273,25.4836957 58.9956818,25.6467391 L55.8718434,28.9728261 L59.5440152,33.8804348 C59.6603283,34.0271739 59.7267929,34.2228261 59.7267929,34.4184783 C59.7267929,34.923913 59.2947727,35.3478261 58.7796717,35.3478261 C58.3808838,35.3478261 58.1316414,35.1195652 57.9987121,34.9402174 L54.5757828,30.2934783 L53.6286616,31.2717391 L53.6286616,34.4021739 C53.6286616,34.923913 53.1966414,35.3478261 52.6649242,35.3478261 C52.1332071,35.3478261 51.7011869,34.923913 51.7011869,34.4021739 L51.7011869,25.0597826 C51.7011869,24.5380435 52.1332071,24.1141304 52.6649242,24.1141304 C53.1966414,24.1141304 53.6286616,24.5380435 53.6286616,25.0597826 Z M64.6950253,27.5869565 C66.9548232,27.5869565 67.4865404,29.0054348 67.4865404,30.423913 L67.4865404,34.5 C67.4865404,34.9891304 67.0877525,35.3478261 66.5892677,35.3478261 C66.0575505,35.3478261 65.6919949,34.9891304 65.6919949,34.5 L65.6919949,30.75 C65.6919949,29.8206522 65.3098232,29.1847826 64.2297727,29.1847826 C62.9835606,29.1847826 62.5681566,29.9021739 62.5681566,30.8641304 L62.5681566,34.5 C62.5681566,34.9891304 62.1859848,35.3478261 61.6708838,35.3478261 C61.1557828,35.3478261 60.7736111,34.9891304 60.7736111,34.5 L60.7736111,28.5652174 C60.7736111,28.076087 61.172399,27.6847826 61.6708838,27.6847826 C62.1693687,27.6847826 62.5681566,28.076087 62.5681566,28.5652174 C62.8838636,28.0923913 63.5817424,27.5869565 64.6950253,27.5869565 Z M75.9940152,31.5163043 C75.9940152,34.173913 74.5982576,35.4293478 72.3550758,35.4293478 C70.1118939,35.4293478 68.7161364,34.173913 68.7161364,31.5163043 C68.7161364,28.8423913 70.1118939,27.5869565 72.3550758,27.5869565 C74.5982576,27.5869565 75.9940152,28.8423913 75.9940152,31.5163043 Z M74.1828535,31.5163043 C74.1828535,29.9021739 73.5514394,29.0869565 72.3550758,29.0869565 C71.1587121,29.0869565 70.527298,29.9021739 70.527298,31.5163043 C70.527298,33.1141304 71.1587121,33.9293478 72.3550758,33.9293478 C73.5514394,33.9293478 74.1828535,33.1141304 74.1828535,31.5163043 Z M82.8066414,34.7282609 L81.7764394,31.1576087 L80.7462374,34.7119565 C80.6299242,35.0869565 80.2809848,35.3478261 79.882197,35.3478261 C79.4834091,35.3478261 79.167702,35.1032609 79.0347727,34.7771739 L76.7583586,28.9565217 C76.7085101,28.8423913 76.6752778,28.6630435 76.6752778,28.5652174 C76.6752778,28.076087 77.0740657,27.6847826 77.5725505,27.6847826 C77.9547222,27.6847826 78.2870455,27.8967391 78.4199747,28.2554348 L79.7991162,32.2663043 L80.912399,28.3206522 C80.9954798,28.0271739 81.2779545,27.6847826 81.7764394,27.6847826 C82.2250758,27.6847826 82.5407828,27.9945652 82.6238636,28.2717391 L83.7371465,32.2663043 L85.0996717,28.2554348 C85.232601,27.8967391 85.5649242,27.6847826 85.9637121,27.6847826 C86.4788131,27.6847826 86.8609848,28.0434783 86.8609848,28.5326087 C86.8609848,28.6304348 86.8277525,28.7608696 86.777904,28.875 L84.5014899,34.7934783 C84.3685606,35.1521739 84.0528535,35.3478261 83.6706818,35.3478261 C83.2718939,35.3478261 82.9229545,35.0869565 82.8066414,34.7282609 Z M97.0300758,33.4891304 C96.6977525,33.4891304 96.3820455,33.326087 96.2158838,33.0326087 L93.6071465,28.4836957 L93.6071465,34.4184783 C93.6071465,34.923913 93.1751263,35.3478261 92.6600253,35.3478261 C92.1449242,35.3478261 91.712904,34.923913 91.712904,34.4184783 L91.712904,25.0434783 C91.712904,24.5380435 92.1449242,24.1141304 92.6600253,24.1141304 C93.0754293,24.1141304 93.3412879,24.3423913 93.5074495,24.6358696 L97.0300758,30.8315217 L100.552702,24.6358696 C100.718864,24.3423913 100.984722,24.1141304 101.400126,24.1141304 C101.915227,24.1141304 102.347247,24.5380435 102.347247,25.0434783 L102.347247,34.4184783 C102.347247,34.923913 101.915227,35.3478261 101.400126,35.3478261 C100.885025,35.3478261 100.453005,34.923913 100.453005,34.4184783 L100.453005,28.4836957 L97.8442677,33.0326087 C97.6781061,33.326087 97.362399,33.4891304 97.0300758,33.4891304 Z M111.103965,31.5163043 C111.103965,34.173913 109.708207,35.4293478 107.465025,35.4293478 C105.221843,35.4293478 103.826086,34.173913 103.826086,31.5163043 C103.826086,28.8423913 105.221843,27.5869565 107.465025,27.5869565 C109.708207,27.5869565 111.103965,28.8423913 111.103965,31.5163043 Z M109.292803,31.5163043 C109.292803,29.9021739 108.661389,29.0869565 107.465025,29.0869565 C106.268662,29.0869565 105.637247,29.9021739 105.637247,31.5163043 C105.637247,33.1141304 106.268662,33.9293478 107.465025,33.9293478 C108.661389,33.9293478 109.292803,33.1141304 109.292803,31.5163043 Z M114.211187,28.5652174 L114.211187,28.6467391 C114.526894,28.0108696 115.307854,27.6032609 116.005732,27.6032609 C116.470985,27.6032609 116.853157,27.9782609 116.853157,28.4347826 C116.853157,28.8913043 116.470985,29.2663043 116.005732,29.2663043 C114.859217,29.2663043 114.211187,29.9836957 114.211187,31.076087 L114.211187,34.4673913 C114.211187,34.9565217 113.812399,35.3478261 113.313914,35.3478261 C112.815429,35.3478261 112.416641,34.9565217 112.416641,34.4673913 L112.416641,28.5652174 C112.416641,28.076087 112.815429,27.6847826 113.313914,27.6847826 C113.812399,27.6847826 114.211187,28.076087 114.211187,28.5652174 Z M117.467955,31.4836957 C117.467955,28.9891304 118.797247,27.5869565 121.057045,27.5869565 C123.865177,27.5869565 124.380278,29.7065217 124.380278,30.8315217 C124.380278,31.4347826 124.380278,32.1358696 123.366692,32.1358696 L119.2625,32.1358696 C119.2625,33.3097826 120.109924,33.8478261 121.206591,33.8478261 C121.937702,33.8478261 122.452803,33.6032609 122.851591,33.3423913 C123.034369,33.2282609 123.167298,33.1630435 123.383308,33.1630435 C123.815328,33.1630435 124.164268,33.5054348 124.164268,33.9293478 C124.164268,34.1902174 124.031338,34.4021739 123.881793,34.5326087 C123.599318,34.7934783 122.718662,35.4293478 121.206591,35.4293478 C118.896944,35.4293478 117.467955,34.2065217 117.467955,31.4836957 Z M121.057045,29.0869565 C120.093308,29.0869565 119.395429,29.625 119.312348,30.6684783 L122.602348,30.6684783 C122.602348,29.8695652 122.137096,29.0869565 121.057045,29.0869565 Z M126.673308,35.3478261 C125.975429,35.3478261 125.576641,35.0054348 125.576641,34.2880435 C125.576641,33.5543478 125.975429,33.1956522 126.673308,33.1956522 C127.371187,33.1956522 127.753359,33.5543478 127.753359,34.2880435 C127.753359,35.0054348 127.371187,35.3478261 126.673308,35.3478261 Z M135.214015,25.0597826 L135.214015,28.7934783 L139.201894,24.423913 C139.401288,24.2119565 139.65053,24.1141304 139.899773,24.1141304 C140.414874,24.1141304 140.830278,24.5217391 140.830278,25.0271739 C140.830278,25.2880435 140.730581,25.4836957 140.581035,25.6467391 L137.457197,28.9728261 L141.129369,33.8804348 C141.245682,34.0271739 141.312146,34.2228261 141.312146,34.4184783 C141.312146,34.923913 140.880126,35.3478261 140.365025,35.3478261 C139.966237,35.3478261 139.716995,35.1195652 139.584066,34.9402174 L136.161136,30.2934783 L135.214015,31.2717391 L135.214015,34.4021739 C135.214015,34.923913 134.781995,35.3478261 134.250278,35.3478261 C133.718561,35.3478261 133.28654,34.923913 133.28654,34.4021739 L133.28654,25.0597826 C133.28654,24.5380435 133.718561,24.1141304 134.250278,24.1141304 C134.781995,24.1141304 135.214015,24.5380435 135.214015,25.0597826 Z M146.280379,27.5869565 C148.540177,27.5869565 149.071894,29.0054348 149.071894,30.423913 L149.071894,34.5 C149.071894,34.9891304 148.673106,35.3478261 148.174621,35.3478261 C147.642904,35.3478261 147.277348,34.9891304 147.277348,34.5 L147.277348,30.75 C147.277348,29.8206522 146.895177,29.1847826 145.815126,29.1847826 C144.568914,29.1847826 144.15351,29.9021739 144.15351,30.8641304 L144.15351,34.5 C144.15351,34.9891304 143.771338,35.3478261 143.256237,35.3478261 C142.741136,35.3478261 142.358965,34.9891304 142.358965,34.5 L142.358965,28.5652174 C142.358965,28.076087 142.757753,27.6847826 143.256237,27.6847826 C143.754722,27.6847826 144.15351,28.076087 144.15351,28.5652174 C144.469217,28.0923913 145.167096,27.5869565 146.280379,27.5869565 Z M157.579369,31.5163043 C157.579369,34.173913 156.183611,35.4293478 153.940429,35.4293478 C151.697247,35.4293478 150.30149,34.173913 150.30149,31.5163043 C150.30149,28.8423913 151.697247,27.5869565 153.940429,27.5869565 C156.183611,27.5869565 157.579369,28.8423913 157.579369,31.5163043 Z M155.768207,31.5163043 C155.768207,29.9021739 155.136793,29.0869565 153.940429,29.0869565 C152.744066,29.0869565 152.112652,29.9021739 152.112652,31.5163043 C152.112652,33.1141304 152.744066,33.9293478 153.940429,33.9293478 C155.136793,33.9293478 155.768207,33.1141304 155.768207,31.5163043 Z M164.391995,34.7282609 L163.361793,31.1576087 L162.331591,34.7119565 C162.215278,35.0869565 161.866338,35.3478261 161.467551,35.3478261 C161.068763,35.3478261 160.753056,35.1032609 160.620126,34.7771739 L158.343712,28.9565217 C158.293864,28.8423913 158.260631,28.6630435 158.260631,28.5652174 C158.260631,28.076087 158.659419,27.6847826 159.157904,27.6847826 C159.540076,27.6847826 159.872399,27.8967391 160.005328,28.2554348 L161.38447,32.2663043 L162.497753,28.3206522 C162.580833,28.0271739 162.863308,27.6847826 163.361793,27.6847826 C163.810429,27.6847826 164.126136,27.9945652 164.209217,28.2717391 L165.3225,32.2663043 L166.685025,28.2554348 C166.817955,27.8967391 167.150278,27.6847826 167.549066,27.6847826 C168.064167,27.6847826 168.446338,28.0434783 168.446338,28.5326087 C168.446338,28.6304348 168.413106,28.7608696 168.363258,28.875 L166.086843,34.7934783 C165.953914,35.1521739 165.638207,35.3478261 165.256035,35.3478261 C164.857247,35.3478261 164.508308,35.0869565 164.391995,34.7282609 Z M181.98851,25.0597826 L181.98851,34.4021739 C181.98851,34.923913 181.55649,35.3478261 181.024773,35.3478261 C180.493056,35.3478261 180.061035,34.923913 180.061035,34.4021739 L180.061035,30.4728261 L175.308813,30.4728261 L175.308813,34.4021739 C175.308813,34.923913 174.876793,35.3478261 174.345076,35.3478261 C173.813359,35.3478261 173.381338,34.923913 173.381338,34.4021739 L173.381338,25.0597826 C173.381338,24.5380435 173.813359,24.1141304 174.345076,24.1141304 C174.876793,24.1141304 175.308813,24.5380435 175.308813,25.0597826 L175.308813,28.7445652 L180.061035,28.7445652 L180.061035,25.0597826 C180.061035,24.5380435 180.493056,24.1141304 181.024773,24.1141304 C181.55649,24.1141304 181.98851,24.5380435 181.98851,25.0597826 Z M190.745227,31.5163043 C190.745227,34.173913 189.34947,35.4293478 187.106288,35.4293478 C184.863106,35.4293478 183.467348,34.173913 183.467348,31.5163043 C183.467348,28.8423913 184.863106,27.5869565 187.106288,27.5869565 C189.34947,27.5869565 190.745227,28.8423913 190.745227,31.5163043 Z M188.934066,31.5163043 C188.934066,29.9021739 188.302652,29.0869565 187.106288,29.0869565 C185.909924,29.0869565 185.27851,29.9021739 185.27851,31.5163043 C185.27851,33.1141304 185.909924,33.9293478 187.106288,33.9293478 C188.302652,33.9293478 188.934066,33.1141304 188.934066,31.5163043 Z M197.557854,34.7282609 L196.527652,31.1576087 L195.497449,34.7119565 C195.381136,35.0869565 195.032197,35.3478261 194.633409,35.3478261 C194.234621,35.3478261 193.918914,35.1032609 193.785985,34.7771739 L191.509571,28.9565217 C191.459722,28.8423913 191.42649,28.6630435 191.42649,28.5652174 C191.42649,28.076087 191.825278,27.6847826 192.323763,27.6847826 C192.705934,27.6847826 193.038258,27.8967391 193.171187,28.2554348 L194.550328,32.2663043 L195.663611,28.3206522 C195.746692,28.0271739 196.029167,27.6847826 196.527652,27.6847826 C196.976288,27.6847826 197.291995,27.9945652 197.375076,28.2717391 L198.488359,32.2663043 L199.850884,28.2554348 C199.983813,27.8967391 200.316136,27.6847826 200.714924,27.6847826 C201.230025,27.6847826 201.612197,28.0434783 201.612197,28.5326087 C201.612197,28.6304348 201.578965,28.7608696 201.529116,28.875 L199.252702,34.7934783 C199.119773,35.1521739 198.804066,35.3478261 198.421894,35.3478261 C198.023106,35.3478261 197.674167,35.0869565 197.557854,34.7282609 Z M203.672601,35.3478261 C202.974722,35.3478261 202.575934,35.0054348 202.575934,34.2880435 C202.575934,33.5543478 202.974722,33.1956522 203.672601,33.1956522 C204.37048,33.1956522 204.752652,33.5543478 204.752652,34.2880435 C204.752652,35.0054348 204.37048,35.3478261 203.672601,35.3478261 Z M212.213308,25.0597826 L212.213308,28.7934783 L216.201187,24.423913 C216.400581,24.2119565 216.649823,24.1141304 216.899066,24.1141304 C217.414167,24.1141304 217.829571,24.5217391 217.829571,25.0271739 C217.829571,25.2880435 217.729874,25.4836957 217.580328,25.6467391 L214.45649,28.9728261 L218.128662,33.8804348 C218.244975,34.0271739 218.311439,34.2228261 218.311439,34.4184783 C218.311439,34.923913 217.879419,35.3478261 217.364318,35.3478261 C216.96553,35.3478261 216.716288,35.1195652 216.583359,34.9402174 L213.160429,30.2934783 L212.213308,31.2717391 L212.213308,34.4021739 C212.213308,34.923913 211.781288,35.3478261 211.249571,35.3478261 C210.717854,35.3478261 210.285833,34.923913 210.285833,34.4021739 L210.285833,25.0597826 C210.285833,24.5380435 210.717854,24.1141304 211.249571,24.1141304 C211.781288,24.1141304 212.213308,24.5380435 212.213308,25.0597826 Z M223.279672,27.5869565 C225.53947,27.5869565 226.071187,29.0054348 226.071187,30.423913 L226.071187,34.5 C226.071187,34.9891304 225.672399,35.3478261 225.173914,35.3478261 C224.642197,35.3478261 224.276641,34.9891304 224.276641,34.5 L224.276641,30.75 C224.276641,29.8206522 223.89447,29.1847826 222.814419,29.1847826 C221.568207,29.1847826 221.152803,29.9021739 221.152803,30.8641304 L221.152803,34.5 C221.152803,34.9891304 220.770631,35.3478261 220.25553,35.3478261 C219.740429,35.3478261 219.358258,34.9891304 219.358258,34.5 L219.358258,28.5652174 C219.358258,28.076087 219.757045,27.6847826 220.25553,27.6847826 C220.754015,27.6847826 221.152803,28.076087 221.152803,28.5652174 C221.46851,28.0923913 222.166389,27.5869565 223.279672,27.5869565 Z M234.578662,31.5163043 C234.578662,34.173913 233.182904,35.4293478 230.939722,35.4293478 C228.69654,35.4293478 227.300783,34.173913 227.300783,31.5163043 C227.300783,28.8423913 228.69654,27.5869565 230.939722,27.5869565 C233.182904,27.5869565 234.578662,28.8423913 234.578662,31.5163043 Z M232.7675,31.5163043 C232.7675,29.9021739 232.136086,29.0869565 230.939722,29.0869565 C229.743359,29.0869565 229.111944,29.9021739 229.111944,31.5163043 C229.111944,33.1141304 229.743359,33.9293478 230.939722,33.9293478 C232.136086,33.9293478 232.7675,33.1141304 232.7675,31.5163043 Z M241.391288,34.7282609 L240.361086,31.1576087 L239.330884,34.7119565 C239.214571,35.0869565 238.865631,35.3478261 238.466843,35.3478261 C238.068056,35.3478261 237.752348,35.1032609 237.619419,34.7771739 L235.343005,28.9565217 C235.293157,28.8423913 235.259924,28.6630435 235.259924,28.5652174 C235.259924,28.076087 235.658712,27.6847826 236.157197,27.6847826 C236.539369,27.6847826 236.871692,27.8967391 237.004621,28.2554348 L238.383763,32.2663043 L239.497045,28.3206522 C239.580126,28.0271739 239.862601,27.6847826 240.361086,27.6847826 C240.809722,27.6847826 241.125429,27.9945652 241.20851,28.2717391 L242.321793,32.2663043 L243.684318,28.2554348 C243.817247,27.8967391 244.149571,27.6847826 244.548359,27.6847826 C245.06346,27.6847826 245.445631,28.0434783 245.445631,28.5326087 C245.445631,28.6304348 245.412399,28.7608696 245.362551,28.875 L243.086136,34.7934783 C242.953207,35.1521739 242.6375,35.3478261 242.255328,35.3478261 C241.85654,35.3478261 241.507601,35.0869565 241.391288,34.7282609 Z M257.87452,24.1141304 C258.389621,24.1141304 258.821641,24.5380435 258.821641,25.0434783 L258.821641,34.4184783 C258.821641,34.923913 258.389621,35.3478261 257.87452,35.3478261 C257.558813,35.3478261 257.259722,35.1847826 257.093561,34.9402174 L252.191793,27.9945652 L252.191793,34.4184783 C252.191793,34.923913 251.759773,35.3478261 251.244672,35.3478261 C250.729571,35.3478261 250.297551,34.923913 250.297551,34.4184783 L250.297551,25.0434783 C250.297551,24.5380435 250.729571,24.1141304 251.244672,24.1141304 C251.576995,24.1141304 251.842854,24.2608696 252.009015,24.5054348 L256.927399,31.5 L256.927399,25.0434783 C256.927399,24.5380435 257.359419,24.1141304 257.87452,24.1141304 Z M267.495278,31.5163043 C267.495278,34.173913 266.09952,35.4293478 263.856338,35.4293478 C261.613157,35.4293478 260.217399,34.173913 260.217399,31.5163043 C260.217399,28.8423913 261.613157,27.5869565 263.856338,27.5869565 C266.09952,27.5869565 267.495278,28.8423913 267.495278,31.5163043 Z M265.684116,31.5163043 C265.684116,29.9021739 265.052702,29.0869565 263.856338,29.0869565 C262.659975,29.0869565 262.028561,29.9021739 262.028561,31.5163043 C262.028561,33.1141304 262.659975,33.9293478 263.856338,33.9293478 C265.052702,33.9293478 265.684116,33.1141304 265.684116,31.5163043 Z M274.307904,34.7282609 L273.277702,31.1576087 L272.2475,34.7119565 C272.131187,35.0869565 271.782247,35.3478261 271.38346,35.3478261 C270.984672,35.3478261 270.668965,35.1032609 270.536035,34.7771739 L268.259621,28.9565217 C268.209773,28.8423913 268.17654,28.6630435 268.17654,28.5652174 C268.17654,28.076087 268.575328,27.6847826 269.073813,27.6847826 C269.455985,27.6847826 269.788308,27.8967391 269.921237,28.2554348 L271.300379,32.2663043 L272.413662,28.3206522 C272.496742,28.0271739 272.779217,27.6847826 273.277702,27.6847826 C273.726338,27.6847826 274.042045,27.9945652 274.125126,28.2717391 L275.238409,32.2663043 L276.600934,28.2554348 C276.733864,27.8967391 277.066187,27.6847826 277.464975,27.6847826 C277.980076,27.6847826 278.362247,28.0434783 278.362247,28.5326087 C278.362247,28.6304348 278.329015,28.7608696 278.279167,28.875 L276.002753,34.7934783 C275.869823,35.1521739 275.554116,35.3478261 275.171944,35.3478261 C274.773157,35.3478261 274.424217,35.0869565 274.307904,34.7282609 Z M280.422652,35.3478261 C279.724773,35.3478261 279.325985,35.0054348 279.325985,34.2880435 C279.325985,33.5543478 279.724773,33.1956522 280.422652,33.1956522 C281.12053,33.1956522 281.502702,33.5543478 281.502702,34.2880435 C281.502702,35.0054348 281.12053,35.3478261 280.422652,35.3478261 Z" id="Know-More.-Know-How." fill="#00253D"></path>
                <path d="M282.002874,26.3391644 L282.002874,25.8678668 C282.249522,25.9591547 282.470203,26.0047979 282.664925,26.0047979 C282.92239,26.0047979 283.051121,25.9188188 283.051121,25.746858 C283.051121,25.6449553 282.951598,25.5409312 282.752549,25.4347826 L282.600018,25.3519871 C282.188939,25.129075 281.983402,24.8732606 281.983402,24.5845363 C281.983402,24.382854 282.060749,24.2220412 282.215444,24.1020932 C282.37014,23.9821453 282.579463,23.9221722 282.843419,23.9221722 C283.031649,23.9221722 283.267475,23.946586 283.550904,23.9954144 L283.550904,24.4412364 C283.310747,24.3563175 283.107374,24.3138587 282.940779,24.3138587 C282.728749,24.3138587 282.622735,24.3817928 282.622735,24.517663 C282.622735,24.6047049 282.716849,24.6981143 282.90508,24.797894 L283.077083,24.8934273 C283.514125,25.1312002 283.732643,25.3923219 283.732643,25.6768003 C283.732643,26.1565921 283.405948,26.3964844 282.752549,26.3964844 C282.549173,26.3964844 282.299284,26.3773779 282.002874,26.3391644 Z M284.27137,26.3391644 L284.27137,23.9826766 L285.098933,23.9826766 L285.601961,25.4857337 L286.117971,23.9826766 L286.835192,23.9826766 L286.835192,26.3391644 L286.254275,26.3391644 L286.254275,24.689623 L285.731775,26.1799423 L285.267691,26.1799423 L284.751681,24.6482252 L284.751681,26.3391644 L284.27137,26.3391644 Z" id="℠" fill="#00253D"></path>
            </g>
        </g>
    </g>
</svg>