<?xml version="1.0" encoding="UTF-8"?>
<svg width="188px" height="33px" viewBox="0 0 188 33" version="1.1" xmlns="http://www.w3.org/2000/svg" xmlns:xlink="http://www.w3.org/1999/xlink">
    <!-- Generator: Sketch 52.5 (67469) - http://www.bohemiancoding.com/sketch -->
    <title>Client Logo Copy</title>
    <desc>Created with Sketch.</desc>
    <g id="Mobile-UI" stroke="none" stroke-width="1" fill="none" fill-rule="evenodd">
        <g id="About-Mobile" transform="translate(-96.000000, -5007.000000)" fill="#003557">
            <g id="Client-Logo-Copy" transform="translate(96.000000, 5006.988281)">
                <path d="M54.4400838,24.5317911 L54.4400838,30.4309423 C54.4400838,30.7021972 54.3126226,30.8416851 54.0582204,30.8416851 L50.9866656,30.8416851 C50.7317432,30.8416851 50.604282,30.7021972 50.604282,30.4309423 L50.604282,11.9109737 C50.604282,11.0261782 50.9117496,10.2813852 51.5272052,9.66990354 C52.1452619,9.06305429 52.9001444,8.75525458 53.792893,8.75525458 L60.1706354,8.75525458 C61.0623435,8.75525458 61.8177462,9.06305429 62.433722,9.66990354 C63.0496978,10.2813852 63.3602869,11.0261782 63.3602869,11.9109737 L63.3602869,21.3714396 C63.3602869,22.2557203 63.050218,23.0015427 62.4352828,23.6166274 C61.8208677,24.2239914 61.0649448,24.5317911 60.1747974,24.5317911 L54.4400838,24.5317911 Z M54.4400838,22.1661599 C54.4400838,21.9335086 54.51552,21.7384315 54.6627507,21.5999731 C54.8105017,21.4512204 55.0003928,21.3714396 55.236066,21.3714396 L58.7279827,21.3714396 C58.9605343,21.3714396 59.1519863,21.301953 59.299217,21.1526856 C59.4490489,21.0039329 59.5229244,20.8155471 59.5229244,20.5859841 L59.5229244,12.7005468 C59.5229244,12.4668661 59.4490489,12.2784803 59.299217,12.1338453 C59.1519863,11.9845779 58.9605343,11.9109737 58.7279827,11.9109737 L55.236066,11.9109737 C55.0003928,11.9109737 54.8105017,11.9845779 54.6627507,12.1338453 C54.51552,12.2784803 54.4400838,12.4668661 54.4400838,12.7005468 L54.4400838,22.1661599 Z" id="Fill-1"></path>
                <path d="M70.8569305,11.9107163 C70.6207371,11.9107163 70.4303256,11.9843206 70.2799734,12.1341027 C70.1337832,12.278223 70.0578268,12.4666087 70.0578268,12.7002895 L70.0578268,24.1223351 C70.0578268,24.3920459 69.9293251,24.5315337 69.6754432,24.5315337 L66.6044086,24.5315337 C66.3489659,24.5315337 66.2215047,24.3920459 66.2215047,24.1223351 L66.2215047,11.9107163 C66.2215047,11.0259208 66.5294926,10.2811279 67.1480696,9.66964618 C67.7682074,9.06331164 68.5220494,8.75551194 69.41896,8.75551194 L73.7911394,8.75551194 C74.0679122,8.75551194 74.2042177,8.88419074 74.2042177,9.13485706 L74.2042177,11.5329153 C74.2042177,11.7851258 74.0679122,11.9107163 73.7911394,11.9107163 L70.8569305,11.9107163 Z" id="Fill-3"></path>
                <path d="M79.4771055,24.5317911 C78.5827961,24.5317911 77.8299946,24.2239914 77.2124581,23.6166274 C76.5954419,23.0015427 76.2884945,22.2557203 76.2884945,21.3714396 L76.2884945,11.9109737 C76.2884945,11.0261782 76.5954419,10.2813852 77.2124581,9.66990354 C77.8299946,9.06305429 78.5827961,8.75525458 79.4771055,8.75525458 L85.8548478,8.75525458 C86.746556,8.75525458 87.5019587,9.06305429 88.1194952,9.66990354 C88.7339102,10.2813852 89.0439791,11.0261782 89.0439791,11.9109737 L89.0439791,21.3714396 C89.0439791,22.2557203 88.7339102,23.0015427 88.1194952,23.6166274 C87.5019587,24.2239914 86.746556,24.5317911 85.8548478,24.5317911 L79.4771055,24.5317911 Z M80.919238,11.9109737 C80.6846053,11.9109737 80.4952344,11.9845779 80.3443619,12.1338453 C80.1992122,12.2784803 80.1248165,12.4668661 80.1248165,12.7005468 L80.1248165,20.5859841 C80.1248165,20.8155471 80.1992122,21.0039329 80.3443619,21.1526856 C80.4952344,21.301953 80.6846053,21.3714396 80.919238,21.3714396 L84.4116749,21.3714396 C84.6468278,21.3714396 84.8382797,21.301953 84.9839497,21.1526856 C85.1332614,21.0039329 85.2086976,20.8155471 85.2086976,20.5859841 L85.2086976,12.7005468 C85.2086976,12.4668661 85.1332614,12.2784803 84.9839497,12.1338453 C84.8382797,11.9845779 84.6468278,11.9109737 84.4116749,11.9109737 L80.919238,11.9109737 Z" id="Fill-5"></path>
                <path d="M107.882589,12.7003409 C107.882589,12.4666602 107.805592,12.2782744 107.661482,12.1336395 C107.51061,11.984372 107.320199,11.9107678 107.085566,11.9107678 L103.735677,11.9107678 L103.735677,24.1223866 C103.735677,24.3920974 103.613419,24.5315852 103.351733,24.5315852 L100.28278,24.5315852 C100.029418,24.5315852 99.8993554,24.3920974 99.8993554,24.1223866 L99.8993554,11.9107678 L96.5562302,11.9107678 C96.324719,11.9107678 96.1337873,11.984372 95.9839554,12.1336395 C95.8336032,12.2782744 95.7618087,12.4666602 95.7618087,12.7003409 L95.7618087,24.1223866 C95.7618087,24.3920974 95.631226,24.5315852 95.3700606,24.5315852 L92.3037083,24.5315852 C92.0513871,24.5315852 91.9213247,24.3920974 91.9213247,24.1223866 L91.9213247,11.9107678 C91.9213247,11.026487 92.2319138,10.2811793 92.8463288,9.66969766 C93.4649059,9.06336312 94.2197883,8.75504869 95.114618,8.75504869 L108.521976,8.75504869 C109.416805,8.75504869 110.171688,9.06336312 110.791826,9.66969766 C111.407801,10.2811793 111.719431,11.026487 111.719431,11.9107678 L111.719431,24.1223866 C111.719431,24.3920974 111.587808,24.5315852 111.335487,24.5315852 L108.264452,24.5315852 C108.011611,24.5315852 107.882589,24.3920974 107.882589,24.1223866 L107.882589,12.7003409 Z" id="Fill-7"></path>
                <path d="M117.763225,24.5317911 C116.869436,24.5317911 116.115594,24.2239914 115.50326,23.6166274 C114.881561,23.0015427 114.576175,22.2557203 114.576175,21.3714396 L114.576175,11.9109737 C114.576175,11.0261782 114.881561,10.2813852 115.50326,9.66990354 C116.115594,9.06305429 116.869436,8.75525458 117.763225,8.75525458 L124.142528,8.75525458 C125.035797,8.75525458 125.788598,9.06305429 126.403013,9.66990354 C127.025232,10.2813852 127.326457,11.0261782 127.326457,11.9109737 L127.326457,21.3714396 C127.326457,22.2557203 127.025232,23.0015427 126.403013,23.6166274 C125.788598,24.2239914 125.035797,24.5317911 124.142528,24.5317911 L117.763225,24.5317911 Z M119.206918,11.9109737 C118.975407,11.9109737 118.783435,11.9845779 118.635684,12.1338453 C118.485332,12.2784803 118.411456,12.4668661 118.411456,12.7005468 L118.411456,20.5859841 C118.411456,20.8155471 118.485332,21.0039329 118.635684,21.1526856 C118.783435,21.301953 118.975407,21.3714396 119.206918,21.3714396 L122.699355,21.3714396 C122.930866,21.3714396 123.120237,21.301953 123.269549,21.1526856 C123.41886,21.0039329 123.491175,20.8155471 123.491175,20.5859841 L123.491175,12.7005468 C123.491175,12.4668661 123.41886,12.2784803 123.269549,12.1338453 C123.120237,11.9845779 122.930866,11.9109737 122.699355,11.9109737 L119.206918,11.9109737 Z" id="Fill-9"></path>
                <path d="M139.774266,8.75530605 C140.667535,8.75530605 141.418775,9.06310576 142.040474,9.6694403 C142.653328,10.2814367 142.963917,11.0262296 142.963917,11.9105104 L142.963917,21.371491 C142.963917,22.2557718 142.653328,23.0015942 142.039433,23.6166789 C141.418775,24.2240428 140.664933,24.5318425 139.771144,24.5318425 L133.397564,24.5318425 C132.506896,24.5318425 131.749933,24.2240428 131.132396,23.6166789 C130.519542,23.00005 130.208433,22.2542277 130.208433,21.3699469 L130.208433,2.84174278 C130.208433,2.56894371 130.337975,2.42945588 130.591857,2.42945588 L133.66133,2.42945588 C133.914692,2.42945588 134.044755,2.56894371 134.044755,2.84328693 L134.044755,8.75530605 L139.774266,8.75530605 Z M134.044755,20.5860356 C134.044755,20.8155986 134.117069,21.0034696 134.26378,21.1522224 C134.415172,21.3020045 134.604023,21.371491 134.834494,21.371491 L138.332653,21.371491 C138.568847,21.371491 138.757177,21.3020045 138.90805,21.1522224 C139.049037,21.0034696 139.129156,20.8155986 139.129156,20.5860356 L139.129156,12.7005983 C139.129156,12.4664029 139.049037,12.2785318 138.90805,12.1338968 C138.757177,11.9846294 138.568847,11.9105104 138.332653,11.9105104 L134.834494,11.9105104 C134.604023,11.9105104 134.415172,11.8358767 134.26378,11.6917564 C134.117069,11.542489 134.044755,11.3541032 134.044755,11.1209372 L134.044755,20.5860356 Z" id="Fill-11"></path>
                <path d="M149.029562,24.5317911 C148.137333,24.5317911 147.383491,24.2239914 146.768036,23.6166274 C146.147898,23.0015427 145.845113,22.2557203 145.845113,21.3714396 L145.845113,11.9109737 C145.845113,11.0261782 146.147898,10.2813852 146.768036,9.66990354 C147.383491,9.06305429 148.137333,8.75525458 149.029562,8.75525458 L155.408865,8.75525458 C156.302134,8.75525458 157.057016,9.06305429 157.66935,9.66990354 C158.291049,10.2813852 158.593834,11.0261782 158.593834,11.9109737 L158.593834,21.3714396 C158.593834,22.2557203 158.291049,23.0015427 157.66935,23.6166274 C157.057016,24.2239914 156.302134,24.5317911 155.408865,24.5317911 L149.029562,24.5317911 Z M150.473775,11.9109737 C150.241744,11.9109737 150.050292,11.9845779 149.902541,12.1338453 C149.752189,12.2784803 149.679354,12.4668661 149.679354,12.7005468 L149.679354,20.5859841 C149.679354,20.8155471 149.752189,21.0039329 149.902541,21.1526856 C150.050292,21.301953 150.241744,21.3714396 150.473775,21.3714396 L153.967773,21.3714396 C154.196683,21.3714396 154.388655,21.301953 154.537967,21.1526856 C154.686758,21.0039329 154.757512,20.8155471 154.757512,20.5859841 L154.757512,12.7005468 C154.757512,12.4668661 154.686758,12.2784803 154.537967,12.1338453 C154.388655,11.9845779 154.196683,11.9109737 153.967773,11.9109737 L150.473775,11.9109737 Z" id="Fill-13"></path>
                <path d="M173.012349,8.83848403 C172.884888,8.76385032 172.768352,8.72730554 172.65962,8.72730554 L169.727492,8.72730554 C169.601591,8.72730554 169.49546,8.76951219 169.409619,8.85341077 C169.332102,8.93061806 169.277996,9.01606079 169.234295,9.10922424 L160.077899,23.8650804 C159.950958,24.1636153 159.950958,24.3478833 160.077899,24.418914 C160.203279,24.4956066 160.321896,24.5316367 160.424385,24.5316367 L163.360155,24.5316367 C163.487096,24.5316367 163.594787,24.4904594 163.678027,24.4019284 C163.758666,24.3293536 163.813292,24.2387637 163.854912,24.1492032 L173.012349,9.38922933 C173.13981,9.09532693 173.13981,8.91208831 173.012349,8.83848403" id="Fill-15"></path>
                <path d="M160.077742,8.83848403 C160.203123,8.76385032 160.32226,8.72730554 160.424229,8.72730554 L163.360519,8.72730554 C163.48746,8.72730554 163.596712,8.76951219 163.677871,8.85341077 C163.75851,8.93061806 163.813656,9.01606079 163.855276,9.10922424 L173.009592,23.8650804 C173.139654,24.1636153 173.139654,24.3478833 173.012193,24.418914 C172.885772,24.4956066 172.768716,24.5316367 172.658943,24.5316367 L169.726816,24.5316367 C169.601956,24.5316367 169.495825,24.4904594 169.409463,24.4019284 C169.331946,24.3293536 169.276799,24.2387637 169.234659,24.1492032 L160.077742,9.38922933 C159.950802,9.09532693 159.950802,8.91208831 160.077742,8.83848403" id="Fill-17"></path>
                <path d="M174.609152,24.5317911 L177.5418,24.5317911 C177.669261,24.5317911 177.77175,24.4906139 177.861754,24.4020828 C177.935109,24.3289933 177.994938,24.2389181 178.036558,24.1493577 L187.193474,9.38938374 C187.320936,9.09548135 187.320936,8.91224272 187.193474,8.83863845 C187.063932,8.76400474 186.949477,8.72745996 186.841785,8.72745996 L183.911739,8.72745996 C183.780636,8.72745996 183.677626,8.76915189 183.590744,8.85356519 C183.515308,8.93077247 183.454959,9.0162152 183.413339,9.10937866 L174.257983,23.8652349" id="Fill-19"></path>
                <path d="M174.609152,8.72740849 L177.540239,8.72740849 C177.669261,8.72740849 177.77175,8.76910042 177.861754,8.85351372 C177.935629,8.930721 177.994938,9.01616373 178.036558,9.10932719 L187.193474,23.8651834 C187.322496,24.1637182 187.322496,24.3479863 187.193474,24.4185023 C187.063932,24.4957095 186.949477,24.5317396 186.841785,24.5317396 L183.911739,24.5317396 C183.780636,24.5317396 183.677626,24.4905624 183.590744,24.4020314 C183.515308,24.3294565 183.454959,24.2388666 183.412299,24.1493062 L174.256422,9.38933227" id="Fill-21"></path>
                <path d="M43.1043609,16.7758561 L39.4563693,8.09981621 C39.3523193,7.87385622 39.0812692,7.60466016 38.8507985,7.4981141 L22.6117212,0.19739329 C22.3812505,0.0913619532 22.1424559,0.00591922514 22.0826271,0.000257357615 C22.0207174,-0.00283093376 21.7834835,0.0800382182 21.5561343,0.187613701 L5.82586133,7.49296695 C5.59747167,7.60002772 5.29364578,7.8527529 5.14745559,8.0591537 L0.0718985226,15.2044305 C-0.0732511721,15.4067136 0.00842804679,15.5240687 0.253985953,15.4684794 L4.54292532,14.442652 L4.54292532,32.3748159 C4.54292532,32.6285705 4.74946449,32.8308535 5.00126539,32.8308535 L38.8107393,32.8308535 C39.0625402,32.8308535 39.2680388,32.6285705 39.2680388,32.3748159 L39.2680388,18.3091928 L26.5396072,13.4487369 C26.42047,13.4121921 26.3034138,13.2783661 26.2805228,13.1594669 L25.1359732,7.39877406 C25.1110012,7.2783307 25.1468985,7.26597754 25.2129702,7.3694353 L27.684677,11.2133286 C27.7523095,11.3209041 27.9037022,11.4377445 28.0217989,11.4758334 L42.8577625,17.0455669 C43.0975976,17.1253478 43.2078906,17.0007867 43.1043609,16.7758561 M20.6529807,30.7987578 L6.97925514,30.7987578 C6.85647619,30.7987578 6.75346673,30.6973589 6.75346673,30.570739 L6.75346673,13.9140394 L14.7523074,12.0080489 C14.9978653,11.951945 15.3225012,11.7398823 15.4744142,11.5427464 L20.8803298,4.55291356 L20.8803298,30.570739 C20.8803298,30.6973589 20.7768001,30.7987578 20.6529807,30.7987578" id="Fill-23"></path>
            </g>
        </g>
    </g>
</svg>