<svg version="1" xmlns="http://www.w3.org/2000/svg" width="933.333" height="933.333" viewBox="0 0 700.000000 700.000000"><path d="M337.8 8.5c-.2.2-3.9.5-8.3.8-4.4.4-8.9.8-10 1-1.1.3-4.2.8-7 1.1-7.4 1.1-24.8 5.4-35 8.8C217.6 40.1 167.3 85.1 141.6 142c-3.3 7.2-3.7 9.1-3.3 13.2.7 5.6 2.7 8.7 8 12.1 6.1 4 15.8 2.5 20.5-3.2.7-.9 3.9-6.8 7.1-13.1 17.4-34.5 41.2-60.9 71.9-79.9 20.9-13 50.3-24 71.2-26.6 3-.4 5.7-.8 6-1 .3-.2 4.3-.6 8.8-1 82.3-6.7 157.3 34.7 193.3 106.6 7.7 15.3 14.2 33.3 16.5 45.4.2 1.1.8 4.2 1.4 7 2.1 11 2.8 17 3.5 31.7.2 5.9 1 10.8 1.9 12.6 5.1 9.9 18.3 12 26.2 4.2 4.1-3.9 5.3-8.4 4.8-18.2-.8-21.2-3.1-36.3-8-54.3-20.9-76-79.5-136.3-154.9-159.3-9.9-3.1-26.2-6.7-34-7.7-2.2-.2-6.2-.7-9-1.1-4.8-.6-35.2-1.4-35.7-.9z"/><path d="M341.7 72.6c-.1.1-4 .5-8.7.8-4.7.4-10.1 1.1-12 1.6-1.9.5-5.3 1.2-7.4 1.6-6.2.9-21.8 6-30.9 9.9-56.4 24.6-94.9 76.9-101.7 138-.6 5.5-1 54.6-.9 126.5.1 126.5.1 128.1 5.3 148.5 4.1 15.9 12.1 34.8 20.3 47.8 23.6 37.5 62.1 65.1 105.2 75.3 14.4 3.4 19.2 3.9 39.1 3.9 23.6 0 38.1-2.1 44-6.4 5.7-4.1 8-12.5 5.3-19.1-1.9-4.6-4.1-7-8.6-9-3.6-1.6-5.8-1.7-13.7-.5-10.1 1.6-14.8 1.9-29 1.9-15.3-.1-24-1.3-37-5-48.7-14-85.7-55.1-95.6-106-2-10.3-2.3-27.7-2.2-133.4 0-111.6.1-119.1 1.9-129.3 8.3-47.7 40.5-87.3 84.9-104.4 3.6-1.4 7.2-2.7 8-2.9.8-.2 4.7-1.2 8.7-2.3 3.9-1.1 10.7-2.4 15-2.9 7.7-1 33.8-.9 38 .1 1.2.3 5.3.9 9 1.2 3.7.4 7 .8 7.3.8.3.1 2.2-.5 4.2-1.2 10.1-3.4 13.7-18 6.4-25.9-4.6-5.1-10.7-6.8-30.6-8.7-6.2-.6-23.9-1.3-24.3-.9z"/><path d="M460.4 123.9c-9.5 2.3-15.6 13-12.1 21.3.8 1.8 3.9 6.4 6.8 10.3 15.4 20 24.3 38.2 29.1 59.5l2.3 10.5.2 103c.1 56.6-.2 105-.7 107.5-.4 2.5-1.1 6.1-1.4 8-.8 5.4-5.4 18.3-9.1 25.8-6.2 12.5-17.5 26.6-27.1 33.8-2.1 1.6-4.5 3.5-5.2 4.1-4 3.8-24.4 14.1-31.2 15.8-.8.3-4 1.1-7 1.9-8.7 2.3-11.8 2.7-23.5 3.1-29.1 1-55.8-9.8-77-31-14.7-14.6-23.5-30.1-28.4-50-3.2-12.9-3.4-17-3.6-80.5-.1-56.6-.2-60.7-2-64.3-4.7-9.9-19.5-12.1-26.7-4.1-4.5 5.1-4.5 5.4-4.3 71.9.1 34.6.5 64.7.9 66.7.3 2.1.8 5.4 1.1 7.5.9 5.9 4.4 19 7.1 26.2 17 45.2 57.7 79.6 104.9 88.7 2.2.4 4.7.9 5.5 1 .8.2 6.7.7 13 1 62.7 3.5 121.2-36 140.5-95.2 4.9-14.9 6.6-25.5 7.1-44.3.5-22.1.5-185.5-.1-190.6-.2-2.2-.7-6.9-1-10.5-2.8-28.1-17.7-62.1-37.7-86.4-8-9.7-13.2-12.4-20.4-10.7z"/><path d="M337 137.3c-.3.3-2.3.7-4.5 1.1-9.1 1.3-21.1 5.1-30.6 9.7-21.6 10.5-40.9 29.8-51.4 51.4-6.8 14.1-9.9 26.9-10.9 45.2-.7 12 8.3 20.7 19.5 18.8 7.5-1.3 12.5-7.5 13.4-16.7.7-7.3 1.4-12.9 1.9-15.3.7-3.6 2.7-10.7 3.5-12.4.5-.9 1.7-3.4 2.7-5.6 12.7-26.8 43.6-45.1 73.2-43.2 4.8.3 11.6 1.3 15.2 2.2 7.5 1.9 23.1 9.3 27.5 13 16.3 13.9 25.2 28 29.1 46.2 1.5 7 1.6 17.3 1.6 97.3 0 60.8-.4 91-1.2 94.3-1.7 7.8-5.8 14.8-12.9 21.7-6.4 6.3-14.7 11.3-20.4 12.4-1.5.2-3.1.7-3.7 1.1-1.8 1.1-16.5.5-21.8-.9-15-4.1-26.9-15.6-32.6-31.5-1.7-4.8-2-9.1-2.5-30.7-.6-24.6-.6-25.1-3.1-28.7-6.4-9.4-20.2-9.5-27.2-.3-2.2 3-2.3 3.7-2.5 28.6-.2 18.2.2 27.1 1.1 31 .7 3 1.3 5.7 1.3 6 .3 2.7 3.1 10.6 5.5 15.4 15.7 31.1 49.3 49.1 82.3 44.1 2.8-.4 5.9-.9 7-1 5-.7 17.5-5.8 24.7-10.2 17.1-10.3 29.8-26.8 35.3-45.8 1.9-6.4 2.1-7.7 3.1-18.7.8-9.6 1-172.2.1-179.8-4.1-37.2-26.1-69.4-59.7-87.2-6.9-3.6-19.6-8.4-25.2-9.3-1.8-.3-5-1-7.1-1.4-3.9-.9-29.9-1.5-30.7-.8z"/><path d="M335.5 203.4c-16 4.8-27.8 16.2-33.7 32.6-2.2 6.3-2.3 7.5-2.6 47.3-.2 38.4-.1 40.9 1.7 44.5 2.3 4.4 4.6 6.7 8.6 8.2 7.6 3 16.6-.2 20.5-7.2 2.2-3.9 2.2-4.7 2.4-42.6.2-35 .4-39.1 2-42.5 4.9-10 19.2-12.5 27.5-4.8 4.6 4.3 5.8 9 5.9 22.4.1 10.3.4 12.3 2.4 15.9 5.2 9.5 17.6 11.3 25.5 3.6 4.5-4.3 5.5-8.7 5.2-23.1-.4-19.6-4.6-31.1-15.2-41.7-13.4-13.3-32.1-18-50.2-12.6zM130.4 223.4c-4.3 1.9-7.9 6.1-9.2 10.5-.7 2.4-.9 42.3-.8 118.2l.1 114.5 2.5 3.6c7.4 10.8 22.6 10 28.7-1.6 1.5-2.8 1.7-13.3 1.8-116.1 0-62.2-.3-114.7-.6-116.9-1.7-10.1-13.3-16.4-22.5-12.2zM555.3 290.7c-4.4 2.5-7.2 6.4-8.1 11.5-.4 2.4-.7 25-.7 50.3l.1 46 2.4 4.3c3.4 6 10.1 9.3 16.7 8.1 6-1.1 9.1-3.4 11.8-8.6 2.1-3.9 2.2-4.9 2.1-52.9-.1-54.2.1-52.7-6.8-57.5-4.2-3.1-13-3.6-17.5-1.2zM379.5 308.7c-3.4.9-8.3 5.3-10 9-1.5 3.1-1.7 7.4-1.8 33.7 0 16.6.4 31.2.8 32.6 4.3 14 23.9 15.8 30.4 2.8 1.9-3.8 2-6 2.1-34.6 0-28.6-.1-30.7-2-34.6-1.1-2.2-3.5-5.1-5.3-6.3-3.3-2.3-10.6-3.6-14.2-2.6zM557 446.1c-3.2 1.3-6.8 4.7-8.6 8.2-.9 1.6-1.7 7-2 13-1.5 31.2-7.4 55.1-20 80.7-29.8 61-84.4 99.9-152.9 108.8-2.7.4-13.1.7-23 .7-19.4 0-29.7-.8-39.5-3.1-1.4-.3-3.6-.8-5-1-6.2-1.2-24.1-6.8-32-10.1-24.5-10.2-44.3-23.5-63-42.3-15.8-15.8-26-30.1-37.4-52.7-7.4-14.5-10-17.2-17.9-18-5.8-.6-12.5 2.9-15.5 8.2-3.6 6.3-2.7 11.7 4.5 26.1 11.5 23.2 27.7 45.2 46.3 62.9 8.1 7.8 9.8 9.3 18.2 15.8 52.6 40.9 122.4 57.2 186.7 43.5 12.8-2.7 11.8-2.5 19.1-4.6 42.3-12.6 82.8-39.4 111.4-73.7 15.9-19 32.1-47.5 39.6-69.5 1.2-3.6 2.5-7.2 2.8-8 .3-.8.6-2 .8-2.5.1-.6 1.2-4.5 2.3-8.9 4.3-15.8 7.1-35.5 7.3-52.8.2-9.8 0-10.9-2.3-14.2-4.2-6.2-13.2-9.2-19.9-6.5z"/></svg>