<?xml version="1.0" encoding="UTF-8"?>
<svg width="73px" height="46px" viewBox="0 0 73 46" version="1.1" xmlns="http://www.w3.org/2000/svg" xmlns:xlink="http://www.w3.org/1999/xlink">
    <!-- Generator: Sketch 52.5 (67469) - http://www.bohemiancoding.com/sketch -->
    <title>Combined Shape</title>
    <desc>Created with Sketch.</desc>
    <g id="Mobile-UI" stroke="none" stroke-width="1" fill="none" fill-rule="evenodd">
        <g id="Rare-In-Common---Mobile" transform="translate(-64.000000, -1471.000000)" fill="#FFFFFF">
            <g id="Group-4" transform="translate(25.000000, 1398.000000)">
                <path d="M104.043805,81.3958388 C103.460423,80.4381682 103.111818,79.3550569 103.027233,78.2353642 C102.964109,77.0177618 103.34285,75.9962408 104.213952,75.5028746 L104.428572,75.3826957 L104.703159,75.6641674 C105.817286,76.8185178 106.423271,78.3017789 106.379085,79.5668204 C106.334898,80.8318619 105.694196,81.7110657 104.753657,82.0399765 L104.520101,82.1222042 C104.460134,82.0273261 104.39701,81.9356106 104.333887,81.8438951 C104.270763,81.7521796 104.169766,81.5940494 104.094018,81.477033 C104.089111,81.4692164 104.08422,81.461391 104.079344,81.4535571 C104.160424,81.5874693 104.234908,81.7261504 104.302325,81.8691959 C104.349668,81.9703992 104.39701,82.0684399 104.447509,82.1696432 L104.254983,82.3246108 C103.478565,82.9571316 102.427561,83.0425219 101.382868,82.7104485 C100.431562,82.389158 99.5924018,81.8007676 98.9652427,81.0152929 C98.8831823,80.9140896 98.8042781,80.8097237 98.7253739,80.6990325 L98.5549407,80.4618372 C98.6085956,80.4017478 98.6590943,80.3384957 98.7127492,80.2752436 C99.3925036,79.4734311 100.48199,79.1517562 101.487022,79.4561293 C102.552903,79.7697776 103.459946,80.4633029 104.043805,81.3958388 Z M44.6978335,85.8133154 C44.6461096,85.9407562 44.5914803,86.068197 44.5339458,86.1956378 C44.4897595,86.2936785 44.4455731,86.3948818 44.4045429,86.5118981 L44.1615179,86.4739469 C43.176793,86.3189793 42.3814383,85.5852552 42.1005393,84.3550024 C41.8196402,83.1247496 42.1289448,81.5908868 42.9842667,80.287894 L43.19573,79.9716337 L43.4324427,80.0506988 C44.3792935,80.3669591 44.947404,81.3157402 45.1241495,82.4922288 C45.2566942,83.5672351 45.1288748,84.6577436 44.7523834,85.6717015 C45.1523387,84.6847287 45.9012914,83.8708313 46.866355,83.3935709 C47.8012149,82.9287353 48.920657,83.0522732 49.7321568,83.7098312 L49.921527,83.8616362 C49.8836529,83.9470265 49.8426227,84.0355794 49.8015925,84.1209697 C49.7605623,84.20636 49.6911266,84.3518398 49.6311594,84.4625309 C49.1692437,85.3370407 48.4599757,86.0554559 47.592274,86.5277111 C46.6454232,87.0305651 45.5817941,87.1317685 44.7012228,86.6510527 L44.4866033,86.5340364 L44.5718199,86.217776 C44.6074614,86.0803382 44.649567,85.9453936 44.6978335,85.8133154 Z M53.1869819,116.254717 C53.2893459,116.340837 53.3913432,116.425502 53.4911545,116.512357 C53.5795273,116.591422 53.6742123,116.667324 53.7657412,116.74639 L53.6584315,116.974097 C53.2323486,117.894415 52.25078,118.422569 50.9157203,118.280252 C49.5806607,118.137935 48.1319789,117.331471 47.1093801,116.06643 L46.8568865,115.750169 L47.0052265,115.547763 C47.6143672,114.725486 48.6811524,114.46299 49.9057461,114.678047 C51.0084852,114.904528 52.0453234,115.376239 52.9402235,116.057175 C52.0300582,115.284311 51.4380329,114.266759 51.300773,113.280176 C51.1184967,112.229701 51.5760631,111.171052 52.4653995,110.585637 L52.6737066,110.449646 L52.8914823,110.64889 C52.9903756,110.737442 53.0850607,110.829158 53.1755376,110.924036 C53.9113775,111.663988 54.4290692,112.593136 54.6715619,113.609087 C54.9208992,114.728648 54.7441537,115.800771 54.0087663,116.506032 L53.8257085,116.676812 L53.5100915,116.480731 C53.3989334,116.408759 53.2911729,116.333306 53.1869819,116.254717 Z M49.4752666,112.762841 C49.5536202,112.859883 49.6377534,112.961321 49.7195321,113.065119 C49.7889678,113.156834 49.8615597,113.245387 49.9341516,113.33394 L49.7826555,113.536347 C49.1861395,114.349136 48.1382913,114.697022 46.885292,114.336485 C45.4905881,113.872111 44.3320285,112.880278 43.6565308,111.57237 L43.4766291,111.230809 L43.6596869,111.060028 C44.4076991,110.37058 45.4965775,110.301003 46.6391108,110.712142 C47.6461904,111.103743 48.5470801,111.724943 49.2711097,112.525126 C48.6127628,111.701979 48.2600456,110.665364 48.2897874,109.595743 C48.334101,108.545279 48.9813853,107.615531 49.9499325,107.211139 L50.1771767,107.113099 L50.3476098,107.340806 C50.4265141,107.445172 50.499106,107.549538 50.5716978,107.657066 C51.1243683,108.492088 51.4296777,109.466903 51.4522691,110.468621 C51.4522691,111.588183 51.0672164,112.587566 50.2150507,113.144184 L50.0067435,113.277013 C49.921527,113.201111 49.8394666,113.122046 49.7574062,113.042981 C49.6588315,112.953425 49.5647354,112.859929 49.4752666,112.762841 Z M43.3687253,90.5950649 C43.3534012,90.6590811 43.3380262,90.7234097 43.3219768,90.7877383 L43.2462287,91.1039987 L43.0000475,91.1039987 C42.002698,91.1324621 41.0874089,90.5568683 40.6013588,89.4056805 C40.1153087,88.2544928 40.1279334,86.704817 40.7244494,85.2942957 C40.771792,85.1772794 40.8222907,85.0634256 40.8696332,84.9464093 L41.1158144,84.9843605 C42.1100078,85.1393281 42.8390829,85.9331417 43.2304479,87.0621912 C43.5372593,88.0066647 43.6247302,89.0070887 43.4884422,89.9874688 C43.7419645,89.0586557 44.3018465,88.2331041 45.0894317,87.6535981 C45.9317475,87.0409915 47.0505651,86.9683847 47.964702,87.4670044 L48.1793215,87.5840208 C48.1572283,87.6757363 48.1319789,87.7642892 48.1098857,87.8560047 C48.0877926,87.9477202 48.0436062,88.0995252 48.0057322,88.2197041 C47.7145818,89.148642 47.1529342,89.9691516 46.3929296,90.5758439 C45.5376077,91.2368281 44.5213212,91.524625 43.5523772,91.2083646 L43.3188206,91.1324621 L43.3472262,90.8162018 C43.3525098,90.7421122 43.3596876,90.6683791 43.3687253,90.5950649 Z M56.1297121,104.225641 C56.0665887,104.225641 56.0318709,104.197178 56.0318709,104.149739 C56.0318709,104.1023 56.1013066,104.051698 56.2117725,103.959983 C56.6283869,103.602609 58.0297261,102.634852 58.0297261,101.265444 C58.0297261,100.253411 57.5373636,100.14272 57.2564646,100.14272 C57.0378784,100.132689 56.8254248,100.216693 56.6725732,100.37359 C56.5556204,100.519743 56.4872007,100.698882 56.4768907,100.885932 C56.4768907,101.015599 56.4358605,101.050387 56.4011427,101.050387 C56.3664248,101.050387 56.3443316,101.015599 56.3380193,100.904908 C56.3380193,100.854306 56.3033014,100.326151 56.3033014,100.177509 C56.2941501,100.119286 56.3217613,100.061436 56.3727371,100.032029 C56.7413026,99.8701254 57.1414961,99.7933824 57.543676,99.8074841 C58.6514914,99.8074841 59.1028236,100.348289 59.1028236,101.072526 C59.1028236,102.249014 57.9129478,102.995389 57.2690892,103.466617 C57.2343714,103.491917 57.2501522,103.50773 57.2690892,103.50773 L57.5847062,103.50773 C57.6825474,103.50773 58.2695949,103.50773 58.6009927,103.463454 C59.0049824,103.42234 59.1186045,103.267373 59.1943526,102.998551 C59.2132896,102.925811 59.2353828,102.897348 59.2701006,102.897348 C59.3048185,102.897348 59.3205993,102.925811 59.3205993,103.004876 C59.2956588,103.35582 59.2460896,103.704569 59.1722594,104.048536 C59.1154483,104.206666 59.0112947,104.222479 58.5094638,104.222479 L56.1297121,104.225641 Z M62.091716,104.323682 C60.731407,104.323682 60.3716037,102.925811 60.3716037,102.150973 C60.3716037,100.778403 60.9839006,99.7916711 62.1737764,99.7916711 C63.3636523,99.7916711 63.8875764,100.819517 63.8875764,101.916941 C63.8875764,103.472942 63.1837506,104.323682 62.091716,104.323682 Z M62.0633105,100.136395 C61.7476936,100.136395 61.4131396,100.490606 61.4131396,101.935916 C61.4131396,102.862559 61.624603,103.982121 62.2274313,103.982121 C62.6598265,103.982121 62.8586652,103.242072 62.8586652,102.125673 C62.8586652,101.097826 62.6598265,100.136395 62.0633105,100.136395 Z M66.4819476,102.486209 C66.4819476,103.058641 66.4819476,103.542519 66.5040408,103.773389 C66.526134,104.004259 66.5671642,104.089649 66.7596905,104.105463 C66.8449071,104.105463 66.9395922,104.105463 66.9900909,104.105463 C67.0405896,104.105463 67.0816198,104.133926 67.0816198,104.168715 C67.0816198,104.203503 67.0816198,104.228804 66.9711539,104.228804 C66.5387587,104.228804 66.0432401,104.209828 65.9927414,104.209828 C65.9422427,104.209828 65.3110088,104.228804 64.941737,104.228804 C64.8533642,104.228804 64.831271,104.203503 64.831271,104.168715 C64.831271,104.133926 64.8502081,104.118113 64.9228,104.105463 C64.9953919,104.092812 65.0963893,104.105463 65.2068552,104.083324 C65.4214747,104.054861 65.4593487,103.931519 65.4719734,103.7133 C65.4845981,103.49508 65.4909104,103.042828 65.4909104,102.470396 L65.4909104,100.889095 C65.4909104,100.721477 65.4719734,100.626598 65.3962254,100.626598 C65.2716524,100.638673 65.1494351,100.668491 65.0332659,100.715151 C64.9838102,100.736458 64.9318376,100.751337 64.8786136,100.759428 C64.8502081,100.759428 64.8249587,100.759428 64.8249587,100.721477 C64.8299524,100.684787 64.8539734,100.653496 64.8880821,100.639249 C65.2415731,100.443167 65.9927414,99.9751021 66.3083583,99.775858 C66.3526016,99.7408987 66.4045436,99.7170434 66.4598544,99.7062808 C66.5040408,99.7062808 66.5103531,99.7473946 66.5103531,99.8043215 C66.5103531,99.8612483 66.4819476,100.436842 66.4819476,101.331859 L66.4819476,102.486209 Z M70.7680256,99.8897118 C70.9353026,99.8897118 70.9637081,99.8897118 70.9637081,99.9466386 C70.9604456,99.981702 70.9485134,100.015398 70.9289903,100.044679 C70.4176908,100.847981 69.5623689,102.935299 69.4992455,103.700649 C69.4928993,103.779586 69.4928993,103.858907 69.4992455,103.937845 C69.4992455,104.080162 68.9058857,104.323682 68.5176769,104.323682 C68.4324603,104.323682 68.4072109,104.301544 68.4072109,104.250942 C68.4151321,104.170969 68.4331614,104.092329 68.4608658,104.01691 C68.9375166,102.856543 69.5086043,101.737425 70.1683534,100.670875 L68.7196717,100.670875 C68.5034561,100.64968 68.2855176,100.686805 68.0884378,100.778403 C67.9818655,100.868266 67.9121777,100.99441 67.8927553,101.132615 C67.8927553,101.189542 67.8580375,101.236981 67.8170073,101.236981 C67.7759771,101.236981 67.7444154,101.202192 67.7444154,101.119965 C67.7444154,100.876444 67.8422566,99.9624517 67.8422566,99.9055248 C67.8422566,99.8485979 67.8422566,99.8359475 67.8990677,99.8359475 C68.24062,99.8865254 68.58619,99.9045274 68.9311351,99.8897118 L70.7680256,99.8897118 Z M74.0756911,101.546916 C74.0756911,100.598135 74.0756911,100.490606 74.0756911,100.304013 C74.0756911,100.117419 74.0125677,100.038354 73.8673839,99.9877525 C73.8137291,99.9877525 73.7348248,99.9877525 73.6780138,99.9877525 C73.6212027,99.9877525 73.5738602,99.9561265 73.5738602,99.9245004 C73.5738602,99.8928744 73.6085781,99.8707362 73.700107,99.8707362 C74.0157239,99.8707362 74.3060915,99.8897118 74.558585,99.8897118 L76.1871684,99.8897118 C76.2927416,99.8891918 76.3981695,99.8817968 76.5027854,99.8675736 C76.5322151,99.8556191 76.5629303,99.8471287 76.5943143,99.8422727 C76.6227198,99.8422727 76.6290321,99.8675736 76.6290321,99.896037 C76.6290321,99.9245004 76.6290321,99.9814273 76.6006266,100.149045 C76.5816896,100.266062 76.5722211,100.465306 76.5532841,100.781566 C76.5532841,100.825842 76.5311909,100.860631 76.496473,100.860631 C76.4617552,100.860631 76.4428181,100.832168 76.439662,100.781566 C76.4400525,100.713073 76.4304835,100.644888 76.4112565,100.579159 C76.3796948,100.44633 76.3039467,100.370428 76.02936,100.348289 C75.8368336,100.329314 75.3350027,100.319826 75.1645696,100.319826 C75.1298517,100.319826 75.117227,100.319826 75.117227,100.376753 L75.117227,101.641794 C75.117227,101.682908 75.117227,101.711372 75.1645696,101.711372 C75.3255342,101.711372 75.7958034,101.711372 76.0009544,101.711372 C76.2818535,101.711372 76.3576016,101.682908 76.420725,101.578542 C76.4554428,101.52794 76.4743798,101.50264 76.5027854,101.50264 C76.5311909,101.50264 76.5375032,101.537428 76.5375032,101.572217 C76.5375032,101.607006 76.5090977,101.837876 76.4901607,102.065583 C76.4901607,102.198412 76.4901607,102.479884 76.4901607,102.546299 C76.4901607,102.612714 76.4901607,102.653827 76.439662,102.653827 C76.3891633,102.653827 76.3860071,102.612714 76.3765386,102.562112 C76.3670701,102.51151 76.3765386,102.476722 76.3576016,102.429283 C76.3355084,102.261665 76.253448,102.163624 75.9725489,102.144648 C75.8115843,102.144648 75.341315,102.12251 75.1582572,102.12251 C75.1298517,102.12251 75.1235394,102.150973 75.1235394,102.198412 L75.1235394,102.596901 C75.1235394,102.792982 75.1235394,103.134543 75.1235394,103.352763 C75.1235394,103.760739 75.2087559,103.852454 75.8494583,103.852454 C76.0309526,103.859946 76.212395,103.836417 76.3860071,103.782877 C76.5501279,103.719625 76.6164075,103.593121 76.6700623,103.324299 C76.6700623,103.254722 76.7047802,103.223096 76.7394981,103.223096 C76.7742159,103.223096 76.7899968,103.280023 76.7899968,103.3496 C76.780407,103.609932 76.7497973,103.869057 76.6984679,104.124438 C76.6574377,104.273081 76.6164075,104.279406 76.4049441,104.279406 C75.6095894,104.279406 75.1740381,104.244617 74.5680535,104.244617 C74.296623,104.244617 74.0567541,104.263593 73.737981,104.263593 C73.6338274,104.263593 73.5991095,104.244617 73.5991095,104.203503 C73.5991095,104.162389 73.6275151,104.146576 73.7158878,104.146576 C73.7740899,104.142169 73.8320288,104.13478 73.8894771,104.124438 C74.0504418,104.099137 74.072535,103.880918 74.0851596,103.517218 C74.0851596,103.286348 74.0851596,102.944787 74.0851596,102.568437 L74.0756911,101.546916 Z M83.0897108,103.498243 C83.1338972,103.874592 83.1907083,104.01691 83.3832346,104.073836 C83.4861633,104.103262 83.5920012,104.121291 83.6988515,104.127601 C83.7745996,104.127601 83.8093174,104.127601 83.8093174,104.184528 C83.8093174,104.241454 83.7619749,104.244617 83.670446,104.244617 C83.1907083,104.244617 82.7235952,104.244617 82.0639558,104.209828 C81.956646,104.209828 81.9313967,104.168715 81.9313967,104.140251 C81.9313967,104.111788 81.956646,104.092812 81.9945201,104.080162 C82.0892051,104.045373 82.0955175,104.010584 82.0702681,103.763901 L81.8619609,101.692396 L80.6847098,103.912544 C80.5269013,104.209828 80.4921834,104.244617 80.4479971,104.244617 C80.4038107,104.244617 80.3501558,104.184528 80.1891912,103.928357 C79.9840402,103.612096 79.6337054,102.944787 79.4127735,102.574762 C79.3149323,102.407144 79.0624387,101.942242 78.9519728,101.736672 L78.7910082,103.371738 C78.7758856,103.525181 78.7685118,103.679291 78.768915,103.833479 C78.768915,104.001097 78.825726,104.070674 78.9709098,104.099137 C79.0408315,104.112453 79.1114232,104.121955 79.1823732,104.127601 C79.2707459,104.127601 79.2865267,104.127601 79.2865267,104.181365 C79.2865267,104.235129 79.2644336,104.244617 79.1729046,104.244617 C78.9172549,104.244617 78.601638,104.225641 78.4280487,104.225641 C78.2544594,104.225641 77.9767165,104.244617 77.7652531,104.244617 C77.7052859,104.244617 77.6358502,104.244617 77.6358502,104.184528 C77.6358502,104.124438 77.670568,104.127601 77.7526284,104.127601 C77.8346888,104.127601 77.8630944,104.127601 77.9262177,104.127601 C78.0934947,104.089649 78.1503058,103.959983 78.2071168,103.577308 L78.7341971,100.019379 C78.7562903,99.8454353 78.7973205,99.7948337 78.8541315,99.7948337 C78.9109426,99.7948337 78.9582851,99.8517605 79.0813757,100.032029 L80.7288961,102.783494 L82.3069808,99.9845899 C82.3985097,99.8327849 82.4458523,99.775858 82.5026633,99.775858 C82.5594744,99.775858 82.5941922,99.8580857 82.6099731,100.000403 L83.0897108,103.498243 Z M89.9575354,103.498243 C90.0048779,103.874592 90.061689,104.01691 90.2510591,104.073836 C90.3591962,104.104005 90.4703444,104.122037 90.5824569,104.127601 C90.6550488,104.127601 90.6897667,104.127601 90.6897667,104.184528 C90.6897667,104.241454 90.6455803,104.244617 90.5508952,104.244617 C90.0743136,104.244617 89.6040444,104.244617 88.9475612,104.209828 C88.8370952,104.209828 88.8150021,104.168715 88.8150021,104.140251 C88.8150021,104.111788 88.8370952,104.092812 88.8781255,104.080162 C88.9696544,104.045373 88.9759667,104.010584 88.9538735,103.763901 L88.7455663,101.692396 L87.5556905,103.925194 C87.4010382,104.222479 87.3663203,104.257267 87.3189778,104.257267 C87.2716352,104.257267 87.2211365,104.197178 87.0601719,103.941007 C86.8581771,103.624747 86.5078423,102.957437 86.2869104,102.587413 C86.1890691,102.419795 85.9334194,101.954892 85.8261097,101.749323 L85.6588327,103.381226 C85.6415527,103.534524 85.6331222,103.688694 85.6335833,103.842966 C85.6335833,104.010584 85.6935506,104.080162 85.8355782,104.108625 C85.9065579,104.121956 85.9782009,104.131458 86.0501977,104.137089 C86.1385704,104.137089 86.1543513,104.137089 86.1543513,104.190853 C86.1543513,104.244617 86.1322581,104.254105 86.037573,104.254105 C85.7850795,104.254105 85.4663064,104.235129 85.292717,104.235129 C85.1191277,104.235129 84.844541,104.254105 84.6299215,104.254105 C84.5731104,104.254105 84.5036747,104.254105 84.5036747,104.194015 C84.5036747,104.133926 84.5383926,104.137089 84.6172968,104.137089 C84.696201,104.137089 84.7277627,104.137089 84.7940423,104.137089 C84.9581631,104.099137 85.0181303,103.969471 85.0749414,103.586796 L85.5988655,100.028866 C85.6241148,99.8549231 85.6619889,99.8043215 85.7219561,99.8043215 C85.7819233,99.8043215 85.8261097,99.8612483 85.9460441,100.041517 L87.5967207,102.783494 L89.1748054,99.9845899 C89.2694905,99.8327849 89.3136768,99.775858 89.3704879,99.775858 C89.4272989,99.775858 89.465173,99.8580857 89.4809538,100.000403 L89.9575354,103.498243 Z M92.5077202,102.745543 C92.5189346,102.523263 92.4628254,102.302778 92.3467556,102.113022 C92.1321361,101.720859 91.5608694,100.765753 91.3651869,100.471631 C91.1695044,100.177509 91.0811317,100.060492 90.8980738,100.003566 C90.8484503,99.9898841 90.7977768,99.9803635 90.7465777,99.9751021 C90.6897667,99.9751021 90.6613611,99.943476 90.6613611,99.91185 C90.6613611,99.880224 90.7055475,99.8580857 90.7749832,99.8580857 C91.0116959,99.8580857 91.4440911,99.8770614 91.665023,99.8770614 C91.7628643,99.8770614 92.1258237,99.8580857 92.4887832,99.8580857 C92.5519066,99.8580857 92.5992491,99.8580857 92.5992491,99.9055248 C92.5992491,99.9529639 92.5708436,99.9624517 92.4824709,99.9814273 C92.3278186,99.9814273 92.3057254,100.054167 92.3057254,100.101606 C92.3107242,100.161288 92.330229,100.218836 92.3625364,100.269224 C92.4540653,100.436842 93.1768281,101.720859 93.268357,101.894803 C93.621848,101.227493 93.9343088,100.651899 94.0416185,100.417867 C94.0925701,100.327192 94.1247722,100.227162 94.1363036,100.123744 C94.1363036,100.060492 94.0984296,100.009891 93.9279964,99.9814273 C93.8743416,99.9814273 93.8301552,99.9498013 93.8301552,99.91185 C93.8301552,99.8738988 93.864873,99.8580857 93.956402,99.8580857 C94.1931147,99.8580857 94.3887972,99.8770614 94.6065729,99.8770614 L95.2725246,99.8580857 C95.3419603,99.8580857 95.3861467,99.8580857 95.3861467,99.91185 C95.3861467,99.9656143 95.3482727,99.9751021 95.2725246,99.9751021 C95.1954048,99.9816065 95.1192135,99.9964517 95.0452804,100.019379 C94.9118646,100.083294 94.8015718,100.187181 94.7296635,100.316663 C94.3187061,100.922622 93.9506366,101.556696 93.6281603,102.214226 C93.5657028,102.390954 93.533685,102.577036 93.5334753,102.764519 L93.5334753,103.175657 C93.5334753,103.267373 93.5334753,103.491917 93.5524123,103.748088 C93.5524123,103.893568 93.5745055,104.035885 93.789125,104.064349 C93.8932786,104.086487 94.0069007,104.086487 94.1047419,104.099137 C94.2025832,104.111788 94.199427,104.121276 94.199427,104.162389 C94.199427,104.203503 94.1710215,104.216154 94.0826487,104.216154 C93.6660344,104.216154 93.1894528,104.197178 92.9969265,104.197178 C92.8044001,104.197178 92.3656926,104.216154 92.1037305,104.216154 C92.0216701,104.216154 91.9869523,104.190853 91.9869523,104.152902 C91.9869523,104.11495 92.0216701,104.099137 92.0911059,104.099137 C92.1589922,104.094142 92.2264723,104.084633 92.2931007,104.070674 C92.4445968,104.02956 92.4793147,103.925194 92.4887832,103.754414 C92.5077202,103.510893 92.5140326,103.25156 92.5140326,103.159844 L92.5077202,102.745543 Z M63.4678059,108.975872 C63.4678059,107.426196 63.4678059,107.982815 63.4678059,107.15105 C63.4678059,106.983432 63.4678059,106.935993 63.5151484,106.935993 C63.562491,106.935993 63.6224582,107.030871 63.6634884,107.075147 L65.0269535,108.545758 C65.4498802,109.001173 65.9169933,109.523003 66.0558648,109.66532 L66.0085222,107.486286 C66.0085222,107.207977 65.9738044,107.113099 65.8412452,107.07831 C65.7799816,107.065231 65.7176482,107.057821 65.6550313,107.056172 C65.6108449,107.056172 65.595064,107.056172 65.595064,107.027708 C65.595064,106.999245 65.6297819,106.996082 65.6834368,106.996082 C65.8759631,106.996082 66.0811141,106.996082 66.1284567,106.996082 C66.1757992,106.996082 66.3146706,106.996082 66.4914161,106.996082 C66.5387587,106.996082 66.5703204,106.996082 66.5703204,107.027708 C66.5703204,107.059334 66.5513834,107.053009 66.5198217,107.056172 L66.4093557,107.075147 C66.2894213,107.100448 66.2610158,107.1637 66.2610158,107.460985 L66.2610158,109.965767 C66.2610158,110.250402 66.2610158,110.282028 66.2231417,110.282028 C66.1852677,110.282028 66.1379252,110.234588 65.9075248,110.006881 C65.8601823,109.962605 65.2415731,109.333246 64.7902408,108.843043 C64.3389086,108.352839 63.8086722,107.764595 63.6698007,107.609627 L63.7266118,109.668482 C63.7266118,110.019531 63.7771105,110.130223 63.8938887,110.165011 C63.9641647,110.181996 64.0362172,110.19049 64.1085083,110.190312 C64.1306014,110.190312 64.1432261,110.190312 64.1432261,110.215613 C64.1432261,110.240914 64.1179768,110.250402 64.0643219,110.250402 C63.8212968,110.250402 63.6508637,110.250402 63.6098335,110.250402 C63.5688033,110.250402 63.3920578,110.250402 63.1995315,110.250402 C63.1585013,110.250402 63.1300958,110.250402 63.1300958,110.215613 C63.1300958,110.180824 63.1300958,110.190312 63.1648136,110.190312 C63.2246715,110.190958 63.2842759,110.182425 63.3415591,110.165011 C63.4488689,110.136548 63.470962,110.010044 63.470962,109.621043 L63.4678059,108.975872 Z M67.4067052,108.615335 C67.4023806,108.166428 67.5793054,107.734826 67.8972863,107.418579 C68.2152671,107.102332 68.647307,106.928291 69.0952559,106.935993 C70.0421067,106.935993 70.7774941,107.546375 70.7774941,108.545758 C70.7975923,109.009437 70.6256536,109.46084 70.3023519,109.793184 C69.9790502,110.125529 69.533104,110.309292 69.0700065,110.301003 C68.6207097,110.31745 68.1850941,110.144485 67.868986,109.824126 C67.5528778,109.503767 67.3852065,109.065333 67.4067052,108.615335 Z M70.3671921,108.665937 C70.3671921,107.638091 69.7359582,107.084635 69.0636942,107.084635 C68.3914301,107.084635 67.8012264,107.559026 67.8012264,108.498319 C67.8012264,109.497702 68.4008986,110.142873 69.1710039,110.142873 C69.5686813,110.13971 70.3671921,109.915166 70.3671921,108.665937 Z M75.2276929,109.687458 C75.2434738,109.842426 75.2750355,110.082784 75.4580933,110.142873 C75.5440395,110.168898 75.6334311,110.181694 75.7232115,110.180824 C75.7453047,110.180824 75.7705541,110.180824 75.7705541,110.206125 C75.7705541,110.231426 75.7705541,110.240914 75.7074307,110.240914 C75.6443073,110.240914 75.1235394,110.240914 74.9657309,110.215613 C74.8678896,110.215613 74.8457964,110.193475 74.8457964,110.171336 C74.8457964,110.149198 74.8457964,110.152361 74.8773581,110.142873 C74.9089198,110.133385 74.9026075,110.063808 74.893139,109.987905 L74.687988,107.748782 L73.6243589,110.003718 C73.5359862,110.193475 73.5233615,110.231426 73.4823313,110.231426 C73.4413011,110.231426 73.4318326,110.190312 73.3529283,110.035344 C73.2393062,109.826613 72.8731906,109.086563 72.8510974,109.039124 C72.8290042,108.991685 72.3177048,107.90375 72.2703622,107.774083 L72.0967729,109.794987 C72.0967729,109.864564 72.0967729,109.924653 72.0967729,109.997393 C72.0967729,110.070133 72.1472716,110.13971 72.2135512,110.152361 C72.2638916,110.158027 72.3147069,110.158027 72.3650473,110.152361 C72.3934528,110.152361 72.4092337,110.152361 72.4092337,110.174499 C72.4092337,110.196637 72.3871405,110.21245 72.3461103,110.21245 C72.1883018,110.21245 71.96737,110.21245 71.9358083,110.21245 C71.9042466,110.21245 71.6896271,110.21245 71.5728488,110.21245 C71.5318186,110.21245 71.5002569,110.21245 71.5002569,110.177662 C71.5002569,110.142873 71.5223501,110.152361 71.5444433,110.152361 C71.5874399,110.157245 71.6308496,110.157245 71.6738462,110.152361 C71.8127177,110.12706 71.8221862,109.972092 71.8442794,109.798149 L72.1598963,107.008733 C72.1598963,106.958131 72.1819895,106.92018 72.2072389,106.92018 C72.2324882,106.92018 72.2482691,106.939155 72.2703622,106.986594 L73.5801725,109.684295 L74.8426403,106.989757 C74.8615773,106.951806 74.8773581,106.92018 74.9057637,106.92018 C74.9341692,106.92018 74.94995,106.954968 74.9594185,107.037196 L75.2276929,109.687458 Z M76.9193997,108.242148 C76.9193997,107.571676 76.9193997,107.451497 76.9193997,107.315505 C76.9193997,107.179513 76.868901,107.097286 76.7742159,107.075147 C76.7308699,107.063909 76.6864093,107.057545 76.6416568,107.056172 C76.6227198,107.056172 76.606939,107.056172 76.606939,107.030871 C76.606939,107.00557 76.625876,106.996082 76.6732185,106.996082 C76.8152461,106.996082 77.0866767,106.996082 77.1056137,106.996082 C77.1245507,106.996082 77.3991375,106.996082 77.5285404,106.996082 C77.5727268,106.996082 77.59482,106.996082 77.59482,107.030871 C77.59482,107.06566 77.59482,107.056172 77.5601021,107.056172 C77.5254082,107.054342 77.4906424,107.054342 77.4559485,107.056172 C77.3391702,107.07831 77.3044524,107.15105 77.2949839,107.302855 C77.2855154,107.45466 77.2949839,107.559026 77.2949839,108.229498 L77.2949839,108.98536 C77.2949839,109.396499 77.2949839,109.734897 77.3139209,109.915166 C77.3139209,110.04167 77.3549511,110.133385 77.4811979,110.152361 L77.6579434,110.152361 C77.6958174,110.152361 77.7084421,110.152361 77.7084421,110.177662 C77.7084421,110.202962 77.7084421,110.21245 77.6453187,110.21245 C77.408606,110.21245 77.1340192,110.21245 77.1119261,110.21245 C77.0898329,110.21245 76.8215585,110.21245 76.6921555,110.21245 C76.6479692,110.21245 76.625876,110.21245 76.625876,110.177662 C76.625876,110.142873 76.625876,110.152361 76.6732185,110.152361 C76.7099338,110.156334 76.7469692,110.156334 76.7836844,110.152361 C76.868901,110.152361 76.8941504,110.038507 76.9130874,109.912003 C76.9320244,109.731734 76.9320244,109.393336 76.9320244,108.982197 L76.9193997,108.242148 Z M78.9645975,108.975872 C78.9645975,107.426196 78.9645975,107.982815 78.9645975,107.15105 C78.9645975,106.983432 78.9645975,106.935993 79.01194,106.935993 C79.0592826,106.935993 79.1192498,107.030871 79.16028,107.075147 L80.5237451,108.545758 C80.9466718,109.001173 81.4137849,109.523003 81.5526564,109.66532 L81.5053138,107.486286 C81.5053138,107.207977 81.4705959,107.113099 81.3380368,107.07831 C81.2767732,107.065231 81.2144398,107.057821 81.1518228,107.056172 C81.1076365,107.056172 81.0918556,107.056172 81.0918556,107.027708 C81.0918556,106.999245 81.1265735,106.996082 81.1802284,106.996082 C81.3727547,106.996082 81.5779057,106.996082 81.6252482,106.996082 C81.6725908,106.996082 81.8114622,106.996082 81.9882077,106.996082 C82.0355503,106.996082 82.067112,106.996082 82.067112,107.027708 C82.067112,107.059334 82.0481749,107.053009 82.0166132,107.056172 L81.9061473,107.075147 C81.7862129,107.100448 81.7578074,107.1637 81.7578074,107.460985 L81.7578074,109.965767 C81.7578074,110.250402 81.7578074,110.282028 81.7199333,110.282028 C81.6820593,110.282028 81.6347168,110.234588 81.4043164,110.006881 C81.3569738,109.962605 80.7383647,109.333246 80.2870324,108.843043 C79.8357002,108.352839 79.3054638,107.764595 79.1665923,107.609627 L79.2234034,109.668482 C79.2234034,110.019531 79.2739021,110.130223 79.3906803,110.165011 C79.4609563,110.181996 79.5330088,110.19049 79.6052999,110.190312 C79.627393,110.190312 79.6400177,110.190312 79.6400177,110.215613 C79.6400177,110.240914 79.6147684,110.250402 79.5611135,110.250402 C79.3180884,110.250402 79.1476553,110.250402 79.1066251,110.250402 C79.0655949,110.250402 78.8888494,110.250402 78.6963231,110.250402 C78.6552929,110.250402 78.6268873,110.250402 78.6268873,110.215613 C78.6268873,110.180824 78.6268873,110.190312 78.6616052,110.190312 C78.7214502,110.190763 78.7810255,110.182235 78.8383507,110.165011 C78.9456605,110.136548 78.9677536,110.010044 78.9677536,109.621043 L78.9645975,108.975872 Z M83.4242648,108.242148 C83.4242648,107.571676 83.4242648,107.451497 83.4242648,107.315505 C83.4242648,107.179513 83.3832346,107.100448 83.241207,107.068822 C83.2128014,107.068822 83.1559904,107.068822 83.1181164,107.068822 C83.0802423,107.068822 83.0613053,107.068822 83.0613053,107.043521 C83.0613053,107.018221 83.0833985,107.008733 83.130741,107.008733 C83.2285823,107.008733 83.3453606,107.008733 83.6136349,107.008733 L84.5952036,107.008733 C84.661323,107.010082 84.7272742,107.001555 84.7908861,106.983432 C84.8192916,106.983432 84.825604,106.964456 84.8382287,106.964456 C84.8508533,106.964456 84.8571657,106.983432 84.8571657,107.00557 C84.8420249,107.071311 84.8304354,107.137822 84.8224478,107.204814 C84.8224478,107.271229 84.8224478,107.353457 84.8035108,107.464148 C84.8035108,107.508424 84.78773,107.536888 84.7687929,107.536888 C84.7498559,107.536888 84.7372312,107.514749 84.7372312,107.479961 C84.7378504,107.432652 84.7303779,107.385587 84.7151381,107.340806 C84.6835764,107.239603 84.5952036,107.198489 84.3995211,107.179513 C84.3269292,107.179513 83.8598162,107.179513 83.8124736,107.179513 C83.7651311,107.179513 83.7872243,107.179513 83.7872243,107.22379 L83.7872243,108.406604 C83.7872243,108.43823 83.7872243,108.45088 83.8124736,108.45088 C83.837723,108.45088 84.3963649,108.45088 84.4942062,108.45088 C84.5920475,108.45088 84.6646393,108.428742 84.7088257,108.37814 C84.7530121,108.327538 84.7435436,108.337026 84.7593244,108.337026 C84.7751053,108.337026 84.7814176,108.337026 84.7814176,108.368652 C84.7814176,108.400278 84.7593244,108.469856 84.7466997,108.60901 C84.7340751,108.748165 84.7466997,108.843043 84.7309189,108.903132 C84.7151381,108.963222 84.7309189,108.966384 84.6993572,108.966384 C84.6677955,108.966384 84.6709517,108.931596 84.6709517,108.896807 C84.6708157,108.856012 84.6644289,108.81548 84.6520147,108.776628 C84.6362338,108.713376 84.5857351,108.653287 84.4310828,108.637474 C84.2764305,108.621661 83.8913779,108.615335 83.818786,108.615335 C83.8107223,108.614432 83.802658,108.617027 83.7966269,108.622466 C83.7905959,108.627905 83.787174,108.635669 83.7872243,108.643799 L83.7872243,109.023311 C83.7872243,109.168791 83.7872243,109.655832 83.7872243,109.757035 C83.7872243,109.930979 83.8219421,110.025857 83.9292519,110.073296 C84.0441343,110.105669 84.1636235,110.118498 84.2827429,110.111247 C84.4132707,110.116506 84.5438997,110.103736 84.6709517,110.073296 C84.806667,110.029019 84.8540095,109.940466 84.8887274,109.757035 C84.8887274,109.709596 84.9045082,109.693783 84.9266014,109.693783 C84.9486946,109.693783 84.9518508,109.728572 84.9518508,109.757035 C84.9518508,109.785499 84.9171329,110.073296 84.8981959,110.174499 C84.8792589,110.275702 84.8319163,110.28519 84.6646393,110.28519 C84.3490224,110.28519 84.2069948,110.28519 84.0334055,110.28519 C83.8598162,110.28519 83.6641337,110.28519 83.5000128,110.28519 C83.3958593,110.28519 83.2948618,110.304166 83.1843959,110.28519 C83.1370534,110.28519 83.1149602,110.28519 83.1149602,110.250402 C83.1149602,110.215613 83.1370534,110.231426 83.1623027,110.225101 C83.194786,110.229235 83.2276607,110.229235 83.260144,110.225101 C83.3516729,110.202962 83.4084839,110.142873 83.4147963,109.82345 C83.4147963,109.655832 83.4147963,109.43445 83.4147963,109.054937 L83.4242648,108.242148 Z M86.2490364,108.242148 C86.2490364,107.571676 86.2490364,107.451497 86.2490364,107.315505 C86.2490364,107.179513 86.2080062,107.100448 86.0659785,107.068822 L85.9397318,107.068822 C85.9113262,107.068822 85.8860769,107.068822 85.8860769,107.043521 C85.8860769,107.018221 85.9081701,107.008733 85.9523564,107.008733 C86.0533539,107.008733 86.166976,107.008733 86.4384065,107.008733 L87.4199752,107.008733 C87.4860795,107.009807 87.5519908,107.001285 87.6156577,106.983432 C87.6409071,106.983432 87.6503756,106.964456 87.6630002,106.964456 C87.6756249,106.964456 87.6630002,106.983432 87.6630002,107.00557 C87.64796,107.071186 87.6374149,107.137756 87.6314386,107.204814 C87.6314386,107.271229 87.6314386,107.353457 87.6125015,107.464148 C87.6125015,107.508424 87.5967207,107.536888 87.5777837,107.536888 C87.5588467,107.536888 87.5430658,107.514749 87.5430658,107.479961 C87.5445806,107.43284 87.5381791,107.3858 87.5241288,107.340806 C87.4925671,107.239603 87.4041944,107.198489 87.2085119,107.179513 C87.13592,107.179513 86.6688069,107.179513 86.6214644,107.179513 C86.5741218,107.179513 86.596215,107.179513 86.596215,107.22379 L86.596215,108.406604 C86.596215,108.43823 86.596215,108.45088 86.6214644,108.45088 C86.6467137,108.45088 87.2021995,108.45088 87.3031969,108.45088 C87.4041944,108.45088 87.4736301,108.428742 87.5178165,108.37814 C87.5620028,108.327538 87.5525343,108.337026 87.5683152,108.337026 C87.584096,108.337026 87.5904083,108.337026 87.5904083,108.368652 C87.5904083,108.400278 87.5683152,108.469856 87.5556905,108.60901 C87.5430658,108.748165 87.5556905,108.843043 87.5367535,108.903132 C87.5178165,108.963222 87.5367535,108.966384 87.5083479,108.966384 C87.4799424,108.966384 87.4767863,108.931596 87.4767863,108.896807 C87.4777736,108.85617 87.4724497,108.815626 87.4610054,108.776628 C87.4610054,108.713376 87.3915697,108.653287 87.2400735,108.637474 C87.0885774,108.621661 86.6972124,108.615335 86.6246205,108.615335 C86.6168106,108.614277 86.6089553,108.616933 86.6033826,108.622518 C86.5978098,108.628102 86.5951588,108.635973 86.596215,108.643799 L86.596215,109.023311 C86.596215,109.168791 86.596215,109.655832 86.596215,109.757035 C86.596215,109.930979 86.6309329,110.025857 86.7382426,110.073296 C86.8531251,110.105669 86.9726143,110.118498 87.0917336,110.111247 C87.221223,110.116663 87.3508315,110.103888 87.4767863,110.073296 C87.6156577,110.029019 87.6630002,109.940466 87.6977181,109.757035 C87.6977181,109.709596 87.713499,109.693783 87.7355921,109.693783 C87.7576853,109.693783 87.7608415,109.728572 87.7608415,109.757035 C87.7492469,109.897094 87.7302835,110.036443 87.7040304,110.174499 C87.6756249,110.28519 87.6409071,110.28519 87.4736301,110.28519 C87.1580131,110.28519 87.0159855,110.28519 86.8423962,110.28519 C86.6688069,110.28519 86.4731244,110.28519 86.3058474,110.28519 C86.20485,110.28519 86.1006964,110.304166 85.9902305,110.28519 C85.9428879,110.28519 85.9207948,110.28519 85.9207948,110.250402 C85.9207948,110.215613 85.9428879,110.231426 85.9681373,110.225101 C86.0006205,110.229235 86.0334953,110.229235 86.0659785,110.225101 C86.1575075,110.202962 86.2111623,110.142873 86.2206308,109.82345 C86.2206308,109.655832 86.2206308,109.43445 86.2206308,109.054937 L86.2490364,108.242148 Z M45.9321289,94.7473182 C45.2030538,95.5474569 44.2498906,96.0123596 43.2556973,95.8668799 L43.0126722,95.825766 C43.0000475,95.7182375 42.990579,95.6128174 42.9842667,95.5095057 C42.8526225,94.2606946 43.2763034,93.0171374 44.1425808,92.1097067 C44.8674757,91.3624014 45.9547814,91.0958554 46.9421031,91.4234217 L47.1756596,91.4993242 L47.1567226,91.7744707 C47.1567226,91.9009748 47.1346294,92.027479 47.1188486,92.1476579 C46.9932076,93.1140868 46.5796282,94.0200849 45.9321289,94.7473182 Z M42.9400803,95.5095057 C42.9400803,95.6170342 42.9242995,95.7245627 42.9211433,95.825766 L42.6781183,95.8732051 C41.6965496,96.0724491 40.6960439,95.6676358 40.0016866,94.6271392 C39.3073294,93.5866426 39.0548358,92.0622676 39.3957021,90.5758439 C39.4209515,90.4525023 39.449357,90.3323234 39.4777625,90.2121445 L39.7270999,90.2121445 C40.7339179,90.1900062 41.5955522,90.8446652 42.1825997,91.8725114 C42.7154064,92.8566085 42.9819874,93.9632672 42.9558612,95.0825542 C42.9558612,95.2153835 42.9495488,95.3577007 42.9400803,95.5095057 Z M46.2067156,98.9346055 C45.6291366,99.8517605 44.7675024,100.474793 43.7638405,100.515907 L43.5176593,100.515907 L43.4324427,100.199647 C43.0836781,98.9915346 43.2846314,97.6907762 43.9816162,96.6448804 C44.5665226,95.780595 45.5914454,95.3253722 46.62333,95.4715544 L46.866355,95.5063431 L46.8947605,95.7814896 C46.8947605,95.9048311 46.9168537,96.0313353 46.9231661,96.1546768 C46.9681486,97.1323654 46.7185105,98.1009967 46.2067156,98.9346055 Z M43.3882564,100.212297 L43.4261304,100.528558 L43.19573,100.620273 C42.2488792,100.990298 41.2041872,100.768916 40.3551776,99.864411 C39.506168,98.9599063 38.9601507,97.5145964 39.0232741,95.993384 L39.0422112,95.6201968 L39.2852362,95.5695951 C40.2857419,95.3671885 41.2325927,95.8510669 42.0058542,96.7745471 C42.7027576,97.649252 43.1587166,98.6916993 43.3282892,99.7979963 C43.3535385,99.9371508 43.3724755,100.066818 43.3882564,100.212297 Z M47.2293145,103.020689 C46.8253248,104.035885 46.0899373,104.807561 45.1052125,105.02578 L44.8653436,105.076382 C44.8148449,104.978341 44.7706586,104.8803 44.723316,104.78226 C44.1611379,103.648964 44.1276346,102.324623 44.6317871,101.164241 C45.053654,100.206873 45.9836344,99.5745723 47.0273196,99.5355002 L47.2735009,99.5355002 C47.2987502,99.6240531 47.3239996,99.712606 47.3524051,99.8043215 C47.3808106,99.896037 47.4186846,100.044679 47.443934,100.168021 C47.6576238,101.1191 47.5828885,102.112463 47.2293145,103.020689 Z M44.666505,104.788585 C44.6980667,104.896113 44.7296283,105.000479 44.7643462,105.104845 L44.5528829,105.234512 C43.7007171,105.772155 42.6149949,105.737366 41.5987083,104.997317 C40.5824218,104.257267 39.8186288,102.906836 39.616634,101.391949 L39.5692914,101.018761 L39.7996918,100.927046 C40.7465426,100.550696 41.77861,100.857469 42.6875868,101.619656 C43.5318359,102.36309 44.1672781,103.314926 44.5307897,104.380609 C44.5812884,104.513438 44.6254748,104.64943 44.666505,104.788585 Z M48.9652076,106.894879 C48.7569005,107.976489 48.1761653,108.874669 47.2450953,109.266832 L47.014695,109.36171 C46.9484154,109.269994 46.8821359,109.181441 46.8190125,109.089726 C46.049755,108.066523 45.770264,106.755329 46.0552195,105.506496 C46.2963199,104.483441 47.1011098,103.689303 48.1256666,103.463454 L48.3655355,103.416015 C48.4065657,103.501405 48.4475959,103.583633 48.4917822,103.665861 C48.5359686,103.748088 48.599092,103.896731 48.6495907,104.010584 C49.0335283,104.920529 49.1432454,105.923189 48.9652076,106.894879 Z M46.7779823,109.108702 C46.828481,109.209905 46.8789797,109.307946 46.9326346,109.405986 L46.7495767,109.573604 C46.0078769,110.256727 44.9253109,110.418019 43.7796214,109.858239 C42.6339319,109.298458 41.63027,108.093506 41.1600008,106.626058 L41.0463787,106.262358 L41.257842,106.129529 C42.1163201,105.588724 43.19573,105.708903 44.2309536,106.303472 C45.2028768,106.895487 46.00702,107.727403 46.5665189,108.719701 C46.6391108,108.855693 46.7085465,108.98536 46.7779823,109.108702 Z M49.530162,82.7136111 C48.4854699,83.0456845 47.4344655,82.9602942 46.6580478,82.3277734 L46.4686777,82.1728059 C46.5160202,82.0716025 46.5633628,81.9735618 46.6138615,81.8723585 C47.1658394,80.6987712 48.1948502,79.8197368 49.438633,79.4592919 C50.4436652,79.1549188 51.5331515,79.4765937 52.2129059,80.2784062 C52.2665608,80.3416583 52.3170595,80.4049104 52.3707144,80.4649999 L52.2002812,80.7021951 C52.1245332,80.8097237 52.0424728,80.9140896 51.9604124,81.0184555 C51.3310892,81.8072409 50.4868739,82.3961005 49.530162,82.7136111 Z M46.5791436,81.8438951 C46.5160202,81.9356106 46.4528968,82.0273261 46.3929296,82.1222042 L46.1593731,82.0399765 C45.2125223,81.7237161 44.5812884,80.8445123 44.5339458,79.5668204 C44.4866033,78.2891285 45.0989002,76.8185178 46.2098718,75.6641674 L46.4844585,75.3826957 L46.7022342,75.5028746 C47.5764931,75.9962408 47.964702,77.0177618 47.8857977,78.2353642 C47.7988133,79.3868193 47.4326175,80.4995883 46.8190125,81.477033 C46.7432644,81.5940494 46.6643602,81.7237161 46.5791436,81.8438951 Z M48.5769988,79.1019177 L48.2960997,79.1588445 C48.2960997,79.0639664 48.2803189,78.9690883 48.2708504,78.8773728 C48.1761653,77.7230224 48.7064018,76.3694281 49.773187,75.3067932 C50.8399722,74.2441584 52.25078,73.6495889 53.462749,73.7033531 L53.7783659,73.7191662 L53.7120864,74.0038005 C53.3956512,75.2477871 52.7399535,76.3789814 51.8183847,77.2707701 L51.767886,77.3213718 C50.8984006,78.2115048 49.7900411,78.8299801 48.5769988,79.1019177 Z M75.4202193,88.9376152 C75.5440398,89.1972973 75.6931002,89.4441192 75.8652392,89.6745018 C75.9574709,89.7838142 76.0635767,89.8805674 76.1808561,89.9622988 C76.309318,90.042885 76.469878,90.0524191 76.606939,89.9875996 C76.7968878,89.8983815 76.9682407,89.7738975 77.1119261,89.6207376 C77.3725122,89.3461307 77.6080596,89.0487147 77.8157518,88.7320459 C77.9451548,88.5422897 78.0556207,88.3367205 78.1692428,88.1343138 C78.248147,87.9983219 78.3175827,87.8591673 78.3933308,87.7231753 C78.425059,87.6518555 78.5056064,87.6162877 78.5795448,87.6409476 C78.6309866,87.6456976 78.6827553,87.6456976 78.7341971,87.6409476 C78.7783835,87.6409476 78.8194137,87.6409476 78.8636,87.6409476 C79.1529825,87.6282152 79.4254614,87.5007992 79.6210807,87.286736 C79.7886189,87.089336 79.9171506,86.8618004 79.999821,86.6162641 C80.167098,86.2209386 80.315438,85.8161253 80.4606217,85.4081494 C80.5679315,85.0918891 80.6499919,84.7756287 80.7415208,84.4815066 C80.8330497,84.1873844 80.9087978,83.9312135 80.9750774,83.6529044 C81.0760748,83.2069773 81.1707599,82.7610501 81.2559764,82.3119604 C81.2970066,82.0969034 81.3190998,81.8818463 81.3443492,81.6794397 C81.3695985,81.477033 81.3916917,81.1797483 81.4232534,80.9299026 C81.4548151,80.6800569 81.4579713,80.3985852 81.4800645,80.1329265 C81.5179385,79.6269099 81.4800645,79.1208933 81.4958453,78.6148767 C81.4958453,78.4093074 81.4674398,78.2069008 81.4516589,78.0013316 C81.4516589,77.87799 81.4327219,77.7514859 81.4200972,77.6249817 C81.4200972,77.5743801 81.4200972,77.5206158 81.3980041,77.4700141 C81.3300428,76.9117493 81.2138812,76.360444 81.0508254,75.8222976 C81.0226054,75.7399407 80.9844486,75.6613475 80.9372033,75.5882649 C80.8993293,75.5218503 80.8582991,75.5186877 80.7920195,75.5566389 C80.7387355,75.5791893 80.6998346,75.626438 80.6878659,75.6831431 C80.6626166,75.8475985 80.6342111,75.9994034 80.6089617,76.1733466 C80.5800455,76.5690228 80.5716178,76.9659351 80.5837124,77.3624856 C80.5837124,77.6123313 80.5837124,77.862177 80.5553068,78.1088601 C80.5553068,78.2796407 80.5553068,78.4472587 80.5300575,78.6180393 C80.5048081,78.7888199 80.4984958,78.9342997 80.4858711,79.0734542 C80.4858711,79.1082429 80.4858711,79.1430315 80.4858711,79.1778201 L80.4385286,79.6964872 C80.4385286,79.8166661 80.4227477,79.9400076 80.4069669,80.0601866 C80.372249,80.3195201 80.3438435,80.5788536 80.2901886,80.8350245 C80.2002962,81.2671464 80.0725012,81.6904707 79.9082921,82.100066 C79.8451687,82.2613588 79.7599522,82.4163263 79.6810479,82.5712939 C79.6368615,82.6630094 79.6179245,82.6598468 79.5169271,82.5871069 C79.5358641,82.5238549 79.5453326,82.4542776 79.570582,82.3910255 C79.6683694,82.1202944 79.7443604,81.8421502 79.7978262,81.5592607 C79.8514811,81.3252281 79.8988236,81.0911954 79.9398538,80.8540001 C79.9714155,80.6895447 79.9903525,80.5187641 80.0124457,80.3511461 C80.0471636,80.1013004 80.0787253,79.8514547 80.1134431,79.601609 C80.1134431,79.585796 80.1134431,79.5668204 80.1134431,79.5510074 C80.1134431,79.3327877 80.1134431,79.1114055 80.1450048,78.8963484 C80.1702142,78.6008251 80.1765394,78.303989 80.1639418,78.0076568 C80.1639418,77.814738 80.1355363,77.6249817 80.1197555,77.4352255 C80.1197555,77.3308596 80.0976623,77.2264937 80.0913499,77.1189651 C80.0599162,76.7988796 80.0039927,76.4816863 79.924073,76.170184 C79.8861989,76.0183791 79.8357002,75.8539237 79.7852015,75.7210943 C79.7631083,75.6546796 79.7283905,75.5787771 79.6526424,75.5787771 C79.5768943,75.5787771 79.5484888,75.6610048 79.5263956,75.7274195 C79.4499023,75.9688054 79.4011916,76.2181607 79.3812118,76.4706314 C79.3812118,76.5876477 79.3496501,76.7046641 79.3370255,76.8216804 C79.3244008,76.9386967 79.3149323,77.0525505 79.3054638,77.1695668 C79.2959953,77.2865831 79.2865267,77.4858272 79.2770582,77.6281443 C79.2770582,77.6660956 79.2770582,77.7040468 79.2770582,77.7451607 L79.2107787,78.3270798 C79.1918417,78.4946977 79.1729046,78.6654783 79.1508115,78.8330963 C79.1287183,79.0007143 79.1066251,79.1683323 79.0782196,79.3359503 C79.049814,79.5035683 79.0182523,79.6775115 78.9898468,79.8482921 C78.9898468,79.9400076 78.9645975,80.0317231 78.9488166,80.120276 C78.9235673,80.2784062 78.8983179,80.4365364 78.8667562,80.5946666 C78.8351945,80.7527968 78.7973205,80.910927 78.7594465,81.078545 C78.6836984,81.3948053 78.6174188,81.7363665 78.5258899,82.0589521 C78.4305016,82.4218271 78.3081206,82.7770324 78.1597743,83.121587 C78.0905922,83.2519133 78.0114518,83.3766813 77.9230616,83.4947742 C77.8897363,83.5556514 77.813671,83.5782352 77.7526284,83.5453759 C77.7273791,83.5453759 77.6989736,83.5453759 77.6768804,83.5264002 C77.5299524,83.4802502 77.3712356,83.5470739 77.3012962,83.6845304 C77.2381728,83.8047094 77.1908303,83.9312135 77.1371754,84.0545551 C77.0835205,84.1778966 76.9951478,84.3708154 76.9225559,84.5352708 C76.8897891,84.5895972 76.8197718,84.6078388 76.7647474,84.5763847 C76.7257468,84.5563031 76.69135,84.5282987 76.66375,84.494157 C76.624842,84.4525529 76.5919114,84.4057174 76.5659088,84.3550024 C76.530288,84.2807852 76.4437841,84.2463883 76.3670701,84.2759373 C76.1891522,84.32316 76.0044268,84.3392093 75.8210528,84.3233764 C75.7257434,84.3216845 75.6314701,84.3434007 75.546466,84.3866284 C75.4966756,84.409498 75.4432591,84.4234146 75.3886576,84.4277423 C75.2835993,84.4356323 75.178099,84.4356323 75.0730406,84.4277423 C75.0344729,84.4207682 74.9959283,84.4400798 74.9783556,84.4751813 C74.9632279,84.5017155 74.9525646,84.5305649 74.9467939,84.5605716 C74.9373535,84.6144051 74.8936811,84.6555923 74.8394841,84.661775 C74.7440374,84.6820155 74.6608849,84.7402268 74.6090837,84.8230678 C74.5869906,84.8578564 74.5333357,84.876832 74.4923055,84.8989702 C74.4512753,84.9211085 74.4134012,84.9337589 74.3755272,84.9590597 C74.3396345,84.9827934 74.3149623,85.0201768 74.3072172,85.0625631 C74.2994721,85.1049495 74.309325,85.1486672 74.334497,85.1836046 C74.3542988,85.2127864 74.378835,85.2384416 74.4070889,85.2595071 C74.5783608,85.3886023 74.6565371,85.6074448 74.6059276,85.8161253 C74.6059276,85.9110034 74.5838344,86.0058815 74.5680535,86.1007596 C74.5586187,86.1434877 74.5470312,86.1857098 74.5333357,86.2272638 C74.4389437,86.2053656 74.3598193,86.1412375 74.3187162,86.0533206 C74.1903217,85.8780191 74.0722891,85.6953292 73.9652252,85.5061902 C73.7979482,85.212068 73.6496083,84.9116207 73.4917998,84.6174985 C73.3667415,84.3777623 73.2672968,84.1254635 73.1951199,83.8647988 C73.1193718,83.6212783 73.0436237,83.3809205 72.9710318,83.1374 C72.8195357,82.6408712 72.6743519,82.1411798 72.5228558,81.644651 C72.5007626,81.5655859 72.4755133,81.4865208 72.4471077,81.4106184 C72.3807388,81.1895367 72.328036,80.9645651 72.2892993,80.7369838 C72.2256091,80.5780393 72.2997667,80.3971747 72.4565762,80.3290079 C72.6276911,80.209367 72.7825852,80.0679772 72.917377,79.9083816 C73.0799353,79.7390789 73.2327312,79.5606295 73.3750215,79.3739016 C73.5481001,79.1545267 73.691377,78.9131181 73.8011044,78.6559905 C73.8082755,78.639543 73.8167176,78.6236817 73.8263537,78.6085515 C74.0269686,78.2162681 74.1684302,77.7963471 74.2461243,77.3624856 C74.2756225,77.1865876 74.2956406,77.0092247 74.3060915,76.8311682 C74.3187162,76.7130977 74.3281847,76.5960813 74.334497,76.4801192 C74.3326948,76.2684618 74.3168792,76.0571574 74.2871545,75.8475985 C74.2610244,75.6001618 74.2124285,75.3556285 74.1419707,75.117037 C74.0723746,74.8643355 73.9793903,74.6186953 73.8642278,74.3833129 L73.6338274,73.9152476 C73.6645142,73.9013875 73.6961578,73.8897611 73.7285125,73.8804589 C73.8957895,73.8488329 74.0630664,73.8172069 74.2303434,73.7982313 C74.5143987,73.7634426 74.7984539,73.7318166 75.0856653,73.7096783 C75.5401537,73.6748897 75.9946421,73.6875401 76.4459743,73.7096783 C76.6852377,73.7071719 76.9241629,73.7283589 77.1592686,73.7729304 C77.3265456,73.8108817 77.5032911,73.8140443 77.6768804,73.8361825 C77.799971,73.8361825 77.9230616,73.8772963 78.0461522,73.8994346 C78.1692428,73.9215728 78.3617691,73.959524 78.5037967,73.9943127 C78.6458244,74.0291013 78.7121039,74.0575648 78.8194137,74.0860282 C78.9267234,74.1144916 79.1129374,74.1587681 79.2581212,74.2030445 C79.403305,74.247321 79.5137709,74.2915974 79.6400177,74.3358739 L79.9556347,74.4528902 C80.1828788,74.5446057 80.4164354,74.6331586 80.6405234,74.7375246 C80.9214225,74.8703539 81.1960092,75.0189963 81.4705959,75.1644761 C81.5908125,75.225785 81.7077501,75.293346 81.8209307,75.3668827 C82.0071447,75.4807364 82.1902026,75.5945902 82.3701042,75.7179317 C82.5500059,75.8412732 82.6289101,75.9076879 82.758313,76.0057286 L83.2727687,76.4073793 C83.371662,76.4874986 83.466347,76.5697263 83.5568239,76.6540624 C83.7304132,76.8121926 83.9103149,76.9703228 84.0681233,77.1411034 C84.3237731,77.4162499 84.5731104,77.6977216 84.8098231,77.9855186 C85.0465358,78.2733155 85.2264375,78.4883725 85.4189638,78.747706 C85.5717515,78.9656739 85.7129243,79.1915887 85.8418905,79.4245032 C86.0091675,79.721788 86.1764445,80.0253979 86.3216283,80.3353331 C86.4668121,80.6452683 86.5835903,80.9678538 86.7035248,81.2683012 C86.8544522,81.6818776 86.9798832,82.1043537 87.0791089,82.5333427 C87.1611693,82.8812291 87.230605,83.2322781 87.2779476,83.5864897 C87.3095093,83.8458232 87.3316025,84.1051567 87.3568518,84.3644902 C87.3957484,84.7109521 87.4126153,85.0595421 87.4073505,85.4081494 C87.4073505,85.6611577 87.3757888,85.9110034 87.3568518,86.1640117 C87.3568518,86.3063289 87.3568518,86.4518087 87.3284463,86.5941258 C87.3063531,86.7870447 87.2779476,86.9831261 87.2432297,87.1760449 C87.1801063,87.4923053 87.1138268,87.8338665 87.0349225,88.1596147 C86.968643,88.4221108 86.8834264,88.6782817 86.801366,88.9344526 C86.7193056,89.1906235 86.6435575,89.4056805 86.5457163,89.633388 C86.4068448,89.9496484 86.2648172,90.2848843 86.0975402,90.5821691 C85.8860769,90.9743319 85.6525204,91.3538444 85.4094953,91.7270316 C85.164575,92.1020468 84.8935218,92.4592559 84.5983598,92.7959917 C84.3458662,93.0869512 84.0839042,93.3652603 83.8093174,93.6277565 C83.4517946,93.9712001 83.0699544,94.2882874 82.6667841,94.5765376 C82.4521646,94.7283425 82.2375451,94.8927979 82.0166132,95.0193021 C81.588011,95.2918391 81.1432172,95.537925 80.6847098,95.7561887 C80.4479971,95.8668799 80.2081282,95.9649206 79.9651032,96.0534735 C79.6068919,96.1970311 79.2387577,96.3143555 78.8636,96.4045225 C78.7863401,96.4298038 78.7071825,96.4488404 78.6268873,96.4614494 C78.5785523,96.4651905 78.5307562,96.449226 78.4943282,96.4171729 L78.4753912,96.4013599 C78.1597743,96.0850995 77.8441573,95.8004652 77.5474774,95.4936926 C77.3441131,95.2987094 77.1572572,95.0871423 76.9888354,94.8611719 C76.9039406,94.7434238 76.8457706,94.6084967 76.8184023,94.4658464 C76.7718324,94.1733486 76.7075381,93.8839624 76.625876,93.599293 C76.5541447,93.3558201 76.4386262,93.1275274 76.2850097,92.9256584 C76.0917539,92.6780601 75.8401421,92.4824461 75.5527784,92.3563898 C75.3329427,92.2634531 75.1217134,92.1512734 74.9215445,92.0211538 C74.7181935,91.8899213 74.5699564,91.688493 74.5049302,91.4550477 C74.4612331,91.2814951 74.4505261,91.1012517 74.4733685,90.9237303 C74.5010709,90.7214263 74.5519037,90.5229866 74.6248646,90.3323234 C74.6664184,90.2116409 74.7192559,90.0951614 74.7826731,89.984437 C74.8988494,89.7512232 75.0306582,89.5261631 75.1771942,89.3108024 C75.2624108,89.1842983 75.3350027,89.0704445 75.4202193,88.9376152 Z M65.6992176,79.7787149 C65.7749657,79.8482921 65.8444014,79.905219 65.9075248,79.9684711 C66.1554963,80.2235055 66.4306822,80.4504663 66.7281288,80.6452683 C66.9812725,80.8136739 67.2509519,80.9556767 67.532952,81.0690572 C67.8367529,81.196146 68.1546245,81.2863932 68.4798028,81.3378785 C68.6716593,81.3795572 68.8673811,81.4007595 69.0636942,81.4011305 C69.2071255,81.4017704 69.3504162,81.4102165 69.4929332,81.4264314 C69.5813059,81.4264314 69.6160238,81.5149843 69.6728349,81.5624233 C69.8022378,81.6794397 69.9190161,81.812269 70.0547313,81.9197976 C70.1930779,82.034061 70.2941928,82.1871438 70.3450989,82.3593995 C70.4113785,82.5744565 70.4839704,82.7895136 70.5534061,82.9919202 C70.5534061,83.0393593 70.5818116,83.0867983 70.5944363,83.1310748 C70.6985899,83.4220343 70.7964311,83.7161565 70.9100532,84.007116 C71.0236753,84.2980755 71.1057357,84.5384334 71.2256702,84.8009295 C71.2982621,84.9811979 71.3740101,85.1551411 71.4560705,85.3290843 C71.7275011,85.9015156 72.0084002,86.4676217 72.2798308,87.0400529 C72.3713597,87.2361344 72.4502639,87.4417036 72.526012,87.6441103 C72.563886,87.7453136 72.5796668,87.8560047 72.6080724,87.9603706 C72.6295474,88.0196764 72.6104278,88.0860928 72.5607298,88.124826 C72.4534201,88.2197041 72.3461103,88.3145822 72.2451129,88.4189482 C72.1441155,88.5233141 72.0147125,88.6782817 71.8979343,88.8079484 C71.7621705,89.0084313 71.7621705,89.2716123 71.8979343,89.4720952 C71.9251466,89.5115598 71.9569299,89.5476542 71.9926193,89.5796237 C72.1262446,89.7080112 72.2034538,89.8843615 72.2072389,90.0698273 C72.2409432,90.469129 72.308519,90.8648297 72.4092337,91.2526411 C72.4660447,91.4582103 72.5323243,91.6637796 72.6080724,91.8630236 C72.6838204,92.0622676 72.8226919,92.346902 72.9236893,92.5967476 C72.9962812,92.7959917 73.0562484,93.0015609 73.1099033,93.2071302 C73.1760072,93.5096277 73.2678725,93.805889 73.38449,94.0926592 C73.5170491,94.4089196 73.6464521,94.7251799 73.7695427,95.0256273 C73.8926333,95.3260746 73.9746937,95.5980586 74.0851596,95.8826929 C74.1956256,96.1673272 74.296623,96.3887095 74.4007766,96.6417178 C74.4007766,96.6575308 74.4007766,96.6765064 74.4007766,96.7081325 C74.366123,96.7111276 74.3312765,96.7111276 74.296623,96.7081325 C73.981006,96.6606934 73.6937946,96.616417 73.3971147,96.5531649 C73.1723729,96.5063566 72.9501108,96.4483029 72.731163,96.3792217 C72.3682035,96.2685305 72.005244,96.161002 71.6549092,96.0250101 C71.2698761,95.8795984 70.89548,95.7073422 70.5344691,95.5095057 C70.2756632,95.3640259 70.0137011,95.2280339 69.7612076,95.0762289 C69.508714,94.924424 69.3351247,94.788432 69.1299737,94.6397896 C68.9248227,94.4911473 68.7386087,94.3488301 68.5492386,94.1970251 C68.3598684,94.0452201 68.2336216,93.9408542 68.091594,93.8080249 C67.9495664,93.6751955 67.8517251,93.5929678 67.738103,93.4917645 C67.551889,93.2956831 67.3688312,93.096439 67.1920857,92.8940324 C67.0153402,92.6916258 66.8764688,92.5271704 66.731285,92.3405767 C66.5417962,92.1139777 66.3718072,91.8716992 66.2231417,91.6163405 C66.1095196,91.4265843 65.9769605,91.2494785 65.8633384,91.0565596 C65.6722505,90.7545832 65.5065086,90.4372332 65.3678198,90.1077785 C65.2636662,89.848445 65.1405756,89.5985993 65.0522029,89.3361032 C64.9322685,89.0008672 64.8281149,88.659306 64.736586,88.3177448 C64.676487,88.1274783 64.6259251,87.934318 64.5850898,87.7389884 C64.5377473,87.5112809 64.5061856,87.2835734 64.4714677,87.055866 C64.4367499,86.8281585 64.4051882,86.5656624 64.3736265,86.3189793 C64.3720834,86.3106166 64.3720834,86.3020412 64.3736265,86.2936785 C64.3736265,86.1292231 64.3483771,85.9616051 64.345221,85.7971497 C64.345221,85.4808893 64.345221,85.1393281 64.345221,84.8135799 C64.345221,84.5921977 64.3767827,84.3708154 64.3957197,84.1494332 C64.3957197,83.9818152 64.4272814,83.8110346 64.4493746,83.6434166 C64.4714677,83.4757986 64.5124979,83.2386033 64.550372,83.0393593 C64.6068698,82.7085678 64.6859599,82.3820523 64.7870847,82.0621147 C64.8849259,81.7458544 64.9859233,81.429594 65.1027016,81.1354718 C65.2194799,80.8413497 65.3299458,80.5662032 65.4530364,80.287894 C65.5130036,80.1455769 65.595064,80.0095849 65.6676559,79.8704304 C65.6747674,79.8387853 65.6853524,79.8080262 65.6992176,79.7787149 Z M71.4213527,80.9615286 C71.4329295,80.9963713 71.4403456,81.0324658 71.4434459,81.0690572 C71.4532318,81.2184247 71.5070571,81.3615175 71.5980982,81.4801956 C71.6671323,81.5902051 71.7202631,81.7094609 71.7559066,81.8344073 C71.8032492,81.9957 71.8316547,82.1506676 71.8663726,82.330936 C71.9579015,82.7926762 72.0178687,83.2575789 72.1504278,83.7098312 C72.2009265,83.8869371 72.2735184,84.0545551 72.3334856,84.2284983 C72.3934528,84.4024415 72.4565762,84.6016855 72.5228558,84.7851165 C72.5891353,84.9685475 72.6711958,85.1741168 72.7469438,85.3701982 C72.8700344,85.6864586 72.9899689,86.0027189 73.1193718,86.3189793 C73.1824952,86.4707843 73.2645556,86.6162641 73.3371475,86.7649064 C73.3767286,86.8326187 73.3923005,86.9117515 73.3813339,86.9894513 C73.3786787,87.0225943 73.361296,87.0527858 73.3339913,87.071679 C73.3339913,87.071679 73.2740241,87.071679 73.2582433,87.0432155 C73.1890241,86.9706269 73.1247064,86.8934996 73.0657169,86.8123455 C72.9367517,86.6013293 72.8248753,86.3802933 72.731163,86.1513613 C72.731163,86.1323857 72.731163,86.1102475 72.7059136,86.0912718 C72.526012,85.7117594 72.3524226,85.3322469 72.1630525,84.9558971 C72.0336495,84.6997262 71.8821534,84.4562057 71.7495943,84.2000348 C71.6170352,83.9438639 71.5065693,83.7098312 71.389791,83.4631482 C71.3171991,83.3081806 71.2540757,83.1468878 71.1877962,82.9950828 C71.1215166,82.8432778 71.0962672,82.7768632 71.055237,82.6788224 C70.929327,82.3774157 70.8238813,82.0678299 70.7396201,81.7521796 C70.7153594,81.6633603 70.6814929,81.577461 70.6386227,81.4960087 C70.6102172,81.4327566 70.5786555,81.3726671 70.5407814,81.293602 L71.4213527,80.9615286 Z M72.2167074,79.7976905 C72.2167074,79.7502514 72.1883018,79.6996498 72.1819895,79.6490481 C72.1696541,79.5140182 72.1252871,79.3838987 72.0525866,79.2695357 C71.9545007,79.0890427 71.8913219,78.8916087 71.8663726,78.6876166 C71.8442794,78.5674376 71.8221862,78.4472587 71.7969368,78.3302424 C71.7716875,78.213226 71.7243449,78.013982 71.6896271,77.8432014 C71.6706901,77.7578111 71.6896271,77.7198598 71.7843122,77.710372 C72.1279392,77.6554409 72.463121,77.5565945 72.7816617,77.4162499 C73.0476111,77.2988416 73.3058809,77.1646901 73.5549232,77.0145992 C73.6237949,76.9712319 73.6892174,76.9225937 73.7506057,76.8691194 C73.78802,76.9504217 73.7947481,77.0425595 73.7695427,77.1284529 C73.7170303,77.4321487 73.6378175,77.730596 73.53283,78.0203072 C73.4494119,78.2615481 73.3437499,78.4944785 73.2172131,78.71608 C73.0621686,78.9894436 72.8722532,79.2414085 72.6522587,79.4656171 L72.3650473,79.753414 C72.3082363,79.7976905 72.3082363,79.7945279 72.2167074,79.7976905 Z M70.6575597,77.008274 C70.6150358,77.0554307 70.5536334,77.0809705 70.4902827,77.0778513 L69.3225001,77.0778513 C69.3058154,77.081017 69.288686,77.081017 69.2720013,77.0778513 C69.082238,77.0306772 68.8864428,77.0125506 68.6912662,77.024087 C68.6434942,77.019805 68.5960513,77.01241 68.5492386,77.0019488 L68.2146846,76.960835 C68.1736544,76.8880951 68.2146846,76.8311682 68.2430901,76.7774039 C68.3440876,76.6192738 68.4492932,76.4643062 68.5587071,76.3125012 C68.6754506,76.1705429 68.8165324,76.0505932 68.9753214,75.9582896 C69.2909384,75.7432325 69.6065553,75.5376633 69.9032352,75.3257688 C69.9568901,75.2909802 70.0168573,75.2656794 70.086293,75.2277281 C70.1141293,75.2721137 70.138403,75.3186449 70.1588849,75.3668827 C70.2935482,75.7885632 70.4261073,76.2102437 70.5565623,76.6319242 C70.5849678,76.7615909 70.6228418,76.8849325 70.6575597,77.008274 Z M70.9353026,78.1341609 C70.960552,78.2322016 70.9826451,78.2954537 70.9952698,78.3618684 L71.0804864,78.8236085 C71.1057357,78.9849013 71.1372974,79.1398689 71.1530783,79.3011617 C71.1783276,79.5668204 71.1972647,79.8293165 71.2067332,80.0949752 C71.2061734,80.2124262 71.197738,80.3297067 71.1814838,80.4460242 C71.1776569,80.5000885 71.1414324,80.5464002 71.0899549,80.5630406 C70.9754685,80.6140598 70.8573026,80.656348 70.7364639,80.6895447 C70.6719155,80.6938862 70.6083035,80.6722596 70.5597184,80.6294552 C70.3575602,80.4936008 70.1703051,80.3367067 70.0010765,80.1613899 C69.8527365,79.9937719 69.7043965,79.8451295 69.5592128,79.6616985 C69.539953,79.6438495 69.5229893,79.623664 69.508714,79.601609 C69.47084,79.5351944 69.4771524,79.5035683 69.5371196,79.4529667 C69.7107089,79.3074869 69.8779859,79.1556819 70.0515752,79.0133648 C70.3230057,78.7919825 70.5534061,78.5294864 70.8027435,78.2859659 C70.8406175,78.2480147 70.8753354,78.2037382 70.9353026,78.1341609 Z M80.9624527,79.3802268 C80.9624527,79.4751049 80.9403595,79.569983 80.9277348,79.6648611 C80.9024855,79.9083816 80.8835484,80.1487395 80.8488306,80.3890974 C80.8141127,80.6294552 80.7573017,80.910927 80.7036468,81.1702605 C80.666363,81.3676023 80.6189576,81.5628884 80.5616192,81.7553422 C80.4858711,81.9957 80.4006545,82.2328953 80.3028133,82.4637654 C80.2178811,82.6608552 80.1219937,82.8530211 80.0156019,83.0393593 C79.9217048,83.226305 79.8016063,83.3988325 79.6589547,83.5517011 C79.5768877,83.6449562 79.4655699,83.7074212 79.3433378,83.7288069 C79.2928391,83.7288069 79.2423404,83.7509451 79.1918417,83.7572703 C79.0965362,83.7726525 79.0095193,83.8207211 78.9456605,83.8932623 C78.7586608,84.104309 78.6005167,84.3393499 78.4753912,84.5921977 C78.3049581,84.9084581 78.1408373,85.243694 77.9767165,85.5726048 C77.8125957,85.9015156 77.6610995,86.233589 77.4969787,86.5624998 C77.4622609,86.6352397 77.4212306,86.6890039 77.3328579,86.6858413 C77.2997202,86.6898074 77.2665694,86.6785492 77.2426666,86.6552117 C77.2187637,86.6318742 77.2066712,86.5989594 77.2097673,86.5656624 C77.2091332,86.5276055 77.2166676,86.4898563 77.2318605,86.4549713 C77.3139209,86.2810281 77.3928251,86.1070849 77.4780417,85.9331417 C77.651631,85.5757674 77.8220642,85.2183932 78.0019658,84.8641816 C78.1503058,84.5732221 78.3175827,84.2885877 78.4690789,84.0039534 C78.5645174,83.8416764 78.6873243,83.6972179 78.8320384,83.5770019 C78.9342177,83.4922825 79.0623805,83.4453798 79.1949978,83.4441725 C79.3458616,83.4320088 79.4802138,83.3438466 79.551645,83.2101399 C79.6652671,83.0393593 79.7631083,82.8527656 79.8672619,82.6693346 C79.9051359,82.5997574 79.9366976,82.5206923 79.9777278,82.4479524 C80.1848905,82.0255645 80.3325354,81.576405 80.4164354,81.1133336 C80.4700903,80.8761383 80.4984958,80.6326178 80.5332136,80.39226 C80.5679315,80.1519021 80.6058055,79.9020564 80.6373672,79.6553733 C80.6373672,79.5415196 80.6563043,79.4213406 80.6657728,79.3043243 C80.6679064,79.2784707 80.6732065,79.2529783 80.6815536,79.2284218 C80.6972305,79.1611785 80.7617113,79.1171873 80.8298936,79.1272185 C80.8956734,79.141597 80.9451053,79.19621 80.9529842,79.2632104 C80.9529842,79.2979991 80.9529842,79.3327877 80.9529842,79.3675764 L80.9624527,79.3802268 Z M67.6907605,77.8748274 C67.7444154,77.9918438 67.7949141,78.1120227 67.8517251,78.229039 C67.9716596,78.4693969 68.0947502,78.7129174 68.2209969,78.9501127 C68.2935888,79.0861046 68.3788054,79.2126088 68.4545535,79.3422755 C68.4924275,79.4086902 68.4892713,79.433991 68.4324603,79.4751049 C68.2430901,79.6079343 68.0568761,79.7407636 67.8611936,79.8609425 C67.6655111,79.9811215 67.5013903,80.0506988 67.3183325,80.1424143 C67.2506795,80.172381 67.1810857,80.1977394 67.1100253,80.2183168 C66.9964032,80.2531054 66.9269675,80.2183168 66.9427484,80.0823248 C66.9638004,79.9193792 66.9943624,79.7578095 67.0342773,79.5984464 C67.0910883,79.370739 67.1510555,79.1430315 67.2299598,78.9216492 C67.3246448,78.6433401 67.4382669,78.3681936 67.5455767,78.0930471 C67.5739822,78.0171446 67.6150124,77.9475673 67.6497303,77.8716648 L67.6907605,77.8748274 Z M71.9042466,76.872282 C71.9452768,76.8058674 71.9831508,76.7394527 72.0273372,76.6762006 C72.28747,76.2939631 72.5215585,75.8945672 72.7280068,75.4807364 C72.7753493,75.3858583 72.7848178,75.3826957 72.8921276,75.4269722 C73.1489361,75.5308609 73.3997203,75.6491176 73.6432959,75.7811838 C73.7222002,75.8222976 73.794792,75.8728993 73.7821674,75.9804278 C73.7821674,76.0057286 73.7821674,76.0310295 73.7979482,76.0563303 C73.8231976,76.2018101 73.7979482,76.2492491 73.6780138,76.321989 C73.432423,76.4600266 73.1733034,76.5723641 72.9047523,76.657225 C72.6838204,76.7299649 72.4628886,76.7900544 72.2419567,76.8501438 C72.1378031,76.8754447 72.0273372,76.8817699 71.9263398,76.8975829 L71.9042466,76.872282 Z M68.520833,77.7672989 C68.5648836,77.7623901 68.6093416,77.7623901 68.6533921,77.7672989 C68.7930667,77.7995326 68.9361718,77.8144034 69.079475,77.8115753 C69.432966,77.8115753 69.7833008,77.8115753 70.1367918,77.8368762 L70.2220083,77.8368762 C70.0518059,78.0475953 69.8672552,78.2462597 69.6696787,78.4314457 C69.4834647,78.6148767 69.2877822,78.7824947 69.0952559,78.9532753 C68.8366472,78.5942888 68.6422799,78.1929903 68.520833,77.7672989 Z M72.1030853,75.1549882 C72.0991958,75.1971951 72.0896411,75.2386832 72.0746797,75.2783298 C71.9926193,75.4238096 71.9137151,75.5661267 71.8253424,75.7084439 C71.6770024,75.939314 71.5097254,76.1670214 71.3740101,76.3947289 C71.3740101,76.3947289 71.3740101,76.3947289 71.3424484,76.4137045 C71.3240892,76.3946879 71.3081841,76.3734379 71.2951059,76.3504524 L70.9005847,75.0379719 L70.8532422,74.8924921 C70.8532422,74.8924921 70.8532422,74.8924921 70.8784916,74.8577035 C71.2915575,74.9354547 71.7003077,75.0346836 72.1030853,75.1549882 Z M67.7444154,80.5693658 C67.90538,80.4903007 68.0600323,80.4270486 68.1925914,80.3511461 C68.3851178,80.2436176 68.5776441,80.1329265 68.7670142,80.0190727 C68.8837925,79.9494955 68.9027295,79.9463328 68.9879461,80.041211 C69.0731627,80.1360891 69.1520669,80.2214794 69.2341273,80.3131949 C69.2793518,80.3614023 69.2982082,80.4287151 69.284626,80.4934633 C69.2767012,80.593455 69.2767012,80.6939189 69.284626,80.7939106 C69.284626,80.895114 69.2593767,80.9140896 69.1552231,80.910927 L69.0668503,80.895114 L68.7512334,80.8571627 L68.6344551,80.8571627 C68.4987398,80.8255367 68.3661807,80.7970732 68.2336216,80.7622846 C68.1010625,80.727496 67.9748157,80.6863821 67.848569,80.6452683 C67.8093135,80.6268964 67.7739528,80.6011271 67.7444154,80.5693658 Z M77.1277069,85.6295317 C77.1277069,85.6453447 77.1277069,85.6769708 77.0993014,85.7022716 C77.0068866,85.8924095 76.8471082,86.0412386 76.6511253,86.1197353 C76.556116,86.1613242 76.4643327,86.2099522 76.3765386,86.265215 C76.3275374,86.2873521 76.2947517,86.3348057 76.291322,86.3885566 C76.2497199,86.6772081 76.080426,86.9316667 75.8305213,87.0811668 C75.7455582,87.1420538 75.655844,87.195992 75.5622469,87.2424596 C75.4968805,87.283506 75.4106835,87.2636828 75.3697206,87.1981831 C75.3287576,87.1326835 75.3485405,87.0463108 75.4139069,87.0052643 C75.43797,86.9876244 75.4632867,86.9717692 75.489655,86.9578253 C75.6715567,86.8633209 75.8292464,86.7280373 75.9504557,86.5624998 C75.9902615,86.5008098 76.0141235,86.4301646 76.0198915,86.3569305 C76.0307153,86.1917089 76.1313898,86.0458587 76.2818535,85.9774181 L76.66375,85.7844993 C76.7478957,85.7439099 76.8133814,85.6726338 76.8468078,85.5852552 C76.8643752,85.5199535 76.9245366,85.4753957 76.9919916,85.4777267 C77.074052,85.4777267 77.1213946,85.5220032 77.1277069,85.6295317 Z M66.320983,79.6964872 C66.2105171,79.5763082 66.096895,79.4592919 66.0053661,79.3327877 C65.986197,79.2995183 65.986197,79.2585286 66.0053661,79.2252592 C66.2010486,78.9279745 66.3998872,78.6338523 66.6018821,78.3365676 C66.6225253,78.309359 66.6512606,78.2894248 66.6839425,78.2796407 C66.5236079,78.7357015 66.4176664,79.2091639 66.3683255,79.6901619 L66.320983,79.6964872 Z M77.1150822,84.557409 C77.1200465,84.5164129 77.1295744,84.4761024 77.1434877,84.4372301 C77.2097673,84.2790999 77.2760469,84.1209697 77.3486388,83.9691648 C77.3756402,83.9146156 77.4107591,83.8644958 77.4527923,83.8205224 C77.5059979,83.7646434 77.5921438,83.7565508 77.6547872,83.8015468 C77.7147649,83.8461825 77.7274614,83.9309984 77.6831927,83.991303 C77.5716951,84.1520104 77.4884354,84.3306348 77.4370115,84.5194578 C77.4234035,84.5567342 77.4065036,84.5927197 77.3865128,84.6269863 C77.3553741,84.6855062 77.2911023,84.7183391 77.2255481,84.709214 C77.158823,84.689297 77.1136055,84.627158 77.1150822,84.557409 Z M73.0025935,74.8292401 L73.1635582,74.1682559 C73.3721987,74.4520134 73.5224032,74.7745365 73.6054219,75.117037 C73.5170491,75.117037 73.4728628,75.0506223 73.403427,75.0253215 C73.3339913,75.0000207 73.2740241,74.9589068 73.2077445,74.9241182 L73.0025935,74.8292401 Z M71.8474355,74.4022886 C72.0873044,74.3137357 72.3303295,74.2251828 72.5765172,74.1556055 C72.5772279,74.3211184 72.5190382,74.4814665 72.4123899,74.6078578 L72.1283346,74.5193049 L71.8474355,74.4402398 L71.8474355,74.4022886 Z M102.891517,88.2165415 C102.853643,88.0963626 102.818926,87.9761836 102.787364,87.8528421 C102.755802,87.7295006 102.740021,87.6725737 102.717928,87.5808582 C102.79052,87.5429069 102.863112,87.5049557 102.932548,87.4638418 C103.846684,86.9652221 104.965502,87.0378289 105.807818,87.6504355 C106.823291,88.3976214 107.460225,89.5538394 107.550023,90.8130392 L107.578429,91.1292995 L107.344872,91.205202 C106.398022,91.5214624 105.375423,91.2368281 104.520101,90.5726813 C103.754263,89.9682157 103.18696,89.1474748 102.891517,88.2165415 Z M107.512149,90.3702746 C107.291165,89.2682957 107.357474,88.1278365 107.704676,87.0590286 C108.096041,85.9331417 108.825116,85.1361655 109.819309,84.9811979 L110.06549,84.9432467 L110.21383,85.2911331 C110.810346,86.704817 110.845064,88.260818 110.336921,89.4025179 C109.828778,90.5442178 108.922957,91.1292995 107.925608,91.1071613 L107.679426,91.1071613 L107.603678,90.7909009 C107.556336,90.6485838 107.52793,90.5094292 107.512149,90.3702746 Z M103.794182,92.1476579 C103.778401,92.027479 103.765776,91.9009748 103.756308,91.7744707 L103.737371,91.4993242 L103.970927,91.4234217 C104.958249,91.0958554 106.045555,91.3624014 106.77045,92.1097067 C107.636371,93.0174999 108.060984,94.2604091 107.93192,95.5095057 C107.93192,95.6170342 107.912983,95.7245627 107.900358,95.825766 L107.657333,95.8605547 C106.66314,95.9997092 105.709977,95.5442943 104.984058,94.740993 C104.335563,94.0165344 103.920794,93.1125447 103.794182,92.1476579 Z M107.957169,95.0762289 C107.931043,93.956942 108.197624,92.8502832 108.730431,91.8661862 C109.317478,90.8320148 110.179113,90.183681 111.189087,90.2058193 L111.435268,90.2058193 C111.463673,90.3259982 111.492079,90.4461771 111.517328,90.5695187 C111.851882,92.0559424 111.602545,93.5866426 110.911344,94.620814 C110.220143,95.6549854 109.216481,96.0661239 108.234912,95.8668799 L107.995043,95.8194408 C107.995043,95.7087497 107.995043,95.6012212 107.97295,95.5031804 C107.950857,95.4051397 107.960325,95.2153835 107.957169,95.0762289 Z M103.989864,96.1641646 C103.989864,96.0408231 103.989864,95.9143189 104.01827,95.7909774 C104.046675,95.6676358 104.040363,95.6075464 104.046675,95.5158309 L104.292857,95.4810422 C105.32379,95.3353578 106.347542,95.7906046 106.931414,96.6543682 C107.628399,97.700264 107.829352,99.0010224 107.480588,100.209135 C107.455338,100.313501 107.426933,100.421029 107.395371,100.525395 L107.14919,100.525395 C106.145528,100.484281 105.283894,99.8612483 104.709471,98.9440933 C104.196752,98.1107573 103.946023,97.1421587 103.989864,96.1641646 Z M107.584741,99.7853459 C107.755522,98.6788233 108.21255,97.6364191 108.910332,96.7618967 C109.667813,95.8510669 110.633601,95.3671885 111.621482,95.5695951 L111.864507,95.6201968 C111.864507,95.7435383 111.864507,95.8700425 111.883444,95.993384 C111.95288,97.5145964 111.438424,98.9757193 110.573634,99.8707362 C109.708843,100.765753 108.64837,100.996623 107.733081,100.626598 L107.502681,100.534883 L107.540555,100.218623 C107.540555,100.066818 107.562648,99.9371508 107.584741,99.7853459 Z M103.481721,100.15537 C103.50697,100.032029 103.538532,99.91185 103.57325,99.7916711 C103.607968,99.6714921 103.626905,99.6114027 103.652154,99.5228498 L103.898335,99.5228498 C104.942266,99.5611728 105.872605,100.193718 106.293868,101.151591 C106.798021,102.311972 106.764517,103.636314 106.202339,104.769609 C106.158153,104.86765 106.11081,104.965691 106.063468,105.063731 L105.820443,105.01313 C104.835718,104.79491 104.10033,104.023235 103.696341,103.008039 C103.342767,102.099812 103.268031,101.106449 103.481721,100.15537 Z M106.382241,104.380609 C106.745752,103.314926 107.381195,102.36309 108.225444,101.619656 C109.13442,100.857469 110.1728,100.550696 111.113339,100.927046 L111.343739,101.018761 L111.299553,101.391949 C111.100714,102.906836 110.333765,104.263593 109.320634,104.997317 C108.307504,105.731041 107.215469,105.772155 106.363304,105.234512 L106.15184,105.104845 C106.186558,105.000479 106.21812,104.896113 106.249682,104.788585 C106.281243,104.681056 106.331742,104.513438 106.382241,104.380609 Z M102.26344,104.013747 C102.313938,103.899893 102.364437,103.782877 102.424404,103.669023 L102.547495,103.419178 L102.787364,103.472942 C103.812299,103.698091 104.617403,104.492538 104.857811,105.515984 C105.145708,106.767813 104.866078,108.083134 104.094018,109.108702 C104.030895,109.200417 103.964615,109.28897 103.898335,109.380685 L103.671091,109.285807 C102.72424,108.893645 102.15613,107.995465 101.947823,106.913855 C101.766621,105.937067 101.876389,104.92844 102.26344,104.013747 Z M104.35598,108.729189 C104.916385,107.73757 105.720328,106.905861 106.691545,106.31296 C107.729925,105.71839 108.806179,105.598211 109.667813,106.139017 L109.87612,106.271846 L109.762498,106.632383 C109.292229,108.099831 108.282255,109.314271 107.142878,109.864564 C106.0035,110.414857 104.914622,110.263052 104.176078,109.57993 L103.989864,109.412312 C104.043519,109.314271 104.094018,109.21623 104.144517,109.115027 C104.195015,109.013823 104.27392,108.855693 104.35598,108.729189 Z M100.341333,107.641253 C100.413924,107.533725 100.486516,107.429359 100.565421,107.324993 L100.735854,107.097286 L100.963098,107.195326 C101.936676,107.602108 102.584958,108.539465 102.623243,109.595743 C102.659159,110.903652 102.124455,112.162305 101.15878,113.042981 L100.906287,113.277013 L100.69798,113.144184 C99.8489702,112.587566 99.454449,111.588183 99.4607613,110.468621 C99.4803777,109.461496 99.7858131,108.480793 100.341333,107.641253 Z M101.483866,112.717232 C102.232595,111.824941 103.193071,111.135468 104.277076,110.712142 C105.416453,110.301003 106.505331,110.37058 107.2565,111.060028 L107.439557,111.230809 L107.2565,111.57237 C106.583973,112.877776 105.430343,113.869266 104.040363,114.336485 C102.777895,114.697022 101.742672,114.336485 101.143,113.536347 L100.991503,113.33394 L101.209279,113.065119 C101.288183,112.94494 101.386025,112.827924 101.483866,112.717232 Z M97.7280244,110.924036 C97.8195533,110.829158 97.9142383,110.737442 98.0152358,110.64889 L98.2298553,110.449646 L98.4381625,110.585637 C99.3274988,111.171052 99.7850652,112.229701 99.602789,113.280176 C99.4481367,114.459827 98.633845,115.683755 97.3934704,116.480731 L97.0778535,116.676812 L96.8947956,116.506032 C96.1594082,115.800771 95.9826627,114.728648 96.2320001,113.609087 C96.4744928,112.593136 96.9921844,111.663988 97.7280244,110.924036 Z M97.7879916,116.211909 C98.7236602,115.452595 99.8277742,114.929784 101.007284,114.687534 C102.231878,114.472477 103.301819,114.734974 103.907804,115.557251 L104.056144,115.759657 L103.806807,116.075918 C102.781052,117.340959 101.322901,118.150586 99.9973101,118.28974 C98.671719,118.428895 97.6806818,117.903902 97.2545989,116.983585 C97.2198811,116.907682 97.1851632,116.83178 97.1472892,116.755877 C97.2419743,116.676812 97.3335032,116.60091 97.4218759,116.521845 C97.5102487,116.44278 97.664901,116.306788 97.7879916,116.211909 Z M101.281871,84.4688561 C101.222956,84.3571108 101.166145,84.2432571 101.111438,84.1272949 C101.070408,84.0419046 101.032534,83.9533517 100.991503,83.8679614 L101.180874,83.7161565 C101.992373,83.0585984 103.111816,82.9350605 104.046675,83.3998961 C105.1846,83.9626427 106.022061,84.9934229 106.341211,86.2241012 L106.426427,86.5403616 L106.211808,86.6573779 C105.331236,87.1380937 104.280232,87.0368903 103.320756,86.5340364 C102.453055,86.0617811 101.743787,85.3433659 101.281871,84.4688561 Z M106.211808,85.7971497 C105.795543,84.7420857 105.650128,83.5992249 105.788881,82.4732532 C105.965626,81.2841142 106.530581,80.3606339 107.483744,80.0317231 L107.7173,79.9526581 L107.928764,80.2689184 C108.784086,81.5719111 109.09339,83.1152618 108.812491,84.3360268 C108.531592,85.5567918 107.736237,86.3000037 106.754669,86.4549713 L106.511644,86.4929225 L106.379085,86.1766621 C106.319117,86.0628084 106.265462,85.929979 106.211808,85.7971497 Z M99.1703938,77.3213718 C99.1551752,77.302961 99.1382684,77.2860197 99.119895,77.2707701 C98.1983263,76.3789814 97.5426286,75.2477871 97.2261934,74.0038005 C97.2041002,73.9089224 97.1851632,73.8140443 97.1599139,73.7191662 L97.4755308,73.7191662 C98.6874998,73.6654019 100.095151,74.247321 101.165093,75.3226062 C102.235034,76.3978915 102.768427,77.7388355 102.667429,78.8931858 C102.667429,78.9849013 102.667429,79.0797794 102.64218,79.1746575 L102.361281,79.1177307 C101.14643,78.8413685 100.037874,78.2172896 99.1703938,77.3213718 Z M62.483081,108.733933 L62.483081,109.424999 L56.0034653,109.424999 L56.0034653,108.733933 L62.483081,108.733933 Z M94.5118878,108.733933 L94.5118878,109.424999 L88.8844378,109.424999 L88.8844378,108.733933 L94.5118878,108.733933 Z" id="Combined-Shape"></path>
            </g>
        </g>
    </g>
</svg>