<?xml version="1.0" encoding="UTF-8"?>
<svg width="155px" height="63px" viewBox="0 0 155 63" version="1.1" xmlns="http://www.w3.org/2000/svg" xmlns:xlink="http://www.w3.org/1999/xlink">
    <!-- Generator: Sketch 52.5 (67469) - http://www.bohemiancoding.com/sketch -->
    <title>hero-documentary-logo copy</title>
    <desc>Created with Sketch.</desc>
    <g id="Mobile-UI" stroke="none" stroke-width="1" fill="none" fill-rule="evenodd">
        <g id="Rare-In-Common---Mobile" transform="translate(-109.000000, -1053.000000)" fill-rule="nonzero">
            <g id="hero-documentary-logo-copy" transform="translate(109.000000, 1053.000000)">
                <path d="M154.250947,46.978737 C154.465483,47.1093544 154.594204,47.2399719 154.722925,47.4576676 C154.851646,47.6753633 154.894553,47.893059 154.894553,48.1107547 C154.894553,48.3284505 154.851646,48.5461462 154.722925,48.7638419 C154.594204,48.9815376 154.465483,49.1121551 154.250947,49.2427725 C154.036412,49.3733899 153.821877,49.4169291 153.607341,49.4169291 C153.349899,49.4169291 153.135363,49.3733899 152.963735,49.2427725 C152.7492,49.1121551 152.620478,48.9815376 152.491757,48.7638419 C152.363036,48.5461462 152.320129,48.3284505 152.320129,48.1107547 C152.320129,47.893059 152.363036,47.6753633 152.491757,47.4576676 C152.620478,47.2399719 152.7492,47.1093544 152.963735,46.978737 C153.17827,46.8481196 153.392806,46.8045804 153.607341,46.8045804 C153.821877,46.8045804 154.079319,46.8481196 154.250947,46.978737 Z M154.20804,49.1556942 C154.379669,49.0686159 154.551297,48.8944593 154.637111,48.7203028 C154.722925,48.5461462 154.808739,48.3284505 154.808739,48.1107547 C154.808739,47.893059 154.765832,47.6753633 154.637111,47.5012067 C154.50839,47.3270501 154.379669,47.1528936 154.20804,47.0658153 C154.036412,46.978737 153.821877,46.8916587 153.607341,46.8916587 C153.392806,46.8916587 153.17827,46.9351978 153.006642,47.0658153 C152.835014,47.1528936 152.663385,47.3270501 152.577571,47.5012067 C152.491757,47.6753633 152.405943,47.893059 152.405943,48.1107547 C152.405943,48.3284505 152.44885,48.5461462 152.577571,48.7203028 C152.663385,48.8944593 152.835014,49.0686159 153.006642,49.1556942 C153.17827,49.2427725 153.392806,49.3298508 153.607341,49.3298508 C153.821877,49.3298508 154.036412,49.2427725 154.20804,49.1556942 Z M154.079319,48.1542939 C154.036412,48.2413722 153.950598,48.2849113 153.821877,48.3284505 L154.165133,48.8073811 L154.036412,48.8073811 L153.693155,48.3284505 C153.650248,48.3284505 153.607341,48.3284505 153.607341,48.3284505 L153.221177,48.3284505 L153.221177,48.8073811 L153.135363,48.8073811 L153.135363,47.4141284 L153.650248,47.4141284 C153.821877,47.4141284 153.950598,47.4576676 154.036412,47.5447459 C154.122226,47.6318242 154.165133,47.7189024 154.165133,47.893059 C154.165133,47.9801373 154.122226,48.0672156 154.079319,48.1542939 Z M153.607341,48.2413722 C153.736062,48.2413722 153.864784,48.197833 153.950598,48.1542939 C154.036412,48.0672156 154.079319,47.9801373 154.079319,47.893059 C154.079319,47.7624416 154.036412,47.6753633 153.950598,47.6318242 C153.864784,47.588285 153.778969,47.5447459 153.607341,47.5447459 L153.221177,47.5447459 L153.221177,48.2849113 L153.607341,48.2849113 L153.607341,48.2413722 Z" id="Shape" fill="#00263E"></path>
                <g id="Group" transform="translate(39.903583, 1.306174)" fill="#00263E">
                    <path d="M0.386163707,0.174156578 L5.49210605,0.174156578 C6.9938538,0.174156578 8.195252,0.653087168 8.92467233,1.39325263 C9.48246435,1.95926151 9.82572098,2.78650525 9.82572098,3.65728814 L9.82572098,3.70082729 C9.82572098,5.74716708 8.32397323,6.92272399 6.26443347,7.18395885 L10.2547918,12.4086562 L9.09630065,12.4086562 L5.23466358,7.35811543 L5.1917565,7.35811543 L1.24430528,7.35811543 L1.24430528,12.4086562 L0.343256628,12.4086562 L0.386163707,0.174156578 Z M5.36338482,6.48733254 C7.38001751,6.48733254 8.88176526,5.44239307 8.88176526,3.70082729 L8.88176526,3.65728814 C8.88176526,2.00280065 7.5945529,1.00140033 5.40629189,1.00140033 L1.24430528,1.00140033 L1.24430528,6.48733254 L5.36338482,6.48733254 Z" id="Shape"></path>
                    <path d="M22.9123799,0.0870782891 L23.7705215,0.0870782891 L29.4342559,12.4086562 L28.4473931,12.4086562 L26.9027382,8.96906378 L19.7372561,8.96906378 L18.1926013,12.4086562 L17.2486456,12.4086562 L22.9123799,0.0870782891 Z M26.5165745,8.14182003 L23.3414507,1.04493947 L20.1234198,8.14182003 L26.5165745,8.14182003 Z" id="Shape"></path>
                    <path d="M37.4149725,0.174156578 L42.5209148,0.174156578 C44.0226626,0.174156578 45.2240608,0.653087168 45.9534811,1.39325263 C46.5112731,1.95926151 46.8545298,2.78650525 46.8545298,3.65728814 L46.8545298,3.70082729 C46.8545298,5.74716708 45.352782,6.92272399 43.2932422,7.18395885 L47.2836005,12.4086562 L46.1251094,12.4086562 L42.2634724,7.35811543 L42.2205653,7.35811543 L38.273114,7.35811543 L38.273114,12.4086562 L37.3720654,12.4086562 L37.3720654,0.174156578 L37.4149725,0.174156578 Z M42.3921936,6.48733254 C44.4088263,6.48733254 45.910574,5.44239307 45.910574,3.70082729 L45.910574,3.65728814 C45.910574,2.00280065 44.6233617,1.00140033 42.4351007,1.00140033 L38.273114,1.00140033 L38.273114,6.48733254 L42.3921936,6.48733254 Z" id="Shape"></path>
                    <polygon id="Shape" points="55.3072242 0.174156578 63.931547 0.174156578 63.931547 1.00140033 56.2082729 1.00140033 56.2082729 5.79070623 63.1592196 5.79070623 63.1592196 6.61794997 56.2082729 6.61794997 56.2082729 11.5378733 64.0173612 11.5378733 64.0173612 12.3651171 55.3072242 12.3651171 55.3072242 0.174156578"></polygon>
                </g>
                <g id="Group" transform="translate(40.332654, 23.511138)" fill="#00263E">
                    <polygon id="Shape" points="0.0429070785 0.261234867 0.943955728 0.261234867 0.943955728 12.4957345 0.0429070785 12.4957345"></polygon>
                    <path d="M10.0402564,0.261234867 L10.8983979,0.261234867 L19.3081853,10.8847861 L19.3081853,0.261234867 L20.1663269,0.261234867 L20.1663269,12.4957345 L19.4798137,12.4957345 L10.941305,1.61094835 L10.941305,12.4957345 L10.0831635,12.4957345 C10.0402564,12.4957345 10.0402564,0.261234867 10.0402564,0.261234867 Z" id="Shape"></path>
                </g>
                <g id="Group" transform="translate(39.474512, 46.586885)" fill="#00263E">
                    <path d="M0.257442471,6.57441083 C0.257442471,3.09127926 2.83186718,0.217695723 6.30734054,0.217695723 C8.45269447,0.217695723 9.7828139,1.00140033 11.0271192,2.17695723 L10.383513,2.8300444 C9.31083604,1.78510493 8.10943784,1.04493947 6.30734054,1.04493947 C3.3896592,1.04493947 1.2013982,3.43959242 1.2013982,6.53087168 L1.2013982,6.57441083 C1.2013982,9.66569009 3.43256628,12.060343 6.35024762,12.060343 C8.10943784,12.060343 9.31083604,11.3637167 10.5122342,10.1446207 L11.1129333,10.7541687 C9.82572098,12.0168039 8.45269447,12.8875868 6.30734054,12.8875868 C2.83186718,12.8440476 0.257442471,10.1010815 0.257442471,6.57441083 Z" id="Shape"></path>
                    <path d="M18.1067871,6.57441083 C18.1067871,3.2218967 20.5524906,0.217695723 24.2424994,0.217695723 C27.9325081,0.217695723 30.3353045,3.17835755 30.3353045,6.48733254 C30.3353045,6.48733254 30.3353045,6.48733254 30.3353045,6.53087168 C30.3353045,9.88338582 27.889601,12.8440476 24.1995923,12.8440476 C20.5095835,12.8440476 18.1067871,9.92692496 18.1067871,6.57441083 Z M29.3913488,6.57441083 C29.3913488,3.52667071 27.2030878,1.04493947 24.1995923,1.04493947 C21.1960968,1.04493947 19.0507429,3.48313157 19.0507429,6.53087168 L19.0507429,6.57441083 C19.0507429,9.5786118 21.2390039,12.060343 24.2424994,12.060343 C27.2459949,12.060343 29.3913488,9.5786118 29.3913488,6.57441083 Z" id="Shape"></path>
                    <polygon id="Shape" points="38.787999 0.435391446 39.6461406 0.435391446 44.4946404 7.66288944 49.3860474 0.435391446 50.244189 0.435391446 50.244189 12.6698911 49.3431403 12.6698911 49.3431403 2.04633979 44.5375475 9.09968121 44.4517334 9.09968121 39.6461406 2.04633979 39.6461406 12.6698911 38.787999 12.6698911"></polygon>
                    <polygon id="Shape" points="59.2546754 0.435391446 60.112817 0.435391446 64.9613169 7.66288944 69.8527238 0.435391446 70.7108654 0.435391446 70.7108654 12.6698911 69.8098168 12.6698911 69.8098168 2.04633979 65.004224 9.09968121 64.9184098 9.09968121 60.112817 2.04633979 60.112817 12.6698911 59.2546754 12.6698911 59.2546754 0.435391446"></polygon>
                    <path d="M79.1206528,6.57441083 C79.1206528,3.2218967 81.5663563,0.217695723 85.256365,0.217695723 C88.9463738,0.217695723 91.3491702,3.17835755 91.3491702,6.48733254 C91.3491702,6.48733254 91.3491702,6.48733254 91.3491702,6.53087168 C91.3491702,9.88338582 88.9034667,12.8440476 85.213458,12.8440476 C81.5663563,12.8440476 79.1206528,9.92692496 79.1206528,6.57441083 Z M90.4052145,6.57441083 C90.4052145,3.52667071 88.2169535,1.04493947 85.213458,1.04493947 C82.2099625,1.04493947 80.0646085,3.48313157 80.0646085,6.53087168 L80.0646085,6.57441083 C80.0646085,9.5786118 82.2528695,12.060343 85.256365,12.060343 C88.2598605,12.060343 90.4052145,9.5786118 90.4052145,6.57441083 Z" id="Shape"></path>
                    <polygon id="Shape" points="99.8018647 0.435391446 100.660006 0.435391446 109.026887 11.0589427 109.026887 0.435391446 109.885028 0.435391446 109.885028 12.6698911 109.198515 12.6698911 100.660006 1.78510493 100.660006 12.6698911 99.8018647 12.6698911"></polygon>
                </g>
                <path d="M30.034955,57.2539751 C30.034955,57.2539751 30.1636762,56.6444271 30.3782116,55.7736442 L31.7512381,49.4604682 L31.6225169,49.5910857 L30.2494904,55.9042616 C29.5629771,56.6444271 28.404486,57.4281317 27.9754152,57.4281317 L29.3055346,51.3326514 C30.5498399,50.8537209 31.4079815,49.8523205 31.7512381,49.4604682 C31.8799593,48.8509202 32.0086806,48.2849113 32.0944947,47.893059 C31.2363532,51.6809646 5.70664144,52.9435998 5.70664144,52.9435998 C5.70664144,52.9435998 3.69000875,61.9997419 3.56128752,62.6963682 C6.30734054,62.0868202 29.0480922,61.6078896 30.034955,57.2539751 Z M4.46233617,61.9997419 L3.94745122,62.043281 L4.11907954,61.2160373 L4.63396448,61.1724981 L4.46233617,61.9997419 Z M4.29070785,60.9112632 L5.62082729,54.815783 L13.8589864,54.0320784 L12.5288669,60.1275586 L4.29070785,60.9112632 Z M5.49210605,61.9126636 L4.97722111,61.9562027 L5.14884942,61.128959 L5.66373437,61.0854198 L5.49210605,61.9126636 Z M6.52187594,61.8255853 L6.00699099,61.8691244 L6.17861931,61.0418807 L6.69350425,60.9983415 L6.52187594,61.8255853 Z M7.55164582,61.738507 L7.03676088,61.7820461 L7.20838919,60.9548024 L7.72327414,60.9112632 L7.55164582,61.738507 Z M8.62432278,61.6514287 L8.10943784,61.6949679 L8.28106616,60.8677241 L8.7959511,60.824185 L8.62432278,61.6514287 Z M9.65409267,61.5643504 L9.13920773,61.6078896 L9.31083604,60.7806458 L9.82572098,60.7371067 L9.65409267,61.5643504 Z M10.6838626,61.4772721 L10.1689776,61.5208113 L10.3406059,60.6935675 L10.8554909,60.6500284 L10.6838626,61.4772721 Z M11.7136324,61.3466547 L11.1987475,61.3901938 L11.3703758,60.5629501 L11.8852608,60.5194109 L11.7136324,61.3466547 Z M13.7731722,61.1724981 L13.2582873,61.2160373 L13.4299156,60.3887935 L13.9448005,60.3452544 L13.7731722,61.1724981 Z M13.6015439,59.9969412 L14.9316633,54.0320784 L22.4404021,53.0742172 L21.1102826,59.1696975 L13.6015439,59.9969412 Z M14.8029421,61.0854198 L14.2880572,61.128959 L14.4596855,60.3017152 L14.9745704,60.2581761 L14.8029421,61.0854198 Z M15.7468978,60.9548024 L15.2320129,60.9983415 L15.4036412,60.1710978 L15.9185261,60.1275586 L15.7468978,60.9548024 Z M16.2188757,60.9112632 L16.390504,60.0404804 L16.9053889,59.9534021 L16.7337606,60.7806458 L16.2188757,60.9112632 Z M17.1628314,60.824185 L17.3344597,59.9534021 L17.8493447,59.8663238 L17.6777164,60.6935675 L17.1628314,60.824185 Z M18.1496942,60.6935675 L18.3213225,59.8227846 L18.7933004,59.7357063 L18.6216721,60.5629501 L18.1496942,60.6935675 Z M19.0507429,60.6064892 L19.2223712,59.7357063 L19.694349,59.6486281 L19.5227207,60.4758718 L19.0507429,60.6064892 Z M19.9088844,60.4758718 L20.0805128,59.6050889 L20.5524906,59.5180106 L20.3808623,60.3452544 L19.9088844,60.4758718 Z M21.5822605,60.2146369 L21.7538888,59.343854 L22.2258667,59.2567758 L22.0542384,60.0840195 L21.5822605,60.2146369 Z M22.397495,60.0840195 L22.5691233,59.2132366 L22.9981941,59.1261583 L22.8265658,59.9534021 L22.397495,60.0840195 Z M23.2127295,59.9534021 L23.3843578,59.0826192 L23.7705215,58.9955409 L23.5988932,59.8227846 L23.2127295,59.9534021 Z M23.9421498,59.7792455 L24.1137781,58.9084626 L24.4999418,58.8213843 L24.3283135,59.6486281 L23.9421498,59.7792455 Z M24.6286631,59.6050889 L24.8002914,58.734306 L25.1864551,58.6472277 L25.0148268,59.4744715 L24.6286631,59.6050889 Z M25.3151763,59.4309323 L25.4868046,58.5601494 L25.8300613,58.4730712 L25.658433,59.3003149 L25.3151763,59.4309323 Z M25.9587825,59.3003149 L26.1304108,58.429532 L26.4736675,58.3424537 L26.3020391,59.1696975 L25.9587825,59.3003149 Z M26.5165745,59.0826192 L26.6882028,58.2118363 L27.0314595,58.124758 L26.8598312,58.9520017 L26.5165745,59.0826192 Z M27.1172736,58.9084626 L27.2889019,58.0376797 L27.5892515,57.9070623 L27.4176232,58.734306 L27.1172736,58.9084626 Z M30.1207691,56.3831922 L29.9491408,57.210436 L29.7346054,57.3410534 L29.9062337,56.4702705 L30.1207691,56.3831922 Z M29.7346054,56.6879662 L29.5629771,57.51521 L29.3484417,57.6458274 L29.52007,56.7750445 L29.7346054,56.6879662 Z M29.3484417,56.9927402 L29.1768134,57.819984 L28.962278,57.9506014 L29.1339063,57.0798185 L29.3484417,56.9927402 Z M28.8764638,57.210436 L28.7048355,58.0376797 L28.4903001,58.1682971 L28.6619285,57.2975142 L28.8764638,57.210436 Z M28.4903001,57.4716708 L28.3186718,58.2989146 L28.1041364,58.429532 L28.2757648,57.5587491 L28.4903001,57.4716708 Z M28.0612294,57.7329057 L27.889601,58.5601494 L27.6321586,58.6907669 L27.8037869,57.819984 L28.0612294,57.7329057 Z M31.7941452,48.6332245 L31.708331,49.3733899 L31.4508886,49.5040074 L31.5367027,48.7638419 L31.7941452,48.6332245 Z M31.3650744,49.0250768 L31.2792602,49.7652422 L31.0218178,49.8958597 L31.1076319,49.1121551 L31.3650744,49.0250768 Z M30.8930965,49.3298508 L30.7643753,50.1570945 L30.5069328,50.287712 L30.6356541,49.4604682 L30.8930965,49.3298508 Z M30.4211187,49.678164 L30.2923974,50.5054077 L30.034955,50.6360251 L30.1636762,49.8087814 L30.4211187,49.678164 Z M29.9491408,49.8958597 L29.8204196,50.7231034 L29.5629771,50.8537209 L29.6916983,50.0264771 L29.9491408,49.8958597 Z M29.52007,50.1570945 L29.3913488,50.9843383 L29.0909992,51.1149557 L29.2197205,50.287712 L29.52007,50.1570945 Z M27.4605303,57.6893666 C26.9027382,58.124758 22.4404021,59.03908 22.0113313,59.03908 L23.3414507,52.9435998 C25.2293622,52.6823649 26.4736675,52.4211301 28.7906497,51.5938863 L27.4605303,57.6893666 Z M28.9193709,50.3747903 L28.7906497,51.202034 L28.4473931,51.3326514 L28.5761143,50.5054077 L28.9193709,50.3747903 Z M28.2757648,50.5489468 L28.1470435,51.3761906 L27.7608798,51.506808 L27.889601,50.6795643 L28.2757648,50.5489468 Z M27.6321586,50.7666426 L27.5034373,51.5938863 L27.1172736,51.7245037 L27.2459949,50.89726 L27.6321586,50.7666426 Z M26.9456453,50.9407991 L26.8169241,51.7680429 L26.4307604,51.8986603 L26.5594816,51.0714166 L26.9456453,50.9407991 Z M26.216225,51.1149557 L26.0875037,51.9421995 L25.658433,52.0292778 L25.7871542,51.202034 L26.216225,51.1149557 Z M25.3580834,51.2891123 L25.2293622,52.116356 L24.8002914,52.2034343 L24.9290126,51.3761906 L25.3580834,51.2891123 Z M24.5428489,51.4632689 L24.4141277,52.2905126 L23.9850569,52.3775909 L24.1137781,51.5503472 L24.5428489,51.4632689 Z M23.6847073,51.6374255 L23.5559861,52.4646692 L23.0840082,52.5517475 L23.2127295,51.7245037 L23.6847073,51.6374255 Z M21.2390039,60.2581761 L20.767026,60.3452544 L20.9386543,59.4744715 L21.4106322,59.3873932 L21.2390039,60.2581761 Z M22.7836587,51.7680429 L22.6549375,52.5952866 L22.0971454,52.6823649 L22.2258667,51.8551212 L22.7836587,51.7680429 Z M21.839703,51.8551212 L21.7109817,52.6823649 L21.1531897,52.7694432 L21.281911,51.9421995 L21.839703,51.8551212 Z M20.8528402,52.0292778 L20.7241189,52.8565215 L20.209234,52.9435998 L20.3379552,52.116356 L20.8528402,52.0292778 Z M19.8659774,52.1598952 L19.7372561,52.9871389 L19.1794641,53.0742172 L19.3081853,52.2469735 L19.8659774,52.1598952 Z M18.7933004,52.2469735 L18.6645792,53.0742172 L18.1496942,53.1612955 L18.2784155,52.3340518 L18.7933004,52.2469735 Z M17.7635305,52.3775909 L17.6348093,53.2048347 L17.0341102,53.2919129 L17.1628314,52.4646692 L17.7635305,52.3775909 Z M16.6479465,52.5082083 L16.5192252,53.3354521 L15.9185261,53.4225304 L16.0472474,52.5952866 L16.6479465,52.5082083 Z M15.5752695,52.6388258 L15.4465483,53.4660695 L14.8458492,53.5096087 L14.9745704,52.6823649 L15.5752695,52.6388258 Z M12.7434023,61.2595764 L12.2285174,61.3031155 L12.4001457,60.4758718 L12.9150306,60.4323327 L12.7434023,61.2595764 Z M14.4596855,52.7694432 L14.3309642,53.596687 L13.7302651,53.6402261 L13.8589864,52.8129824 L14.4596855,52.7694432 Z M13.2582873,52.8565215 L13.129566,53.6837653 L12.5288669,53.7273044 L12.6575882,52.9000606 L13.2582873,52.8565215 Z M12.0568891,52.9435998 L11.9281678,53.7708435 L11.3274687,53.8143827 L11.45619,52.9871389 L12.0568891,52.9435998 Z M10.8983979,53.0306781 L10.7696767,53.8579218 L10.1689776,53.901461 L10.2976988,53.0742172 L10.8983979,53.0306781 Z M9.69699975,53.1612955 L9.56827851,53.9885393 L8.96757941,54.0320784 L9.09630065,53.2048347 L9.69699975,53.1612955 Z M8.49560155,53.2483738 L8.36688031,54.0756176 L7.76618121,54.1191567 L7.89490245,53.2919129 L8.49560155,53.2483738 Z M7.42292459,53.3789912 L7.29420335,54.206235 L6.69350425,54.2497741 L6.82222549,53.4225304 L7.42292459,53.3789912 Z M6.3931547,53.4660695 L6.26443347,54.2933133 L5.66373437,54.3368524 L5.7924556,53.5096087 L6.3931547,53.4660695 Z" id="Shape" fill="#EF3340"></path>
                <path d="M30.4640258,27.7344351 L32.4377514,18.678293 C26.8598312,21.8566506 5.23466358,19.2443019 2.57442471,23.9029904 L0.514884942,33.0897499 C3.90454415,28.8229137 25.9158754,31.5658798 30.4640258,27.7344351 Z M1.58756191,31.914193 L1.28721236,32.0012713 L1.50174775,31.2175667 L1.8020973,31.1304884 L1.58756191,31.914193 Z M1.2013982,31.2611058 L2.57442471,25.0785473 C3.47547336,24.381921 4.54815032,23.7723729 6.60769009,23.4675989 L5.27757066,29.51954 C3.43256628,29.9984706 2.10244685,30.5644795 1.2013982,31.2611058 Z M2.05953977,31.609419 L1.75919022,31.6964972 L1.97372561,30.9127926 L2.27407516,30.8257144 L2.05953977,31.609419 Z M2.53151763,31.4352624 L2.23116808,31.5223407 L2.44570348,30.7386361 L2.74605303,30.6515578 L2.53151763,31.4352624 Z M3.04640258,31.2175667 L2.74605303,31.3481841 L2.96058842,30.5644795 L3.21803089,30.4774012 L3.04640258,31.2175667 Z M3.51838044,30.9998709 L3.21803089,31.0869492 L3.43256628,30.3467838 L3.73291583,30.2597055 L3.51838044,30.9998709 Z M4.07617246,30.8257144 L3.77582291,30.9127926 L3.9903583,30.129088 L4.29070785,30.0420098 L4.07617246,30.8257144 Z M4.63396448,30.7821752 L4.29070785,30.8692535 L4.46233617,30.0855489 L4.84849987,29.9984706 L4.63396448,30.7821752 Z M5.96408392,30.5644795 L5.57792021,30.6515578 L5.74954852,29.8678532 L6.13571223,29.7807749 L5.96408392,30.5644795 Z M6.77931841,30.4774012 L6.3931547,30.5644795 L6.56478301,29.7807749 L6.95094672,29.6936966 L6.77931841,30.4774012 Z M7.50873874,30.3467838 L7.12257504,30.4338621 L7.29420335,29.6501574 L7.68036706,29.5630792 L7.50873874,30.3467838 Z M8.32397323,30.2161663 L7.93780953,30.3032446 L8.10943784,29.51954 L8.49560155,29.4324617 L8.32397323,30.2161663 Z M9.09630065,30.1726272 L8.62432278,30.2597055 L8.83885818,29.4324617 L9.31083604,29.3889226 L9.09630065,30.1726272 Z M9.91153514,30.0855489 L9.48246435,30.1726272 L9.69699975,29.3453834 L10.1260705,29.2583051 L9.91153514,30.0855489 Z M10.8983979,29.9984706 L10.3406059,30.0420098 L10.5122342,29.214766 L11.0700263,29.1712269 L10.8983979,29.9984706 Z M12.6575882,29.8678532 L12.1856103,29.9549315 L12.4001457,29.1276877 L12.8721236,29.0841486 L12.6575882,29.8678532 Z M13.644451,29.7807749 L13.129566,29.824314 L13.3011943,28.9970703 L13.8160793,28.9535311 L13.644451,29.7807749 Z M14.5454996,29.6936966 L14.0306147,29.7372357 L14.202243,28.909992 L14.7171279,28.8664528 L14.5454996,29.6936966 Z M15.4894553,29.6936966 L14.9316633,29.7372357 L15.1032916,28.909992 L15.6610837,28.8664528 L15.4894553,29.6936966 Z M16.4334111,29.6936966 L15.9185261,29.7372357 L16.0901544,28.909992 L16.6050394,28.8664528 L16.4334111,29.6936966 Z M18.5358579,29.5630792 L17.9780659,29.6066183 L18.1496942,28.7793746 L18.7074862,28.7358354 L18.5358579,29.5630792 Z M18.7074862,28.3875223 L20.0376057,22.2049637 C22.5262162,22.1178854 22.9123799,22.2485029 25.1864551,21.9437289 L23.8563357,28.0392091 C21.5822605,28.3439831 20.767026,28.2569048 18.7074862,28.3875223 Z M18.9220216,29.51954 L19.0936499,28.6922963 L19.694349,28.6487571 L19.5656278,29.4760009 L18.9220216,29.51954 Z M19.9946986,29.4760009 L20.1663269,28.6487571 L20.767026,28.605218 L20.6383048,29.4324617 L19.9946986,29.4760009 Z M21.0673756,29.4324617 L21.2390039,28.605218 L21.7538888,28.5616788 L21.6251676,29.3889226 L21.0673756,29.4324617 Z M22.0542384,29.4324617 L22.2258667,28.605218 L22.7836587,28.5616788 L22.6549375,29.3889226 L22.0542384,29.4324617 Z M24.1566852,29.1712269 L24.3283135,28.3439831 L24.8861055,28.300444 L24.7573843,29.1276877 L24.1566852,29.1712269 Z M24.6286631,27.9085917 L25.9587825,21.7260331 C28.1899506,21.5518766 29.6058842,21.3341808 31.6225169,20.4633979 L30.3353045,26.4282608 C28.4903001,27.3861219 26.7311099,27.7779742 24.6286631,27.9085917 Z M25.1006409,29.0406094 L25.2722693,28.2133657 L25.7871542,28.1262874 L25.6155259,28.9535311 L25.1006409,29.0406094 Z M25.9158754,28.909992 L26.0875037,28.0827482 L26.6023887,27.99567 L26.4307604,28.8229137 L25.9158754,28.909992 Z M26.7311099,28.7793746 L26.9027382,27.9521308 L27.2889019,27.8650525 L27.1172736,28.6922963 L26.7311099,28.7793746 Z M27.5463444,28.605218 L27.7179727,27.7779742 L28.1041364,27.6908959 L27.9325081,28.5181397 L27.5463444,28.605218 Z M28.1899506,28.4310614 L28.3615789,27.6038177 L28.7048355,27.5167394 L28.5332072,28.300444 L28.1899506,28.4310614 Z M29.1768134,28.0827482 L28.8335568,28.1698265 L29.0051851,27.3425828 L29.3055346,27.2119654 L29.1768134,28.0827482 Z M29.6487913,27.8215134 L29.3913488,27.9521308 L29.5629771,27.2119654 L29.8204196,27.1248871 L29.6487913,27.8215134 Z M30.2065833,27.4732002 L29.9491408,27.6038177 L30.1207691,26.8636522 L30.3782116,26.7765739 L30.2065833,27.4732002 Z M31.7512381,19.3313802 L32.0086806,19.2443019 L31.8370523,19.9409282 L31.5796098,20.0715456 L31.7512381,19.3313802 Z M31.2363532,19.5055368 L31.4937956,19.4184585 L31.3221673,20.1150848 L31.0647249,20.2457022 L31.2363532,19.5055368 Z M30.7214682,19.6796933 L31.0218178,19.5490759 L30.8072824,20.3763197 L30.5069328,20.5069371 L30.7214682,19.6796933 Z M30.077862,19.8538499 L30.4211187,19.7667716 L30.2065833,20.5940154 L29.8633267,20.6810937 L30.077862,19.8538499 Z M29.3913488,20.0280065 L29.8204196,19.9409282 L29.6487913,20.768172 L29.2197205,20.8552502 L29.3913488,20.0280065 Z M28.6619285,20.1586239 L29.0909992,20.0715456 L28.8764638,20.8987894 L28.4473931,20.9858677 L28.6619285,20.1586239 Z M28.2328577,20.2021631 L28.0612294,21.0294068 L27.5463444,21.072946 L27.7179727,20.2457022 L28.2328577,20.2021631 Z M27.4176232,20.3763197 L27.2459949,21.2035634 L26.7311099,21.2471025 L26.9027382,20.4198588 L27.4176232,20.3763197 Z M26.5165745,20.5504762 L26.3449462,21.37772 L25.7871542,21.4212591 L25.9587825,20.5940154 L26.5165745,20.5504762 Z M23.7276144,29.214766 L23.2127295,29.2583051 L23.3843578,28.4310614 L23.8992427,28.3875223 L23.7276144,29.214766 Z M25.5297117,20.5940154 L25.3580834,21.4212591 L24.8002914,21.4647983 L24.9719197,20.6375545 L25.5297117,20.5940154 Z M24.4141277,20.6810937 L24.2424994,21.5083374 L23.6847073,21.5518766 L23.8563357,20.7246328 L24.4141277,20.6810937 Z M23.3414507,20.8117111 L23.1698224,21.6389548 L22.6120304,21.682494 L22.7836587,20.8552502 L23.3414507,20.8117111 Z M22.3545879,20.8552502 L22.1829596,21.682494 L21.5822605,21.7260331 L21.7538888,20.8987894 L22.3545879,20.8552502 Z M21.2390039,20.8987894 L21.0673756,21.7260331 L20.4666765,21.7695723 L20.6383048,20.9423285 L21.2390039,20.8987894 Z M19.7372561,20.9858677 L20.2950481,20.9423285 L20.0805128,21.7695723 L19.5656278,21.7695723 L19.7372561,20.9858677 Z M17.506088,29.6066183 L16.9912031,29.6501574 L17.1628314,28.8229137 L17.6777164,28.7793746 L17.506088,29.6066183 Z M18.7933004,21.0294068 L19.3081853,20.9858677 L19.0936499,21.8131114 L18.578765,21.8566506 L18.7933004,21.0294068 Z M17.7635305,21.0294068 L18.2784155,20.9858677 L18.0638801,21.8131114 L17.506088,21.8566506 L17.7635305,21.0294068 Z M16.7766677,21.1164851 L17.3344597,21.072946 L17.1199243,21.9001897 L16.5621323,21.9437289 L16.7766677,21.1164851 Z M15.7898049,21.1600243 L16.3046898,21.1164851 L16.0901544,21.9437289 L15.5752695,21.987268 L15.7898049,21.1600243 Z M14.8887562,21.2035634 L15.4036412,21.1600243 L15.1891058,21.987268 L14.6742209,22.0308072 L14.8887562,21.2035634 Z M13.9877076,21.2906417 L14.4596855,21.2471025 L14.2451501,22.0743463 L13.7731722,22.0743463 L13.9877076,21.2906417 Z M13.6015439,22.5532769 C15.832712,22.3791203 16.9053889,22.4226595 19.0078358,22.2485029 L17.6777164,28.3439831 C15.5323624,28.4746005 14.3309642,28.5616788 12.2714245,28.6922963 L13.6015439,22.5532769 Z M11.7565395,29.9549315 L11.1987475,29.9984706 L11.3703758,29.1712269 L11.8852608,29.1276877 L11.7565395,29.9549315 Z M13.086659,21.2906417 L13.6015439,21.2471025 L13.3870085,22.0743463 L12.8292165,22.1178854 L13.086659,21.2906417 Z M11.3274687,28.7793746 C9.13920773,28.9970703 7.68036706,29.0406094 6.09280515,29.51954 L7.42292459,23.3369815 C8.83885818,22.90159 10.4693272,22.90159 12.6146811,22.6838943 L11.3274687,28.7793746 Z M12.0997961,21.37772 L12.6575882,21.3341808 L12.4430528,22.1614246 L11.8852608,22.2049637 L12.0997961,21.37772 Z M11.2416546,21.4212591 L11.6707254,21.37772 L11.45619,22.2049637 L11.0271192,22.2049637 L11.2416546,21.4212591 Z M10.4264201,21.5083374 L10.8983979,21.4647983 L10.6838626,22.292042 L10.2118847,22.3355812 L10.4264201,21.5083374 Z M9.61118559,21.6389548 L9.9973493,21.5518766 L9.7828139,22.3355812 L9.3966502,22.4226595 L9.61118559,21.6389548 Z M8.88176526,21.7695723 L9.26792896,21.682494 L9.05339357,22.4661986 L8.66722986,22.5532769 L8.88176526,21.7695723 Z M8.15234492,21.9001897 L8.53850863,21.8131114 L8.32397323,22.596816 L7.93780953,22.6838943 L8.15234492,21.9001897 Z M7.38001751,22.0308072 L7.76618121,21.9437289 L7.55164582,22.7274335 L7.16548211,22.8145118 L7.38001751,22.0308072 Z M5.27757066,30.6515578 L4.89140695,30.7386361 L5.06303527,29.9549315 L5.44919897,29.8678532 L5.27757066,30.6515578 Z M6.65059717,22.2049637 L7.03676088,22.1178854 L6.82222549,22.90159 L6.47896886,22.9886683 L6.65059717,22.2049637 Z M5.96408392,22.3355812 L6.35024762,22.2485029 L6.13571223,23.0322075 L5.74954852,23.1192858 L5.96408392,22.3355812 Z M5.44919897,22.5097377 L5.74954852,22.4226595 L5.53501313,23.2063641 L5.23466358,23.2934423 L5.44919897,22.5097377 Z M4.89140695,22.6838943 L5.1917565,22.596816 L4.97722111,23.3805206 L4.67687156,23.4675989 L4.89140695,22.6838943 Z M4.41942909,22.7709726 L4.71977864,22.6838943 L4.50524325,23.4675989 L4.2048937,23.5546772 L4.41942909,22.7709726 Z M3.90454415,23.0322075 L4.2048937,22.9451292 L3.9903583,23.7288338 L3.69000875,23.8159121 L3.90454415,23.0322075 Z M3.43256628,23.2934423 L3.73291583,23.2063641 L3.51838044,23.9900687 L3.21803089,24.0771469 L3.43256628,23.2934423 Z M2.91768134,23.6417555 L3.21803089,23.5111381 L3.0034955,24.2948427 L2.70314595,24.381921 L2.91768134,23.6417555 Z" id="Shape" fill="#EF3340"></path>
                <path d="M27.4176232,9.5786118 L29.4771629,0 C24.9290126,0.914322036 16.4763182,0.304774012 15.4036412,3.26543584 L13.3441014,12.8440476 C14.4167784,9.88338582 22.8694729,10.4493947 27.4176232,9.5786118 Z M14.8458492,10.9283253 L14.9316633,10.1446207 L15.4036412,9.97046411 L15.27492,10.7977079 L14.8458492,10.9283253 Z M14.4596855,10.1010815 L15.7898049,4.0056013 C16.4763182,3.39605328 18.4929508,2.96066183 19.9946986,2.74296611 L18.6645792,8.88198549 C17.0341102,9.14322036 15.1032916,9.5786118 14.4596855,10.1010815 Z M15.7039907,10.6670904 L15.832712,9.83984667 L16.3046898,9.66569009 L16.1759686,10.4929338 L15.7039907,10.6670904 Z M16.5621323,10.4058556 L16.7337606,9.5786118 L17.2057385,9.53507266 L17.0341102,10.3623164 L16.5621323,10.4058556 Z M17.3773668,10.2752381 L17.5489951,9.44799437 L18.1067871,9.40445523 L17.9351588,10.231699 L17.3773668,10.2752381 Z M18.3213225,10.0575424 L18.4929508,9.23029865 L19.0507429,9.1867595 L18.8791146,10.0140033 L18.3213225,10.0575424 Z M19.3081853,9.88338582 L19.4798137,9.05614207 L20.0376057,9.01260293 L19.8659774,9.83984667 L19.3081853,9.88338582 Z M20.4237694,9.79630753 L20.5953977,8.96906378 L21.1102826,8.92552464 L20.9386543,9.75276838 L20.4237694,9.79630753 Z M21.5393534,9.66569009 L21.7109817,8.83844635 L22.2687738,8.7949072 L22.0971454,9.62215095 L21.5393534,9.66569009 Z M22.6120304,9.53507266 L22.7836587,8.70782891 L23.2985436,8.66428977 L23.1269153,9.49153352 L22.6120304,9.53507266 Z M23.5559861,9.44799437 L23.7276144,8.62075062 L24.2424994,8.57721148 L24.0708711,9.40445523 L23.5559861,9.44799437 Z M25.0148268,9.23029865 L24.585756,9.31737694 L24.7573843,8.49013319 L25.1864551,8.4030549 L25.0148268,9.23029865 Z M26.0016896,9.14322036 L25.5726188,9.23029865 L25.7442471,8.4030549 L26.1733179,8.31597661 L26.0016896,9.14322036 Z M26.8169241,9.05614207 L26.4736675,9.14322036 L26.6882028,8.31597661 L27.0314595,8.22889832 L26.8169241,9.05614207 Z M28.2757648,0.522469735 L28.6190214,0.435391446 L28.404486,1.26263519 L28.0612294,1.34971348 L28.2757648,0.522469735 Z M27.3747161,0.609548024 L27.8037869,0.522469735 L27.6321586,1.34971348 L27.2030878,1.43679177 L27.3747161,0.609548024 Z M26.5165745,0.696626313 L26.9456453,0.609548024 L26.774017,1.43679177 L26.3449462,1.52387006 L26.5165745,0.696626313 Z M25.8729684,0.783704602 L25.70134,1.61094835 L25.1864551,1.65448749 L25.3580834,0.827243747 L25.8729684,0.783704602 Z M24.8861055,0.827243747 L24.7144772,1.65448749 L24.1995923,1.69802664 L24.3712206,0.870782891 L24.8861055,0.827243747 Z M23.8563357,1.00140033 L23.6847073,1.82864407 L23.1269153,1.87218322 L23.2985436,1.04493947 L23.8563357,1.00140033 Z M22.8265658,1.08847861 L22.6549375,1.91572236 L22.0971454,1.95926151 L22.2687738,1.13201776 L22.8265658,1.08847861 Z M21.7109817,1.21909605 L21.5393534,2.04633979 L20.9815614,2.08987894 L21.1531897,1.26263519 L21.7109817,1.21909605 Z M20.8099331,2.56880953 C21.5822605,2.35111381 27.2889019,1.65448749 28.3615789,1.65448749 L27.0743666,7.88058517 C25.5297117,8.09828089 20.0805128,8.49013319 19.4798137,8.75136806 L20.8099331,2.56880953 Z M20.6812119,1.39325263 L20.5095835,2.17695723 L20.0376057,2.26403552 L20.209234,1.43679177 L20.6812119,1.39325263 Z M19.7372561,1.52387006 L19.5656278,2.35111381 L19.0936499,2.4381921 L19.2652783,1.61094835 L19.7372561,1.52387006 Z M18.7933004,1.69802664 L18.6216721,2.52527038 L18.1496942,2.61234867 L18.3213225,1.74156578 L18.7933004,1.69802664 Z M17.9780659,1.87218322 L17.8493447,2.69942696 L17.3773668,2.87358354 L17.506088,2.04633979 L17.9780659,1.87218322 Z M17.0770173,2.22049637 L16.9912031,3.04774012 L16.5621323,3.13481841 L16.6479465,2.35111381 L17.0770173,2.22049637 Z M16.2617828,2.61234867 L16.1759686,3.39605328 L15.7468978,3.613749 L15.832712,2.78650525 L16.2617828,2.61234867 Z M14.5884067,10.3187773 L14.5025925,11.1024819 L14.0735218,11.3201776 L14.1593359,10.4929338 L14.5884067,10.3187773 Z" id="Shape" fill="#EF3340"></path>
                <path d="M23.5988932,10.2752381 C20.1663269,10.5800121 14.5025925,10.7106296 13.1724731,13.3665174 C13.9448005,15.4999355 19.6085349,18.7653713 21.9255171,20.0715456 C26.0875037,19.8973891 30.9789107,19.4184585 32.5235655,18.068745 C33.1242646,15.4563963 26.3020391,11.9732648 23.5988932,10.2752381 Z M13.8160793,13.6277522 L13.9018934,13.0182042 C14.6742209,12.3651171 15.0603846,11.9732648 16.1759686,11.8861865 L15.4894553,15.3257789 C14.8029421,14.8468483 14.2880572,14.1937611 13.8160793,13.6277522 Z M19.3510924,13.3229782 C19.136557,13.1923608 18.9220216,13.1488217 18.6645792,13.1488217 L17.8493447,16.9802664 C17.1628314,16.5448749 16.6479465,16.2401009 16.0901544,15.8047095 L16.9053889,11.6684907 C17.9351588,11.450795 17.9780659,11.4072559 19.0936499,11.2766384 L18.8362075,12.5392736 C19.0936499,12.5392736 19.3081853,12.6263519 19.5227207,12.7134302 L19.8659774,11.1895602 C20.9815614,11.1024819 20.767026,11.0589427 21.88261,10.9718644 L21.281911,13.6712914 C21.5393534,13.6712914 21.7538888,13.7583697 21.9684242,13.845448 L22.6120304,10.9718644 C23.3414507,10.9283253 23.2556366,10.8847861 23.4272649,11.0154036 C23.8563357,11.3201776 24.3712206,11.6249516 24.6286631,11.7991082 L23.8992427,15.1080832 C24.1995923,15.1080832 24.4570348,15.1951615 24.6715702,15.3257789 L25.3580834,12.1038822 C25.9158754,12.4086562 26.4736675,12.7569694 26.8598312,13.1052825 L26.216225,16.1965618 C26.4307604,16.2401009 26.6452958,16.2836401 26.774017,16.4142575 L27.4176232,13.4535957 C28.2757648,14.0196046 28.3186718,14.150222 29.0051851,14.5856134 L28.3186718,17.6333535 C28.5761143,17.6768927 28.7906497,17.8075101 28.8335568,18.068745 C28.8335568,18.068745 28.8335568,18.1122841 28.8335568,18.1558233 L29.4771629,14.9339266 C30.077862,15.2387006 30.3782116,15.4563963 31.0647249,16.2401009 L30.6356541,18.2429016 C30.6356541,18.2429016 29.4342559,18.5912147 28.7906497,18.6347539 L28.7477426,18.6347539 L28.7477426,18.5912147 C28.5761143,18.3299799 28.3615789,18.2864407 28.1470435,18.2864407 L28.0612294,18.7218322 C27.2889019,18.9395279 27.4176232,18.8959887 26.1733179,19.0266062 L26.6023887,17.0238055 C26.4307604,16.8931881 26.216225,16.8496489 26.0445967,16.8061098 L25.5726188,19.0701453 C25.3580834,19.1136845 24.1137781,19.2443019 23.8134286,19.2007628 L24.5428489,15.9353269 C24.2854064,15.7611703 24.027964,15.7176312 23.7705215,15.7176312 L23.0411012,19.2007628 C22.8265658,19.2443019 21.7538888,19.5055368 20.8957472,18.678293 L21.7967959,14.454996 C21.5822605,14.3243786 21.3677251,14.2808394 21.1102826,14.2808394 L20.2521411,18.3299799 C19.6085349,18.068745 18.8362075,17.5027361 18.4929508,17.3285795 L19.3510924,13.3229782 Z M32.1374018,17.8945884 C32.0086806,18.068745 31.6225169,18.1122841 31.2363532,18.2864407 L31.6225169,16.5448749 C31.6225169,16.5013358 32.3090301,17.7204318 32.1374018,17.8945884 Z" id="XMLID_16_" fill="#EF3340"></path>
                <path d="M28.8764638,18.1993624 L28.7906497,18.5912147 C28.7906497,18.5912147 28.7906497,18.6347539 28.8335568,18.6347539 C28.8764638,18.6347539 28.8764638,18.373519 28.8764638,18.1993624 Z" id="XMLID_41_" fill="#EF3340"></path>
                <path d="M24.9290126,50.5489468 C24.9290126,50.5489468 32.4377514,49.7652422 32.0515877,46.7175021 C32.0515877,42.6683617 17.3773668,35.1796288 9.73990683,30.9563318 C4.11907954,31.5223407 2.27407516,31.914193 0.471977864,33.6992979 C-0.514884942,37.8355166 12.4001457,41.9281962 24.9290126,50.5489468 Z M4.2048937,32.218967 L3.90454415,33.438063 C4.07617246,33.4816022 4.24780077,33.5251413 4.37652201,33.5686805 L4.71977864,32.0883495 C5.1917565,31.9577321 5.44919897,31.9577321 6.43606178,31.8271147 L5.87826976,34.3088459 C6.04989807,34.3088459 6.17861931,34.3523851 6.35024762,34.3959242 L6.95094672,31.8271147 C7.5945529,31.8706538 7.80908829,31.6964972 8.66722986,31.7400364 L7.85199537,35.1796288 C8.02362368,35.223168 8.195252,35.2667071 8.32397323,35.3102462 L9.09630065,31.7400364 C9.61118559,32.0448104 10.3406059,32.2625061 10.8983979,32.5672801 L10.0402564,36.3987249 C10.2547918,36.442264 10.4693272,36.4858031 10.6409555,36.6164206 L11.499097,32.828515 C12.013982,33.133289 12.9579377,33.6557587 13.5157297,34.0040719 L12.6575882,37.9225949 C12.8721236,37.9225949 13.086659,38.0096732 13.3011943,38.0967515 L14.1164288,34.3088459 C14.6313138,34.6136199 15.6181766,35.0925505 16.1330615,35.3973245 L15.27492,39.3593867 C15.4894553,39.3593867 15.6610837,39.446465 15.832712,39.5335433 L16.6479465,35.7020985 C17.1628314,36.0068726 18.0638801,36.3987249 18.6216721,36.7034989 L17.7206234,40.7961785 C17.9780659,40.7961785 18.2355084,40.8397176 18.4071367,40.970335 L19.2652783,37.0082729 C19.7801632,37.3130469 20.6812119,37.7919775 21.1960968,38.0967515 L20.2950481,42.1458919 C20.5095835,42.1458919 20.6812119,42.2329702 20.8528402,42.3200485 L21.7538888,38.4450647 C22.2258667,38.7933778 22.8694729,39.0981518 23.4272649,39.4029258 L22.4833091,43.4085271 C22.6978445,43.4085271 22.9123799,43.4956054 23.0411012,43.5826837 L23.9421498,39.7947781 C24.4141277,40.056013 25.3151763,40.665561 25.7442471,41.0138742 L24.9290126,44.7582406 C25.1006409,44.7582406 25.2722693,44.8017798 25.4009905,44.888858 L26.1733179,41.1880308 C26.5594816,41.3621873 27.0314595,41.7540396 27.5463444,42.2765094 L26.774017,45.7596409 C26.9456453,45.7596409 27.0743666,45.8031801 27.2459949,45.8902584 L27.9325081,42.4942051 C28.2328577,42.8425183 28.7048355,43.2779097 29.0051851,43.6262229 L28.3615789,46.6304238 C28.5332072,46.673963 28.6619285,46.7175021 28.8335568,46.7610413 L29.4342559,43.9309969 C29.7346054,44.27931 30.3353045,44.6276232 30.592747,45.1500929 L29.9491408,47.6318242 C30.1207691,47.6753633 30.2494904,47.7624416 30.3782116,47.8059807 L30.9789107,45.5419452 C30.9789107,45.5419452 31.8799593,46.6304238 31.6225169,47.6753633 C31.5367027,48.0236765 30.077862,48.9379985 30.077862,48.9379985 L30.2494904,48.3284505 C30.1207691,48.2413722 29.9920479,48.197833 29.8204196,48.1542939 L29.5629771,49.0686159 C29.2197205,49.3298508 28.2328577,49.5475465 28.2328577,49.5475465 L28.7048355,47.4141284 C28.5761143,47.3270501 28.404486,47.283511 28.2328577,47.283511 L27.7179727,49.5910857 C27.2889019,49.8087814 26.4307604,49.7652422 26.4307604,49.7652422 L27.0743666,46.5868847 C26.9456453,46.4998064 26.774017,46.4562673 26.6023887,46.4562673 L25.8729684,49.8523205 C24.7573843,49.6346248 24.4999418,49.1992334 24.4999418,49.1992334 L25.2722693,45.5854844 C25.1006409,45.4984061 24.9719197,45.4984061 24.8002914,45.4548669 L24.027964,48.8509202 C23.1269153,48.2849113 22.1400525,47.6318242 22.1400525,47.6318242 L22.9123799,44.27931 C22.7407516,44.1922317 22.5262162,44.1486926 22.3545879,44.1051534 L21.6251676,47.283511 C20.7241189,46.7175021 19.9517915,46.2821107 19.9517915,46.2821107 L20.7241189,43.0166748 C20.5524906,42.9295965 20.3379552,42.8860574 20.1663269,42.8425183 L19.4798137,45.9337975 C18.578765,45.3677886 17.5919022,44.888858 17.5919022,44.888858 L18.2784155,41.6234222 C18.0638801,41.4928048 17.8493447,41.4492656 17.5919022,41.4492656 L16.8624819,44.584084 C15.9185261,44.0180752 15.0174775,43.4520663 15.0174775,43.4520663 L15.7468978,40.1866304 C15.5752695,40.0995521 15.3607341,40.056013 15.1891058,40.0124739 L14.5025925,43.1472923 C13.5157297,42.5812834 12.5288669,42.0588137 12.5288669,42.0588137 L13.3011943,38.7498387 C13.086659,38.6627604 12.9150306,38.6192212 12.7004952,38.5756821 L12.013982,41.7105005 C11.0271192,41.1444916 9.91153514,40.665561 9.91153514,40.665561 L10.6409555,37.2695077 C10.4264201,37.1388903 10.2547918,37.0953512 10.0402564,37.051812 L9.31083604,40.2737087 C8.32397323,39.7076998 7.5945529,39.2723084 7.5945529,39.2723084 L8.36688031,35.9197943 C8.23815908,35.832716 8.06653076,35.7891768 7.89490245,35.7891768 L7.16548211,38.9239952 C6.17861931,38.3579864 5.66373437,38.0967515 5.66373437,38.0967515 L6.43606178,34.8313157 C6.30734054,34.7877765 6.13571223,34.7442374 5.96408392,34.7442374 L5.10594234,37.8790558 C4.11907954,37.3130469 3.64710167,36.9211946 3.64710167,36.9211946 L4.29070785,34.0911502 C4.11907954,34.0040719 3.9903583,33.9605328 3.81872999,33.9605328 L3.21803089,36.5728814 C1.58756191,35.9197943 0.943955728,33.9605328 0.943955728,33.9605328 C1.41593359,33.6557587 3.04640258,32.523741 4.2048937,32.218967 Z" id="Shape" fill="#EF3340"></path>
            </g>
        </g>
    </g>
</svg>