<?xml version="1.0" encoding="UTF-8"?>
<svg width="138px" height="152px" viewBox="0 0 138 152" version="1.1" xmlns="http://www.w3.org/2000/svg" xmlns:xlink="http://www.w3.org/1999/xlink">
    <!-- Generator: Sketch 52.5 (67469) - http://www.bohemiancoding.com/sketch -->
    <title>RiC_PODCAST_186-CG7</title>
    <desc>Created with Sketch.</desc>
    <defs>
        <polygon id="path-1" points="0.43551777 0.0889119322 76.633546 0.0889119322 76.633546 13.5326975 0.43551777 13.5326975"></polygon>
    </defs>
    <g id="Desktop" stroke="none" stroke-width="1" fill="none" fill-rule="evenodd">
        <g id="Rare-In-Common---Desktop" transform="translate(-955.000000, -2657.000000)">
            <g id="RiC_PODCAST_186-CG7" transform="translate(956.000000, 2657.543951)">
                <path d="M65.0729855,11.2345501 C65.1513486,11.2199826 65.2292093,11.2049128 65.308577,11.1943639 C66.3639667,11.0542146 67.4605472,11.1702522 68.5018717,11.3646529 C69.1121994,11.4816951 69.7180061,11.6253607 70.3112546,11.8132311 C70.5719625,11.8956128 70.8326704,11.9805061 71.086848,12.0804693 C71.1260295,12.0960414 71.498254,12.2603024 71.5896776,12.3165631 C71.5128215,11.659519 71.4334538,11.0024749 71.3505698,10.3459331 C69.2553626,10.3750681 67.1691974,9.9837551 65.0770041,10.1716255 C65.0775065,10.1721278 65.0775065,10.1726302 65.0775065,10.1731325 C64.1416707,10.4519241 63.2716398,10.855293 62.4754511,11.4319647 C61.6425924,12.0347575 60.8855852,12.7023505 60.1521873,13.4211808 C60.9669622,12.8721371 61.7922859,12.3688051 62.6793959,11.9458455 C63.4323846,11.5620675 64.2421362,11.3420481 65.0729855,11.2345501" id="Fill-1" fill="#BB2532"></path>
                <path d="M72.1025538,18.3168627 C71.8157249,18.3349465 71.5278913,18.3414767 71.2410625,18.3500163 C70.1464913,18.3821652 69.0519201,18.406277 67.9583535,18.4635423 C67.3450119,18.4951889 66.7080609,18.5193006 66.0967286,18.6308173 C66.0987379,18.6423708 66.1002449,18.653422 66.1017518,18.6644732 C65.3874424,18.8834879 64.7233657,19.1733307 64.0572797,19.5274715 C64.091438,19.5093877 64.1150474,19.4963272 64.0412053,19.5355087 C63.976405,19.5706716 63.9954935,19.5606251 64.0266378,19.5440483 C62.9838063,20.1046456 62.0575147,20.8455783 61.1488047,21.5975623 C62.3790042,20.9254484 63.6468783,20.2432879 65.0177295,19.90271 C65.3924657,19.8042538 65.7687088,19.7299094 66.1544962,19.683193 C66.1981987,19.6776674 66.2303476,19.6736487 66.2564687,19.6681231 C66.256971,19.6736487 66.2579756,19.6781697 66.2589803,19.6836953 C66.5407859,19.6259276 66.8271125,19.5812205 67.1229832,19.5510809 C68.4104481,19.4199734 69.7471411,19.4958249 71.0140105,19.7570351 C71.5409519,19.8655378 72.0683955,19.9976498 72.5732345,20.1855203 C72.5757461,20.1865249 72.5767507,20.1870272 72.5787601,20.1880319 C72.4833179,19.5510809 72.3908896,18.9141299 72.3049917,18.2761742 C72.2627962,18.2987789 72.1784052,18.3118394 72.1025538,18.3168627" id="Fill-2" fill="#BB2532"></path>
                <path d="M63.0566437,7.90612939 C63.5253151,8.14071624 63.6669714,8.82136973 63.9995121,9.19962219 C63.9733911,8.61591786 63.7317716,7.79109644 63.1048672,7.60021206 C62.7527357,7.49371867 62.3875438,7.60875163 62.0560078,7.73081716 C61.9967331,7.75291956 61.4321173,7.95033419 61.4321173,8.0186507 C61.6807693,7.98198081 61.927412,7.93124575 62.174557,7.88754328 C62.44933,7.83881753 62.7954335,7.77351498 63.0566437,7.90612939" id="Fill-3" fill="#BB2532"></path>
                <path d="M64.6223979,23.7208998 C64.7901753,23.6360065 64.4576346,23.8027791 64.6223979,23.7208998" id="Fill-4" fill="#BB2532"></path>
                <path d="M72.3255871,20.3060788 C72.0498094,20.3281812 71.7715201,20.3392324 71.4947377,20.3532976 C70.4373388,20.4065443 69.3794375,20.4517537 68.3240478,20.5346377 C67.7001573,20.5838658 67.0556714,20.6190287 66.4332879,20.7320524 C66.4347948,20.7420989 66.4363018,20.7516431 66.4383111,20.7611873 C65.7039086,20.980202 65.0197388,21.2730589 64.3335597,21.6277019 C64.3536528,21.6171531 64.3732436,21.6071065 64.3787692,21.6040926 C64.3752529,21.6061019 64.3616901,21.6131344 64.3320528,21.6282043 C64.254192,21.6683904 64.2908619,21.649302 64.3305458,21.6292089 C63.2721422,22.1752387 62.3307808,22.9071296 61.3989637,23.6415321 C62.6683447,22.984488 63.9593259,22.3274439 65.3583074,21.9913869 C65.69989,21.9054889 66.0444865,21.8366701 66.3946087,21.7974886 C66.4177157,21.7949769 66.4604135,21.7954793 66.5076323,21.7939723 C66.6583305,21.7623257 66.809531,21.7326883 66.9617362,21.7095813 C68.0151165,21.5488366 69.0976319,21.5317574 70.1585471,21.6256926 C70.720149,21.675423 71.2737137,21.7688559 71.8252691,21.8889121 C72.0794467,21.9366332 72.3296057,22.0149963 72.5772531,22.0903454 C72.6229649,22.1039082 72.7862212,22.1315362 72.8846774,22.1712201 C72.7842119,21.5347714 72.6847511,20.8983227 72.5888066,20.2613717 C72.5124529,20.2889997 72.3582384,20.3035672 72.3255871,20.3060788" id="Fill-5" fill="#BB2532"></path>
                <path d="M65.6260479,24.0976453 C65.9756677,24.0087333 66.3378457,23.9348912 66.697512,23.90224 C66.7507587,23.8972167 66.8035031,23.8926957 66.8562474,23.8876725 C66.867801,23.8851608 66.8793545,23.8821469 66.8904057,23.8801376 C68.9519569,23.5013828 71.2003739,23.5154479 73.2011436,24.1971061 C73.1102223,23.5666853 73.0057383,22.9377715 72.9062775,22.3093601 C72.9027612,22.2867554 72.8992449,22.2641506 72.8957286,22.2415459 C72.77517,22.2661599 72.5235041,22.2973042 72.5049179,22.2988112 C72.2522473,22.3194066 71.9995767,22.3354811 71.7464037,22.3535649 C71.1842995,22.3947557 70.6216929,22.4324303 70.0595886,22.4781421 C68.9705431,22.565547 67.868437,22.6464217 66.7909449,22.8368037 C66.7919496,22.8423294 66.7929542,22.8473526 66.7934565,22.8528782 C66.0364493,23.0698836 65.3306794,23.3657544 64.6223979,23.7208998 C63.5544501,24.2523621 62.6000282,24.9742064 61.6486203,25.6855019 C62.9390992,25.0515648 64.2260617,24.4537953 65.6260479,24.0976453" id="Fill-6" fill="#BB2532"></path>
                <path d="M73.9777416,12.7962857 C74.8000514,12.8651045 75.6173379,12.9479885 76.4341221,13.0544819 C76.3693219,12.7771972 76.3010054,12.5019219 76.2291726,12.2296605 C75.3079043,11.7514449 74.3770918,11.3043736 73.4362328,10.8683535 C73.6452009,11.5027929 73.8230248,12.1467765 73.9777416,12.7962857" id="Fill-7" fill="#BB2532"></path>
                <path d="M74.3750825,14.7483296 C75.1973923,14.7910274 76.0146788,14.853316 76.8324676,14.9432325 C76.7812303,14.6795107 76.7284859,14.4172959 76.6747369,14.156588 C75.7986781,13.7245865 74.9120704,13.3287526 74.0134068,12.9489932 C74.1520492,13.5447533 74.2705984,14.1450345 74.3750825,14.7483296" id="Fill-8" fill="#BB2532"></path>
                <path d="M75.1456526,20.5818565 C76.0438138,20.5391587 76.9334354,20.5336331 77.830592,20.5758286 C77.7858849,20.3085904 77.7406754,20.0413523 77.6949636,19.7741142 C76.7882628,19.4018897 75.8740272,19.0859258 74.940703,18.8031155 C75.0150475,19.3948571 75.0838663,19.9876033 75.1456526,20.5818565" id="Fill-9" fill="#BB2532"></path>
                <path d="M75.3169462,22.6403938 C75.3531137,23.263782 75.3716999,23.8871701 75.3701929,24.5095537 C75.9353111,24.4387255 76.4974153,24.3729206 77.0645429,24.3342414 C77.5070932,24.3081204 77.9486389,24.3086227 78.3906869,24.3171623 C78.3580357,24.0398776 78.3213658,23.7630953 78.2836912,23.4863129 C77.7637825,23.2979402 77.2433714,23.1105721 76.7083928,22.9659019 C76.2472563,22.8423294 75.7831059,22.7398546 75.3169462,22.6403938" id="Fill-10" fill="#BB2532"></path>
                <path d="M75.3094113,22.5339004 C75.7956641,22.4901979 76.2809123,22.4500117 76.7686721,22.4284117 C77.2237806,22.4113325 77.6788891,22.4233884 78.1334954,22.4424768 C78.0923045,22.1732294 78.050109,21.9044843 78.0069089,21.6362415 C77.0695661,21.2755705 76.1272001,20.983216 75.161727,20.7285361 C75.223011,21.3298218 75.2727414,21.93161 75.3094113,22.5339004" id="Fill-11" fill="#BB2532"></path>
                <path d="M74.919103,18.6353382 C75.7851152,18.6232824 76.6456019,18.6413661 77.5101072,18.7006408 C77.4628884,18.4283794 77.4156696,18.1571226 77.3684509,17.8863682 C77.3664416,17.8923961 77.3649346,17.8989264 77.3629253,17.9049543 C76.4833502,17.5201716 75.5962402,17.1836123 74.692051,16.8736764 C74.7679024,17.4588877 74.8447585,18.0466106 74.919103,18.6353382" id="Fill-12" fill="#BB2532"></path>
                <path d="M74.6679393,16.6918339 C75.5088352,16.707406 76.3437032,16.7485969 77.1810828,16.8234436 C77.1318547,16.5481683 77.0821243,16.2738976 77.0323939,16.0006315 C77.0288776,16.0111804 77.0258637,16.0217293 77.0223474,16.0322781 C76.160856,15.6314209 75.2908252,15.2722569 74.4072314,14.9336883 C74.5051853,15.5183973 74.5905809,16.1051156 74.6679393,16.6918339" id="Fill-13" fill="#BB2532"></path>
                <path d="M101.771511,33.77699 C101.771511,15.3546386 86.8373205,0.420447951 68.4149691,0.420447951 C49.9921153,0.420447951 35.0579247,15.3546386 35.0579247,33.77699 C35.0579247,47.4754555 43.3181948,59.2394586 55.1264026,64.3747506 C57.4556943,63.0189692 61.4135311,62.0318961 66.0776401,61.731002 L66.9210477,65.2457861 L66.9210477,51.8999544 C66.9054755,51.8909125 66.890908,51.8823729 66.8753359,51.873331 C65.5240754,51.0846772 64.1271032,50.2704046 63.3042911,49.0813959 C62.1238219,47.3739854 63.0099273,45.6349283 63.7222274,44.2369514 C64.1019869,43.4925024 64.4596439,42.7852255 64.5540814,42.1226558 C64.4345275,41.9920507 64.3270295,41.8539107 64.2300803,41.7092404 C63.6750087,41.6218355 63.1651464,41.3380206 62.7673032,40.8824097 C62.3006412,40.3479335 62.0444542,39.6416613 62.0479705,38.8936959 C62.0499798,38.1914424 62.2840644,37.5499704 62.6668378,37.0546757 C62.5096093,36.41672 62.3704647,35.8435645 62.2905946,35.5135355 C62.0539985,35.4643074 61.8174023,35.4110607 61.5828154,35.3497768 C60.9649529,35.1779809 60.3470903,34.9860918 59.7663999,34.5741835 C59.6945671,34.5209368 59.623739,34.4641738 59.5554225,34.3993736 L59.4936362,34.3395966 L59.4554593,34.2984058 L59.3791056,34.2155218 C59.3308822,34.165289 59.2690959,34.082405 59.2153469,34.0171025 C59.1565746,33.945772 59.1183977,33.8809718 59.0686673,33.8131576 C58.8853178,33.5424032 58.7361266,33.2636115 58.6030099,32.9828106 C58.3417997,32.4207063 58.148906,31.8535788 57.9851473,31.2919769 C57.9037703,31.0131852 57.8299282,30.7353982 57.7616117,30.4591182 L58.9265087,28.9682108 L57.5662063,29.6051618 C57.5004015,29.2977375 57.4406245,28.9938295 57.3838615,28.6919308 L58.7069916,26.982511 L57.2145772,27.7375089 C57.1638422,27.4356102 57.1161211,27.1377301 57.0704093,26.8423616 L58.4874746,24.9973135 L56.9227251,25.8432326 C56.8790226,25.5388223 56.8368271,25.2374259 56.7966409,24.9415551 L58.2674553,23.0116137 L56.6615149,23.9313749 C56.6208264,23.6204343 56.5816448,23.314517 56.543468,23.0141253 L58.0484406,21.0259138 L56.4168815,22.0094707 C56.3766953,21.6904928 56.3380161,21.3785476 56.2993369,21.0731326 L57.8284212,19.0397117 L56.1802853,20.0800315 C56.1411038,19.7484955 56.1044339,19.4244944 56.0702756,19.1120468 L57.6084018,17.0540119 L55.9703125,18.1310016 C55.9356519,17.7713352 55.9055123,17.4262364 55.8803959,17.0977143 L57.3888848,15.0688144 L55.8171027,16.1402785 C55.763856,15.1321076 55.7728979,14.3178351 55.8201166,13.7336284 C55.8296609,13.5683627 55.8507586,13.4201762 55.8668331,13.292585 C55.8808983,13.1654962 55.8974751,13.0574959 55.9160612,12.9700909 L55.9678009,12.7013458 L55.9703125,12.6933086 C55.9703125,12.6933086 55.9929172,12.6104246 56.0366197,12.4481728 C56.0943874,12.2638187 56.18129,12.0116504 56.3264626,11.7047284 C56.6147984,11.0878705 57.1392281,10.2535049 57.9519937,9.33123194 C58.7662663,8.41247531 59.8502886,7.37918805 61.3070378,6.46043142 C61.672732,6.23337948 62.064045,6.01687641 62.4875069,5.82548971 C62.9069502,5.63661464 63.3766262,5.468335 63.8623767,5.3764091 C64.3787692,5.28297622 64.8655244,5.26539477 65.3763912,5.26690175 C65.8832395,5.27092037 66.396618,5.30507862 66.9170291,5.35832532 C67.9573489,5.46632569 69.0263014,5.65319144 70.1188633,5.91138768 C71.2114251,6.17510951 72.3296057,6.49458967 73.445777,6.98034017 C73.725071,7.09989407 74.0023556,7.24104804 74.279138,7.3967695 C74.553911,7.55600726 74.828684,7.73734741 75.0873826,7.99805528 C75.5455051,8.47627087 75.8921109,9.03837512 76.1698979,9.62207945 C76.7214533,10.7950137 77.0389242,12.0453063 77.328767,13.3061479 C77.609568,14.5705057 77.8451595,15.8574682 78.0782393,17.1584959 C78.3098122,18.4610306 78.5433944,19.7741142 78.7679347,21.1072909 C78.9889587,22.4399652 79.1999362,23.790221 79.331546,25.1640861 C79.4561231,26.5384536 79.5289606,27.9459747 79.2722713,29.3710773 C79.1346337,30.0793588 78.9030608,30.7951752 78.4755802,31.4356425 C78.2967517,31.7089085 78.0541276,32.0278864 77.8230571,32.2916082 C77.583447,32.5608556 77.331781,32.8200565 77.0595196,33.054141 C75.9759996,34.001028 74.6880324,34.6490302 73.3744465,35.0895713 C73.2624275,35.1272458 73.1499062,35.1614041 73.0373849,35.1960647 C73.0599896,35.6687546 73.0881199,36.2820963 73.1152456,36.9190473 L73.1157479,36.9250752 C73.2076738,38.1829028 73.2091808,39.2593902 73.2101855,39.9023691 C73.2101855,39.9028715 73.2101855,39.9038761 73.2101855,39.9038761 C73.2101855,39.9063878 73.2101855,39.9099041 73.2101855,39.912918 C73.2101855,41.6811101 72.4456433,42.8645932 71.2470904,42.9876634 L71.2470904,53.1391958 C72.2602846,54.0368547 73.0655152,54.9350159 73.7828386,55.9547404 C75.2270296,58.0097614 75.3475881,60.0261031 74.8964982,62.004268 C77.9697367,62.4101485 80.5888712,63.1294812 82.4288961,64.0467309 C93.8478003,58.7506941 101.771511,47.1926453 101.771511,33.77699" id="Fill-14" fill="#BB2532"></path>
                <path d="M69.5617823,37.3339697 C69.5617823,38.2848752 69.5617823,39.2352785 69.5617823,40.1861841 C69.5617823,45.6625563 69.5361636,51.1394309 69.5070286,56.6178124 C69.4894472,59.9808937 69.470861,63.3444773 69.4527773,66.7085632 C69.4517726,66.9853456 69.8792531,66.9923781 69.8867881,66.7155958 C69.8968346,66.6482839 69.8908067,66.5724325 69.8923137,66.5051207 C69.9048718,66.0103283 69.918937,65.5145312 69.9269742,65.0192365 C69.9485743,63.8000881 69.974193,62.5814421 69.9917745,61.3632984 C70.0319606,58.5959773 70.05557,55.8236329 70.0415049,53.0558095 C70.0259327,50.2457906 70.0234211,47.436274 69.9947884,44.6257528 C69.9691697,42.1939863 69.8697089,39.7491593 69.5617823,37.3339697" id="Fill-15" fill="#BB2532"></path>
                <path d="M71.9006182,38.7555559 C72.0056046,39.2719484 72.0699025,39.8079316 72.0623676,40.3363799 C72.0367489,40.7844559 71.9639114,41.1878247 71.8378273,41.6193239 C72.0498094,41.1752665 72.1984983,40.7482883 72.2894195,40.2640448 C72.391392,39.722536 72.3848617,39.1428503 72.3642663,38.5943088 C72.333122,37.750399 72.2723404,36.9079961 72.2095495,36.0655932 C72.1854378,35.5386519 72.1633354,35.0755061 72.1482656,34.7640632 L67.8066507,34.7640632 C67.8292554,35.1593948 67.868437,35.8606437 67.9020929,36.5849996 L67.9066138,36.5844973 C67.9473023,37.4721097 67.9884932,38.3622336 67.9668931,39.249846 C67.9322325,39.8651969 67.8840091,40.4679897 67.6931247,41.0577219 C67.5564917,41.4801792 67.3364723,41.8654642 67.1229832,42.2512516 C67.4253843,41.8579293 67.7634506,41.4555652 67.9468,40.9878984 C68.199973,40.414743 68.364234,39.8144619 68.4657041,39.1955946 C68.6093697,38.3260661 68.7053142,37.4490026 68.8002541,36.5729438 L71.4053235,36.5387855 C71.5801334,37.2756997 71.74992,38.0131162 71.9006182,38.7555559" id="Fill-16" fill="#BB2532"></path>
                <path d="M66.5031114,43.1057103 C66.4754834,43.1016917 66.4493623,43.0956638 66.4217343,43.0906405 C66.3303108,43.0750684 66.2413988,43.0574869 66.1565055,43.0373938 C66.1333985,43.0318682 66.1112961,43.0258403 66.0886913,43.0198124 C66.0309237,43.0047426 65.9711467,42.9911797 65.9158907,42.9741006 C65.7209877,43.6497308 65.395982,44.2957237 65.0744925,44.9261445 C64.3380807,46.3708378 63.9186374,47.3036596 64.5520721,48.2183976 C65.0574134,48.9482792 65.9600955,49.5611185 66.9210477,50.1382925 L66.9210477,43.1519244 C66.9049732,43.1509198 66.8883964,43.1499151 66.8728242,43.1489105 C66.7437261,43.1388639 66.6216606,43.1237941 66.5031114,43.1057103" id="Fill-17" fill="#BB2532"></path>
                <path d="M67.4881752,33.4615285 C67.3600817,33.5996685 67.225458,33.7307759 67.0868157,33.8578647 C67.6740363,33.6232779 68.229108,33.3143466 68.7485144,32.9074615 C69.722527,32.1444263 70.4740087,31.1121437 70.974829,29.9849212 C71.4073328,29.0134202 71.7052129,27.9258816 71.6479476,26.8559245 C71.8272784,27.9469794 71.636394,29.0958019 71.2998348,30.1381311 C70.8984752,31.3839028 70.2173194,32.5528184 69.280479,33.473082 C69.142339,33.6092127 68.9971664,33.7388132 68.8484775,33.8648973 C69.2186927,33.7136968 69.5773544,33.5403939 69.9108998,33.331928 C70.3238128,33.0742341 70.700056,32.805489 71.0813224,32.5025857 C71.4666074,32.1971707 71.7850829,31.8008344 72.0970282,31.4235866 C72.8007887,30.5736488 73.252381,29.4825939 73.4950051,28.4141438 C73.6025031,27.9444677 73.6316381,27.4662522 73.6256102,26.9865296 C73.9807556,29.1822022 73.1122317,31.615978 71.5103099,33.1571181 C71.3043557,33.3560398 71.0928759,33.5434078 70.8758705,33.7207294 C71.0798154,33.6338268 71.2832579,33.5444125 71.4846912,33.446961 C73.4814422,32.4789763 75.0190661,30.6831562 75.4967793,28.5005441 C75.5962402,28.0449332 75.6133193,27.5802805 75.6032727,27.11613 C75.9639437,29.2289187 75.1577084,31.4818566 73.6025031,32.9576942 C73.3784651,33.1701787 73.1489015,33.3701049 72.9138124,33.5599846 C73.5623169,33.2530627 74.1877144,32.9034429 74.7719211,32.4639065 C75.5470121,31.8807045 76.24374,31.1257065 76.6862904,30.2591919 C77.1911293,29.2701095 77.3774928,28.2192408 77.3378089,27.11613 C77.5643585,28.3026271 77.4880048,29.4906312 77.023352,30.613835 C76.6139553,31.6059314 75.9378227,32.4965577 75.1310851,33.2008206 C74.9336704,33.3731189 74.7307302,33.5353706 74.524776,33.6920967 C75.2330575,33.3439839 75.8996458,32.9195173 76.4883734,32.4021202 C76.7340115,32.1921474 76.9585518,31.9605745 77.1740502,31.7214667 C77.3910556,31.4703031 77.5663678,31.2467674 77.7632801,30.949892 C78.0988348,30.451081 78.3078029,29.8422603 78.4308731,29.2103325 C78.6619437,27.9590352 78.6107063,26.6293749 78.4961757,25.3183006 C78.0084159,25.1540396 77.5196514,24.9958065 77.0188311,24.8742433 C76.4733036,24.7436382 75.9237576,24.6446797 75.3701929,24.5472282 C75.3701929,24.6316192 75.3732068,24.7160102 75.3716999,24.8004012 C75.3676812,25.1284209 75.3445742,25.4529243 75.3129276,25.7779301 C75.2119598,24.677331 75.0215777,23.5857738 74.8487771,22.4947189 C74.6342834,21.1399421 74.4253152,19.7851654 74.2424681,18.42637 C73.8853134,15.76504 73.6120473,13.0986867 73.1273015,10.4564451 C73.0730501,10.1610766 73.0152825,9.86570819 72.9590218,9.57134439 C73.1273015,9.98174579 73.2790043,10.3971705 73.4186513,10.8166138 C74.2510076,10.9130606 75.0793454,11.0185493 75.9061761,11.1421219 C75.7705477,10.7367437 75.6188449,10.3429191 75.4430303,9.96818296 C75.1933737,9.437223 74.8874563,8.94695155 74.5097062,8.5521223 C74.4032128,8.4436196 74.2700961,8.33963785 74.1259281,8.24218635 C74.3519754,8.71537867 74.4896131,9.23779906 74.5468784,9.75670316 C74.3027474,8.99617963 73.8581877,8.215563 73.2001389,7.74337534 C73.1745202,7.73182181 73.1499062,7.7187613 73.1237852,7.70720778 C72.8670959,7.59468646 72.6073927,7.49070471 72.3461825,7.39375554 C72.5943322,7.87900371 72.7309652,8.438094 72.7862212,8.97106327 C72.5682112,8.31150752 72.1859401,7.53239788 71.581138,7.13204302 C71.1616947,6.99842396 70.7417491,6.88037704 70.3248175,6.77338132 C70.6171719,7.24908528 70.779926,7.81169186 70.807554,8.38384265 C70.5980835,7.63989592 70.1374494,6.91403297 69.4482563,6.5669248 C68.9971664,6.46796633 68.5510998,6.38156603 68.1100564,6.30872857 C68.1266332,6.33233795 68.144717,6.35393803 68.1602891,6.37855207 C68.5028763,6.90649806 68.6596025,7.50929082 68.7038073,8.13066969 C68.4601785,7.2752063 67.9694047,6.45791978 67.142574,6.17008624 C67.0400992,6.15752805 66.9366198,6.14296056 66.835652,6.13190936 C66.5357626,6.10026274 66.2408965,6.07866267 65.9490443,6.06309052 C66.3915947,6.53276655 66.6568235,7.14811749 66.6779213,7.85991528 C66.4342925,6.92357719 65.787295,6.25246791 64.8645197,6.04902536 C64.5671419,6.06057888 64.2772991,6.08469059 64.0180982,6.13040238 C63.25657,6.27708195 62.5663723,6.60711099 61.9384632,6.97330759 C63.1179277,6.73319514 64.1687964,6.34640312 64.6183793,7.94279928 C64.7158308,8.28890279 64.8047428,8.67268085 64.8866221,9.08659854 C65.4748474,8.98362145 66.1339008,9.0378728 66.7075586,9.08609622 C67.9824653,9.19359426 69.2523487,9.52412562 70.4534132,9.95411779 C70.755312,10.0616158 71.0552014,10.1836814 71.3470535,10.3183051 C71.3450442,10.3017283 71.3430349,10.2851515 71.3410256,10.269077 C71.3038534,9.97119692 71.2521137,9.67532614 71.2144391,9.37744605 C72.0267024,11.6585143 72.4094758,14.0902808 72.724435,16.483368 C73.0725478,19.1271166 73.4477863,21.8185863 73.4292002,24.4904652 C73.4271909,24.8571642 73.4050885,25.2203468 73.3694232,25.5850364 C73.329237,25.1344488 73.2709671,24.6858705 73.2066692,24.2377946 C72.3321174,24.3548369 71.4435004,24.3955254 70.5669392,24.482428 C69.4728704,24.5919353 68.3777968,24.7250521 67.2932722,24.9084015 C67.2344999,24.9184481 67.1767323,24.9300016 67.1184623,24.9410528 C67.1189646,24.9445691 67.119467,24.9475831 67.1199693,24.9510994 C66.1178263,25.2308957 65.1769673,25.6438087 64.2697642,26.1581919 C63.4414265,26.6278679 62.6743727,27.1809302 61.8977747,27.7289693 C63.1455557,27.1492836 64.395346,26.5957189 65.7134528,26.2621736 C65.8530998,27.0196832 65.9947561,27.7766904 66.0746262,28.5432419 C66.1288775,29.060639 66.140431,29.616213 66.0369516,30.1285868 C65.9570816,30.5163835 65.8445603,30.8770545 65.7144575,31.2492791 C65.8988116,30.8891104 66.0615657,30.5394906 66.1976964,30.1572195 C66.3770272,29.6508736 66.4428321,29.0812344 66.4609159,28.5462559 C66.4900508,27.732988 66.4493623,26.921227 66.4147018,26.1079591 C66.6879678,26.0577264 66.9642478,26.0180425 67.2445465,25.9904145 C67.4128261,27.6099178 67.4073005,29.0164342 67.0692342,30.3476016 C66.6457723,32.0148259 65.0202412,33.5408962 63.4353985,34.3943503 C63.6212596,34.3667223 63.8061161,34.3360803 63.9894655,34.2958941 C64.4722021,34.1883961 64.9378595,34.0311676 65.3869401,33.8242088 C66.3117247,33.4002446 67.1109274,32.7140655 67.7318039,31.9138581 C68.3677503,31.0930553 68.8565148,30.1793219 69.200609,29.200286 C69.478396,28.4091205 69.6984153,27.5717409 69.6697827,26.7268264 C69.8908067,27.8213976 69.693392,28.9973458 69.3804421,30.0552471 C69.0052036,31.3175956 68.3848294,32.4915345 67.4881752,33.4615285" id="Fill-18" fill="#BB2532"></path>
                <path d="M72.2185914,54.7119826 C72.6310021,55.4604503 73.1966226,56.120006 73.6230985,56.8624458 C73.8812947,57.3105218 74.1259281,57.7666349 74.3203288,58.2488691 C74.4629898,58.6050192 74.5689808,58.9712158 74.7010929,59.3308822 C74.5709901,58.3925348 74.2816496,57.5059271 73.775806,56.6991894 C73.3277301,55.9838753 72.7721561,55.3454173 72.2185914,54.7119826" id="Fill-19" fill="#BB2532"></path>
                <path d="M71.2470904,55.2409333 L71.2470904,61.6847879 C71.9749626,61.7179415 72.6877651,61.7676719 73.3819814,61.8334768 C73.8009224,60.1280756 73.7115081,58.4914932 72.5410855,56.8267806 C72.1437446,56.2616623 71.722292,55.7437629 71.2470904,55.2409333" id="Fill-20" fill="#BB2532"></path>
                <path d="M65.9701421,40.5634319 C66.4523763,40.1289188 66.6487863,39.5416981 66.6924887,38.910775 C66.6583305,37.690622 65.6536759,36.5081436 64.3466203,36.7839213 C64.8368917,36.9426567 65.2553303,37.1601644 65.5838524,37.5710681 C65.9043372,37.971423 66.0555377,38.4837968 66.0384586,38.9941614 C66.0218818,39.4618281 65.842551,39.9410483 65.531108,40.2926775 C65.2186604,40.6779625 64.7931892,40.8758794 64.3320528,41.0205497 C64.9227897,41.1501502 65.5230708,40.9652937 65.9701421,40.5634319" id="Fill-21" fill="#BB2532"></path>
                <path d="M64.0894287,48.1957929 C63.5363663,47.1710452 64.065317,45.9599341 64.5209278,45.0115401 C63.8226929,46.0121761 63.282691,47.3845343 64.0175959,48.5162777 C64.5957746,49.409918 65.5175452,50.0458643 66.4885439,50.4562657 C65.5818431,49.8710544 64.5706582,49.1994428 64.0894287,48.1957929" id="Fill-22" fill="#BB2532"></path>
                <path d="M71.0366152,12.3376608 C70.7332096,12.3316329 70.4298039,12.3230933 70.1263982,12.3140515 C69.4316795,12.2914467 68.7364585,12.2618094 68.0417399,12.2326744 C67.3826865,12.2050464 66.7176051,12.188972 66.059054,12.2236325 C65.8314998,12.2356884 65.5918896,12.2387024 65.3603167,12.2678373 C65.3608191,12.2743676 65.3618237,12.2808979 65.3623261,12.2869258 C65.0443529,12.3798563 64.7339146,12.4793171 64.4239787,12.6013827 C63.9829353,12.7761926 63.5780595,13.0198213 63.1701697,13.2589291 C63.1149137,13.2915804 63.1274719,13.2845478 63.1535929,13.2689757 C62.1429104,13.8793033 61.2578097,14.6579106 60.4013416,15.4651506 C61.5833178,14.710655 62.8069871,13.987806 64.1607592,13.5879535 C64.4963138,13.4884927 64.8559801,13.3794877 65.2071069,13.3548736 C65.2909956,13.3463341 65.3869401,13.3302596 65.4793683,13.3096642 C65.480373,13.3146874 65.4808753,13.3197107 65.4813776,13.324734 C65.6099734,13.3021293 65.7395739,13.2830408 65.8706813,13.269478 C67.0260341,13.1489194 68.2351359,13.2805292 69.3668793,13.5161207 C69.9485743,13.6371816 70.5182135,13.7898891 71.082327,13.9742432 C71.3073697,14.046076 71.558031,14.1194158 71.7629805,14.2404767 C71.7931202,14.2580581 71.8091946,14.2721233 71.8172319,14.2841791 C71.7423851,13.6371816 71.668543,12.990184 71.5926916,12.3431864 C71.4942354,12.3959308 71.1184946,12.3396701 71.0366152,12.3376608" id="Fill-23" fill="#BB2532"></path>
                <path d="M71.5545147,14.3364212 C70.3700269,14.3545049 69.1850368,14.2982443 68.000549,14.2957327 C67.4047889,14.2942257 66.8105357,14.3012583 66.2157801,14.3384305 C66.0153515,14.374598 65.8033694,14.3700771 65.5974152,14.3916772 C65.5979176,14.4002167 65.5989222,14.4087563 65.5999269,14.4172959 C64.8504545,14.6438455 64.1687964,14.9512698 63.4826173,15.3390665 C63.5127569,15.321485 63.5303384,15.3114385 63.4610172,15.35062 C63.4037519,15.3837736 63.4163101,15.376741 63.4424311,15.3616712 C62.4211997,15.9559244 61.5240431,16.7199642 60.6509983,17.5091204 C61.8294581,16.7968203 63.0460949,16.0920551 64.3807785,15.712798 C64.7444635,15.6098209 65.1071438,15.5289462 65.4808753,15.4701739 C65.5185498,15.4636436 65.613992,15.4475692 65.7084296,15.4224528 C65.7089319,15.4299877 65.7099365,15.4380249 65.7109412,15.4460622 C65.893286,15.4114016 66.0771378,15.3822666 66.2640036,15.3661921 C67.4811426,15.2576894 68.7158631,15.3641828 69.9114021,15.6002767 C70.4920925,15.7153096 71.0657502,15.8670125 71.6248405,16.0589015 C71.6589988,16.0709573 71.9533626,16.1764461 72.0478001,16.2482789 C71.969437,15.6012813 71.8945903,14.9542837 71.8197435,14.3072862 C71.7951295,14.3459654 71.6052497,14.3359188 71.5545147,14.3364212" id="Fill-24" fill="#BB2532"></path>
                <path d="M58.5442376,19.6565696 C58.2468598,17.2765429 57.9509891,14.8955115 57.7847187,12.5024242 C57.7641233,13.3744644 57.7736675,14.2434906 57.8078258,15.1160331 C57.9153238,17.8697914 58.2282737,20.6185264 58.5773912,23.3501823 C58.8898388,25.7919953 59.1631048,28.3583854 60.1521873,30.6369421 C59.8774143,29.7001017 59.7156649,28.7376426 59.5719993,27.7741788 C59.1721467,25.0776858 58.8818015,22.3616021 58.5442376,19.6565696" id="Fill-25" fill="#BB2532"></path>
                <path d="M60.426458,18.100862 C60.1431454,15.7966866 59.8558142,13.4945206 59.6267529,11.183815 C59.594604,12.1648602 59.6242413,13.1489194 59.680502,14.1284577 C59.8362234,16.8475553 60.1441501,19.5631367 60.5133606,22.2606343 C60.6952031,23.593811 60.9142178,24.9249783 61.1955211,26.2410759 C61.4210661,27.2979725 61.6752437,28.3583854 62.0836358,29.36304 C61.8043418,28.3528598 61.6380714,27.315554 61.480843,26.2807597 C61.0674276,23.5621644 60.762515,20.8290015 60.426458,18.100862" id="Fill-26" fill="#BB2532"></path>
                <path d="M71.8518925,16.3276466 C71.7011943,16.3336745 71.5509984,16.3356838 71.4008025,16.3376931 C70.2323892,16.3683351 69.0629713,16.3457304 67.894558,16.3753677 C67.2274673,16.3929491 66.4950741,16.3844096 65.8289881,16.5094891 C65.8304951,16.5220473 65.8320021,16.5341031 65.8335091,16.546159 C65.1066415,16.7691923 64.4370392,17.06657 63.7644229,17.4362829 C63.7995858,17.4166922 63.8267115,17.4016224 63.7508601,17.4433155 C63.6875668,17.4784784 63.7071576,17.4679296 63.7383019,17.4508504 C62.7045123,18.0290292 61.7922859,18.7810131 60.9001526,19.5530902 C62.0941846,18.8699251 63.3324214,18.1596343 64.6771516,17.8145354 C65.0227528,17.7195955 65.3658423,17.6558 65.7169691,17.5909997 C65.7953322,17.5804509 65.8736952,17.5658834 65.9525606,17.5598555 C65.953063,17.5598555 65.9535653,17.5593531 65.9545699,17.5588508 C65.9550723,17.5643764 65.9555746,17.5693997 65.9560769,17.5749253 C66.2323569,17.5171576 66.5131579,17.4749621 66.7989821,17.4523574 C68.0703725,17.3523943 69.3643677,17.4438178 70.612651,17.711056 C71.1541598,17.8270936 71.6981803,17.9682476 72.2170844,18.1656622 C72.2527496,18.179225 72.2768614,18.1912809 72.2954475,18.2028344 C72.2105541,17.5704043 72.1311864,16.9379743 72.0543304,16.3045395 C71.9995767,16.3316652 71.9076508,16.3251349 71.8518925,16.3276466" id="Fill-27" fill="#BB2532"></path>
                <path d="M74.3203288,58.2488691 C74.1259281,57.7666349 73.8812947,57.3105218 73.6230985,56.8624458 C73.1966226,56.120006 72.6310021,55.4604503 72.2185914,54.7119826 C72.7721561,55.3454173 73.3277301,55.9838753 73.775806,56.6991894 C74.2816496,57.5059271 74.5709901,58.3925348 74.7010929,59.3308822 C74.5689808,58.9712158 74.4629898,58.6050192 74.3203288,58.2488691 Z M73.3819814,61.8334768 C72.6877651,61.7676719 71.9749626,61.7179415 71.2470904,61.6847879 L71.2470904,55.2409333 C71.722292,55.7437629 72.1437446,56.2616623 72.5410855,56.8267806 C73.7115081,58.4914932 73.8009224,60.1280756 73.3819814,61.8334768 Z M69.9917745,61.3632984 C69.974193,62.5814421 69.9485743,63.8000881 69.9269742,65.0192365 C69.918937,65.5145312 69.9048718,66.0103283 69.8923137,66.5051207 C69.8908067,66.5724325 69.8968346,66.6482839 69.8867881,66.7155958 C69.8792531,66.9923781 69.4517726,66.9853456 69.4527773,66.7085632 C69.470861,63.3444773 69.4894472,59.9808937 69.5070286,56.6178124 C69.5361636,51.1394309 69.5617823,45.6625563 69.5617823,40.1861841 C69.5617823,39.2352785 69.5617823,38.2848752 69.5617823,37.3339697 C69.8697089,39.7491593 69.9691697,42.1939863 69.9947884,44.6257528 C70.0234211,47.436274 70.0259327,50.2457906 70.0415049,53.0558095 C70.05557,55.8236329 70.0319606,58.5959773 69.9917745,61.3632984 Z M68.4657041,39.1955946 C68.364234,39.8144619 68.199973,40.414743 67.9468,40.9878984 C67.7634506,41.4555652 67.4253843,41.8579293 67.1229832,42.2512516 C67.3364723,41.8654642 67.5564917,41.4801792 67.6931247,41.0577219 C67.8840091,40.4679897 67.9322325,39.8651969 67.9668931,39.249846 C67.9884932,38.3622336 67.9473023,37.4721097 67.9066138,36.5844973 L67.9020929,36.5849996 C67.868437,35.8606437 67.8292554,35.1593948 67.8066507,34.7640632 L72.1482656,34.7640632 C72.1633354,35.0755061 72.1854378,35.5386519 72.2095495,36.0655932 C72.2723404,36.9079961 72.333122,37.750399 72.3642663,38.5943088 C72.3848617,39.1428503 72.391392,39.722536 72.2894195,40.2640448 C72.1984983,40.7482883 72.0498094,41.1752665 71.8378273,41.6193239 C71.9639114,41.1878247 72.0367489,40.7844559 72.0623676,40.3363799 C72.0699025,39.8079316 72.0056046,39.2719484 71.9006182,38.7555559 C71.74992,38.0131162 71.5801334,37.2756997 71.4053235,36.5387855 L68.8002541,36.5729438 C68.7053142,37.4490026 68.6093697,38.3260661 68.4657041,39.1955946 Z M69.6697827,26.7268264 C69.6984153,27.5717409 69.478396,28.4091205 69.200609,29.200286 C68.8565148,30.1793219 68.3677503,31.0930553 67.7318039,31.9138581 C67.1109274,32.7140655 66.3117247,33.4002446 65.3869401,33.8242088 C64.9378595,34.0311676 64.4722021,34.1883961 63.9894655,34.2958941 C63.8061161,34.3360803 63.6212596,34.3667223 63.4353985,34.3943503 C65.0202412,33.5408962 66.6457723,32.0148259 67.0692342,30.3476016 C67.4073005,29.0164342 67.4128261,27.6099178 67.2445465,25.9904145 C66.9642478,26.0180425 66.6879678,26.0577264 66.4147018,26.1079591 C66.4493623,26.921227 66.4900508,27.732988 66.4609159,28.5462559 C66.4428321,29.0812344 66.3770272,29.6508736 66.1976964,30.1572195 C66.0615657,30.5394906 65.8988116,30.8891104 65.7144575,31.2492791 C65.8445603,30.8770545 65.9570816,30.5163835 66.0369516,30.1285868 C66.140431,29.616213 66.1288775,29.060639 66.0746262,28.5432419 C65.9947561,27.7766904 65.8530998,27.0196832 65.7134528,26.2621736 C64.395346,26.5957189 63.1455557,27.1492836 61.8977747,27.7289693 C62.6743727,27.1809302 63.4414265,26.6278679 64.2697642,26.1581919 C65.1769673,25.6438087 66.1178263,25.2308957 67.1199693,24.9510994 C67.119467,24.9475831 67.1189646,24.9445691 67.1184623,24.9410528 C67.1767323,24.9300016 67.2344999,24.9184481 67.2932722,24.9084015 C68.3777968,24.7250521 69.4728704,24.5919353 70.5669392,24.482428 C71.4435004,24.3955254 72.3321174,24.3548369 73.2066692,24.2377946 C73.2709671,24.6858705 73.329237,25.1344488 73.3694232,25.5850364 C73.4050885,25.2203468 73.4271909,24.8571642 73.4292002,24.4904652 C73.4477863,21.8185863 73.0725478,19.1271166 72.724435,16.483368 C72.4094758,14.0902808 72.0267024,11.6585143 71.2144391,9.37744605 C71.2521137,9.67532614 71.3038534,9.97119692 71.3410256,10.269077 C71.3430349,10.2851515 71.3450442,10.3017283 71.3470535,10.3183051 C71.0552014,10.1836814 70.755312,10.0616158 70.4534132,9.95411779 C69.2523487,9.52412562 67.9824653,9.19359426 66.7075586,9.08609622 C66.1339008,9.0378728 65.4748474,8.98362145 64.8866221,9.08659854 C64.8047428,8.67268085 64.7158308,8.28890279 64.6183793,7.94279928 C64.1687964,6.34640312 63.1179277,6.73319514 61.9384632,6.97330759 C62.5663723,6.60711099 63.25657,6.27708195 64.0180982,6.13040238 C64.2772991,6.08469059 64.5671419,6.06057888 64.8645197,6.04902536 C65.787295,6.25246791 66.4342925,6.92357719 66.6779213,7.85991528 C66.6568235,7.14811749 66.3915947,6.53276655 65.9490443,6.06309052 C66.2408965,6.07866267 66.5357626,6.10026274 66.835652,6.13190936 C66.9366198,6.14296056 67.0400992,6.15752805 67.142574,6.17008624 C67.9694047,6.45791978 68.4601785,7.2752063 68.7038073,8.13066969 C68.6596025,7.50929082 68.5028763,6.90649806 68.1602891,6.37855207 C68.144717,6.35393803 68.1266332,6.33233795 68.1100564,6.30872857 C68.5510998,6.38156603 68.9971664,6.46796633 69.4482563,6.5669248 C70.1374494,6.91403297 70.5980835,7.63989592 70.807554,8.38384265 C70.779926,7.81169186 70.6171719,7.24908528 70.3248175,6.77338132 C70.7417491,6.88037704 71.1616947,6.99842396 71.581138,7.13204302 C72.1859401,7.53239788 72.5682112,8.31150752 72.7862212,8.97106327 C72.7309652,8.438094 72.5943322,7.87900371 72.3461825,7.39375554 C72.6073927,7.49070471 72.8670959,7.59468646 73.1237852,7.70720778 C73.1499062,7.7187613 73.1745202,7.73182181 73.2001389,7.74337534 C73.8581877,8.215563 74.3027474,8.99617963 74.5468784,9.75670316 C74.4896131,9.23779906 74.3519754,8.71537867 74.1259281,8.24218635 C74.2700961,8.33963785 74.4032128,8.4436196 74.5097062,8.5521223 C74.8874563,8.94695155 75.1933737,9.437223 75.4430303,9.96818296 C75.6188449,10.3429191 75.7705477,10.7367437 75.9061761,11.1421219 C75.0793454,11.0185493 74.2510076,10.9130606 73.4186513,10.8166138 C73.2790043,10.3971705 73.1273015,9.98174579 72.9590218,9.57134439 C73.0152825,9.86570819 73.0730501,10.1610766 73.1273015,10.4564451 C73.6120473,13.0986867 73.8853134,15.76504 74.2424681,18.42637 C74.4253152,19.7851654 74.6342834,21.1399421 74.8487771,22.4947189 C75.0215777,23.5857738 75.2119598,24.677331 75.3129276,25.7779301 C75.3445742,25.4529243 75.3676812,25.1284209 75.3716999,24.8004012 C75.3732068,24.7160102 75.3701929,24.6316192 75.3701929,24.5472282 C75.9237576,24.6446797 76.4733036,24.7436382 77.0188311,24.8742433 C77.5196514,24.9958065 78.0084159,25.1540396 78.4961757,25.3183006 C78.6107063,26.6293749 78.6619437,27.9590352 78.4308731,29.2103325 C78.3078029,29.8422603 78.0988348,30.451081 77.7632801,30.949892 C77.5663678,31.2467674 77.3910556,31.4703031 77.1740502,31.7214667 C76.9585518,31.9605745 76.7340115,32.1921474 76.4883734,32.4021202 C75.8996458,32.9195173 75.2330575,33.3439839 74.524776,33.6920967 C74.7307302,33.5353706 74.9336704,33.3731189 75.1310851,33.2008206 C75.9378227,32.4965577 76.6139553,31.6059314 77.023352,30.613835 C77.4880048,29.4906312 77.5643585,28.3026271 77.3378089,27.11613 C77.3774928,28.2192408 77.1911293,29.2701095 76.6862904,30.2591919 C76.24374,31.1257065 75.5470121,31.8807045 74.7719211,32.4639065 C74.1877144,32.9034429 73.5623169,33.2530627 72.9138124,33.5599846 C73.1489015,33.3701049 73.3784651,33.1701787 73.6025031,32.9576942 C75.1577084,31.4818566 75.9639437,29.2289187 75.6032727,27.11613 C75.6133193,27.5802805 75.5962402,28.0449332 75.4967793,28.5005441 C75.0190661,30.6831562 73.4814422,32.4789763 71.4846912,33.446961 C71.2832579,33.5444125 71.0798154,33.6338268 70.8758705,33.7207294 C71.0928759,33.5434078 71.3043557,33.3560398 71.5103099,33.1571181 C73.1122317,31.615978 73.9807556,29.1822022 73.6256102,26.9865296 C73.6316381,27.4662522 73.6025031,27.9444677 73.4950051,28.4141438 C73.252381,29.4825939 72.8007887,30.5736488 72.0970282,31.4235866 C71.7850829,31.8008344 71.4666074,32.1971707 71.0813224,32.5025857 C70.700056,32.805489 70.3238128,33.0742341 69.9108998,33.331928 C69.5773544,33.5403939 69.2186927,33.7136968 68.8484775,33.8648973 C68.9971664,33.7388132 69.142339,33.6092127 69.280479,33.473082 C70.2173194,32.5528184 70.8984752,31.3839028 71.2998348,30.1381311 C71.636394,29.0958019 71.8272784,27.9469794 71.6479476,26.8559245 C71.7052129,27.9258816 71.4073328,29.0134202 70.974829,29.9849212 C70.4740087,31.1121437 69.722527,32.1444263 68.7485144,32.9074615 C68.229108,33.3143466 67.6740363,33.6232779 67.0868157,33.8578647 C67.225458,33.7307759 67.3600817,33.5996685 67.4881752,33.4615285 C68.3848294,32.4915345 69.0052036,31.3175956 69.3804421,30.0552471 C69.693392,28.9973458 69.8908067,27.8213976 69.6697827,26.7268264 Z M66.9210477,50.1382925 C65.9600955,49.5611185 65.0574134,48.9482792 64.5520721,48.2183976 C63.9186374,47.3036596 64.3380807,46.3708378 65.0744925,44.9261445 C65.395982,44.2957237 65.7209877,43.6497308 65.9158907,42.9741006 C65.9711467,42.9911797 66.0309237,43.0047426 66.0886913,43.0198124 C66.1112961,43.0258403 66.1333985,43.0318682 66.1565055,43.0373938 C66.2413988,43.0574869 66.3303108,43.0750684 66.4217343,43.0906405 C66.4493623,43.0956638 66.4754834,43.1016917 66.5031114,43.1057103 C66.6216606,43.1237941 66.7437261,43.1388639 66.8728242,43.1489105 C66.8883964,43.1499151 66.9049732,43.1509198 66.9210477,43.1519244 L66.9210477,50.1382925 Z M64.0175959,48.5162777 C63.282691,47.3845343 63.8226929,46.0121761 64.5209278,45.0115401 C64.065317,45.9599341 63.5363663,47.1710452 64.0894287,48.1957929 C64.5706582,49.1994428 65.5818431,49.8710544 66.4885439,50.4562657 C65.5175452,50.0458643 64.5957746,49.409918 64.0175959,48.5162777 Z M64.3320528,41.0205497 C64.7931892,40.8758794 65.2186604,40.6779625 65.531108,40.2926775 C65.842551,39.9410483 66.0218818,39.4618281 66.0384586,38.9941614 C66.0555377,38.4837968 65.9043372,37.971423 65.5838524,37.5710681 C65.2553303,37.1601644 64.8368917,36.9426567 64.3466203,36.7839213 C65.6536759,36.5081436 66.6583305,37.690622 66.6924887,38.910775 C66.6487863,39.5416981 66.4523763,40.1289188 65.9701421,40.5634319 C65.5230708,40.9652937 64.9227897,41.1501502 64.3320528,41.0205497 Z M61.1955211,26.2410759 C60.9142178,24.9249783 60.6952031,23.593811 60.5133606,22.2606343 C60.1441501,19.5631367 59.8362234,16.8475553 59.680502,14.1284577 C59.6242413,13.1489194 59.594604,12.1648602 59.6267529,11.183815 C59.8558142,13.4945206 60.1431454,15.7966866 60.426458,18.100862 C60.762515,20.8290015 61.0674276,23.5621644 61.480843,26.2807597 C61.6380714,27.315554 61.8043418,28.3528598 62.0836358,29.36304 C61.6752437,28.3583854 61.4210661,27.2979725 61.1955211,26.2410759 Z M58.5773912,23.3501823 C58.2282737,20.6185264 57.9153238,17.8697914 57.8078258,15.1160331 C57.7736675,14.2434906 57.7641233,13.3744644 57.7847187,12.5024242 C57.9509891,14.8955115 58.2468598,17.2765429 58.5442376,19.6565696 C58.8818015,22.3616021 59.1721467,25.0776858 59.5719993,27.7741788 C59.7156649,28.7376426 59.8774143,29.7001017 60.1521873,30.6369421 C59.1631048,28.3583854 58.8898388,25.7919953 58.5773912,23.3501823 Z M71.7629805,14.2404767 C71.558031,14.1194158 71.3073697,14.046076 71.082327,13.9742432 C70.5182135,13.7898891 69.9485743,13.6371816 69.3668793,13.5161207 C68.2351359,13.2805292 67.0260341,13.1489194 65.8706813,13.269478 C65.7395739,13.2830408 65.6099734,13.3021293 65.4813776,13.324734 C65.4808753,13.3197107 65.480373,13.3146874 65.4793683,13.3096642 C65.3869401,13.3302596 65.2909956,13.3463341 65.2071069,13.3548736 C64.8559801,13.3794877 64.4963138,13.4884927 64.1607592,13.5879535 C62.8069871,13.987806 61.5833178,14.710655 60.4013416,15.4651506 C61.2578097,14.6579106 62.1429104,13.8793033 63.1535929,13.2689757 C63.1274719,13.2845478 63.1149137,13.2915804 63.1701697,13.2589291 C63.5780595,13.0198213 63.9829353,12.7761926 64.4239787,12.6013827 C64.7339146,12.4793171 65.0443529,12.3798563 65.3623261,12.2869258 C65.3618237,12.2808979 65.3608191,12.2743676 65.3603167,12.2678373 C65.5918896,12.2387024 65.8314998,12.2356884 66.059054,12.2236325 C66.7176051,12.188972 67.3826865,12.2050464 68.0417399,12.2326744 C68.7364585,12.2618094 69.4316795,12.2914467 70.1263982,12.3140515 C70.4298039,12.3230933 70.7332096,12.3316329 71.0366152,12.3376608 C71.1184946,12.3396701 71.4942354,12.3959308 71.5926916,12.3431864 C71.668543,12.990184 71.7423851,13.6371816 71.8172319,14.2841791 C71.8091946,14.2721233 71.7931202,14.2580581 71.7629805,14.2404767 Z M71.6248405,16.0589015 C71.0657502,15.8670125 70.4920925,15.7153096 69.9114021,15.6002767 C68.7158631,15.3641828 67.4811426,15.2576894 66.2640036,15.3661921 C66.0771378,15.3822666 65.893286,15.4114016 65.7109412,15.4460622 C65.7099365,15.4380249 65.7089319,15.4299877 65.7084296,15.4224528 C65.613992,15.4475692 65.5185498,15.4636436 65.4808753,15.4701739 C65.1071438,15.5289462 64.7444635,15.6098209 64.3807785,15.712798 C63.0460949,16.0920551 61.8294581,16.7968203 60.6509983,17.5091204 C61.5240431,16.7199642 62.4211997,15.9559244 63.4424311,15.3616712 C63.4163101,15.376741 63.4037519,15.3837736 63.4610172,15.35062 C63.5303384,15.3114385 63.5127569,15.321485 63.4826173,15.3390665 C64.1687964,14.9512698 64.8504545,14.6438455 65.5999269,14.4172959 C65.5989222,14.4087563 65.5979176,14.4002167 65.5974152,14.3916772 C65.8033694,14.3700771 66.0153515,14.374598 66.2157801,14.3384305 C66.8105357,14.3012583 67.4047889,14.2942257 68.000549,14.2957327 C69.1850368,14.2982443 70.3700269,14.3545049 71.5545147,14.3364212 C71.6052497,14.3359188 71.7951295,14.3459654 71.8197435,14.3072862 C71.8945903,14.9542837 71.969437,15.6012813 72.0478001,16.2482789 C71.9533626,16.1764461 71.6589988,16.0709573 71.6248405,16.0589015 Z M72.2170844,18.1656622 C71.6981803,17.9682476 71.1541598,17.8270936 70.612651,17.711056 C69.3643677,17.4438178 68.0703725,17.3523943 66.7989821,17.4523574 C66.5131579,17.4749621 66.2323569,17.5171576 65.9560769,17.5749253 C65.9555746,17.5693997 65.9550723,17.5643764 65.9545699,17.5588508 C65.9535653,17.5593531 65.953063,17.5598555 65.9525606,17.5598555 C65.8736952,17.5658834 65.7953322,17.5804509 65.7169691,17.5909997 C65.3658423,17.6558 65.0227528,17.7195955 64.6771516,17.8145354 C63.3324214,18.1596343 62.0941846,18.8699251 60.9001526,19.5530902 C61.7922859,18.7810131 62.7045123,18.0290292 63.7383019,17.4508504 C63.7071576,17.4679296 63.6875668,17.4784784 63.7508601,17.4433155 C63.8267115,17.4016224 63.7995858,17.4166922 63.7644229,17.4362829 C64.4370392,17.06657 65.1066415,16.7691923 65.8335091,16.546159 C65.8320021,16.5341031 65.8304951,16.5220473 65.8289881,16.5094891 C66.4950741,16.3844096 67.2274673,16.3929491 67.894558,16.3753677 C69.0629713,16.3457304 70.2323892,16.3683351 71.4008025,16.3376931 C71.5509984,16.3356838 71.7011943,16.3336745 71.8518925,16.3276466 C71.9076508,16.3251349 71.9995767,16.3316652 72.0543304,16.3045395 C72.1311864,16.9379743 72.2105541,17.5704043 72.2954475,18.2028344 C72.2768614,18.1912809 72.2527496,18.179225 72.2170844,18.1656622 Z M72.5732345,20.1855203 C72.0683955,19.9976498 71.5409519,19.8655378 71.0140105,19.7570351 C69.7471411,19.4958249 68.4104481,19.4199734 67.1229832,19.5510809 C66.8271125,19.5812205 66.5407859,19.6259276 66.2589803,19.6836953 C66.2579756,19.6781697 66.256971,19.6736487 66.2564687,19.6681231 C66.2303476,19.6736487 66.1981987,19.6776674 66.1544962,19.683193 C65.7687088,19.7299094 65.3924657,19.8042538 65.0177295,19.90271 C63.6468783,20.2432879 62.3790042,20.9254484 61.1488047,21.5975623 C62.0575147,20.8455783 62.9838063,20.1046456 64.0266378,19.5440483 C63.9954935,19.5606251 63.976405,19.5706716 64.0412053,19.5355087 C64.1150474,19.4963272 64.091438,19.5093877 64.0572797,19.5274715 C64.7233657,19.1733307 65.3874424,18.8834879 66.1017518,18.6644732 C66.1002449,18.653422 66.0987379,18.6423708 66.0967286,18.6308173 C66.7080609,18.5193006 67.3450119,18.4951889 67.9583535,18.4635423 C69.0519201,18.406277 70.1464913,18.3821652 71.2410625,18.3500163 C71.5278913,18.3414767 71.8157249,18.3349465 72.1025538,18.3168627 C72.1784052,18.3118394 72.2627962,18.2987789 72.3049917,18.2761742 C72.3908896,18.9141299 72.4833179,19.5510809 72.5787601,20.1880319 C72.5767507,20.1870272 72.5757461,20.1865249 72.5732345,20.1855203 Z M72.5772531,22.0903454 C72.3296057,22.0149963 72.0794467,21.9366332 71.8252691,21.8889121 C71.2737137,21.7688559 70.720149,21.675423 70.1585471,21.6256926 C69.0976319,21.5317574 68.0151165,21.5488366 66.9617362,21.7095813 C66.809531,21.7326883 66.6583305,21.7623257 66.5076323,21.7939723 C66.4604135,21.7954793 66.4177157,21.7949769 66.3946087,21.7974886 C66.0444865,21.8366701 65.69989,21.9054889 65.3583074,21.9913869 C63.9593259,22.3274439 62.6683447,22.984488 61.3989637,23.6415321 C62.3307808,22.9071296 63.2721422,22.1752387 64.3305458,21.6292089 C64.2908619,21.649302 64.254192,21.6683904 64.3320528,21.6282043 C64.3616901,21.6131344 64.3752529,21.6061019 64.3787692,21.6040926 C64.3732436,21.6071065 64.3536528,21.6171531 64.3335597,21.6277019 C65.0197388,21.2730589 65.7039086,20.980202 66.4383111,20.7611873 C66.4363018,20.7516431 66.4347948,20.7420989 66.4332879,20.7320524 C67.0556714,20.6190287 67.7001573,20.5838658 68.3240478,20.5346377 C69.3794375,20.4517537 70.4373388,20.4065443 71.4947377,20.3532976 C71.7715201,20.3392324 72.0498094,20.3281812 72.3255871,20.3060788 C72.3582384,20.3035672 72.5124529,20.2889997 72.5888066,20.2613717 C72.6847511,20.8983227 72.7842119,21.5347714 72.8846774,22.1712201 C72.7862212,22.1315362 72.6229649,22.1039082 72.5772531,22.0903454 Z M64.6223979,23.7208998 C65.3306794,23.3657544 66.0364493,23.0698836 66.7934565,22.8528782 C66.7929542,22.8473526 66.7919496,22.8423294 66.7909449,22.8368037 C67.868437,22.6464217 68.9705431,22.565547 70.0595886,22.4781421 C70.6216929,22.4324303 71.1842995,22.3947557 71.7464037,22.3535649 C71.9995767,22.3354811 72.2522473,22.3194066 72.5049179,22.2988112 C72.5235041,22.2973042 72.77517,22.2661599 72.8957286,22.2415459 C72.8992449,22.2641506 72.9027612,22.2867554 72.9062775,22.3093601 C73.0057383,22.9377715 73.1102223,23.5666853 73.2011436,24.1971061 C71.2003739,23.5154479 68.9519569,23.5013828 66.8904057,23.8801376 C66.8793545,23.8821469 66.867801,23.8851608 66.8562474,23.8876725 C66.8035031,23.8926957 66.7507587,23.8972167 66.697512,23.90224 C66.3378457,23.9348912 65.9756677,24.0087333 65.6260479,24.0976453 C64.2260617,24.4537953 62.9390992,25.0515648 61.6486203,25.6855019 C62.6000282,24.9742064 63.5544501,24.2523621 64.6223979,23.7208998 C64.4576346,23.8027791 64.7901753,23.6360065 64.6223979,23.7208998 Z M62.4754511,11.4319647 C63.2716398,10.855293 64.1416707,10.4519241 65.0775065,10.1731325 C65.0775065,10.1726302 65.0775065,10.1721278 65.0770041,10.1716255 C67.1691974,9.9837551 69.2553626,10.3750681 71.3505698,10.3459331 C71.4334538,11.0024749 71.5128215,11.659519 71.5896776,12.3165631 C71.498254,12.2603024 71.1260295,12.0960414 71.086848,12.0804693 C70.8326704,11.9805061 70.5719625,11.8956128 70.3112546,11.8132311 C69.7180061,11.6253607 69.1121994,11.4816951 68.5018717,11.3646529 C67.4605472,11.1702522 66.3639667,11.0542146 65.308577,11.1943639 C65.2292093,11.2049128 65.1513486,11.2199826 65.0729855,11.2345501 C64.2421362,11.3420481 63.4323846,11.5620675 62.6793959,11.9458455 C61.7922859,12.3688051 60.9669622,12.8721371 60.1521873,13.4211808 C60.8855852,12.7023505 61.6425924,12.0347575 62.4754511,11.4319647 Z M62.0560078,7.73081716 C62.3875438,7.60875163 62.7527357,7.49371867 63.1048672,7.60021206 C63.7317716,7.79109644 63.9733911,8.61591786 63.9995121,9.19962219 C63.6669714,8.82136973 63.5253151,8.14071624 63.0566437,7.90612939 C62.7954335,7.77351498 62.44933,7.83881753 62.174557,7.88754328 C61.927412,7.93124575 61.6807693,7.98198081 61.4321173,8.0186507 C61.4321173,7.95033419 61.9967331,7.75291956 62.0560078,7.73081716 Z M76.2291726,12.2296605 C76.3010054,12.5019219 76.3693219,12.7771972 76.4341221,13.0544819 C75.6173379,12.9479885 74.8000514,12.8651045 73.9777416,12.7962857 C73.8230248,12.1467765 73.6452009,11.5027929 73.4362328,10.8683535 C74.3770918,11.3043736 75.3079043,11.7514449 76.2291726,12.2296605 Z M76.8324676,14.9432325 C76.0146788,14.853316 75.1973923,14.7910274 74.3750825,14.7483296 C74.2705984,14.1450345 74.1520492,13.5447533 74.0134068,12.9489932 C74.9120704,13.3287526 75.7986781,13.7245865 76.6747369,14.156588 C76.7284859,14.4172959 76.7812303,14.6795107 76.8324676,14.9432325 Z M77.0323939,16.0006315 C77.0821243,16.2738976 77.1318547,16.5481683 77.1810828,16.8234436 C76.3437032,16.7485969 75.5088352,16.707406 74.6679393,16.6918339 C74.5905809,16.1051156 74.5051853,15.5183973 74.4072314,14.9336883 C75.2908252,15.2722569 76.160856,15.6314209 77.0223474,16.0322781 C77.0258637,16.0217293 77.0288776,16.0111804 77.0323939,16.0006315 Z M77.3629253,17.9049543 C77.3649346,17.8989264 77.3664416,17.8923961 77.3684509,17.8863682 C77.4156696,18.1571226 77.4628884,18.4283794 77.5101072,18.7006408 C76.6456019,18.6413661 75.7851152,18.6232824 74.919103,18.6353382 C74.8447585,18.0466106 74.7679024,17.4588877 74.692051,16.8736764 C75.5962402,17.1836123 76.4833502,17.5201716 77.3629253,17.9049543 Z M77.830592,20.5758286 C76.9334354,20.5336331 76.0438138,20.5391587 75.1456526,20.5818565 C75.0838663,19.9876033 75.0150475,19.3948571 74.940703,18.8031155 C75.8740272,19.0859258 76.7882628,19.4018897 77.6949636,19.7741142 C77.7406754,20.0413523 77.7858849,20.3085904 77.830592,20.5758286 Z M78.1334954,22.4424768 C77.6788891,22.4233884 77.2237806,22.4113325 76.7686721,22.4284117 C76.2809123,22.4500117 75.7956641,22.4901979 75.3094113,22.5339004 C75.2727414,21.93161 75.223011,21.3298218 75.161727,20.7285361 C76.1272001,20.983216 77.0695661,21.2755705 78.0069089,21.6362415 C78.050109,21.9044843 78.0923045,22.1732294 78.1334954,22.4424768 Z M78.3906869,24.3171623 C77.9486389,24.3086227 77.5070932,24.3081204 77.0645429,24.3342414 C76.4974153,24.3729206 75.9353111,24.4387255 75.3701929,24.5095537 C75.3716999,23.8871701 75.3531137,23.263782 75.3169462,22.6403938 C75.7831059,22.7398546 76.2472563,22.8423294 76.7083928,22.9659019 C77.2433714,23.1105721 77.7637825,23.2979402 78.2836912,23.4863129 C78.3213658,23.7630953 78.3580357,24.0398776 78.3906869,24.3171623 Z M73.7828386,55.9547404 C73.0655152,54.9350159 72.2602846,54.0368547 71.2470904,53.1391958 L71.2470904,42.9876634 C72.4456433,42.8645932 73.2101855,41.6811101 73.2101855,39.912918 C73.2101855,39.9099041 73.2101855,39.9063878 73.2101855,39.9038761 C73.2101855,39.9038761 73.2101855,39.9028715 73.2101855,39.9023691 C73.2091808,39.2593902 73.2076738,38.1829028 73.1157479,36.9250752 L73.1152456,36.9190473 C73.0881199,36.2820963 73.0599896,35.6687546 73.0373849,35.1960647 C73.1499062,35.1614041 73.2624275,35.1272458 73.3744465,35.0895713 C74.6880324,34.6490302 75.9759996,34.001028 77.0595196,33.054141 C77.331781,32.8200565 77.583447,32.5608556 77.8230571,32.2916082 C78.0541276,32.0278864 78.2967517,31.7089085 78.4755802,31.4356425 C78.9030608,30.7951752 79.1346337,30.0793588 79.2722713,29.3710773 C79.5289606,27.9459747 79.4561231,26.5384536 79.331546,25.1640861 C79.1999362,23.790221 78.9889587,22.4399652 78.7679347,21.1072909 C78.5433944,19.7741142 78.3098122,18.4610306 78.0782393,17.1584959 C77.8451595,15.8574682 77.609568,14.5705057 77.328767,13.3061479 C77.0389242,12.0453063 76.7214533,10.7950137 76.1698979,9.62207945 C75.8921109,9.03837512 75.5455051,8.47627087 75.0873826,7.99805528 C74.828684,7.73734741 74.553911,7.55600726 74.279138,7.3967695 C74.0023556,7.24104804 73.725071,7.09989407 73.445777,6.98034017 C72.3296057,6.49458967 71.2114251,6.17510951 70.1188633,5.91138768 C69.0263014,5.65319144 67.9573489,5.46632569 66.9170291,5.35832532 C66.396618,5.30507862 65.8832395,5.27092037 65.3763912,5.26690175 C64.8655244,5.26539477 64.3787692,5.28297622 63.8623767,5.3764091 C63.3766262,5.468335 62.9069502,5.63661464 62.4875069,5.82548971 C62.064045,6.01687641 61.672732,6.23337948 61.3070378,6.46043142 C59.8502886,7.37918805 58.7662663,8.41247531 57.9519937,9.33123194 C57.1392281,10.2535049 56.6147984,11.0878705 56.3264626,11.7047284 C56.18129,12.0116504 56.0943874,12.2638187 56.0366197,12.4481728 C55.9929172,12.6104246 55.9703125,12.6933086 55.9703125,12.6933086 L55.9678009,12.7013458 L55.9160612,12.9700909 C55.8974751,13.0574959 55.8808983,13.1654962 55.8668331,13.292585 C55.8507586,13.4201762 55.8296609,13.5683627 55.8201166,13.7336284 C55.7728979,14.3178351 55.763856,15.1321076 55.8171027,16.1402785 L57.3888848,15.0688144 L55.8803959,17.0977143 C55.9055123,17.4262364 55.9356519,17.7713352 55.9703125,18.1310016 L57.6084018,17.0540119 L56.0702756,19.1120468 C56.1044339,19.4244944 56.1411038,19.7484955 56.1802853,20.0800315 L57.8284212,19.0397117 L56.2993369,21.0731326 C56.3380161,21.3785476 56.3766953,21.6904928 56.4168815,22.0094707 L58.0484406,21.0259138 L56.543468,23.0141253 C56.5816448,23.314517 56.6208264,23.6204343 56.6615149,23.9313749 L58.2674553,23.0116137 L56.7966409,24.9415551 C56.8368271,25.2374259 56.8790226,25.5388223 56.9227251,25.8432326 L58.4874746,24.9973135 L57.0704093,26.8423616 C57.1161211,27.1377301 57.1638422,27.4356102 57.2145772,27.7375089 L58.7069916,26.982511 L57.3838615,28.6919308 C57.4406245,28.9938295 57.5004015,29.2977375 57.5662063,29.6051618 L58.9265087,28.9682108 L57.7616117,30.4591182 C57.8299282,30.7353982 57.9037703,31.0131852 57.9851473,31.2919769 C58.148906,31.8535788 58.3417997,32.4207063 58.6030099,32.9828106 C58.7361266,33.2636115 58.8853178,33.5424032 59.0686673,33.8131576 C59.1183977,33.8809718 59.1565746,33.945772 59.2153469,34.0171025 C59.2690959,34.082405 59.3308822,34.165289 59.3791056,34.2155218 L59.4554593,34.2984058 L59.4936362,34.3395966 L59.5554225,34.3993736 C59.623739,34.4641738 59.6945671,34.5209368 59.7663999,34.5741835 C60.3470903,34.9860918 60.9649529,35.1779809 61.5828154,35.3497768 C61.8174023,35.4110607 62.0539985,35.4643074 62.2905946,35.5135355 C62.3704647,35.8435645 62.5096093,36.41672 62.6668378,37.0546757 C62.2840644,37.5499704 62.0499798,38.1914424 62.0479705,38.8936959 C62.0444542,39.6416613 62.3006412,40.3479335 62.7673032,40.8824097 C63.1651464,41.3380206 63.6750087,41.6218355 64.2300803,41.7092404 C64.3270295,41.8539107 64.4345275,41.9920507 64.5540814,42.1226558 C64.4596439,42.7852255 64.1019869,43.4925024 63.7222274,44.2369514 C63.0099273,45.6349283 62.1238219,47.3739854 63.3042911,49.0813959 C64.1271032,50.2704046 65.5240754,51.0846772 66.8753359,51.873331 C66.890908,51.8823729 66.9054755,51.8909125 66.9210477,51.8999544 L66.9210477,65.2457861 L66.0776401,61.731002 C61.4135311,62.0318961 57.4556943,63.0189692 55.1264026,64.3747506 C59.1987701,66.1459566 63.6905808,67.1335321 68.4149691,67.1335321 C73.4216653,67.1335321 78.166649,66.0233888 82.4288961,64.0467309 C80.5888712,63.1294812 77.9697367,62.4101485 74.8964982,62.004268 C75.3475881,60.0261031 75.2270296,58.0097614 73.7828386,55.9547404 Z" id="Fill-28" fill="#FFFFFE"></path>
                <path d="M7.99202736,79.801222 C10.7066041,79.801222 12.7249552,78.4318778 12.7249552,76.0885209 L12.7249552,76.0423068 C12.7249552,73.8612017 11.0085028,72.4918574 8.06134852,72.4918574 L2.51565512,72.4918574 L2.51565512,79.801222 L7.99202736,79.801222 Z M1.30956727,71.3781978 L8.13117202,71.3781978 C10.1264161,71.3781978 11.7278355,72.0046 12.7018481,72.9791149 C13.4673949,73.7451641 13.9320477,74.8352143 13.9320477,75.9955904 L13.9320477,76.0423068 C13.9320477,78.7568835 11.9126919,80.3115865 9.17500815,80.6823041 L14.5353428,87.6204488 L13.0037468,87.6204488 L7.82927331,80.8912722 L2.51565512,80.8912722 L2.51565512,87.6204488 L1.30956727,87.6204488 L1.30956727,71.3781978 Z" id="Fill-29" fill="#BB2532"></path>
                <path d="M36.2715474,81.9823271 L32.0022677,72.584788 L27.7093786,81.9823271 L36.2715474,81.9823271 Z M31.4451867,71.2621602 L32.6055628,71.2621602 L40.1696073,87.6204488 L38.8469795,87.6204488 L36.7819119,83.0723774 L27.199014,83.0723774 L25.1339465,87.6204488 L23.8811422,87.6204488 L31.4451867,71.2621602 Z" id="Fill-30" fill="#BB2532"></path>
                <path d="M57.4732758,80.8058766 C60.1878525,80.8058766 62.206706,79.4365324 62.206706,77.0931755 L62.206706,77.0469614 C62.206706,74.8658563 60.4897512,73.496512 57.5430993,73.496512 L51.9974059,73.496512 L51.9974059,80.8058766 L57.4732758,80.8058766 Z M50.7908157,72.3828524 L57.6129228,72.3828524 C59.6081668,72.3828524 61.2090839,73.0092546 62.1830966,73.9837695 C62.9491457,74.7498187 63.4132961,75.8398689 63.4132961,77.000245 L63.4132961,77.0469614 C63.4132961,79.7615381 61.3944427,81.3162411 58.6562566,81.6869587 L64.0165912,88.6251034 L62.4849953,88.6251034 L57.3110241,81.8959268 L51.9974059,81.8959268 L51.9974059,88.6251034 L50.7908157,88.6251034 L50.7908157,72.3828524 Z" id="Fill-31" fill="#BB2532"></path>
                <polyline id="Fill-32" fill="#BB2532" points="74.7548419 72.3828524 86.3098768 72.3828524 86.3098768 73.496512 75.9609298 73.496512 75.9609298 79.8775757 85.2660407 79.8775757 85.2660407 80.9912354 75.9609298 80.9912354 75.9609298 87.5109414 86.4259144 87.5109414 86.4259144 88.6251034 74.7548419 88.6251034 74.7548419 72.3828524"></polyline>
                <polygon id="Fill-33" fill="#BB2532" points="108.909582 88.6251034 110.11567 88.6251034 110.11567 72.3828524 108.909582 72.3828524"></polygon>
                <polyline id="Fill-34" fill="#BB2532" points="122.294093 72.3828524 123.43086 72.3828524 134.638284 86.5138217 134.638284 72.3828524 135.79866 72.3828524 135.79866 88.6251034 134.893466 88.6251034 123.453967 74.1922353 123.453967 88.6251034 122.294093 88.6251034 122.294093 72.3828524"></polyline>
                <path d="M0.590234578,103.231777 L0.590234578,103.189079 C0.590234578,98.9499387 3.75841286,95.4391732 8.0829486,95.4391732 C10.7588461,95.4391732 12.3647865,96.4237347 13.9059267,97.8367814 L13.1137565,98.6505516 C11.8077055,97.3871985 10.3097655,96.4453348 8.06134852,96.4453348 C4.46468505,96.4453348 1.7460897,99.3784239 1.7460897,103.145879 L1.7460897,103.189079 C1.7460897,106.977631 4.5078852,109.93232 8.0829486,109.93232 C10.2454676,109.93232 11.7218076,109.097453 13.24185,107.59901 L13.9913223,108.32638 C12.406982,109.889623 10.6945482,110.938984 8.04025078,110.938984 C3.75841286,110.938984 0.590234578,107.534712 0.590234578,103.231777" id="Fill-35" fill="#BB2532"></path>
                <path d="M36.5076412,103.231777 L36.5076412,103.189079 C36.5076412,99.4849173 33.8101436,96.4453348 30.1069868,96.4453348 C26.4028253,96.4453348 23.7485278,99.4422195 23.7485278,103.145879 L23.7485278,103.189079 C23.7485278,106.892738 26.4460254,109.93232 30.1496846,109.93232 C33.8528415,109.93232 36.5076412,106.934933 36.5076412,103.231777 Z M22.5926727,103.231777 L22.5926727,103.189079 C22.5926727,99.1001346 25.6106551,95.4391732 30.1496846,95.4391732 C34.6882118,95.4391732 37.6639987,99.0569344 37.6639987,103.145879 C37.6855988,103.167479 37.6855988,103.167479 37.6639987,103.189079 C37.6639987,107.278023 34.6450116,110.938984 30.1069868,110.938984 C25.5679573,110.938984 22.5926727,107.320721 22.5926727,103.231777 Z" id="Fill-36" fill="#BB2532"></path>
                <polyline id="Fill-37" fill="#BB2532" points="48.0842762 96.708052 49.1326333 96.708052 55.148505 105.571115 61.1643768 96.708052 62.2132362 96.708052 62.2132362 111.693982 61.1000789 111.693982 61.1000789 98.6776773 55.1701051 107.305149 55.0847095 107.305149 49.1542334 98.6776773 49.1542334 111.693982 48.0842762 111.693982 48.0842762 96.708052"></polyline>
                <polyline id="Fill-38" fill="#BB2532" points="73.2975904 96.708052 74.3464498 96.708052 80.3618193 105.571115 86.3781933 96.708052 87.4270527 96.708052 87.4270527 111.693982 86.3138954 111.693982 86.3138954 98.6776773 80.3834193 107.305149 80.2980237 107.305149 74.3675476 98.6776773 74.3675476 111.693982 73.2975904 111.693982 73.2975904 96.708052"></polyline>
                <path d="M111.761797,104.243966 L111.761797,104.201268 C111.761797,100.497107 109.064299,97.4575243 105.361142,97.4575243 C101.657483,97.4575243 99.0026831,100.454409 99.0026831,104.158068 L99.0026831,104.201268 C99.0026831,107.904927 101.700181,110.94451 105.40384,110.94451 C109.107499,110.94451 111.761797,107.947123 111.761797,104.243966 Z M97.8468279,104.243966 L97.8468279,104.201268 C97.8468279,100.112324 100.865313,96.4513627 105.40384,96.4513627 C109.942367,96.4513627 112.918154,100.069124 112.918154,104.158068 C112.939754,104.179668 112.939754,104.179668 112.918154,104.201268 C112.918154,108.290213 109.899669,111.951174 105.361142,111.951174 C100.822113,111.951174 97.8468279,108.33291 97.8468279,104.243966 Z" id="Fill-39" fill="#BB2532"></path>
                <polyline id="Fill-40" fill="#BB2532" points="123.338934 96.708052 124.387793 96.708052 134.727698 109.745957 134.727698 96.708052 135.79866 96.708052 135.79866 111.693982 134.963792 111.693982 124.409393 98.3777879 124.409393 111.693982 123.338934 111.693982 123.338934 96.708052"></polyline>
                <g id="Group-46" transform="translate(0.000000, 137.135353)">
                    <mask id="mask-2" fill="white">
                        <use xlink:href="#path-1"></use>
                    </mask>
                    <g id="Clip-42"></g>
                    <path d="M4.97655657,7.58865853 C7.39576485,7.58865853 9.03335185,6.32329606 9.03335185,4.38782897 L9.03335185,4.35065675 C9.03335185,2.28458456 7.43293707,1.20508319 5.08807323,1.20508319 L1.40300015,1.20508319 L1.40300015,7.58865853 L4.97655657,7.58865853 Z M0.43551777,0.311945254 L5.16241767,0.311945254 C8.02819492,0.311945254 10.0013366,1.78225726 10.0013366,4.29489842 L10.0013366,4.33207064 C10.0013366,7.06774512 7.63788661,8.4822988 4.92029591,8.4822988 L1.40300015,8.4822988 L1.40300015,13.3393015 L0.43551777,13.3393015 L0.43551777,0.311945254 Z" id="Fill-41" fill="#8F918E" mask="url(#mask-2)"></path>
                    <path d="M31.8279601,6.86279558 L31.8279601,6.82562336 C31.8279601,3.60620769 29.4825939,0.963463763 26.2631783,0.963463763 C23.0437626,0.963463763 20.736071,3.56903547 20.736071,6.78845114 L20.736071,6.82562336 C20.736071,10.045039 23.0809348,12.687783 26.3003505,12.687783 C29.5202685,12.687783 31.8279601,10.0827136 31.8279601,6.86279558 Z M19.730914,6.86279558 L19.730914,6.82562336 C19.730914,3.27115538 22.3550719,0.0889119322 26.3003505,0.0889119322 C30.2456291,0.0889119322 32.8326147,3.23398316 32.8326147,6.78845114 C32.8512008,6.80703725 32.8512008,6.80703725 32.8326147,6.82562336 C32.8326147,10.3800913 30.2084569,13.5628371 26.2631783,13.5628371 C22.3178996,13.5628371 19.730914,10.4177659 19.730914,6.86279558 Z" id="Fill-43" fill="#8F918E" mask="url(#mask-2)"></path>
                    <path d="M47.9029361,12.4461635 C51.5317485,12.4461635 53.8213563,9.97119692 53.8213563,6.86279558 L53.8213563,6.82562336 C53.8213563,3.73631046 51.5317485,1.20508319 47.9029361,1.20508319 L44.5348315,1.20508319 L44.5348315,12.4461635 L47.9029361,12.4461635 Z M43.5668468,0.311945254 L47.9029361,0.311945254 C51.9974059,0.311945254 54.8260109,3.1224665 54.8260109,6.78845114 L54.8260109,6.82562336 C54.8260109,10.4921103 51.9974059,13.3393015 47.9029361,13.3393015 L43.5668468,13.3393015 L43.5668468,0.311945254 Z" id="Fill-44" fill="#8F918E" mask="url(#mask-2)"></path>
                    <path d="M64.9835713,6.86279558 L64.9835713,6.82562336 C64.9835713,3.14105261 67.7378319,0.0889119322 71.4977517,0.0889119322 C73.8235271,0.0889119322 75.2194947,0.944877653 76.5597039,2.1730679 L75.8710132,2.88034474 C74.7357535,1.78225726 73.4327165,0.963463763 71.4786633,0.963463763 C68.3521781,0.963463763 65.9887282,3.51327714 65.9887282,6.78845114 L65.9887282,6.82562336 C65.9887282,10.1198858 68.3893504,12.687783 71.4977517,12.687783 C73.3769581,12.687783 74.6609067,11.96192 75.9825298,10.6593853 L76.633546,11.2923177 C75.2566669,12.6506107 73.7677688,13.5628371 71.4600772,13.5628371 C67.7378319,13.5628371 64.9835713,10.603627 64.9835713,6.86279558" id="Fill-45" fill="#8F918E" mask="url(#mask-2)"></path>
                </g>
                <path d="M95.5567178,145.952202 L92.1323526,138.415283 L88.6894013,145.952202 L95.5567178,145.952202 Z M91.6857836,137.354368 L92.6165961,137.354368 L98.6832029,150.474655 L97.6222876,150.474655 L95.9656122,146.827256 L88.2800045,146.827256 L86.6238314,150.474655 L85.6186745,150.474655 L91.6857836,137.354368 Z" id="Fill-47" fill="#8F918E"></path>
                <path d="M107.762769,148.57636 L108.395701,147.850497 C109.828339,149.17212 111.149962,149.785964 113.066341,149.785964 C115.020896,149.785964 116.360603,148.687876 116.360603,147.199481 L116.360603,147.161806 C116.360603,145.784927 115.635242,144.98472 112.676032,144.388959 C109.549547,143.756529 108.284185,142.695614 108.284185,140.722975 L108.284185,140.685802 C108.284185,138.750335 110.051874,137.261437 112.471083,137.261437 C114.369378,137.261437 115.616656,137.782351 116.937777,138.843266 L116.323933,139.606301 C115.095743,138.545386 113.86705,138.135989 112.434413,138.135989 C110.517029,138.135989 109.251667,139.234077 109.251667,140.59237 L109.251667,140.629542 C109.251667,142.006923 109.958944,142.844303 113.048257,143.477235 C116.062723,144.091582 117.328588,145.170581 117.328588,147.068875 L117.328588,147.10655 C117.328588,149.209292 115.523223,150.661018 113.011085,150.661018 C110.926929,150.661018 109.326011,149.972327 107.762769,148.57636" id="Fill-48" fill="#8F918E"></path>
                <polyline id="Fill-49" fill="#8F918E" points="131.284747 138.340436 126.744211 138.340436 126.744211 137.447298 136.793771 137.447298 136.793771 138.340436 132.252732 138.340436 132.252732 150.474655 131.284747 150.474655 131.284747 138.340436"></polyline>
                <path d="M66.8868894,126.900434 C66.203222,126.900434 65.8812302,125.936971 65.5411546,124.917749 C65.2231814,123.966341 64.8946593,122.982784 64.2692618,122.982784 C63.6353248,122.982784 63.3233795,123.346971 62.9918435,123.732256 C62.6653308,124.114025 62.3262598,124.508854 61.6516343,124.508854 C60.9734924,124.508854 60.6344215,123.937708 60.3079088,123.386153 C59.9768751,122.827062 59.6639252,122.299619 59.0340067,122.299619 C58.4015766,122.299619 58.0891291,122.745685 57.7585977,123.216868 C57.4310803,123.684033 57.0925117,124.167272 56.4153745,124.167272 C55.7437629,124.167272 55.4051943,123.860852 55.0781792,123.564479 C54.7471455,123.265594 54.434698,122.982784 53.7967423,122.982784 C53.156275,122.982784 52.8428227,123.184217 52.5122914,123.397706 C52.184774,123.608181 51.8467077,123.825689 51.1791147,123.825689 C50.5110194,123.825689 50.1729531,123.608181 49.8459381,123.397706 C49.5149044,123.184217 49.2019545,122.982784 48.5609848,122.982784 C47.911978,122.982784 47.5819489,123.068682 47.2624688,123.152068 C46.9384676,123.236961 46.602913,123.324366 45.9418503,123.324366 L45.9418503,123.258561 C46.5903548,123.258561 46.9203839,123.172663 47.239864,123.089277 C47.5648698,123.004886 47.9004244,122.916979 48.5609848,122.916979 C49.2280755,122.916979 49.5661418,123.134487 49.8936592,123.344962 C50.2241905,123.558451 50.5371404,123.759382 51.1791147,123.759382 C51.8200844,123.759382 52.1335366,123.558451 52.4645703,123.344962 C52.7915854,123.134487 53.1291493,122.916979 53.7967423,122.916979 C54.4688562,122.916979 54.8069225,123.222896 55.1349422,123.519772 C55.4649712,123.819159 55.7774188,124.101467 56.4153745,124.101467 C57.0478046,124.101467 57.3602522,123.6554 57.6912858,123.183715 C58.0183009,122.71655 58.3573718,122.233814 59.0340067,122.233814 C59.7126509,122.233814 60.0507172,122.804458 60.3777322,123.356515 C60.7087659,123.915103 61.0217158,124.442547 61.6516343,124.442547 C62.2860737,124.442547 62.5985212,124.079364 62.9285503,123.693577 C63.2560677,123.311808 63.5946363,122.916979 64.2692618,122.916979 C64.953934,122.916979 65.2759258,123.87994 65.6160013,124.899665 C65.9339745,125.851073 66.2624966,126.834127 66.8868894,126.834127 C67.5087706,126.834127 67.8387996,125.244764 68.1572752,123.707642 C68.4968484,122.07106 68.8173332,120.525901 69.504517,120.525901 C70.1906961,120.525901 70.5116832,121.738519 70.8522611,123.02297 C71.169732,124.225039 71.4992587,125.467797 72.1221445,125.467797 C72.7470397,125.467797 73.0755618,124.48424 73.3940373,123.533334 C73.7341129,122.51361 74.0561047,121.550649 74.7397721,121.550649 C75.4234396,121.550649 75.7605012,122.38401 76.0865116,123.189743 C76.4034801,123.973876 76.7314999,124.784632 77.3589067,124.784632 C77.9868158,124.784632 78.3143332,124.146174 78.6307994,123.529316 C78.9583168,122.892365 79.2953784,122.233814 79.9760319,122.233814 C80.6531691,122.233814 80.9912354,122.71655 81.3192551,123.183715 C81.6492841,123.6554 81.9617317,124.101467 82.5941618,124.101467 C83.2286012,124.101467 83.5400441,123.737279 83.8710778,123.351994 C84.1980929,122.970226 84.5371638,122.575396 85.2117893,122.575396 C85.8828986,122.575396 86.2214672,122.881816 86.5494869,123.177687 C86.8800183,123.477074 87.1919636,123.759382 87.8294169,123.759382 C88.4754098,123.759382 88.7893644,123.639326 89.1219051,123.512237 C89.4474131,123.38766 89.7839724,123.258561 90.4470445,123.258561 L90.4470445,123.324366 C89.8010516,123.324366 89.487097,123.444925 89.154054,123.572014 C88.8290482,123.696591 88.4924889,123.825689 87.8294169,123.825689 C87.1583076,123.825689 86.8192367,123.519269 86.4917193,123.222896 C86.1611879,122.924011 85.8492427,122.641201 85.2117893,122.641201 C84.5768476,122.641201 84.2644001,123.005388 83.934371,123.390171 C83.6068536,123.772442 83.268285,124.167272 82.5941618,124.167272 C81.9170246,124.167272 81.578456,123.684033 81.2509386,123.216868 C80.9209095,122.745685 80.6079596,122.299619 79.9760319,122.299619 C79.3471181,122.299619 79.0196007,122.937574 78.7031345,123.554935 C78.3766218,124.191886 78.0385555,124.850437 77.3589067,124.850437 C76.6762439,124.850437 76.3386799,124.017076 76.0126695,123.21084 C75.6946963,122.42721 75.3671789,121.616453 74.7397721,121.616453 C74.1153793,121.616453 73.7868572,122.60001 73.468884,123.550916 C73.1288085,124.57064 72.8068167,125.533602 72.1221445,125.533602 C71.4369701,125.533602 71.1154806,124.320481 70.775405,123.037035 C70.4574319,121.834464 70.1274028,120.591706 69.504517,120.591706 C68.8836404,120.591706 68.5536114,122.181069 68.2346336,123.719196 C67.894558,125.354773 67.5745755,126.900434 66.8868894,126.900434" id="Fill-50" fill="#8F918E"></path>
                <path d="M90.4470445,123.237464 L90.4470445,123.236459 C89.82014,123.236459 89.5127157,123.030003 89.1867053,122.811992 C88.8541646,122.589461 88.5105727,122.358893 87.8284123,122.358893 C87.1256564,122.358893 86.7815622,122.927528 86.4490215,123.477074 C86.1245181,124.015066 85.8165914,124.523422 85.20978,124.523422 C84.603471,124.523422 84.2960467,124.015066 83.9700363,123.477074 C83.6374956,122.927528 83.2939037,122.358893 82.5916501,122.358893 C81.882364,122.358893 81.5397768,123.15458 81.2087431,123.923643 C80.8967978,124.650008 80.5732991,125.40149 79.9740226,125.40149 C79.3812764,125.40149 79.0557683,124.20796 78.7413114,123.05311 C78.3967149,121.793273 78.0717091,120.603762 77.3553904,120.603762 C76.63656,120.603762 76.3125589,122.007766 75.9694693,123.494655 C75.668073,124.799702 75.3269927,126.279055 74.7367581,126.279055 C74.1420026,126.279055 73.8174992,125.307052 73.5040469,124.366695 C73.1589481,123.333911 72.83344,122.358893 72.1191306,122.358893 C71.4440027,122.358893 71.1451179,124.281802 70.7327072,127.448976 C70.4448737,129.665244 70.086212,132.423021 69.501503,132.423021 C69.36487,132.423021 69.0926086,132.101531 68.8027657,129.949059 C68.5983185,128.430523 68.4320482,126.371484 68.2713035,124.380258 C67.8614044,119.300222 67.563022,116.214928 66.8843778,116.214928 C66.2067382,116.214928 65.9088582,118.636146 65.4974521,122.62362 C65.2086139,125.425601 64.8494499,128.912255 64.2667502,128.912255 C63.6820412,128.912255 63.3238819,126.154478 63.035546,123.938713 C62.6236376,120.771037 62.3242505,118.848128 61.648118,118.848128 C60.9739948,118.848128 60.67511,120.438998 60.262197,123.05964 C59.9597959,124.980037 59.6162041,127.156621 59.0309928,127.156621 C58.4427675,127.156621 58.1011849,125.445192 57.7987839,123.934694 C57.456699,122.221256 57.1337025,120.603762 56.4133652,120.603762 C55.6965441,120.603762 55.3715384,121.793775 55.0279465,123.053612 C54.712485,124.20796 54.3874792,125.40149 53.7952353,125.40149 C53.1999774,125.40149 52.8759763,124.429486 52.5620218,123.48913 C52.2174252,122.456345 51.8914148,121.480825 51.1781101,121.480825 C50.4678193,121.480825 50.1257344,122.276512 49.795203,123.045575 C49.4822531,123.772442 49.1587543,124.523422 48.5594778,124.523422 C47.9411129,124.523422 47.6346933,124.222025 47.3101898,123.903047 C46.9771468,123.575028 46.6325503,123.236459 45.9418503,123.236459 L45.9418503,123.237464 L0.0879072776,123.237464 L0.0879072776,123.368069 L45.9418503,123.368069 C46.5597129,123.368069 46.8666348,123.669465 47.1911383,123.988443 C47.5241813,124.316463 47.8692801,124.655534 48.5594778,124.655534 C49.268764,124.655534 49.6108489,123.859847 49.9418826,123.090784 C50.2548325,122.363917 50.5783313,121.612937 51.1781101,121.612937 C51.7728656,121.612937 52.0968667,122.584941 52.4103189,123.524795 C52.7554178,124.55758 53.0814282,125.533099 53.7952353,125.533099 C54.5120564,125.533099 54.8365598,124.343086 55.1801517,123.082747 C55.4951109,121.928399 55.8216236,120.735371 56.4133652,120.735371 C57.0010881,120.735371 57.3426707,122.446801 57.6450717,123.956796 C57.9871566,125.670235 58.3101531,127.288231 59.0309928,127.288231 C59.705116,127.288231 60.0040007,125.696858 60.4174161,123.076719 C60.7198171,121.156322 61.0629067,118.979737 61.648118,118.979737 C62.2333293,118.979737 62.5914887,121.737514 62.8798245,123.95328 C63.2917329,127.120454 63.59112,129.043363 64.2667502,129.043363 C64.9438874,129.043363 65.2422698,126.622647 65.6536759,122.635173 C65.9420118,119.833694 66.3016781,116.346538 66.8843778,116.346538 C67.0210108,116.346538 67.2937745,116.668027 67.5836174,118.8205 C67.7880646,120.338533 67.9543349,122.398075 68.1150797,124.3893 C68.5249787,129.469839 68.8233612,132.55463 69.501503,132.55463 C70.1776356,132.55463 70.4765203,130.631219 70.8884287,127.463543 C71.1767646,125.247778 71.5354263,122.490503 72.1191306,122.490503 C72.7148908,122.490503 73.0388919,123.462506 73.3538511,124.402863 C73.6979453,125.435146 74.0234534,126.410665 74.7367581,126.410665 C75.4565932,126.410665 75.7795896,125.00666 76.1231815,123.519269 C76.4240755,122.214223 76.7651558,120.735371 77.3553904,120.735371 C77.9471319,120.735371 78.2731423,121.928399 78.5881016,123.082747 C78.9326981,124.342584 79.2566992,125.533099 79.9740226,125.533099 C80.6828064,125.533099 81.0253936,124.737915 81.3564273,123.96835 C81.6688749,123.241482 81.9918713,122.490503 82.5916501,122.490503 C83.1984615,122.490503 83.5058858,122.998858 83.8313939,123.536851 C84.1629299,124.086899 84.5075265,124.655534 85.20978,124.655534 C85.9125359,124.655534 86.2561278,124.086899 86.5891708,123.536851 C86.9141766,122.998858 87.2221032,122.490503 87.8284123,122.490503 C88.4558191,122.490503 88.7637457,122.696457 89.0892538,122.91497 C89.4207898,123.137501 89.7653863,123.368069 90.4470445,123.368069 L136.300987,123.368069 L136.300987,123.237464 L90.4470445,123.237464" id="Fill-51" fill="#8F918E"></path>
                <path d="M90.4470445,123.237464 L90.4470445,123.236459 C89.82014,123.236459 89.5127157,123.030003 89.1867053,122.811992 C88.8541646,122.589461 88.5105727,122.358893 87.8284123,122.358893 C87.1256564,122.358893 86.7815622,122.927528 86.4490215,123.477074 C86.1245181,124.015066 85.8165914,124.523422 85.20978,124.523422 C84.603471,124.523422 84.2960467,124.015066 83.9700363,123.477074 C83.6374956,122.927528 83.2939037,122.358893 82.5916501,122.358893 C81.882364,122.358893 81.5397768,123.15458 81.2087431,123.923643 C80.8967978,124.650008 80.5732991,125.40149 79.9740226,125.40149 C79.3812764,125.40149 79.0557683,124.20796 78.7413114,123.05311 C78.3967149,121.793273 78.0717091,120.603762 77.3553904,120.603762 C76.63656,120.603762 76.3125589,122.007766 75.9694693,123.494655 C75.668073,124.799702 75.3269927,126.279055 74.7367581,126.279055 C74.1420026,126.279055 73.8174992,125.307052 73.5040469,124.366695 C73.1589481,123.333911 72.83344,122.358893 72.1191306,122.358893 C71.4440027,122.358893 71.1451179,124.281802 70.7327072,127.448976 C70.4448737,129.665244 70.086212,132.423021 69.501503,132.423021 C69.36487,132.423021 69.0926086,132.101531 68.8027657,129.949059 C68.5983185,128.430523 68.4320482,126.371484 68.2713035,124.380258 C67.8614044,119.300222 67.563022,116.214928 66.8843778,116.214928 C66.2067382,116.214928 65.9088582,118.636146 65.4974521,122.62362 C65.2086139,125.425601 64.8494499,128.912255 64.2667502,128.912255 C63.6820412,128.912255 63.3238819,126.154478 63.035546,123.938713 C62.6236376,120.771037 62.3242505,118.848128 61.648118,118.848128 C60.9739948,118.848128 60.67511,120.438998 60.262197,123.05964 C59.9597959,124.980037 59.6162041,127.156621 59.0309928,127.156621 C58.4427675,127.156621 58.1011849,125.445192 57.7987839,123.934694 C57.456699,122.221256 57.1337025,120.603762 56.4133652,120.603762 C55.6965441,120.603762 55.3715384,121.793775 55.0279465,123.053612 C54.712485,124.20796 54.3874792,125.40149 53.7952353,125.40149 C53.1999774,125.40149 52.8759763,124.429486 52.5620218,123.48913 C52.2174252,122.456345 51.8914148,121.480825 51.1781101,121.480825 C50.4678193,121.480825 50.1257344,122.276512 49.795203,123.045575 C49.4822531,123.772442 49.1587543,124.523422 48.5594778,124.523422 C47.9411129,124.523422 47.6346933,124.222025 47.3101898,123.903047 C46.9771468,123.575028 46.6325503,123.236459 45.9418503,123.236459 L45.9418503,123.237464 L0.0879072776,123.237464 L0.0879072776,123.368069 L45.9418503,123.368069 C46.5597129,123.368069 46.8666348,123.669465 47.1911383,123.988443 C47.5241813,124.316463 47.8692801,124.655534 48.5594778,124.655534 C49.268764,124.655534 49.6108489,123.859847 49.9418826,123.090784 C50.2548325,122.363917 50.5783313,121.612937 51.1781101,121.612937 C51.7728656,121.612937 52.0968667,122.584941 52.4103189,123.524795 C52.7554178,124.55758 53.0814282,125.533099 53.7952353,125.533099 C54.5120564,125.533099 54.8365598,124.343086 55.1801517,123.082747 C55.4951109,121.928399 55.8216236,120.735371 56.4133652,120.735371 C57.0010881,120.735371 57.3426707,122.446801 57.6450717,123.956796 C57.9871566,125.670235 58.3101531,127.288231 59.0309928,127.288231 C59.705116,127.288231 60.0040007,125.696858 60.4174161,123.076719 C60.7198171,121.156322 61.0629067,118.979737 61.648118,118.979737 C62.2333293,118.979737 62.5914887,121.737514 62.8798245,123.95328 C63.2917329,127.120454 63.59112,129.043363 64.2667502,129.043363 C64.9438874,129.043363 65.2422698,126.622647 65.6536759,122.635173 C65.9420118,119.833694 66.3016781,116.346538 66.8843778,116.346538 C67.0210108,116.346538 67.2937745,116.668027 67.5836174,118.8205 C67.7880646,120.338533 67.9543349,122.398075 68.1150797,124.3893 C68.5249787,129.469839 68.8233612,132.55463 69.501503,132.55463 C70.1776356,132.55463 70.4765203,130.631219 70.8884287,127.463543 C71.1767646,125.247778 71.5354263,122.490503 72.1191306,122.490503 C72.7148908,122.490503 73.0388919,123.462506 73.3538511,124.402863 C73.6979453,125.435146 74.0234534,126.410665 74.7367581,126.410665 C75.4565932,126.410665 75.7795896,125.00666 76.1231815,123.519269 C76.4240755,122.214223 76.7651558,120.735371 77.3553904,120.735371 C77.9471319,120.735371 78.2731423,121.928399 78.5881016,123.082747 C78.9326981,124.342584 79.2566992,125.533099 79.9740226,125.533099 C80.6828064,125.533099 81.0253936,124.737915 81.3564273,123.96835 C81.6688749,123.241482 81.9918713,122.490503 82.5916501,122.490503 C83.1984615,122.490503 83.5058858,122.998858 83.8313939,123.536851 C84.1629299,124.086899 84.5075265,124.655534 85.20978,124.655534 C85.9125359,124.655534 86.2561278,124.086899 86.5891708,123.536851 C86.9141766,122.998858 87.2221032,122.490503 87.8284123,122.490503 C88.4558191,122.490503 88.7637457,122.696457 89.0892538,122.91497 C89.4207898,123.137501 89.7653863,123.368069 90.4470445,123.368069 L136.300987,123.368069 L136.300987,123.237464 L90.4470445,123.237464 Z" id="Stroke-52" stroke="#8F918E" stroke-width="0.35"></path>
            </g>
        </g>
    </g>
</svg>