<?xml version="1.0" encoding="utf-8"?>
<!-- Generator: Adobe Illustrator 22.1.0, SVG Export Plug-In . SVG Version: 6.00 Build 0)  -->
<svg version="1.1" id="Option_A" xmlns="http://www.w3.org/2000/svg" xmlns:xlink="http://www.w3.org/1999/xlink" x="0px" y="0px"
	 viewBox="0 0 400 106" style="enable-background:new 0 0 400 106;" xml:space="preserve">
<style type="text/css">
	.st0{fill:#EF3340;}
	.st1{fill:#99A8B2;}
</style>
<g>
	<g>
		<path class="st0" d="M23.568,75C10.558,75,0,64.502,0,51.563c0-12.941,10.558-23.439,23.568-23.439h56.557
			c2.638,0,4.713,2.068,4.713,4.689c0,2.624-2.075,4.689-4.713,4.689H23.568c-7.827,0-14.142,6.28-14.142,14.061
			s6.315,14.061,14.142,14.061h56.557c2.638,0,4.713,2.066,4.713,4.687c0,2.626-2.075,4.689-4.713,4.689H23.568z"/>
		<path class="st0" d="M98.165,0c2.64,0,4.713,2.064,4.713,4.688v23.436h51.848c13.005,0,23.563,10.498,23.563,23.439
			c0,12.939-10.558,23.437-23.563,23.437H93.453V4.688C93.453,2.064,95.525,0,98.165,0z M168.864,51.563
			c0-7.78-6.313-14.061-14.138-14.061h-51.848v28.121h51.848C162.551,65.623,168.864,59.343,168.864,51.563z"/>
		<g>
			<path class="st0" d="M202.145,73.683h-6.211v-19.04h5.341c2.553,0,5.371,1.643,5.371,4.985c0,1.404-0.658,2.862-1.77,3.342
				c1.77,0.506,3.541,2.478,3.541,4.924C208.417,71.833,205.114,73.683,202.145,73.683z M200.798,57.091h-1.982v5.015h1.982
				c1.557,0,2.911-0.717,2.911-2.478C203.709,57.835,202.355,57.091,200.798,57.091z M201.547,64.553h-2.731v6.683h2.731
				c2.01,0,3.901-1.014,3.901-3.342C205.448,65.625,203.557,64.553,201.547,64.553z"/>
			<path class="st0" d="M212.617,73.683v-19.04h2.909v19.04H212.617z"/>
			<path class="st0" d="M229.869,74.041c-5.102,0-10.142-3.73-10.142-9.905c0-6.119,5.04-9.881,10.142-9.881
				c5.101,0,10.145,3.762,10.145,9.881C240.014,70.311,234.97,74.041,229.869,74.041z M229.869,56.762
				c-3.539,0-7.197,2.655-7.197,7.374c0,4.711,3.658,7.398,7.197,7.398c3.482,0,7.205-2.686,7.205-7.398
				C237.074,59.417,233.351,56.762,229.869,56.762z"/>
			<path class="st0" d="M262.605,73.683l-0.78-8.595c-0.121-1.282-0.24-2.925-0.297-4.325h-0.061
				c-0.602,1.343-1.529,3.193-2.161,4.418l-4.44,8.651h-1.081l-4.5-8.651c-0.659-1.255-1.471-2.954-2.131-4.359h-0.059
				c-0.061,1.462-0.212,3.134-0.301,4.266l-0.751,8.595h-2.579l1.648-19.04h1.802l5.1,9.789c0.78,1.493,1.771,3.431,2.4,4.898h0.06
				c0.602-1.467,1.534-3.315,2.341-4.898l5.044-9.789h1.798l1.709,19.04H262.605z"/>
			<path class="st0" d="M282.348,73.683l-2.072-4.926h-7.439l-2.073,4.926h-2.85l8.161-19.306h1.05l8.163,19.306H282.348z
				 M277.396,61.806c-0.269-0.626-0.568-1.521-0.806-2.328h-0.061c-0.21,0.807-0.54,1.702-0.812,2.328l-1.888,4.656h5.46
				L277.396,61.806z"/>
			<path class="st0" d="M300.052,73.683l-6.03-8.353h-2.701v8.353h-2.881v-19.04h6.064c2.698,0,5.757,1.733,5.757,5.345
				c0,2.535-1.498,4.148-3.361,4.893l6.545,8.802H300.052z M293.99,57.091h-2.67v5.789h2.67c1.711,0,3.303-0.892,3.303-2.892
				C297.293,58.016,295.701,57.091,293.99,57.091z"/>
			<path class="st0" d="M316.135,73.683l-7.532-8.922v8.922h-2.909v-19.04h2.909v8.985l7.561-8.985h3.361l-7.951,9.401l8.134,9.639
				H316.135z"/>
			<path class="st0" d="M322.615,73.683v-19.04h10.324v2.479h-7.415v5.757h6.214v2.476h-6.214v5.852h8.462v2.476H322.615z"/>
			<path class="st0" d="M344.427,57.122v16.561h-2.909V57.122h-6.153v-2.479h15.214v2.479H344.427z"/>
			<path class="st0" d="M353.729,73.683v-19.04h2.909v19.04H353.729z"/>
			<path class="st0" d="M377.885,74.1l-8.97-9.758c-1.442-1.554-3.091-3.462-4.414-5.015l-0.058,0.032
				c0.058,1.729,0.058,3.34,0.058,4.776v9.547h-2.911v-19.04h2.012l8.223,8.954c1.109,1.221,2.852,3.135,4.018,4.566l0.061-0.028
				c-0.061-1.463-0.061-3.106-0.061-4.479v-9.013h2.911V74.1H377.885z"/>
			<path class="st0" d="M393.007,74.041c-5.161,0-10.5-3.433-10.5-9.879c0-6.592,5.551-9.907,10.322-9.907
				c2.642,0,4.771,0.626,6.185,1.521l-0.542,2.509c-1.414-0.894-3.301-1.522-5.31-1.522c-3.755,0-7.712,2.448-7.712,7.429
				c0,4.928,3.838,7.342,7.74,7.342c1.771,0,3.151-0.36,4.048-0.985V66.58h-4.409v-2.326H400v7.727
				C398.17,73.446,395.859,74.041,393.007,74.041z"/>
			<path class="st0" d="M209.66,28.842c-1.113-0.715-3-1.314-5.042-1.314c-4.321,0-8.314,3.071-8.314,8.115
				c0,5.016,3.935,8.089,8.314,8.089c2.222,0,4.05-0.447,5.401-1.282l-0.478,2.027c-1.204,0.66-2.731,1.016-5.133,1.016
				c-5.129,0-10.138-3.73-10.138-9.85c0-6.173,5.064-9.844,10.138-9.844c2.463,0,4.351,0.538,5.642,1.284L209.66,28.842z"/>
			<path class="st0" d="M226.763,45.166l-2.189-5.341h-8.102l-2.164,5.341h-1.975l7.918-19.428h0.63l7.92,19.428H226.763z
				 M221.602,32.332c-0.361-0.863-0.721-1.907-1.02-2.925h-0.061c-0.301,1.018-0.689,2.062-1.046,2.925l-2.315,5.85h6.722
				L221.602,32.332z"/>
			<path class="st0" d="M251.247,45.166l-0.81-9.878c-0.123-1.644-0.242-3.342-0.297-4.954h-0.063
				c-0.659,1.58-1.624,3.518-2.37,5.072l-4.858,9.968h-0.661l-4.892-9.968c-0.721-1.489-1.618-3.368-2.371-5.046h-0.061
				c-0.056,1.613-0.177,3.405-0.303,4.928l-0.778,9.878h-1.83l1.533-19.038h1.287l5.282,10.685c0.844,1.7,1.743,3.579,2.491,5.338
				h0.057c0.723-1.731,1.564-3.492,2.464-5.338l5.248-10.685h1.291l1.592,19.038H251.247z"/>
			<path class="st0" d="M263.25,45.166h-5.793V26.128h4.713c2.668,0,5.133,1.761,5.133,4.715c0,1.522-0.814,3.01-2.103,3.547
				c2.159,0.451,4.08,2.598,4.08,5.105C269.281,43.078,266.342,45.166,263.25,45.166z M261.87,27.857h-2.4v5.968h2.491
				c1.798,0,3.3-1.075,3.3-2.982C265.26,28.903,263.759,27.857,261.87,27.857z M262.741,35.554h-3.272v7.878h3.391
				c2.311,0,4.379-1.43,4.379-3.937C267.239,37.02,265.171,35.554,262.741,35.554z"/>
			<path class="st0" d="M284.91,45.166l-6.391-8.715h-3.296v8.715h-2.014V26.128h5.462c2.909,0,5.611,1.907,5.611,5.16
				c0,2.478-1.618,4.266-3.749,4.867l6.722,9.011H284.91z M278.339,27.857h-3.116v6.86h3.238c2.01,0,3.779-1.251,3.779-3.429
				C282.241,29.143,280.472,27.857,278.339,27.857z"/>
			<path class="st0" d="M290.133,45.166V26.128h2.012v19.038H290.133z"/>
			<path class="st0" d="M302.404,45.166h-5.009V26.128h5.009c5.793,0,10.623,3.459,10.623,9.515
				C313.026,41.705,308.196,45.166,302.404,45.166z M302.104,27.857h-2.701v15.576h2.701c5.04,0,8.851-2.714,8.851-7.79
				C310.955,30.573,307.145,27.857,302.104,27.857z"/>
			<path class="st0" d="M326.44,45.493c-5.338,0-10.263-3.762-10.263-9.85c0-6.173,5.012-9.844,10.144-9.844
				c2.519,0,4.591,0.563,6.027,1.46l-0.42,1.766c-1.408-0.898-3.325-1.497-5.397-1.497c-4.351,0-8.314,3.071-8.314,8.146
				c0,5.016,3.903,8.058,8.342,8.058c2.131,0,3.961-0.597,4.921-1.282v-4.717h-5.04v-1.641h6.991v7.341
				C331.718,44.748,329.351,45.493,326.44,45.493z"/>
			<path class="st0" d="M337.845,45.166V26.128h9.988v1.729h-7.981v6.86h6.541v1.733h-6.541v6.982h9.033v1.733H337.845z"/>
		</g>
	</g>
	<path class="st1" d="M399.947,96.817c0.32-1.877-0.841-3.028-2.711-3.028c-2.805,0-4.569,2.116-5.122,4.647
		c-0.556,2.552,0.147,4.512,2.987,4.512c1.958,0,3.699-1.186,4.264-3.132h-1.676c-0.359,1.24-1.2,1.946-2.311,1.946
		c-1.605,0-1.926-1.361-1.485-3.396c0.444-2.032,1.356-3.393,2.961-3.393c1.2,0,1.564,0.758,1.417,1.843H399.947z M389.07,102.69
		l2.708-12.432h-1.676l-2.708,12.432H389.07z M375.965,105.997h1.676l0.935-4.286h0.053c0.388,0.893,1.476,1.237,2.199,1.237
		c3.193,0,4.766-2.357,5.249-4.581c0.512-2.342-0.238-4.578-2.726-4.578c-1.394,0-2.59,0.396-3.373,1.633h-0.035l0.247-1.375h-1.711
		c-0.076,0.514-0.153,1.03-0.247,1.547L375.965,105.997z M384.313,98.367c-0.353,1.622-1.356,3.396-3.402,3.396
		c-1.87,0-1.961-1.774-1.608-3.396c0.341-1.567,1.341-3.393,3.246-3.393C384.56,94.975,384.666,96.748,384.313,98.367
		 M364.591,97.544c0.309-1.415,1.391-2.569,2.785-2.569c1.623,0,2.049,1.119,1.697,2.569H364.591z M370.59,98.677l0.176-0.807
		c0.523-2.397-0.373-4.03-3.011-4.082c-2.805,0-4.569,2.116-5.122,4.647c-0.556,2.552,0.147,4.512,2.987,4.512
		c2.117,0,3.884-0.979,4.575-2.945h-1.764c-0.468,1.26-1.229,1.76-2.535,1.76c-1.711,0-2.005-1.57-1.553-3.086H370.59z
		 M358.373,98.402c0.397-1.826,1.009-2.928,3.14-2.997c0.229,0,0.494,0,0.703,0.086l0.338-1.547c-0.194,0-0.368-0.017-0.579-0.017
		c-1.217,0-2.476,0.6-2.982,1.788h-0.035l0.362-1.668h-1.676l-1.882,8.643h1.676L358.373,98.402z M350.889,97.354
		c-2.099,0-4.458,0.703-4.987,3.132c-0.368,1.688,1.017,2.463,2.552,2.463c1.217,0,2.305-0.465,3.09-1.547h0.035
		c-0.071,0.396-0.118,0.772-0.168,1.168c-0.026,0.207,0.291,0.121,0.45,0.121h1.129c0.106-0.72,0.244-1.444,0.326-1.823l0.9-4.133
		c0.526-2.414-1.159-2.945-2.976-2.945c-1.747,0-3.408,0.669-3.911,2.563h1.764c0.215-0.896,1.114-1.378,1.961-1.378
		c1.782,0,1.676,0.878,1.35,2.38H350.889z M352.159,98.488c-0.312,1.602-1.047,3.275-3.023,3.275c-0.988,0-1.629-0.534-1.397-1.605
		c0.273-1.257,1.711-1.619,2.743-1.671H352.159z M345.291,96.817c0.321-1.877-0.841-3.028-2.711-3.028
		c-2.805,0-4.569,2.116-5.122,4.647c-0.556,2.552,0.147,4.512,2.987,4.512c1.958,0,3.699-1.186,4.264-3.132h-1.676
		c-0.359,1.24-1.2,1.946-2.311,1.946c-1.605,0-1.926-1.361-1.485-3.396c0.444-2.032,1.358-3.393,2.964-3.393
		c1.2,0,1.561,0.758,1.414,1.843H345.291z M328.504,102.69l0.967-4.443c0.106-0.482,0.135-1.102,0.717-1.998
		c0.476-0.723,1.608-1.223,2.276-1.206c1.561,0.034,1.753,1.016,1.423,2.532l-1.114,5.115h1.676l1.276-5.856
		c0.338-1.55-0.062-3.046-2.373-3.046c-1.288,0-2.338,0.445-3.182,1.409h-0.035l1.076-4.94h-1.676l-2.708,12.432H328.504z
		 M321.594,93.996l-0.265,1.22l1.52-0.017l-1.197,5.497c-0.25,1.154-0.171,1.188,0.041,1.599c0.2,0.379,0.609,0.517,0.865,0.568
		c0.388,0.069,0.703,0.086,1.109,0.086c0.388,0,0.779-0.086,1.17-0.103l0.273-1.254c-0.279,0.069-0.641,0.103-0.906,0.103
		c-0.6,0-1.029-0.293-0.894-0.913l1.214-5.583l2.044,0.017l0.265-1.22l-2.058,0.052l0.515-2.36l-1.788,0.517l-0.403,1.843
		L321.594,93.996z M318.112,102.69l2.708-12.432h-1.676l-2.708,12.432H318.112z M311.585,97.354c-2.099,0-4.461,0.703-4.99,3.132
		c-0.368,1.688,1.017,2.463,2.552,2.463c1.217,0,2.308-0.465,3.09-1.547h0.035c-0.071,0.396-0.118,0.772-0.168,1.168
		c-0.026,0.207,0.291,0.121,0.45,0.121h1.129c0.106-0.72,0.244-1.444,0.326-1.823l0.9-4.133c0.526-2.414-1.156-2.945-2.973-2.945
		c-1.747,0-3.411,0.669-3.911,2.563h1.764c0.212-0.896,1.111-1.378,1.958-1.378c1.782,0,1.679,0.878,1.353,2.38H311.585z
		 M312.852,98.488c-0.312,1.602-1.047,3.275-3.023,3.275c-0.988,0-1.629-0.534-1.397-1.605c0.273-1.257,1.711-1.619,2.746-1.671
		H312.852z M299.332,97.544c0.309-1.415,1.391-2.569,2.785-2.569c1.623,0,2.049,1.119,1.697,2.569H299.332z M305.33,98.677
		l0.176-0.807c0.523-2.397-0.373-4.03-3.008-4.082c-2.808,0-4.572,2.116-5.125,4.647c-0.556,2.552,0.147,4.512,2.987,4.512
		c2.117,0,3.884-0.979,4.575-2.945h-1.764c-0.468,1.26-1.229,1.76-2.535,1.76c-1.711,0-2.005-1.57-1.553-3.086H305.33z
		 M286.338,102.69l1.223-5.615h6.051l-1.223,5.615h1.764l2.708-12.432h-1.764l-1.161,5.339h-6.051l1.161-5.339h-1.764l-2.708,12.432
		H286.338z M278.829,93.356c0.415-2.394-1.758-3.356-3.911-3.356c-2.17,0-4.205,0.755-5.728,2.649
		c-0.897,1.119-1.647,2.535-1.926,3.826c-0.382,1.754-0.344,3.841,0.806,5.046c1.132,1.203,2.546,1.427,4.346,1.427
		c1.447,0,2.976-0.293,4.534-0.723l1.338-6.146h-4.658l-0.323,1.478h2.893l-0.764,3.516c-0.867,0.258-1.761,0.396-2.626,0.396
		c-3.637-0.069-4.246-1.811-3.693-4.995c0.435-2.328,2.146-4.997,5.269-4.997c1.358,0,2.593,0.396,2.591,1.877H278.829z
		 M253.7,102.69h4.234c1.191-0.034,2.461-0.121,3.626-0.758c2.102-1.151,3.373-3.097,3.887-5.46c0.515-2.36,0.091-4.306-1.511-5.46
		c-0.885-0.634-2.117-0.72-3.293-0.755h-4.234L253.7,102.69z M257.852,91.737h2.576c1.782,0,2.579,0.706,2.92,1.412
		c0.526,1.068,0.497,2.17,0.247,3.324c-0.253,1.154-0.703,2.259-1.694,3.327c-0.65,0.706-1.755,1.412-3.537,1.412h-2.576
		L257.852,91.737z M253.303,90.258h-1.764l-1.726,7.923c-0.518,2.136-2.073,3.29-4.084,3.29c-2.011,0-3.067-1.154-2.655-3.29
		l1.726-7.923h-1.764l-1.635,7.509c-0.75,3.203,0.547,5.181,4.005,5.181c3.458,0,5.619-1.978,6.263-5.181L253.303,90.258z
		 M231.861,102.69l1.635-7.509h2.047l0.247-1.134h-2.047l0.3-1.381c0.153-0.947,0.753-1.188,1.705-1.188
		c0.282,0,0.556,0.034,0.835,0.052l0.297-1.358C236.49,90.103,236.122,90,235.716,90c-1.253,0-2.826,0.497-3.29,2.391l-0.359,1.656
		h-1.729l-0.247,1.134h1.729l-1.635,7.509H231.861z M221.264,98.367c0.4-1.843,1.391-3.393,3.384-3.393s2.308,1.55,1.908,3.393
		c-0.403,1.846-1.394,3.396-3.387,3.396S220.861,100.213,221.264,98.367 M224.907,93.789c-2.911,0-4.822,1.892-5.407,4.578
		c-0.585,2.69,0.5,4.581,3.411,4.581s4.825-1.892,5.41-4.581C228.906,95.681,227.818,93.789,224.907,93.789 M209.197,93.996
		l-0.268,1.22l1.52-0.017l-1.197,5.497c-0.25,1.154-0.171,1.188,0.041,1.599c0.2,0.379,0.612,0.517,0.864,0.568
		c0.391,0.069,0.706,0.086,1.111,0.086c0.388,0,0.776-0.086,1.167-0.103l0.273-1.254c-0.279,0.069-0.641,0.103-0.906,0.103
		c-0.6,0-1.029-0.293-0.894-0.913l1.214-5.583l2.044,0.017l0.268-1.22l-2.058,0.052l0.512-2.36l-1.788,0.517l-0.4,1.843
		L209.197,93.996z M204.707,98.402c0.397-1.826,1.009-2.928,3.14-2.997c0.229,0,0.494,0,0.706,0.086l0.335-1.547
		c-0.194,0-0.365-0.017-0.576-0.017c-1.217,0-2.479,0.6-2.985,1.788h-0.035l0.365-1.668h-1.676l-1.882,8.643h1.676L204.707,98.402z
		 M197.226,97.354c-2.099,0-4.458,0.703-4.987,3.132c-0.368,1.688,1.017,2.463,2.552,2.463c1.217,0,2.305-0.465,3.087-1.547h0.035
		c-0.068,0.396-0.115,0.772-0.165,1.168c-0.029,0.207,0.291,0.121,0.45,0.121h1.129c0.103-0.72,0.244-1.444,0.326-1.823l0.9-4.133
		c0.523-2.414-1.159-2.945-2.976-2.945c-1.747,0-3.411,0.669-3.911,2.563h1.764c0.212-0.896,1.111-1.378,1.958-1.378
		c1.782,0,1.679,0.878,1.353,2.38H197.226z M198.496,98.488c-0.315,1.602-1.05,3.275-3.026,3.275c-0.988,0-1.629-0.534-1.397-1.605
		c0.273-1.257,1.711-1.619,2.746-1.671H198.496z M181.019,105.997h1.676l0.932-4.286h0.053c0.388,0.893,1.479,1.237,2.202,1.237
		c3.193,0,4.763-2.357,5.249-4.581c0.509-2.342-0.238-4.578-2.726-4.578c-1.394,0-2.59,0.396-3.373,1.633h-0.035l0.247-1.375h-1.711
		c-0.076,0.514-0.156,1.03-0.25,1.547L181.019,105.997z M189.366,98.367c-0.353,1.622-1.358,3.396-3.405,3.396
		c-1.87,0-1.958-1.774-1.605-3.396c0.341-1.567,1.338-3.393,3.243-3.393C189.611,94.975,189.719,96.748,189.366,98.367
		 M171.159,104.843h1.2l2.896-4.217h-2.047L171.159,104.843z M173.526,94.047h-1.8l-4.308,6.82l-1.285-6.82h-1.87l1.814,8.611
		l-2.07,3.341h1.711L173.526,94.047z M156.607,94.047h-1.641l-1.882,8.643h1.676l1.023-4.702c0.37-1.688,0.912-2.067,1.209-2.308
		c0.856-0.689,1.764-0.637,1.764-0.637c1.411,0,1.858,0.775,1.547,2.205l-1.185,5.442h1.676l1.303-5.976
		c0.603-2.77-2.097-2.925-2.714-2.925c-0.882,0-2.217,0.445-3.017,1.53h-0.035L156.607,94.047z M148.268,97.354
		c-2.099,0-4.461,0.703-4.987,3.132c-0.368,1.688,1.014,2.463,2.549,2.463c1.217,0,2.308-0.465,3.09-1.547h0.035
		c-0.068,0.396-0.115,0.772-0.168,1.168c-0.026,0.207,0.291,0.121,0.45,0.121h1.129c0.106-0.72,0.244-1.444,0.326-1.823l0.903-4.133
		c0.523-2.414-1.159-2.945-2.976-2.945c-1.747,0-3.411,0.669-3.911,2.563h1.764c0.212-0.896,1.111-1.378,1.958-1.378
		c1.782,0,1.679,0.878,1.353,2.38H148.268z M149.539,98.488c-0.315,1.602-1.05,3.275-3.026,3.275c-0.988,0-1.629-0.534-1.397-1.605
		c0.273-1.257,1.711-1.619,2.746-1.671H149.539z M132.061,105.997h1.676l0.932-4.286h0.053c0.388,0.893,1.476,1.237,2.199,1.237
		c3.193,0,4.766-2.357,5.249-4.581c0.512-2.342-0.235-4.578-2.723-4.578c-1.394,0-2.593,0.396-3.373,1.633h-0.035l0.247-1.375
		h-1.714c-0.076,0.514-0.153,1.03-0.247,1.547L132.061,105.997z M140.406,98.367c-0.35,1.622-1.356,3.396-3.402,3.396
		c-1.87,0-1.958-1.774-1.608-3.396c0.344-1.567,1.341-3.393,3.246-3.393C140.653,94.975,140.759,96.748,140.406,98.367
		 M119.861,94.047h-1.641l-1.882,8.643h1.676l0.967-4.443c0.044-0.207,0.221-1.343,0.512-1.791c0.764-1.154,1.808-1.412,2.496-1.412
		c1.605,0,1.732,1.033,1.406,2.532l-1.111,5.115h1.673l0.97-4.443c0.044-0.207,0.179-1.068,0.579-1.86
		c0.55-1.068,1.741-1.343,2.252-1.343c1.958,0,1.841,1.343,1.582,2.532l-1.111,5.115h1.676l1.326-6.097
		c0.338-1.55-0.641-2.804-2.688-2.804c-1.306,0-2.432,0.548-3.299,1.616c-0.226-1.068-1.094-1.616-2.77-1.616
		c-0.9,0-2.085,0.413-2.849,1.496h-0.035L119.861,94.047z M107.876,98.367c0.4-1.843,1.391-3.393,3.384-3.393
		c1.994,0,2.308,1.55,1.908,3.393c-0.403,1.846-1.394,3.396-3.387,3.396S107.473,100.213,107.876,98.367 M111.519,93.789
		c-2.911,0-4.822,1.892-5.407,4.578c-0.585,2.69,0.5,4.581,3.411,4.581c2.911,0,4.825-1.892,5.41-4.581
		C115.518,95.681,114.43,93.789,111.519,93.789 M104.983,96.817c0.321-1.877-0.838-3.028-2.708-3.028
		c-2.805,0-4.572,2.116-5.125,4.647c-0.553,2.552,0.147,4.512,2.987,4.512c1.958,0,3.699-1.186,4.264-3.132h-1.676
		c-0.356,1.24-1.2,1.946-2.311,1.946c-1.605,0-1.926-1.361-1.482-3.396c0.441-2.032,1.356-3.393,2.961-3.393
		c1.2,0,1.564,0.758,1.414,1.843H104.983z M89.542,95.216h-0.035c-0.285-1.033-1.311-1.427-2.441-1.427
		c-2.752,0-4.458,2.236-4.966,4.578c-0.485,2.225,0.041,4.581,2.67,4.581c1.288,0,2.546-0.431,3.408-1.633h0.035l-0.018,0.086
		l-0.226,1.289h1.711c0.071-0.499,0.132-1.013,0.244-1.53l2.373-10.902h-1.676L89.542,95.216z M83.867,98.35
		c0.353-1.619,1.241-3.427,3.252-3.427c1.905,0,2.099,1.86,1.758,3.427c-0.353,1.622-1.232,3.465-3.261,3.465
		C83.729,101.815,83.515,99.972,83.867,98.35 M78.778,102.69l2.705-12.432h-1.676l-2.705,12.432H78.778z M69.63,97.544
		c0.306-1.415,1.388-2.569,2.782-2.569c1.623,0,2.049,1.119,1.7,2.569H69.63z M75.628,98.677l0.176-0.807
		c0.52-2.397-0.376-4.03-3.011-4.082c-2.805,0-4.572,2.116-5.122,4.647c-0.556,2.552,0.144,4.512,2.985,4.512
		c2.117,0,3.884-0.979,4.575-2.945h-1.764c-0.468,1.26-1.229,1.76-2.535,1.76c-1.711,0-2.005-1.57-1.55-3.086H75.628z
		 M64.902,92.029h1.994l0.385-1.771h-1.994L64.902,92.029z M64.417,102.69l1.882-8.643h-1.676l-1.882,8.643H64.417z M59.106,102.69
		l1.635-7.509h2.047l0.247-1.134h-2.047l0.3-1.381c0.153-0.947,0.753-1.188,1.705-1.188c0.282,0,0.556,0.034,0.835,0.052
		l0.297-1.358C63.734,90.103,63.367,90,62.961,90c-1.253,0-2.826,0.497-3.29,2.391l-0.359,1.656h-1.729l-0.247,1.134h1.729
		l-1.635,7.509H59.106z M48.08,102.69l0.967-4.443c0.103-0.482,0.132-1.102,0.717-1.998c0.473-0.723,1.605-1.223,2.273-1.206
		c1.561,0.034,1.755,1.016,1.423,2.532l-1.111,5.115h1.676l1.273-5.856c0.338-1.55-0.059-3.046-2.37-3.046
		c-1.288,0-2.338,0.445-3.184,1.409h-0.035l1.076-4.94h-1.676l-2.705,12.432H48.08z M38.473,96.404
		c-0.735,3.379,4.96,1.929,4.54,3.861c-0.244,1.119-1.332,1.498-2.32,1.498c-1.023,0-1.641-0.568-1.441-1.636h-1.764
		c-0.453,1.998,0.92,2.822,2.773,2.822c1.817,0,4.075-0.654,4.537-2.77c0.423-1.946-1.267-2.118-2.664-2.601
		c-0.594-0.192-2.094-0.261-1.885-1.226s1.023-1.378,1.923-1.378c0.97,0,1.755,0.362,1.447,1.464h1.764
		c0.55-1.963-1.188-2.649-2.864-2.649C40.914,93.789,38.867,94.596,38.473,96.404 M32.331,91.963l1.003,6.011h-4.746L32.331,91.963z
		 M25.586,102.69l2.082-3.238h5.91l0.67,3.238h1.923l-2.446-12.432h-1.888l-8.068,12.432H25.586z M13.389,94.047h-1.641
		l-1.882,8.643h1.676l1.023-4.702c0.368-1.688,0.909-2.067,1.209-2.308c0.856-0.689,1.761-0.637,1.761-0.637
		c1.411,0,1.861,0.775,1.55,2.205L15.9,102.69h1.676l1.3-5.976c0.606-2.77-2.097-2.925-2.714-2.925c-0.882,0-2.214,0.445-3.014,1.53
		h-0.035L13.389,94.047z M5.047,97.354c-2.099,0-4.458,0.703-4.987,3.132c-0.368,1.688,1.017,2.463,2.552,2.463
		c1.217,0,2.305-0.465,3.087-1.547h0.035c-0.068,0.396-0.115,0.772-0.165,1.168c-0.029,0.207,0.291,0.121,0.45,0.121h1.129
		c0.103-0.72,0.244-1.444,0.326-1.823l0.9-4.133c0.526-2.414-1.159-2.945-2.976-2.945c-1.747,0-3.411,0.669-3.911,2.563h1.764
		c0.212-0.896,1.111-1.378,1.958-1.378c1.782,0,1.679,0.878,1.353,2.38H5.047z M6.317,98.488c-0.315,1.602-1.047,3.275-3.023,3.275
		c-0.988,0-1.632-0.534-1.4-1.605c0.273-1.257,1.711-1.619,2.746-1.671H6.317z"/>
</g>
</svg>
