<?xml version="1.0" encoding="UTF-8"?>
<svg width="142px" height="27px" viewBox="0 0 142 27" version="1.1" xmlns="http://www.w3.org/2000/svg" xmlns:xlink="http://www.w3.org/1999/xlink">
    <!-- Generator: Sketch 52.5 (67469) - http://www.bohemiancoding.com/sketch -->
    <title>Group Copy 2</title>
    <desc>Created with Sketch.</desc>
    <g id="Mobile-UI" stroke="none" stroke-width="1" fill="none" fill-rule="evenodd">
        <g id="Navigation---Mobile" transform="translate(-15.000000, -95.000000)" fill="#FFFFFF">
            <g id="Group-Copy-2" transform="translate(15.200000, 95.244594)">
                <path d="M8.3522854,26.6119522 C3.74164048,26.6119522 0,22.9202092 0,18.3702306 C0,13.8202521 3.74164048,10.128509 8.3522854,10.128509 L28.3946692,10.128509 C29.3297422,10.128509 30.0652611,10.8550153 30.0652611,11.7771195 C30.0652611,12.6998889 29.3297422,13.4263952 28.3946692,13.4263952 L8.3522854,13.4263952 C5.57807808,13.4263952 3.34050966,15.6345219 3.34050966,18.3702306 C3.34050966,21.1066046 5.57807808,23.3147314 8.3522854,23.3147314 L28.3946692,23.3147314 C29.3297422,23.3147314 30.0652611,24.0412377 30.0652611,24.9633418 C30.0652611,25.8861112 29.3297422,26.6119522 28.3946692,26.6119522 L8.3522854,26.6119522" id="Fill-1"></path>
                <path d="M59.8419777,18.3702306 C59.8419777,15.6345219 57.6044092,13.4263952 54.8315503,13.4263952 L36.4577359,13.4263952 L36.4577359,23.3147314 L54.8315503,23.3147314 C57.6044092,23.3147314 59.8419777,21.1066046 59.8419777,18.3702306 Z M34.7878181,0.238842271 C35.7228912,0.238842271 36.4577359,0.964683269 36.4577359,1.88745271 L36.4577359,10.128509 L54.8315503,10.128509 C59.4401727,10.128509 63.1818131,13.8202521 63.1818131,18.3702306 C63.1818131,22.9202092 59.4401727,26.6119522 54.8315503,26.6119522 L33.1179004,26.6119522 L33.1179004,1.88745271 C33.1179004,0.964683269 33.8520709,0.238842271 34.7878181,0.238842271 Z" id="Fill-2"></path>
                <path d="M71.4235348,22.9381722 L70.4561016,22.9381722 L70.4561016,25.2886729 L71.4235348,25.2886729 C72.1361319,25.2886729 72.8062563,24.9320728 72.8062563,24.1130899 C72.8062563,23.3153967 72.1361319,22.9381722 71.4235348,22.9381722 Z M71.1585862,20.3142337 L70.4561016,20.3142337 L70.4561016,22.0779409 L71.1585862,22.0779409 C71.7100568,22.0779409 72.1900654,21.8257926 72.1900654,21.2063994 C72.1900654,20.5763615 71.7100568,20.3142337 71.1585862,20.3142337 Z M71.6358981,26.1489043 L69.4347349,26.1489043 L69.4347349,19.4533371 L71.3278027,19.4533371 C72.2325381,19.4533371 73.2309831,20.0308165 73.2309831,21.2063994 C73.2309831,21.7000512 72.9977204,22.2129965 72.6033313,22.3819824 C73.2309831,22.5596172 73.8586348,23.2528586 73.8586348,24.1130899 C73.8586348,25.498242 72.6876025,26.1489043 71.6358981,26.1489043 Z" id="Fill-3"></path>
                <polygon id="Fill-4" points="75.347201 26.148239 76.3780061 26.148239 76.3780061 19.4533371 75.347201 19.4533371"></polygon>
                <path d="M81.4605696,20.1984717 C80.2066144,20.1984717 78.9101866,21.1325513 78.9101866,22.7918065 C78.9101866,24.4484005 80.2066144,25.3931248 81.4605696,25.3931248 C82.6942997,25.3931248 84.0136494,24.4484005 84.0136494,22.7918065 C84.0136494,21.1325513 82.6942997,20.1984717 81.4605696,20.1984717 Z M81.4605696,26.2746457 C79.6524471,26.2746457 77.8665723,24.9633418 77.8665723,22.7918065 C77.8665723,20.6402302 79.6524471,19.3169508 81.4605696,19.3169508 C83.2686921,19.3169508 85.0559153,20.6402302 85.0559153,22.7918065 C85.0559153,24.9633418 83.2686921,26.2746457 81.4605696,26.2746457 Z" id="Fill-5"></path>
                <path d="M93.0616776,26.1489043 L92.7852682,23.1264518 C92.7421213,22.6753792 92.7003228,22.0978998 92.6800977,21.6055787 L92.6578501,21.6055787 C92.4448126,22.0779409 92.1164921,22.7279378 91.8926678,23.1590514 L90.3191563,26.2007976 L89.9355539,26.2007976 L88.3411431,23.1590514 C88.1072063,22.7179583 87.8200101,22.1198547 87.5860733,21.626203 L87.5651741,21.626203 C87.5436006,22.1398137 87.4896671,22.7279378 87.4586553,23.1264518 L87.1923583,26.1489043 L86.2788587,26.1489043 L86.8626895,19.4533371 L87.501128,19.4533371 L89.3085763,22.8955931 C89.5849857,23.4205139 89.9355539,24.1024451 90.158704,24.6180517 L90.1802774,24.6180517 C90.3933149,24.1024451 90.723658,23.4524482 91.0095058,22.8955931 L92.796729,19.4533371 L93.4344933,19.4533371 L94.0398975,26.1489043 L93.0616776,26.1489043" id="Fill-6"></path>
                <path d="M98.302671,21.9721584 C98.2076131,21.7519445 98.1017685,21.4379234 98.0174973,21.1538408 L97.9952497,21.1538408 C97.9210911,21.4379234 97.8037856,21.7519445 97.7080535,21.9721584 L97.0386033,23.6094587 L98.9741438,23.6094587 L98.302671,21.9721584 Z M100.058208,26.1489043 L99.3240377,24.4164662 L96.6880351,24.4164662 L95.9531904,26.1489043 L94.9432846,26.1489043 L97.8354716,19.3601953 L98.2076131,19.3601953 L101.100474,26.1489043 L100.058208,26.1489043 Z" id="Fill-7"></path>
                <path d="M104.183451,20.3142337 L103.237591,20.3142337 L103.237591,22.3500481 L104.183451,22.3500481 C104.790204,22.3500481 105.353809,22.0360271 105.353809,21.3334715 C105.353809,20.6402302 104.790204,20.3142337 104.183451,20.3142337 Z M106.332029,26.1489043 L104.194912,23.21161 L103.237591,23.21161 L103.237591,26.1489043 L102.216225,26.1489043 L102.216225,19.4533371 L104.365477,19.4533371 C105.321449,19.4533371 106.405514,20.0627508 106.405514,21.3334715 C106.405514,22.2243066 105.874942,22.7918065 105.214256,23.0532689 L107.534073,26.1489043 L106.332029,26.1489043 Z" id="Fill-8"></path>
                <polyline id="Fill-9" points="112.031458 26.1489043 109.362421 23.0113551 109.362421 26.1489043 108.330942 26.1489043 108.330942 19.4533371 109.362421 19.4533371 109.362421 22.6128411 112.04157 19.4533371 113.232828 19.4533371 110.414799 22.7592069 113.297548 26.1489043 112.031458 26.1489043"></polyline>
                <polyline id="Fill-10" points="114.327679 26.1489043 114.327679 19.4533371 117.986397 19.4533371 117.986397 20.3255438 115.358484 20.3255438 115.358484 22.3500481 117.560996 22.3500481 117.560996 23.2202589 115.358484 23.2202589 115.358484 25.2780281 118.357864 25.2780281 118.357864 26.1489043 114.327679 26.1489043"></polyline>
                <polyline id="Fill-11" points="122.057706 20.3255438 122.057706 26.1489043 121.026901 26.1489043 121.026901 20.3255438 118.845963 20.3255438 118.845963 19.4533371 124.237296 19.4533371 124.237296 20.3255438 122.057706 20.3255438"></polyline>
                <polygon id="Fill-12" points="125.35372 26.148239 126.3852 26.148239 126.3852 19.4533371 125.35372 19.4533371"></polygon>
                <path d="M133.914324,26.29527 L130.735615,22.8643241 C130.224595,22.3181137 129.64009,21.6468272 129.171542,21.1012822 L129.150643,21.111927 C129.171542,21.7206754 129.171542,22.2868447 129.171542,22.7918065 L129.171542,26.1489043 L128.139389,26.1489043 L128.139389,19.4533371 L128.85266,19.4533371 L131.76642,22.6021963 C132.159461,23.0313141 132.777,23.7045965 133.19094,24.2075624 L133.212514,24.1975829 C133.19094,23.6833069 133.19094,23.1051622 133.19094,22.6228206 L133.19094,19.4533371 L134.22242,19.4533371 L134.22242,26.29527 L133.914324,26.29527" id="Fill-13"></path>
                <path d="M139.273297,26.2746457 C137.444275,26.2746457 135.551882,25.0677937 135.551882,22.8011207 C135.551882,20.4825543 137.519108,19.3169508 139.209925,19.3169508 C140.146347,19.3169508 140.900742,19.5371647 141.40165,19.8518511 L141.209512,20.7340373 C140.708604,20.419351 140.039828,20.1984717 139.327905,20.1984717 C137.997094,20.1984717 136.594822,21.0593684 136.594822,22.8111002 C136.594822,24.5442035 137.955296,25.3931248 139.338017,25.3931248 C139.964995,25.3931248 140.454442,25.2667181 140.77265,25.0471694 L140.77265,23.6513726 L139.209925,23.6513726 L139.209925,22.833055 L141.751544,22.833055 L141.751544,25.5501353 C141.102993,26.0657419 140.283877,26.2746457 139.273297,26.2746457" id="Fill-14"></path>
                <path d="M74.2988675,10.3806573 C73.9044784,10.1298396 73.2357023,9.9189399 72.5123184,9.9189399 C70.9806054,9.9189399 69.5661979,10.9987199 69.5661979,12.7724065 C69.5661979,14.5367789 70.9603803,15.6172242 72.5123184,15.6172242 C73.2997484,15.6172242 73.9476252,15.4595484 74.4256113,15.1661516 L74.257069,15.8786866 C73.8303197,16.1108759 73.2889616,16.2359521 72.4374856,16.2359521 C70.6199248,16.2359521 68.8448366,14.9246481 68.8448366,12.7724065 C68.8448366,10.6022018 70.6394757,9.31085679 72.4374856,9.31085679 C73.3105351,9.31085679 73.9793112,9.49980165 74.4370722,9.76259468 L74.2988675,10.3806573" id="Fill-15"></path>
                <path d="M78.5306292,11.6081336 C78.4032111,11.3047573 78.2751189,10.9381777 78.1692743,10.5795816 L78.1477009,10.5795816 C78.0411821,10.9381777 77.9036516,11.3047573 77.7769077,11.6081336 L76.9564435,13.6652375 L79.3389583,13.6652375 L78.5306292,11.6081336 Z M80.3596509,16.1215207 L79.584356,14.2427168 L76.7130683,14.2427168 L75.9458635,16.1215207 L75.2460756,16.1215207 L78.0519689,9.28956723 L78.2751189,9.28956723 L81.0823606,16.1215207 L80.3596509,16.1215207 Z" id="Fill-16"></path>
                <path d="M89.0362118,16.1215207 L88.7496898,12.6479956 C88.7058688,12.0698509 88.6640703,11.4724126 88.6438452,10.9062433 L88.6215976,10.9062433 C88.3876608,11.4617678 88.046531,12.1430338 87.7815825,12.6892441 L86.0597537,16.1947035 L85.8258169,16.1947035 L84.091853,12.6892441 C83.8363428,12.165654 83.518809,11.5050123 83.2518379,10.9148922 L83.2302644,10.9148922 C83.2107135,11.4823921 83.1675667,12.1124301 83.1230715,12.6479956 L82.8473362,16.1215207 L82.1987852,16.1215207 L82.7414916,9.42661878 L83.1979043,9.42661878 L85.0700729,13.1835611 C85.36873,13.7816648 85.6876121,14.4423065 85.9525607,15.0610344 L85.9727858,15.0610344 C86.2289702,14.452286 86.5276273,13.8328928 86.8458352,13.1835611 L88.7058688,9.42661878 L89.1636298,9.42661878 L89.7279097,16.1215207 L89.0362118,16.1215207" id="Fill-17"></path>
                <path d="M93.1095437,12.7411374 L91.9506464,12.7411374 L91.9506464,15.512107 L93.1520163,15.512107 C93.9711322,15.512107 94.7039544,15.0091411 94.7039544,14.1269548 C94.7039544,13.256744 93.9711322,12.7411374 93.1095437,12.7411374 Z M92.8007741,10.0347019 L91.9506464,10.0347019 L91.9506464,12.1330543 L92.8331342,12.1330543 C93.4708985,12.1330543 94.0028182,11.7551646 94.0028182,11.0845434 C94.0028182,10.4026121 93.4708985,10.0347019 92.8007741,10.0347019 Z M93.2902211,16.1215207 L91.2373751,16.1215207 L91.2373751,9.42661878 L92.907967,9.42661878 C93.8531526,9.42661878 94.7268762,10.046012 94.7268762,11.0845434 C94.7268762,11.6201089 94.4383317,12.1430338 93.9812448,12.3319787 C94.7464271,12.4903198 95.4273383,13.2454339 95.4273383,14.1269548 C95.4273383,15.3870308 94.3857464,16.1215207 93.2902211,16.1215207 Z" id="Fill-18"></path>
                <path d="M98.6377332,10.0347019 L97.5334436,10.0347019 L97.5334436,12.4470754 L98.6808801,12.4470754 C99.3934772,12.4470754 100.019781,12.0073129 100.019781,11.2408886 C100.019781,10.4871051 99.3934772,10.0347019 98.6377332,10.0347019 Z M100.966315,16.1215207 L98.7011051,13.0564891 L97.5334436,13.0564891 L97.5334436,16.1215207 L96.8194982,16.1215207 L96.8194982,9.42661878 L98.7550387,9.42661878 C99.786518,9.42661878 100.743839,10.09724 100.743839,11.2408886 C100.743839,12.1124301 100.17012,12.7411374 99.4150506,12.9527025 L101.796891,16.1215207 L100.966315,16.1215207 Z" id="Fill-19"></path>
                <polygon id="Fill-20" points="102.81691 16.1215207 103.529507 16.1215207 103.529507 9.42661878 102.81691 9.42661878"></polygon>
                <path d="M107.059458,10.0347019 L106.102137,10.0347019 L106.102137,15.512107 L107.059458,15.512107 C108.845333,15.512107 110.195694,14.5574032 110.195694,12.7724065 C110.195694,10.990071 108.845333,10.0347019 107.059458,10.0347019 Z M107.165303,16.1215207 L105.390214,16.1215207 L105.390214,9.42661878 L107.165303,9.42661878 C109.218149,9.42661878 110.929865,10.642785 110.929865,12.7724065 C110.929865,14.9040239 109.218149,16.1215207 107.165303,16.1215207 Z" id="Fill-21"></path>
                <path d="M115.683434,16.2359521 C113.791714,16.2359521 112.04629,14.913338 112.04629,12.7724065 C112.04629,10.6022018 113.822726,9.31085679 115.640961,9.31085679 C116.533561,9.31085679 117.267732,9.50911583 117.77673,9.82446747 L117.628413,10.4451913 C117.128853,10.1298396 116.44929,9.9189399 115.715794,9.9189399 C114.173294,9.9189399 112.768999,10.9987199 112.768999,12.7837166 C112.768999,14.5474237 114.152395,15.6172242 115.725232,15.6172242 C116.480302,15.6172242 117.128853,15.4069897 117.469309,15.1661516 L117.469309,13.5075617 L115.683434,13.5075617 L115.683434,12.9307476 L118.161007,12.9307476 L118.161007,15.512107 C117.55358,15.9744896 116.714913,16.2359521 115.683434,16.2359521" id="Fill-22"></path>
                <polyline id="Fill-23" points="119.72508 16.1215207 119.72508 9.42661878 123.264469 9.42661878 123.264469 10.0347019 120.436328 10.0347019 120.436328 12.4470754 122.754123 12.4470754 122.754123 13.0564891 120.436328 13.0564891 120.436328 15.512107 123.637285 15.512107 123.637285 16.1215207 119.72508 16.1215207"></polyline>
            </g>
        </g>
    </g>
</svg>