<?xml version="1.0" encoding="UTF-8"?>
<svg width="15px" height="15px" viewBox="0 0 15 15" version="1.1" xmlns="http://www.w3.org/2000/svg" xmlns:xlink="http://www.w3.org/1999/xlink">
    <!-- Generator: Sketch 52.5 (67469) - http://www.bohemiancoding.com/sketch -->
    <title>Group 4</title>
    <desc>Created with Sketch.</desc>
    <g id="Mobile-UI" stroke="none" stroke-width="1" fill="none" fill-rule="evenodd">
        <g id="Navigation---Mobile" transform="translate(-336.000000, -100.000000)" fill="#FFFFFF">
            <g id="Group-4" transform="translate(335.996377, 99.423939)">
                <g id="Group-3">
                    <path d="M-0.348876421,7.17858187 L16.0550794,7.17858187 C16.7095909,7.17858187 17.2401773,7.7091683 17.2401773,8.36367982 L17.2401773,8.36367982 C17.2401773,9.01819135 16.7095909,9.54877778 16.0550794,9.54877778 L-0.348876421,9.54877778 C-1.00338795,9.54877778 -1.53397438,9.01819135 -1.53397438,8.36367982 L-1.53397438,8.36367982 C-1.53397438,7.7091683 -1.00338795,7.17858187 -0.348876421,7.17858187 Z" id="Rectangle-4" transform="translate(7.853101, 8.363680) rotate(-45.000000) translate(-7.853101, -8.363680) "></path>
                    <path d="M-0.348876421,7.17858187 L16.0550794,7.17858187 C16.7095909,7.17858187 17.2401773,7.7091683 17.2401773,8.36367982 L17.2401773,8.36367982 C17.2401773,9.01819135 16.7095909,9.54877778 16.0550794,9.54877778 L-0.348876421,9.54877778 C-1.00338795,9.54877778 -1.53397438,9.01819135 -1.53397438,8.36367982 L-1.53397438,8.36367982 C-1.53397438,7.7091683 -1.00338795,7.17858187 -0.348876421,7.17858187 Z" id="Rectangle-4-Copy-3" transform="translate(7.853101, 8.363680) scale(-1, 1) rotate(-45.000000) translate(-7.853101, -8.363680) "></path>
                </g>
            </g>
        </g>
    </g>
</svg>