<?xml version="1.0" encoding="UTF-8"?>
<svg width="24px" height="24px" viewBox="0 0 24 24" version="1.1" xmlns="http://www.w3.org/2000/svg" xmlns:xlink="http://www.w3.org/1999/xlink">
    <!-- Generator: Sketch 52.5 (67469) - http://www.bohemiancoding.com/sketch -->
    <title>Fill 1</title>
    <desc>Created with Sketch.</desc>
    <g id="Mobile-UI" stroke="none" stroke-width="1" fill="none" fill-rule="evenodd">
        <g id="Navigation---Mobile" transform="translate(-67.000000, -449.000000)" fill="#F6F7F8">
            <g id="Group" transform="translate(67.000000, 449.000000)">
                <path d="M15.0267577,8.14350705 C15.0267577,8.14350705 14.1348552,8.14350705 13.7122726,8.14350705 C13.1884259,8.14350705 13.0793723,8.3539755 13.0793723,8.88443217 C13.0793723,9.32632068 13.0793723,10.0481989 13.0793723,10.0481989 L15.0267577,10.0481989 L14.8232559,11.9528907 L13.0793723,11.9528907 L13.0793723,18.6193121 L10.1582943,18.6193121 L10.1582943,11.9528907 L8.21090895,11.9528907 L8.21090895,10.0481989 L10.1582943,10.0481989 C10.1582943,10.0481989 10.1582943,9.31774956 10.1582943,7.85018451 C10.1582943,6.16548459 11.0648022,5.28646931 13.1076094,5.28646931 C13.441586,5.28646931 15.0267577,5.28646931 15.0267577,5.28646931 L15.0267577,8.14350705 Z M12.1056797,0.52473975 C5.65301828,0.52473975 0.421367522,5.64169434 0.421367522,11.9528907 C0.421367522,18.2640871 5.65301828,23.3810417 12.1056797,23.3810417 C18.558341,23.3810417 23.7899918,18.2640871 23.7899918,11.9528907 C23.7899918,5.64169434 18.558341,0.52473975 12.1056797,0.52473975 Z" id="Fill-1"></path>
            </g>
        </g>
    </g>
</svg>