<?xml version="1.0" encoding="UTF-8"?>
<svg width="316px" height="630px" viewBox="0 0 316 630" version="1.1" xmlns="http://www.w3.org/2000/svg" xmlns:xlink="http://www.w3.org/1999/xlink">
    <!-- Generator: Sketch 52.5 (67469) - http://www.bohemiancoding.com/sketch -->
    <title>Artboard Copy 17</title>
    <desc>Created with Sketch.</desc>
    <defs>
        <path d="M239.888378,18.9175203 C237.066153,18.9175203 234.778297,21.2053766 234.778297,24.0276014 L234.778297,18.9175203 L239.888378,18.9175203 Z M81.4758633,24.0276014 C81.4758633,21.2053766 79.188007,18.9175203 76.3657822,18.9175203 L81.4758633,18.9175203 L81.4758633,24.0276014 Z M81.4758633,18.9175203 L50.8153766,18.9175203 C34.2857242,18.9175203 20.8849015,32.317613 20.8849015,48.8479954 L20.8849015,581.756454 C20.8849015,598.286837 34.2857242,611.686929 50.8153766,611.686929 L264.708772,611.686929 C281.239154,611.686929 294.639247,598.286837 294.639247,581.756454 L294.639247,48.8479954 C294.639247,32.317613 281.239154,18.9175203 264.708772,18.9175203 L234.778297,18.9175203 L234.778297,25.0496176 C234.778297,34.5645886 227.064994,42.2778911 217.550023,42.2778911 L98.7041367,42.2778911 C89.1891657,42.2778911 81.4758633,34.5645886 81.4758633,25.0496176 L81.4758633,18.9175203 Z M7.01468134,69.2883198 L7.01468134,562.046141 L2.63461182,562.046141 L2.63461182,247.411147 L2.1674044,247.411147 C1.2161993,247.411147 0.444577057,246.639525 0.444577057,245.68832 L0.444577057,200.95321 C0.444577057,200.002005 1.2161993,199.230382 2.1674044,199.230382 L2.63461182,199.230382 L2.63461182,186.090174 L2.1674044,186.090174 C1.2161993,186.090174 0.444577057,185.318552 0.444577057,184.367346 L0.444577057,139.632236 C0.444577057,138.681031 1.2161993,137.909409 2.1674044,137.909409 L2.63461182,137.909409 L2.63461182,116.009061 L2.1674044,116.009061 C1.2161993,116.009061 0.444577057,115.237439 0.444577057,114.286234 L0.444577057,92.1814832 C0.444577057,91.2302781 1.2161993,90.4586559 2.1674044,90.4586559 L2.63461182,90.4586559 L2.63461182,69.2883198 L7.01468134,69.2883198 Z M7.01468134,65.6382619 L2.63461182,65.6382619 L2.63461182,49.578007 C2.63461182,22.5653882 24.5327694,0.667230591 51.5453882,0.667230591 L264.708772,0.667230591 C291.72139,0.667230591 313.619548,22.5653882 313.619548,49.578007 L313.619548,65.6382619 L309.239479,65.6382619 L309.239479,49.578007 C309.239479,25.1065585 289.136419,5.04730012 264.60146,5.04730012 L51.6534299,5.04730012 C27.1184705,5.04730012 7.01468134,25.1065585 7.01468134,49.578007 L7.01468134,65.6382619 Z M309.239479,69.2883198 L313.619548,69.2883198 L313.619548,153.239652 L314.086756,153.239652 C315.038691,153.239652 315.809583,154.011275 315.809583,154.96248 L315.809583,228.898053 C315.809583,229.849258 315.038691,230.620881 314.086756,230.620881 L313.619548,230.620881 L313.619548,562.046141 L309.239479,562.046141 L309.239479,69.2883198 Z M309.239479,565.696199 L313.619548,565.696199 L313.619548,581.026443 C313.619548,608.039061 291.72139,629.937219 264.708772,629.937219 L51.5453882,629.937219 C24.5327694,629.937219 2.63461182,608.039061 2.63461182,581.026443 L2.63461182,565.696199 L7.01468134,565.696199 L7.01468134,581.026443 C7.01468134,605.497891 27.1184705,625.557149 51.6534299,625.557149 L264.60146,625.557149 C289.136419,625.557149 309.239479,605.497891 309.239479,581.026443 L309.239479,565.696199 Z M52.2753998,8.69735805 L263.97876,8.69735805 C287.057346,8.69735805 305.589421,27.2009618 305.589421,50.2583778 L305.589421,580.346072 C305.589421,603.403488 287.057346,621.907092 263.97876,621.907092 L52.2753998,621.907092 C29.1975435,621.907092 10.6647393,603.403488 10.6647393,580.346072 L10.6647393,50.2583778 C10.6647393,27.2009618 29.1975435,8.69735805 52.2753998,8.69735805 Z M111.406338,600.736756 L204.847822,600.736756 C206.057451,600.736756 207.037856,601.717161 207.037856,602.92679 C207.037856,604.136419 206.057451,605.116825 204.847822,605.116825 L111.406338,605.116825 C110.197439,605.116825 109.216304,604.136419 109.216304,602.92679 C109.216304,601.717161 110.197439,600.736756 111.406338,600.736756 Z M141.336813,24.757613 C140.127914,24.757613 139.146779,25.7380185 139.146779,26.9476477 C139.146779,28.1572769 140.127914,29.1376825 141.336813,29.1376825 L174.917346,29.1376825 C176.126976,29.1376825 177.107381,28.1572769 177.107381,26.9476477 C177.107381,25.7380185 176.126976,24.757613 174.917346,24.757613 L141.336813,24.757613 Z M190.977601,32.0577289 C193.799826,32.0577289 196.087683,29.7698725 196.087683,26.9476477 C196.087683,24.1254229 193.799826,21.8375666 190.977601,21.8375666 C188.155377,21.8375666 185.86752,24.1254229 185.86752,26.9476477 C185.86752,29.7698725 188.155377,32.0577289 190.977601,32.0577289 Z" id="path-1"></path>
    </defs>
    <g id="Artboard-Copy-17" stroke="none" stroke-width="1" fill="none" fill-rule="evenodd">
        <g id="iphone-x-2">
            <g id="iphone-x-1">
                <rect id="Add-Artowork" fill="#00253D" x="19" y="54" width="278" height="522"></rect>
                <path d="M37.7103129,17 L278.092178,17 C288.978111,17 297.802491,25.8243801 297.802491,36.7103129 L297.802491,54.3072422 L18,54.3072422 L18,36.7103129 C18,25.8243801 26.8251101,17 37.7103129,17 Z" id="Path" fill="#E8E8E8"></path>
                <path d="M37.7103129,576 L278.092178,576 C288.978111,576 297.802491,584.82438 297.802491,595.710313 L297.802491,613.307242 L18,613.307242 L18,595.710313 C18,584.82438 26.8251101,576 37.7103129,576 Z" id="Path-Copy" fill="#E8E8E8" transform="translate(157.901246, 594.653621) rotate(-180.000000) translate(-157.901246, -594.653621) "></path>
                <g id="Group-12">
                    <mask id="mask-2" fill="white">
                        <use xlink:href="#path-1"></use>
                    </mask>
                    <g id="Clip-11"></g>
                    <polygon id="Fill-10" fill="#F6F7F8" mask="url(#mask-2)" points="0.438006952 629.956199 315.890614 629.956199 315.890614 0.627809965 0.438006952 0.627809965"></polygon>
                </g>
            </g>
        </g>
    </g>
</svg>