<?xml version="1.0" encoding="UTF-8"?>
<svg width="76px" height="74px" viewBox="0 0 76 74" version="1.1" xmlns="http://www.w3.org/2000/svg" xmlns:xlink="http://www.w3.org/1999/xlink">
    <!-- Generator: Sketch 52.5 (67469) - http://www.bohemiancoding.com/sketch -->
    <title>Group 6</title>
    <desc>Created with Sketch.</desc>
    <g id="Mobile-UI" stroke="none" stroke-width="1" fill="none" fill-rule="evenodd">
        <g id="Home-Mobile-2" transform="translate(-13.000000, -542.000000)">
            <g id="Group-6" transform="translate(12.000000, 540.000000)">
                <g id="Group-4">
                    <g id="Group-2" transform="translate(0.115234, 0.500000)">
                        <circle id="Oval" cx="38.8164062" cy="38.9941406" r="38"></circle>
                        <text id="WE-ARE-HIRING-•-SEE" font-family="Bariol" font-size="12" font-weight="normal" letter-spacing="2.43000007" fill="#FFFFFF">
                            <tspan x="3.41796875" y="26.384125">WE ARE HIRING • SEE CAREERS •</tspan>
                            <tspan x="238.587971" y="26.384125"> </tspan>
                        </text>
                    </g>
                </g>
                <g id="." transform="translate(25.902344, 19.500000)" fill="#EF3340">
                    <path d="M1.56763424,9.18075621 C2.04348498,9.38782348 2.5973835,9.17001174 2.80453673,8.69407504 C6.63231588,-0.0974737617 19.0026302,-0.263024436 23.1420847,8.28097196 C23.8756306,9.79241695 24.2568441,11.4524794 24.2568441,13.1557775 C24.2568441,13.6748639 24.6775973,14.095703 25.1966837,14.095703 C25.7157702,14.095703 26.1366093,13.6748639 26.1366093,13.1557775 C26.1366093,7.79867454 22.9006351,3.15534772 18.2353037,1.14896982 C11.6912385,-1.66805628 3.97602694,1.28916356 1.08095307,7.94385371 C0.873799841,8.41979041 1.09169754,8.97360297 1.56763424,9.18075621" id="Fill-1"></path>
                    <path d="M19.3508969,13.5758516 C19.3221877,11.5172126 18.2903755,9.57237896 16.5077403,8.40338147 C12.352212,5.67815606 6.78511933,8.67113347 6.78511933,13.662237 C6.78511933,14.1813235 7.20587247,14.6021626 7.72504489,14.6021626 C8.21301538,14.6021626 8.67330815,14.2279974 8.6642828,13.5916674 C8.72350628,12.2975184 9.14941676,11.2640731 10.221886,10.301885 C13.2823386,7.87071401 17.3181306,10.0058535 17.4671778,13.460585 C17.4701003,13.5272006 17.4998409,22.8328505 17.4346865,23.4355718 C17.3660939,24.1678284 16.8919622,24.7417546 16.4296065,25.1123096 C16.4118137,25.1260625 16.393763,25.1393857 16.3756263,25.1526229 C16.3482924,25.1734241 16.3205287,25.1934518 16.2925931,25.2130497 C15.8832721,25.4900849 15.4063899,25.6478996 14.9215998,25.6783279 C14.9149812,25.6786717 14.9083626,25.6791015 14.901658,25.6794453 C14.8557577,25.681938 14.8096854,25.68211 14.7636132,25.6822819 C14.7176269,25.68211 14.6715546,25.681938 14.6256543,25.6794453 C14.6189497,25.6791015 14.6123312,25.6786717 14.6057126,25.6783279 C14.1208365,25.6478996 13.6439543,25.489999 13.2347192,25.2129638 C13.2068695,25.1935378 13.1792778,25.173682 13.1521158,25.1529667 C13.1338072,25.1395576 13.1154986,25.1260625 13.0975339,25.1121377 C12.6352641,24.7416687 12.2690929,24.1871685 12.0925399,23.4355718 C12.092368,23.4335948 12.0911646,23.4319617 12.0909067,23.4300707 C12.0677846,23.3025124 12.0588452,23.1988498 12.0555789,23.118911 L12.0555789,20.9474122 C12.0555789,20.4283258 11.6347398,20.0074867 11.1156534,20.0074867 C10.5966528,20.0074867 10.1758138,20.4283258 10.1758138,20.9474122 C10.1758138,20.8902517 10.1801115,23.029689 10.1821745,23.208219 C10.1973886,23.7038396 10.3935395,24.5357188 10.5731869,24.8718056 C10.7635788,25.3551345 11.3106868,26.0653864 11.7183747,26.407662 C13.714352,28.2821839 17.0968806,27.8174214 18.5961199,25.4998839 C18.7373451,25.2904098 18.8556201,25.0804201 18.9272212,24.8987097 C18.9590249,24.8392284 18.989797,24.760407 19.0195377,24.6704114 C19.2033969,24.1917241 19.3151393,23.6557903 19.3420434,23.0681972 C19.3451379,23.0455049 19.3472008,23.029689 19.3472008,23.029689 L19.3434187,23.0295171 C19.3464272,22.9528446 19.3514126,22.8775474 19.3514126,22.7991558 C19.3514126,17.6093227 19.3517564,13.6397166 19.3508969,13.5758516" id="Fill-4"></path>
                    <path d="M1.87979954,25.8107341 L1.87979954,13.1558204 C1.87979954,12.636734 1.45896045,12.2158949 0.939873986,12.2158949 C0.420787525,12.2158949 3.43822793e-05,12.636734 3.43822793e-05,13.1558204 L3.43822793e-05,25.8107341 C3.43822793e-05,26.3298205 0.420787525,26.7505737 0.939873986,26.7505737 C1.45896045,26.7505737 1.87979954,26.3298205 1.87979954,25.8107341" id="Fill-6"></path>
                    <path d="M25.1967009,24.8708343 C24.6776145,24.8708343 24.2567754,25.2916734 24.2567754,25.8107598 C24.2567754,27.514058 23.8755619,29.1741204 23.1421019,30.6855654 C19.0026474,39.2295618 6.63233307,39.0640111 2.80455392,30.2724623 C2.59731474,29.7965256 2.04350217,29.5786279 1.56765143,29.7857811 C1.09171473,29.9929343 0.873817032,30.5466609 1.08097026,31.0226836 C3.97595818,37.6773738 11.6912557,40.6345936 18.2353209,37.8175675 C22.9006523,35.8111896 26.1366265,31.1678628 26.1366265,25.8107598 C26.1366265,25.2916734 25.7157874,24.8708343 25.1967009,24.8708343" id="Fill-8"></path>
                    <path d="M25.1967009,15.9988481 C24.6776145,15.9988481 24.2567754,16.4196872 24.2567754,16.9387737 L24.2567754,22.0277808 C24.2567754,22.5468673 24.6776145,22.9677064 25.1967009,22.9677064 C25.7157874,22.9677064 26.1366265,22.5468673 26.1366265,22.0277808 L26.1366265,16.9387737 C26.1366265,16.4196872 25.7157874,15.9988481 25.1967009,15.9988481" id="Fill-11"></path>
                    <path d="M14.076406,21.151282 C14.076406,21.6703684 14.4972451,22.0912075 15.0163315,22.0912075 C15.535332,22.0912075 15.9561711,21.6703684 15.9561711,21.151282 L15.9561711,18.0512037 C15.9561711,17.5321173 15.535332,17.1112782 15.0163315,17.1112782 C14.4972451,17.1112782 14.076406,17.5321173 14.076406,18.0512037 L14.076406,21.151282 Z" id="Fill-13"></path>
                    <path d="M10.1775071,17.8340453 C10.1775071,18.3531317 10.5966271,18.7739708 11.1157135,18.7739708 C11.6348,18.7739708 12.0555531,18.3531317 12.0555531,17.8340453 C12.0555531,17.7749078 12.0521149,13.8572189 12.0718847,13.7433276 C12.2267769,12.8389877 13.4360016,12.5857623 13.9299031,13.3864396 C14.1405805,13.7274258 14.0791222,13.9791041 14.0791222,14.8996896 C14.0791222,15.4187761 14.4999613,15.8395293 15.0190477,15.8395293 C15.5380482,15.8395293 15.9588873,15.4187761 15.9588873,14.8996896 C15.9588873,13.9791041 15.9796886,13.7233 15.9005234,13.3358117 C15.6108527,11.903274 14.3063031,10.9464152 12.8966296,11.0298782 C11.718177,11.0995882 10.7337264,11.8679462 10.3482151,12.9356879 C10.1453596,13.4992994 10.177679,13.8544684 10.177679,14.6626238 C10.177679,14.8507809 10.1775071,17.6292128 10.1775071,17.8340453" id="Fill-15"></path>
                    <path d="M4.70726926,30.4262714 C4.83946912,30.6876627 5.38941368,31.5440393 6.14943396,32.3212507 C8.18220027,34.3874538 10.9283989,35.4011293 13.7351962,35.2105656 C14.4319531,35.163204 15.0117243,35.040975 15.1354146,35.0102028 C16.4727993,34.7609313 16.0589226,32.8453226 14.7352908,33.176424 C9.80100393,34.1013073 6.07946602,30.8175417 5.39250808,26.9289919 C5.27870274,26.2876764 5.26563747,26.1897729 5.26787232,23.2255047 C5.26744254,23.2079697 5.27053695,23.1929275 5.26941952,23.1749627 C5.27388922,23.1025021 5.27388922,15.8640868 5.26941952,15.7915402 C5.27053695,15.7736614 5.26744254,15.7585332 5.26787232,15.7410842 C5.26563747,12.77673 5.27870274,12.6789124 5.39250808,12.037511 C6.07946602,8.1489612 9.80100393,4.86519566 14.7352908,5.79016493 C16.0589226,6.12118032 16.4727993,4.20557163 15.1354146,3.95638607 C15.0117243,3.92552797 14.4319531,3.80329897 13.7351962,3.75593738 C10.9283989,3.56537359 8.18220027,4.57904914 6.14943396,6.64525221 C5.38941368,7.42246364 4.83946912,8.27884026 4.70726926,8.54023154 C4.4159654,8.97791795 3.86404386,10.2449049 3.73665751,10.8504628 C3.62405555,11.1835412 3.49984957,11.9627296 3.51033616,11.8961999 C3.39610104,12.6226115 3.39257685,13.0548827 3.39257685,13.7406372 L3.39257685,25.2258657 C3.39257685,25.9117062 3.39610104,26.3438915 3.51033616,27.0703031 C3.49984957,27.0037734 3.62405555,27.7829618 3.73665751,28.1160401 C3.86404386,28.721598 4.4159654,29.988585 4.70726926,30.4262714" id="Fill-17"></path>
                    <path d="M22.6989315,24.3831474 C22.7740568,23.6784826 22.7449178,13.4894661 22.7439723,13.4229364 C22.7439723,11.4159568 22.1271542,9.43760043 20.8801949,7.72235447 C20.6481145,7.40534986 20.3933418,7.10527852 20.3008535,7.00737498 C19.4264262,5.96206773 17.9631163,7.26171789 18.8973688,8.25356069 C21.333955,11.1740774 20.7853857,13.604045 20.8659262,14.9115172 C20.8494227,15.1796989 20.8990192,23.5212697 20.8297389,24.1839881 C20.2928596,29.2253757 14.0410438,31.5211665 10.4098453,27.8018634 C8.35859855,25.7116787 8.70070223,23.2983865 8.66159239,22.7334857 C8.66434297,22.6939461 8.66520253,17.2568184 8.66425701,17.2190838 C8.64938668,16.6321783 8.20052602,16.2724537 7.7250191,16.2724537 C7.20593264,16.2724537 6.78509354,16.6932928 6.78509354,17.2123793 C6.78509354,17.234298 6.78483567,23.0928665 6.78560927,23.1147852 C6.69930975,25.7976344 7.76963011,28.0740851 9.63908059,29.6467306 C14.5892692,33.7663293 22.0290787,30.6650477 22.6989315,24.3831474" id="Fill-19"></path>
                </g>
            </g>
        </g>
    </g>
</svg>