<?xml version="1.0" encoding="UTF-8"?>
<svg width="116px" height="117px" viewBox="0 0 116 117" version="1.1" xmlns="http://www.w3.org/2000/svg" xmlns:xlink="http://www.w3.org/1999/xlink">
    <!-- Generator: Sketch 52.6 (67491) - http://www.bohemiancoding.com/sketch -->
    <title>Artboard Copy 37</title>
    <desc>Created with Sketch.</desc>
    <g id="Artboard-Copy-37" stroke="none" stroke-width="1" fill="none" fill-rule="evenodd">
        <g id="Group-3" transform="translate(0.387695, 0.050781)">
            <g id="Group">
                <circle id="Oval" cx="57.7922918" cy="57.9249017" r="57.1528033"></circle>
                <path d="M79.1246166,109.81793 L73.3494821,102.24769 L74.3027403,111.721444 C74.3415206,112.015763 74.1899607,112.269112 73.9220787,112.374863 C73.6709393,112.474004 73.3704483,112.39911 73.2043364,112.174408 L66.1562682,102.997333 C66.1130879,102.936972 66.0699075,102.876611 66.0434699,102.809641 C65.9178908,102.491531 66.0698889,102.14125 66.3879988,102.015671 C66.7061086,101.890092 66.9828095,102.051785 67.105741,102.216126 L72.9672361,109.907087 L71.9443599,100.306002 C71.9055797,100.011683 72.0804916,99.768467 72.331631,99.6693257 C72.5827704,99.5701843 72.876652,99.6283361 73.0493732,99.8697804 L78.8606405,107.580571 L77.8879922,97.9596571 C77.8655164,97.75566 77.9571534,97.4485596 78.2752632,97.3229805 C78.5933731,97.1974015 78.9436539,97.3493995 79.0692329,97.6675094 C79.0956706,97.7344799 79.1053657,97.8080598 79.1150607,97.8816398 L80.2362394,109.398451 C80.2684102,109.676028 80.1001077,109.935986 79.8489683,110.035127 C79.5810863,110.140878 79.2973379,110.059374 79.1246166,109.81793 Z M93.3908317,102.195916 L88.6360808,105.815988 C88.3639716,106.023161 87.985591,105.971895 87.7784183,105.699786 L81.1816006,97.0352551 C80.9744278,96.7631459 81.0256934,96.3847653 81.2978026,96.1775925 L85.8950166,92.6774628 C86.1384827,92.4920977 86.4916379,92.5399456 86.677003,92.7834118 C86.8623681,93.0268779 86.8145202,93.3800331 86.5710541,93.5653982 L82.4607725,96.6947977 L85.0885957,100.146289 L88.2393342,97.7474457 C88.4828004,97.5620806 88.8359556,97.6099285 89.0213207,97.8533947 C89.2066858,98.0968608 89.1588379,98.450016 88.9153717,98.6353811 L85.7646332,101.034224 L88.4469756,104.557322 L92.7147942,101.307981 C92.9582603,101.122616 93.3114155,101.170464 93.4967806,101.41393 C93.6821457,101.657396 93.6342978,102.010551 93.3908317,102.195916 Z M102.55081,84.3849145 L96.7265558,83.3827725 L100.352801,88.0410753 L102.55081,84.3849145 Z M103.702035,84.6359575 L101.114505,88.9400455 L103.260592,91.7634017 C103.41477,91.9611018 103.482448,92.2328143 103.324785,92.4950706 C103.148573,92.7881805 102.762629,92.8711943 102.484946,92.7042569 C102.423239,92.6671597 102.324525,92.5868128 102.281366,92.5188619 L95.0259359,83.03247 C94.8871853,82.8440442 94.8009588,82.6031853 94.9678962,82.3255022 C95.1255593,82.063246 95.3972718,81.995568 95.6287654,82.0297255 L107.410054,83.98782 C107.505737,84.0033378 107.622999,84.0528311 107.66928,84.080654 C107.946963,84.2475914 108.063952,84.611956 107.869192,84.9359196 C107.711529,85.1981758 107.455243,85.2751281 107.208323,85.2316963 L103.702035,84.6359575 Z M100.423545,75.0756407 L104.868556,76.4204878 L105.739058,73.5432908 C106.103939,72.3372801 105.382531,71.1787265 104.142062,70.8034203 C102.867137,70.417689 101.653715,71.0096617 101.278409,72.2501299 L100.423545,75.0756407 Z M105.936737,76.7436682 L110.502349,78.1250034 C110.829694,78.2240425 111.009937,78.5606622 110.910897,78.8880079 C110.811858,79.2153537 110.475239,79.3955958 110.147893,79.2965567 L99.5866848,76.1012416 C99.259339,76.0022024 99.0790969,75.6655828 99.178136,75.338237 L100.215441,71.9097208 C100.794038,69.9973324 102.658257,69.0568916 104.501731,69.6146383 C106.27629,70.1515347 107.33618,71.8074187 106.859364,73.6941839 L112.017076,71.8131983 C112.146512,71.7583301 112.294767,71.7655734 112.415368,71.8020615 C112.742713,71.9011006 112.922956,72.2377203 112.823916,72.565066 C112.771791,72.7373533 112.645537,72.9060189 112.397092,72.9812977 L106.463208,75.003567 L105.936737,76.7436682 Z M114.563221,59.9411999 L114.194637,65.9058224 C114.173543,66.2471713 113.887404,66.5000043 113.546055,66.4789106 L102.676788,65.8072423 C102.335439,65.7861485 102.082606,65.5000097 102.1037,65.1586608 L102.460073,59.3916614 C102.478946,59.0862439 102.746009,58.8502665 103.051427,58.8691398 C103.356844,58.8880131 103.592821,59.1550761 103.573948,59.4604935 L103.255322,64.6166581 L107.585063,64.8842152 L107.829306,60.9317545 C107.848179,60.6263371 108.115242,60.3903596 108.42066,60.409233 C108.726077,60.4281063 108.962055,60.6951693 108.943181,61.0005867 L108.698938,64.9530473 L113.118508,65.2261554 L113.449346,59.8723678 C113.46822,59.5669504 113.735282,59.3309729 114.0407,59.3498462 C114.346117,59.3687196 114.582095,59.6357825 114.563221,59.9411999 Z M105.745161,40.4945658 L107.730107,46.4357512 L112.64695,44.793037 C112.954253,44.6903674 113.312969,44.855191 113.421342,45.1795661 C113.529716,45.5039412 113.342116,45.8512886 113.034813,45.9539583 L102.43287,49.4960608 C102.125568,49.5987305 101.766852,49.4339068 101.658478,49.1095317 C101.550105,48.7851566 101.737705,48.4378092 102.045007,48.3351395 L106.67162,46.7893911 L104.686674,40.8482057 L100.060061,42.3939541 C99.7527582,42.4966238 99.3940422,42.3318001 99.2856687,42.007425 C99.1772952,41.68305 99.3648951,41.3357025 99.6721978,41.2330328 L110.274141,37.6909303 C110.581443,37.5882607 110.940159,37.7530843 111.048533,38.0774594 C111.156906,38.4018345 110.969306,38.749182 110.662004,38.8518516 L105.745161,40.4945658 Z M97.705064,36.2832974 L107.380513,30.6856755 C107.660961,30.5234256 108.045456,30.61291 108.21672,30.9089382 C108.387984,31.2049664 108.273905,31.5828951 107.993457,31.745145 L98.3180081,37.3427668 C98.0375603,37.5050167 97.6530651,37.4155324 97.4818013,37.1195042 C97.3105375,36.8234759 97.4246162,36.4455473 97.705064,36.2832974 Z M95.1661026,31.2053304 L98.6887236,28.179132 L96.7299053,25.8989858 C95.9088437,24.9432359 94.5441176,24.9291361 93.5610606,25.7736566 C92.5506964,26.641636 92.3979521,27.9830879 93.2424726,28.966145 L95.1661026,31.2053304 Z M99.535245,27.451906 L103.153441,24.3436014 C103.412859,24.1207419 103.793604,24.1496036 104.016464,24.4090215 C104.239323,24.6684393 104.210462,25.0491846 103.951044,25.2720442 L95.5814053,32.4621978 C95.3219875,32.6850574 94.9412422,32.6561956 94.7183826,32.3967778 L92.3842218,29.6797174 C91.0822527,28.1641711 91.2907965,26.0866116 92.7517285,24.8315603 C94.1580462,23.6234268 96.1240835,23.6192858 97.4591321,25.0352241 L98.6441136,19.6746347 C98.6673877,19.5359902 98.7531574,19.4148474 98.8487324,19.3327413 C99.1081502,19.1098817 99.4888955,19.1387435 99.7117551,19.3981613 C99.8290496,19.534697 99.9034593,19.7318041 99.8334521,19.981786 L98.3505704,26.0728955 L99.535245,27.451906 Z M87.120721,23.2783942 L94.1190824,14.5622814 C94.3219334,14.3096404 94.7127796,14.2541132 94.9794562,14.4682338 C95.2461327,14.6823544 95.2763548,15.0759666 95.0735038,15.3286076 L88.0751424,24.0447204 C87.8722913,24.2973613 87.4814451,24.3528885 87.2147686,24.1387679 C86.948092,23.9246474 86.9178699,23.5310351 87.120721,23.2783942 Z M76.5270009,17.590596 C76.2395298,17.4411423 76.1245153,17.0770384 76.273969,16.7895674 L81.4384225,6.8558452 C81.5961791,6.55240353 81.960283,6.43738901 82.2637247,6.59514563 C82.4553721,6.69478139 82.5575927,6.84936128 82.5946602,7.05121767 L83.8074341,18.4542629 L88.0585598,10.2773083 C88.2080135,9.98983722 88.5721174,9.8748227 88.8595884,10.0242763 C89.1470595,10.17373 89.262074,10.5378339 89.1126204,10.825305 L83.9398639,20.7749977 C83.7904102,21.0624688 83.4263063,21.1774833 83.1388353,21.0280297 C82.9471879,20.9283939 82.8456026,20.7335698 82.8238704,20.5802606 L81.5874582,9.14463885 L77.3280295,17.337564 C77.1785759,17.6250351 76.814472,17.7400496 76.5270009,17.590596 Z M70.8942881,3.70012105 C69.2577024,3.34817902 68.054252,3.80742978 67.3183708,4.40405265 L66.769644,6.95571856 L69.7084592,7.58770049 C70.00762,7.65203398 70.2010073,7.95138224 70.1366738,8.25054307 C70.0723403,8.5497039 69.772992,8.74309112 69.4738312,8.67875763 L65.9190966,7.9143244 C65.6375335,7.85377523 65.4265486,7.55064264 65.4908821,7.25148181 L66.1531386,4.17188504 C66.1985504,3.96071269 66.3067845,3.79987302 66.5067913,3.64035727 C67.5634028,2.8365338 68.9995949,2.15116083 71.1289161,2.60906391 C74.5428691,3.34322256 76.2258276,5.61993304 75.2948842,9.94896622 C74.3979997,14.1196201 71.8900587,15.6792074 68.4761057,14.9450487 C66.8043246,14.585538 65.4988731,13.5499337 64.9177624,12.2282203 C64.8562642,12.0861148 64.847559,11.9553623 64.8740493,11.8321784 C64.9421671,11.5154199 65.2415154,11.3220327 65.5582739,11.3901505 C65.7166532,11.4242094 65.8636795,11.5110614 65.9666178,11.7173129 C66.3870763,12.6730716 67.3733089,13.566383 68.7107337,13.8539916 C71.4207789,14.4367773 73.3213182,13.133212 74.0630455,9.68406361 C74.8501846,6.02374287 73.6043332,4.28290678 70.8942881,3.70012105 Z M50.9447642,4.12378274 C52.4199901,3.88768034 53.3748326,4.50048369 53.625158,6.06457869 C53.8925511,7.73531653 53.1766557,8.61551296 51.7014297,8.85161536 C50.2262037,9.08771776 49.2713613,8.47491442 49.0039682,6.80417657 C48.7536428,5.24008157 49.4695382,4.35988514 50.9447642,4.12378274 Z M33.6513193,17.6722337 C34.44991,17.9843378 35.574646,18.2145569 36.8890877,17.4673037 C38.5321397,16.5332374 38.695479,15.3637006 38.1884144,14.4717581 C36.7116999,11.874171 31.4283194,16.3478262 29.2844146,12.5766306 C28.1724309,10.6206162 28.9043537,8.77585147 31.3141633,7.40588743 C33.0980484,6.39175821 34.9440986,6.54319987 36.0543661,7.25786773 C36.1881255,7.34746916 36.2393571,7.40116575 36.2927323,7.49505444 C36.452858,7.7767205 36.3583265,8.12033629 36.0766605,8.28046196 C35.8888831,8.3872124 35.6790267,8.38228242 35.4961793,8.2791765 C34.5328544,7.75014239 33.2427413,7.59323394 31.8657073,8.37607054 C30.1444147,9.35461628 29.5656498,10.5946773 30.3484864,11.9717114 C32.0120142,14.8979088 37.1441649,10.1582357 39.2524862,13.8668389 C40.0709063,15.3064654 39.7252564,17.1386898 37.4406316,18.4374869 C35.9540607,19.2825945 34.3933211,19.341652 33.1756605,18.7294473 C33.0596928,18.6711421 32.9750213,18.5950452 32.9127502,18.4855084 C32.7526246,18.2038423 32.847156,17.8602265 33.128822,17.7001008 C33.2696551,17.620038 33.4371757,17.5869195 33.6513193,17.6722337 Z M17.9792693,17.4042198 L22.3533474,13.3323631 C22.6036711,13.0993351 22.9852646,13.1129897 23.2182925,13.3633135 L30.6383928,21.3341485 C30.8714208,21.5844722 30.8577662,21.9660657 30.6074425,22.1990936 L26.3782887,26.1360394 C26.1543148,26.3445381 25.7981609,26.3317938 25.5896622,26.10782 C25.3811635,25.8838461 25.3939078,25.5276922 25.6178817,25.3191935 L29.3990877,21.7992451 L26.4433122,18.624086 L23.5448268,21.3223043 C23.3208529,21.530803 22.964699,21.5180587 22.7562003,21.2940849 C22.5477016,21.070111 22.5604459,20.7139571 22.7844198,20.5054584 L25.6829052,17.8072401 L22.6658066,14.5662064 L18.7396763,18.2210657 C18.5157024,18.4295644 18.1595485,18.4168201 17.9510498,18.1928462 C17.7425512,17.9688724 17.7552954,17.6127185 17.9792693,17.4042198 Z M9.87632946,27.3954284 L13.2291673,22.4486057 C13.4210466,22.1655044 13.7960313,22.0934871 14.0791326,22.2853663 L23.0936738,28.3952064 C23.3767751,28.5870857 23.4487925,28.9620703 23.2569132,29.2451716 L20.0151634,34.0280935 C19.8434819,34.2813947 19.4934962,34.3486109 19.2401951,34.1769295 C18.9868939,34.005248 18.9196777,33.6552623 19.0913591,33.4019612 L21.9897461,29.1256416 L18.3988296,26.6918045 L16.1770696,29.9698195 C16.0053882,30.2231206 15.6554025,30.2903369 15.4021013,30.1186554 C15.1488002,29.9469739 15.0815839,29.5969883 15.2532654,29.3436871 L17.4750254,26.0656721 L13.8096086,23.5813404 L10.8001337,28.0215608 C10.6284522,28.2748619 10.2784666,28.3420781 10.0251654,28.1703967 C9.77186423,27.9987152 9.70464801,27.6487295 9.87632946,27.3954284 Z M2.35414549,44.9388265 C3.08630124,41.5244434 5.36202402,39.8401495 9.69160259,40.7685532 C13.862782,41.6629909 15.4238402,44.1700165 14.6916844,47.5843996 C14.3331546,49.2563913 13.2983162,50.5624501 11.976944,51.1443361 C11.8348746,51.2059177 11.7041272,51.2146995 11.5809278,51.1882815 C11.2641294,51.1203496 11.0705666,50.8211148 11.1384986,50.5043164 C11.1724645,50.3459171 11.2592303,50.1988399 11.4654214,50.0957806 C12.4209332,49.6747615 13.3174399,48.6704051 13.6004898,47.3504116 C14.1816856,44.6400251 12.8770056,42.7402509 9.42742269,42.0005471 C5.7666408,41.2155554 4.02653589,42.4624278 3.44534009,45.1728144 C3.19625618,46.3344087 3.39344801,47.6469266 4.23185718,48.5446672 C4.38143832,48.7056065 4.39272408,48.9105276 4.36253209,49.0513269 C4.29460011,49.3681253 3.99536535,49.5616881 3.67856692,49.4937561 C3.53776761,49.4635641 3.45731605,49.4094943 3.36681256,49.3164507 C2.40647408,48.3005186 2.00693762,46.5580185 2.35414549,44.9388265 Z M5.87155322,60.6819743 L11.2754659,58.2894953 L5.67580743,56.4204676 L5.87155322,60.6819743 Z M4.77407324,61.1107839 L4.54363832,56.0940735 L1.1928148,54.932603 C0.954931613,54.8534349 0.748054914,54.6647287 0.734014076,54.359051 C0.718321375,54.0174112 0.993629058,53.7344807 1.3172878,53.7196139 C1.38921196,53.7163102 1.51590518,53.7285097 1.58948121,53.761168 L12.8853108,57.6389423 C13.105213,57.7189363 13.3104378,57.8716804 13.3253046,58.1953391 C13.3393454,58.5010168 13.1506392,58.7078935 12.9389964,58.8077099 L2.04622139,63.7046837 C1.95796805,63.7447755 1.83292669,63.768538 1.77898357,63.7710158 C1.45532483,63.7858826 1.15606513,63.5473629 1.13872057,63.1697611 C1.12467973,62.8640834 1.29540489,62.6580326 1.52502877,62.5573903 L4.77407324,61.1107839 Z M12.8038086,67.2660038 L8.35723634,68.6056796 L9.22439084,71.4838872 C9.58786878,72.6903216 10.8298781,73.2560855 12.070782,72.8822225 C13.3461554,72.4979744 14.0292485,71.333411 13.6553855,70.0925071 L12.8038086,67.2660038 Z M7.28868022,68.9276172 L2.72146455,70.3036408 C2.3940038,70.4022991 2.05759403,70.2216656 1.95893573,69.8942049 C1.86027744,69.5667441 2.04091095,69.2303344 2.36837169,69.1316761 L12.9332895,65.9486478 C13.2607502,65.8499896 13.59716,66.0306231 13.6958183,66.3580838 L14.7291341,69.7878043 C15.3055063,71.7008644 14.2731884,73.51582 12.4290674,74.071422 C10.6538854,74.6062538 8.85472855,73.8135657 8.20776014,71.9781726 L4.95270994,76.3991169 C4.87526399,76.516446 4.74777087,76.5924559 4.62712744,76.6288037 C4.29966669,76.727462 3.96325692,76.5468285 3.86459862,76.2193677 C3.8126732,76.0470199 3.82449435,75.8366672 3.98977132,75.6364785 L7.81312696,70.6683296 L7.28868022,68.9276172 Z M9.40509826,87.6964776 L6.40858174,82.5260361 C6.23709435,82.2301374 6.33531385,81.8611483 6.6312126,81.6896609 L16.053252,76.2291413 C16.3491507,76.0576539 16.7181398,76.1558734 16.8896272,76.4517722 L19.7868615,81.4509038 C19.9402976,81.7156554 19.8486261,82.0600452 19.5838746,82.2134812 C19.3191231,82.3669173 18.9747333,82.2752458 18.8212972,82.0104943 L16.230935,77.5408657 L12.4776929,79.7160478 L14.4633364,83.142244 C14.6167724,83.4069955 14.5251009,83.7513853 14.2603494,83.9048214 C13.9955979,84.0582575 13.6512081,83.9665859 13.497772,83.7018344 L11.5121285,80.2756383 L7.68101828,82.4959487 L10.3706626,87.1368871 C10.5240987,87.4016386 10.4324272,87.7460284 10.1676757,87.8994645 C9.90292414,88.0529006 9.55853435,87.9612291 9.40509826,87.6964776 Z M17.3464377,97.8139903 L13.2664382,93.4475066 C13.0329442,93.1976175 13.0458878,92.8159993 13.2957769,92.5825053 L21.2527727,85.1475664 C21.5026619,84.9140724 21.8842801,84.927016 22.117774,85.1769051 L26.0625929,89.3987161 C26.2715085,89.6223011 26.2594279,89.9784781 26.0358429,90.1873938 C25.8122579,90.3963094 25.4560809,90.3842288 25.2471652,90.1606438 L21.7201777,86.3860028 L18.5505314,89.3476892 L21.2541455,92.2411422 C21.4630612,92.4647272 21.4509805,92.8209042 21.2273955,93.0298199 C21.0038105,93.2387355 20.6476335,93.2266548 20.4387179,93.0030698 L17.7351037,90.1096168 L14.4996971,93.132749 L18.1618654,97.0520627 C18.370781,97.2756477 18.3587004,97.6318247 18.1351154,97.8407403 C17.9115304,98.049656 17.5553534,98.0375753 17.3464377,97.8139903 Z M29.0257374,93.7438189 L26.4448111,97.6045902 L28.9438375,99.2751898 C29.9913336,99.9754411 31.3097497,99.6226596 32.0300082,98.545235 C32.7702739,97.437882 32.5572957,96.1046662 31.4798711,95.3844077 L29.0257374,93.7438189 Z M25.8245885,98.5323724 L23.173637,102.497893 C22.9835688,102.782214 22.6090515,102.856623 22.3247311,102.666555 C22.0404107,102.476487 21.9660011,102.10197 22.1560693,101.817649 L28.2882703,92.6445763 C28.4783385,92.3602559 28.8528558,92.2858463 29.1371762,92.4759145 L32.115058,94.466629 C33.7760875,95.5770276 34.1329243,97.6343101 33.0625401,99.2354827 C32.0321703,100.776798 30.1394119,101.308575 28.4732572,100.303008 L28.7708352,105.784937 C28.7856348,105.92474 28.7355345,106.064461 28.6655094,106.169211 C28.4754411,106.453531 28.1009238,106.527941 27.8166035,106.337873 C27.6669612,106.237837 27.542369,106.067941 27.5426982,105.808341 L27.3359757,99.5427351 L25.8245885,98.5323724 Z M42.7534622,102.39293 C42.4750601,101.581975 41.9232801,100.575212 40.5032616,100.055894 C38.7282385,99.406746 37.7305565,100.038511 37.3781619,101.002095 C36.35189,103.808322 43.1809208,104.945 41.6909718,109.019101 C40.9181767,111.132224 39.0377653,111.766984 36.4343981,110.814901 C34.5072302,110.110112 33.4288836,108.604122 33.2559677,107.295098 C33.2378067,107.135129 33.2456311,107.061326 33.2827253,106.959896 C33.3940078,106.655607 33.7172306,106.50549 34.0215203,106.616773 C34.2243801,106.690961 34.3563357,106.854214 34.395942,107.060358 C34.6154186,108.137253 35.3300661,109.222744 36.8177045,109.766792 C38.6772525,110.446852 39.9973852,110.086339 40.541433,108.5987 C41.6975345,105.437469 34.7634036,104.588175 36.2286231,100.581694 C36.7974003,99.0264357 38.4184406,98.1051603 40.886568,99.007785 C42.4925413,99.5951093 43.5469305,100.74735 43.8674509,102.072023 C43.8979767,102.198183 43.8946925,102.311977 43.851416,102.430312 C43.7401335,102.734602 43.4169107,102.884719 43.112621,102.773436 C42.9604762,102.717795 42.8268784,102.611439 42.7534622,102.39293 Z M56.2970143,112.157132 C54.8030143,112.157132 53.9570143,111.401132 53.9570143,109.817132 C53.9570143,108.125132 54.8030143,107.369132 56.2970143,107.369132 C57.7910143,107.369132 58.6370143,108.125132 58.6370143,109.817132 C58.6370143,111.401132 57.7910143,112.157132 56.2970143,112.157132 Z" id="WE-ARE-HIRING-•-SEE" fill="#E4F4FF"></path>
            </g>
            <g id="." transform="translate(41.460914, 34.128134)" fill="#F7323F">
                <path d="M1.8838977,11.0329343 C2.45574929,11.2817765 3.12139445,11.0200222 3.37033996,10.4480673 C7.97035709,-0.117138674 22.8363291,-0.316088485 27.8109008,9.95162244 C28.6924364,11.767995 29.1505581,13.7629678 29.1505581,15.809899 C29.1505581,16.4337089 29.6561964,16.9394505 30.2800063,16.9394505 C30.9038163,16.9394505 31.4095578,16.4337089 31.4095578,15.809899 C31.4095578,9.37202359 27.5207398,3.79192556 21.9141978,1.38076954 C14.0498956,-2.00457946 4.77817328,1.54924677 1.29903071,9.54649204 C1.0500852,10.1184469 1.31194282,10.7839888 1.8838977,11.0329343" id="Fill-1"></path>
                <path d="M23.2548571,16.3147212 C23.220356,13.8407607 21.9803801,11.5035653 19.8381059,10.0987275 C14.8442177,6.82369963 8.15398797,10.4204974 8.15398797,16.4185346 C8.15398797,17.0423445 8.65962625,17.5480861 9.28353947,17.5480861 C9.86995592,17.5480861 10.4231108,17.0984347 10.4122646,16.3337279 C10.4834362,14.7784899 10.9952722,13.5365514 12.2841076,12.380246 C15.9619933,9.45859671 20.811989,12.0244915 20.9911058,16.1762001 C20.9946179,16.2562552 21.0303586,27.4392799 20.9520595,28.1635977 C20.8696286,29.0435839 20.299843,29.7332972 19.744209,30.1786101 C19.7228265,30.1951376 19.7011342,30.2111486 19.6793385,30.2270564 C19.6464901,30.2520542 19.6131252,30.2761224 19.5795537,30.2996741 C19.087654,30.6325999 18.5145628,30.822253 17.9319683,30.8588201 C17.9240145,30.8592333 17.9160606,30.8597498 17.9080035,30.860163 C17.8528429,30.8631586 17.7974758,30.8633652 17.7421087,30.8635718 C17.6868448,30.8633652 17.6314777,30.8631586 17.5763171,30.860163 C17.56826,30.8597498 17.5603061,30.8592333 17.5523523,30.8588201 C16.9696545,30.822253 16.3965634,30.6324967 15.9047669,30.2995708 C15.8712987,30.2762257 15.8381404,30.2523641 15.8054986,30.2274695 C15.7834963,30.2113552 15.7614941,30.1951376 15.739905,30.1784035 C15.1843743,29.7331939 14.7443296,29.0668257 14.5321578,28.1635977 C14.5319512,28.1612218 14.530505,28.1592592 14.5301951,28.1569867 C14.5024083,28.0036941 14.4916654,27.879118 14.4877401,27.7830519 L14.4877401,25.1734626 C14.4877401,24.5496527 13.9819985,24.0439111 13.3581886,24.0439111 C12.734482,24.0439111 12.2287404,24.5496527 12.2287404,25.1734626 C12.2287404,25.1047701 12.2339053,27.6758298 12.2363844,27.8903774 C12.2546679,28.4859873 12.4903914,29.4856946 12.7062819,29.8895854 C12.9350846,30.4704238 13.5925693,31.323966 14.0825064,31.7352943 C16.4811635,33.9879928 20.5461028,33.4294666 22.3478071,30.6443758 C22.5175239,30.3926413 22.6596604,30.140287 22.7457067,29.9219173 C22.7839266,29.8504359 22.8209069,29.7557126 22.8566476,29.6475608 C23.0775997,29.0723004 23.2118856,28.4282443 23.2442175,27.7221068 C23.2479362,27.6948364 23.2504154,27.6758298 23.2504154,27.6758298 L23.2458703,27.6756232 C23.2494857,27.5834823 23.2554769,27.4929943 23.2554769,27.3987875 C23.2554769,21.1619278 23.2558901,16.3914708 23.2548571,16.3147212" id="Fill-4"></path>
                <path d="M2.25904102,31.0179387 L2.25904102,15.8099506 C2.25904102,15.1861407 1.75329944,14.6803992 1.12948952,14.6803992 C0.505679598,14.6803992 4.13187563e-05,15.1861407 4.13187563e-05,15.8099506 L4.13187563e-05,31.0179387 C4.13187563e-05,31.6417486 0.505679598,32.1473869 1.12948952,32.1473869 C1.75329944,32.1473869 2.25904102,31.6417486 2.25904102,31.0179387" id="Fill-6"></path>
                <path d="M30.280027,29.8884182 C29.6562171,29.8884182 29.1504755,30.3941597 29.1504755,31.0179697 C29.1504755,33.0649008 28.6923538,35.0598737 27.8109214,36.8762462 C22.8363498,47.1439571 7.97037775,46.9450073 3.37036062,36.3798014 C3.12131181,35.8078465 2.45576995,35.5459889 1.88391836,35.7949344 C1.31196348,36.0438799 1.05010586,36.7093184 1.29905137,37.2813766 C4.77809064,45.2786219 14.0499162,48.8324481 21.9142184,45.4470991 C27.5207605,43.0359431 31.4095785,37.4558451 31.4095785,31.0179697 C31.4095785,30.3941597 30.9038369,29.8884182 30.280027,29.8884182" id="Fill-8"></path>
                <path d="M30.280027,19.226547 C29.6562171,19.226547 29.1504755,19.7322885 29.1504755,20.3560985 L29.1504755,26.4717909 C29.1504755,27.0956008 29.6562171,27.6013424 30.280027,27.6013424 C30.9038369,27.6013424 31.4095785,27.0956008 31.4095785,26.4717909 L31.4095785,20.3560985 C31.4095785,19.7322885 30.9038369,19.226547 30.280027,19.226547" id="Fill-11"></path>
                <path d="M16.9162603,25.4184621 C16.9162603,26.0422721 17.4220019,26.5480136 18.0458118,26.5480136 C18.6695185,26.5480136 19.17526,26.0422721 19.17526,25.4184621 L19.17526,21.6929565 C19.17526,21.0691466 18.6695185,20.563405 18.0458118,20.563405 C17.4220019,20.563405 16.9162603,21.0691466 16.9162603,21.6929565 L16.9162603,25.4184621 Z" id="Fill-13"></path>
                <path d="M12.2307754,21.4319872 C12.2307754,22.0557971 12.734451,22.5615387 13.3582609,22.5615387 C13.9820709,22.5615387 14.4877091,22.0557971 14.4877091,21.4319872 C14.4877091,21.360919 14.4835773,16.6528533 14.5073355,16.5159849 C14.6934765,15.4291983 16.1466572,15.1248857 16.7402011,16.0870962 C16.9933818,16.496875 16.9195245,16.7993283 16.9195245,17.905638 C16.9195245,18.5294479 17.4252661,19.0350862 18.049076,19.0350862 C18.6727827,19.0350862 19.1785242,18.5294479 19.1785242,17.905638 C19.1785242,16.7993283 19.2035221,16.4919167 19.1083856,16.0262543 C18.7602751,14.3047084 17.1925382,13.1548074 15.4984692,13.2551087 C14.0822688,13.3388824 12.8992095,14.2622533 12.435923,15.5454073 C12.1921423,16.222725 12.230982,16.6495478 12.230982,17.6207451 C12.230982,17.846862 12.2307754,21.1858307 12.2307754,21.4319872" id="Fill-15"></path>
                <path d="M5.65694059,36.5646408 C5.81581121,36.8787667 6.47670471,37.9079136 7.39005582,38.8419241 C9.83292399,41.3249747 13.1331563,42.543155 16.506213,42.3141457 C17.3435376,42.2572292 18.0402751,42.110341 18.1889194,42.0733607 C19.7961157,41.7737997 19.2987412,39.4717252 17.7080723,39.8696248 C11.7783143,40.9810994 7.30597215,37.0348483 6.4804234,32.3618002 C6.34365832,31.5911021 6.32795719,31.473447 6.33064291,27.9111504 C6.33012642,27.8900778 6.33384511,27.8720009 6.33250225,27.8504118 C6.33787369,27.7633325 6.33787369,19.0645981 6.33250225,18.9774155 C6.33384511,18.9559298 6.33012642,18.9377495 6.33064291,18.9167802 C6.32795719,15.3543804 6.34365832,15.2368285 6.4804234,14.4660271 C7.30597215,9.79297908 11.7783143,5.84672797 17.7080723,6.95830581 C19.2987412,7.35610213 19.7961157,5.05402763 18.1889194,4.75456994 C18.0402751,4.71748636 17.3435376,4.57059818 16.506213,4.51368159 C13.1331563,4.28467239 9.83292399,5.50285262 7.39005582,7.98590327 C6.47670471,8.91991376 5.81581121,9.94906068 5.65694059,10.2631865 C5.30686743,10.7891743 4.64359809,12.3117705 4.4905121,13.0394971 C4.35519317,13.4397725 4.20592917,14.3761588 4.21853139,14.296207 C4.08124982,15.169169 4.07701465,15.6886491 4.07701465,16.5127517 L4.07701465,30.3150756 C4.07701465,31.1392815 4.08124982,31.6586583 4.21853139,32.5316203 C4.20592917,32.4516685 4.35519317,33.3880548 4.4905121,33.7883303 C4.64359809,34.5160569 5.30686743,36.038653 5.65694059,36.5646408" id="Fill-17"></path>
                <path d="M27.2783433,29.3023426 C27.3686248,28.4555147 27.3336072,16.2109079 27.3324709,16.1309561 C27.3324709,13.719077 26.5912124,11.3415957 25.0926844,9.28030628 C24.8137828,8.89934735 24.5076108,8.5387379 24.3964634,8.42108274 C23.3456241,7.16488926 21.5870978,8.72673824 22.7098317,9.91868106 C25.6379887,13.4283995 24.9787479,16.3486026 25.0755371,17.9198516 C25.0557041,18.2421379 25.1153064,28.2665847 25.0320491,29.0630037 C24.3868568,35.1214696 16.873764,37.8804263 12.5099869,33.4107698 C10.0449099,30.8988993 10.4560315,27.9987358 10.4090314,27.3198687 C10.4123369,27.2723521 10.4133699,20.7383073 10.4122336,20.6929599 C10.3943632,19.9876488 9.85494688,19.5553513 9.28350848,19.5553513 C8.65969856,19.5553513 8.15395698,20.0610929 8.15395698,20.6849028 C8.15395698,20.7112435 8.15364709,27.751753 8.15457677,27.7780937 C8.05086669,31.0021962 9.33711957,33.7379111 11.5837236,35.627831 C17.5325916,40.5785411 26.4733506,36.8515892 27.2783433,29.3023426" id="Fill-19"></path>
            </g>
        </g>
    </g>
</svg>